G04 #@! TF.GenerationSoftware,KiCad,Pcbnew,(5.1.10)-1*
G04 #@! TF.CreationDate,2023-06-26T10:38:49+08:00*
G04 #@! TF.ProjectId,epaper-breakout,65706170-6572-42d6-9272-65616b6f7574,rev?*
G04 #@! TF.SameCoordinates,Original*
G04 #@! TF.FileFunction,Soldermask,Top*
G04 #@! TF.FilePolarity,Negative*
%FSLAX46Y46*%
G04 Gerber Fmt 4.6, Leading zero omitted, Abs format (unit mm)*
G04 Created by KiCad (PCBNEW (5.1.10)-1) date 2023-06-26 10:38:49*
%MOMM*%
%LPD*%
G01*
G04 APERTURE LIST*
%ADD10O,1.301998X2.101996*%
%ADD11O,1.301998X2.501995*%
%ADD12C,2.302000*%
%ADD13C,1.102000*%
%ADD14C,0.100000*%
%ADD15C,7.102011*%
%ADD16C,0.902000*%
%ADD17O,3.102000X1.002000*%
%ADD18C,0.951986*%
G04 APERTURE END LIST*
G36*
G01*
X92200938Y-34900081D02*
X92200938Y-35200079D01*
G75*
G02*
X92149938Y-35251079I-51000J0D01*
G01*
X91349940Y-35251079D01*
G75*
G02*
X91298940Y-35200079I0J51000D01*
G01*
X91298940Y-34900081D01*
G75*
G02*
X91349940Y-34849081I51000J0D01*
G01*
X92149938Y-34849081D01*
G75*
G02*
X92200938Y-34900081I0J-51000D01*
G01*
G37*
G36*
G01*
X92200938Y-35399953D02*
X92200938Y-35699951D01*
G75*
G02*
X92149938Y-35750951I-51000J0D01*
G01*
X91349940Y-35750951D01*
G75*
G02*
X91298940Y-35699951I0J51000D01*
G01*
X91298940Y-35399953D01*
G75*
G02*
X91349940Y-35348953I51000J0D01*
G01*
X92149938Y-35348953D01*
G75*
G02*
X92200938Y-35399953I0J-51000D01*
G01*
G37*
G36*
G01*
X92200938Y-35900079D02*
X92200938Y-36200077D01*
G75*
G02*
X92149938Y-36251077I-51000J0D01*
G01*
X91349940Y-36251077D01*
G75*
G02*
X91298940Y-36200077I0J51000D01*
G01*
X91298940Y-35900079D01*
G75*
G02*
X91349940Y-35849079I51000J0D01*
G01*
X92149938Y-35849079D01*
G75*
G02*
X92200938Y-35900079I0J-51000D01*
G01*
G37*
G36*
G01*
X92200938Y-36399951D02*
X92200938Y-36699949D01*
G75*
G02*
X92149938Y-36750949I-51000J0D01*
G01*
X91349940Y-36750949D01*
G75*
G02*
X91298940Y-36699949I0J51000D01*
G01*
X91298940Y-36399951D01*
G75*
G02*
X91349940Y-36348951I51000J0D01*
G01*
X92149938Y-36348951D01*
G75*
G02*
X92200938Y-36399951I0J-51000D01*
G01*
G37*
G36*
G01*
X92200938Y-36900077D02*
X92200938Y-37200075D01*
G75*
G02*
X92149938Y-37251075I-51000J0D01*
G01*
X91349940Y-37251075D01*
G75*
G02*
X91298940Y-37200075I0J51000D01*
G01*
X91298940Y-36900077D01*
G75*
G02*
X91349940Y-36849077I51000J0D01*
G01*
X92149938Y-36849077D01*
G75*
G02*
X92200938Y-36900077I0J-51000D01*
G01*
G37*
G36*
G01*
X92200938Y-37399949D02*
X92200938Y-37699947D01*
G75*
G02*
X92149938Y-37750947I-51000J0D01*
G01*
X91349940Y-37750947D01*
G75*
G02*
X91298940Y-37699947I0J51000D01*
G01*
X91298940Y-37399949D01*
G75*
G02*
X91349940Y-37348949I51000J0D01*
G01*
X92149938Y-37348949D01*
G75*
G02*
X92200938Y-37399949I0J-51000D01*
G01*
G37*
G36*
G01*
X92200938Y-37900075D02*
X92200938Y-38200073D01*
G75*
G02*
X92149938Y-38251073I-51000J0D01*
G01*
X91349940Y-38251073D01*
G75*
G02*
X91298940Y-38200073I0J51000D01*
G01*
X91298940Y-37900075D01*
G75*
G02*
X91349940Y-37849075I51000J0D01*
G01*
X92149938Y-37849075D01*
G75*
G02*
X92200938Y-37900075I0J-51000D01*
G01*
G37*
G36*
G01*
X92200938Y-38399947D02*
X92200938Y-38699945D01*
G75*
G02*
X92149938Y-38750945I-51000J0D01*
G01*
X91349940Y-38750945D01*
G75*
G02*
X91298940Y-38699945I0J51000D01*
G01*
X91298940Y-38399947D01*
G75*
G02*
X91349940Y-38348947I51000J0D01*
G01*
X92149938Y-38348947D01*
G75*
G02*
X92200938Y-38399947I0J-51000D01*
G01*
G37*
G36*
G01*
X92200938Y-38900073D02*
X92200938Y-39200071D01*
G75*
G02*
X92149938Y-39251071I-51000J0D01*
G01*
X91349940Y-39251071D01*
G75*
G02*
X91298940Y-39200071I0J51000D01*
G01*
X91298940Y-38900073D01*
G75*
G02*
X91349940Y-38849073I51000J0D01*
G01*
X92149938Y-38849073D01*
G75*
G02*
X92200938Y-38900073I0J-51000D01*
G01*
G37*
G36*
G01*
X92200938Y-39399945D02*
X92200938Y-39699943D01*
G75*
G02*
X92149938Y-39750943I-51000J0D01*
G01*
X91349940Y-39750943D01*
G75*
G02*
X91298940Y-39699943I0J51000D01*
G01*
X91298940Y-39399945D01*
G75*
G02*
X91349940Y-39348945I51000J0D01*
G01*
X92149938Y-39348945D01*
G75*
G02*
X92200938Y-39399945I0J-51000D01*
G01*
G37*
G36*
G01*
X92200938Y-39900071D02*
X92200938Y-40200069D01*
G75*
G02*
X92149938Y-40251069I-51000J0D01*
G01*
X91349940Y-40251069D01*
G75*
G02*
X91298940Y-40200069I0J51000D01*
G01*
X91298940Y-39900071D01*
G75*
G02*
X91349940Y-39849071I51000J0D01*
G01*
X92149938Y-39849071D01*
G75*
G02*
X92200938Y-39900071I0J-51000D01*
G01*
G37*
G36*
G01*
X92200938Y-40399943D02*
X92200938Y-40699941D01*
G75*
G02*
X92149938Y-40750941I-51000J0D01*
G01*
X91349940Y-40750941D01*
G75*
G02*
X91298940Y-40699941I0J51000D01*
G01*
X91298940Y-40399943D01*
G75*
G02*
X91349940Y-40348943I51000J0D01*
G01*
X92149938Y-40348943D01*
G75*
G02*
X92200938Y-40399943I0J-51000D01*
G01*
G37*
G36*
G01*
X92200938Y-40900069D02*
X92200938Y-41200067D01*
G75*
G02*
X92149938Y-41251067I-51000J0D01*
G01*
X91349940Y-41251067D01*
G75*
G02*
X91298940Y-41200067I0J51000D01*
G01*
X91298940Y-40900069D01*
G75*
G02*
X91349940Y-40849069I51000J0D01*
G01*
X92149938Y-40849069D01*
G75*
G02*
X92200938Y-40900069I0J-51000D01*
G01*
G37*
G36*
G01*
X92200938Y-41399941D02*
X92200938Y-41699939D01*
G75*
G02*
X92149938Y-41750939I-51000J0D01*
G01*
X91349940Y-41750939D01*
G75*
G02*
X91298940Y-41699939I0J51000D01*
G01*
X91298940Y-41399941D01*
G75*
G02*
X91349940Y-41348941I51000J0D01*
G01*
X92149938Y-41348941D01*
G75*
G02*
X92200938Y-41399941I0J-51000D01*
G01*
G37*
G36*
G01*
X92200938Y-41900067D02*
X92200938Y-42200065D01*
G75*
G02*
X92149938Y-42251065I-51000J0D01*
G01*
X91349940Y-42251065D01*
G75*
G02*
X91298940Y-42200065I0J51000D01*
G01*
X91298940Y-41900067D01*
G75*
G02*
X91349940Y-41849067I51000J0D01*
G01*
X92149938Y-41849067D01*
G75*
G02*
X92200938Y-41900067I0J-51000D01*
G01*
G37*
G36*
G01*
X92200938Y-42399939D02*
X92200938Y-42699937D01*
G75*
G02*
X92149938Y-42750937I-51000J0D01*
G01*
X91349940Y-42750937D01*
G75*
G02*
X91298940Y-42699937I0J51000D01*
G01*
X91298940Y-42399939D01*
G75*
G02*
X91349940Y-42348939I51000J0D01*
G01*
X92149938Y-42348939D01*
G75*
G02*
X92200938Y-42399939I0J-51000D01*
G01*
G37*
G36*
G01*
X92200938Y-42900065D02*
X92200938Y-43200063D01*
G75*
G02*
X92149938Y-43251063I-51000J0D01*
G01*
X91349940Y-43251063D01*
G75*
G02*
X91298940Y-43200063I0J51000D01*
G01*
X91298940Y-42900065D01*
G75*
G02*
X91349940Y-42849065I51000J0D01*
G01*
X92149938Y-42849065D01*
G75*
G02*
X92200938Y-42900065I0J-51000D01*
G01*
G37*
G36*
G01*
X92200938Y-43399937D02*
X92200938Y-43699935D01*
G75*
G02*
X92149938Y-43750935I-51000J0D01*
G01*
X91349940Y-43750935D01*
G75*
G02*
X91298940Y-43699935I0J51000D01*
G01*
X91298940Y-43399937D01*
G75*
G02*
X91349940Y-43348937I51000J0D01*
G01*
X92149938Y-43348937D01*
G75*
G02*
X92200938Y-43399937I0J-51000D01*
G01*
G37*
G36*
G01*
X92200938Y-43900063D02*
X92200938Y-44200061D01*
G75*
G02*
X92149938Y-44251061I-51000J0D01*
G01*
X91349940Y-44251061D01*
G75*
G02*
X91298940Y-44200061I0J51000D01*
G01*
X91298940Y-43900063D01*
G75*
G02*
X91349940Y-43849063I51000J0D01*
G01*
X92149938Y-43849063D01*
G75*
G02*
X92200938Y-43900063I0J-51000D01*
G01*
G37*
G36*
G01*
X92200938Y-44399935D02*
X92200938Y-44699933D01*
G75*
G02*
X92149938Y-44750933I-51000J0D01*
G01*
X91349940Y-44750933D01*
G75*
G02*
X91298940Y-44699933I0J51000D01*
G01*
X91298940Y-44399935D01*
G75*
G02*
X91349940Y-44348935I51000J0D01*
G01*
X92149938Y-44348935D01*
G75*
G02*
X92200938Y-44399935I0J-51000D01*
G01*
G37*
G36*
G01*
X92200938Y-44900061D02*
X92200938Y-45200059D01*
G75*
G02*
X92149938Y-45251059I-51000J0D01*
G01*
X91349940Y-45251059D01*
G75*
G02*
X91298940Y-45200059I0J51000D01*
G01*
X91298940Y-44900061D01*
G75*
G02*
X91349940Y-44849061I51000J0D01*
G01*
X92149938Y-44849061D01*
G75*
G02*
X92200938Y-44900061I0J-51000D01*
G01*
G37*
G36*
G01*
X92200938Y-45399933D02*
X92200938Y-45699931D01*
G75*
G02*
X92149938Y-45750931I-51000J0D01*
G01*
X91349940Y-45750931D01*
G75*
G02*
X91298940Y-45699931I0J51000D01*
G01*
X91298940Y-45399933D01*
G75*
G02*
X91349940Y-45348933I51000J0D01*
G01*
X92149938Y-45348933D01*
G75*
G02*
X92200938Y-45399933I0J-51000D01*
G01*
G37*
G36*
G01*
X92200938Y-45900059D02*
X92200938Y-46200057D01*
G75*
G02*
X92149938Y-46251057I-51000J0D01*
G01*
X91349940Y-46251057D01*
G75*
G02*
X91298940Y-46200057I0J51000D01*
G01*
X91298940Y-45900059D01*
G75*
G02*
X91349940Y-45849059I51000J0D01*
G01*
X92149938Y-45849059D01*
G75*
G02*
X92200938Y-45900059I0J-51000D01*
G01*
G37*
G36*
G01*
X92200938Y-46399931D02*
X92200938Y-46699929D01*
G75*
G02*
X92149938Y-46750929I-51000J0D01*
G01*
X91349940Y-46750929D01*
G75*
G02*
X91298940Y-46699929I0J51000D01*
G01*
X91298940Y-46399931D01*
G75*
G02*
X91349940Y-46348931I51000J0D01*
G01*
X92149938Y-46348931D01*
G75*
G02*
X92200938Y-46399931I0J-51000D01*
G01*
G37*
G36*
G01*
X92200938Y-46900057D02*
X92200938Y-47200055D01*
G75*
G02*
X92149938Y-47251055I-51000J0D01*
G01*
X91349940Y-47251055D01*
G75*
G02*
X91298940Y-47200055I0J51000D01*
G01*
X91298940Y-46900057D01*
G75*
G02*
X91349940Y-46849057I51000J0D01*
G01*
X92149938Y-46849057D01*
G75*
G02*
X92200938Y-46900057I0J-51000D01*
G01*
G37*
G36*
G01*
X92200938Y-47399929D02*
X92200938Y-47699927D01*
G75*
G02*
X92149938Y-47750927I-51000J0D01*
G01*
X91349940Y-47750927D01*
G75*
G02*
X91298940Y-47699927I0J51000D01*
G01*
X91298940Y-47399929D01*
G75*
G02*
X91349940Y-47348929I51000J0D01*
G01*
X92149938Y-47348929D01*
G75*
G02*
X92200938Y-47399929I0J-51000D01*
G01*
G37*
G36*
G01*
X92200938Y-47900055D02*
X92200938Y-48200053D01*
G75*
G02*
X92149938Y-48251053I-51000J0D01*
G01*
X91349940Y-48251053D01*
G75*
G02*
X91298940Y-48200053I0J51000D01*
G01*
X91298940Y-47900055D01*
G75*
G02*
X91349940Y-47849055I51000J0D01*
G01*
X92149938Y-47849055D01*
G75*
G02*
X92200938Y-47900055I0J-51000D01*
G01*
G37*
G36*
G01*
X92200938Y-48399927D02*
X92200938Y-48699925D01*
G75*
G02*
X92149938Y-48750925I-51000J0D01*
G01*
X91349940Y-48750925D01*
G75*
G02*
X91298940Y-48699925I0J51000D01*
G01*
X91298940Y-48399927D01*
G75*
G02*
X91349940Y-48348927I51000J0D01*
G01*
X92149938Y-48348927D01*
G75*
G02*
X92200938Y-48399927I0J-51000D01*
G01*
G37*
G36*
G01*
X92200938Y-48900053D02*
X92200938Y-49200051D01*
G75*
G02*
X92149938Y-49251051I-51000J0D01*
G01*
X91349940Y-49251051D01*
G75*
G02*
X91298940Y-49200051I0J51000D01*
G01*
X91298940Y-48900053D01*
G75*
G02*
X91349940Y-48849053I51000J0D01*
G01*
X92149938Y-48849053D01*
G75*
G02*
X92200938Y-48900053I0J-51000D01*
G01*
G37*
G36*
G01*
X92200938Y-49399925D02*
X92200938Y-49699923D01*
G75*
G02*
X92149938Y-49750923I-51000J0D01*
G01*
X91349940Y-49750923D01*
G75*
G02*
X91298940Y-49699923I0J51000D01*
G01*
X91298940Y-49399925D01*
G75*
G02*
X91349940Y-49348925I51000J0D01*
G01*
X92149938Y-49348925D01*
G75*
G02*
X92200938Y-49399925I0J-51000D01*
G01*
G37*
G36*
G01*
X92200938Y-49900051D02*
X92200938Y-50200049D01*
G75*
G02*
X92149938Y-50251049I-51000J0D01*
G01*
X91349940Y-50251049D01*
G75*
G02*
X91298940Y-50200049I0J51000D01*
G01*
X91298940Y-49900051D01*
G75*
G02*
X91349940Y-49849051I51000J0D01*
G01*
X92149938Y-49849051D01*
G75*
G02*
X92200938Y-49900051I0J-51000D01*
G01*
G37*
G36*
G01*
X92200938Y-50399923D02*
X92200938Y-50699921D01*
G75*
G02*
X92149938Y-50750921I-51000J0D01*
G01*
X91349940Y-50750921D01*
G75*
G02*
X91298940Y-50699921I0J51000D01*
G01*
X91298940Y-50399923D01*
G75*
G02*
X91349940Y-50348923I51000J0D01*
G01*
X92149938Y-50348923D01*
G75*
G02*
X92200938Y-50399923I0J-51000D01*
G01*
G37*
G36*
G01*
X92200938Y-50900049D02*
X92200938Y-51200047D01*
G75*
G02*
X92149938Y-51251047I-51000J0D01*
G01*
X91349940Y-51251047D01*
G75*
G02*
X91298940Y-51200047I0J51000D01*
G01*
X91298940Y-50900049D01*
G75*
G02*
X91349940Y-50849049I51000J0D01*
G01*
X92149938Y-50849049D01*
G75*
G02*
X92200938Y-50900049I0J-51000D01*
G01*
G37*
G36*
G01*
X92200938Y-51399921D02*
X92200938Y-51699919D01*
G75*
G02*
X92149938Y-51750919I-51000J0D01*
G01*
X91349940Y-51750919D01*
G75*
G02*
X91298940Y-51699919I0J51000D01*
G01*
X91298940Y-51399921D01*
G75*
G02*
X91349940Y-51348921I51000J0D01*
G01*
X92149938Y-51348921D01*
G75*
G02*
X92200938Y-51399921I0J-51000D01*
G01*
G37*
G36*
G01*
X94701060Y-52349919D02*
X94701060Y-52749917D01*
G75*
G02*
X94650060Y-52800917I-51000J0D01*
G01*
X93850062Y-52800917D01*
G75*
G02*
X93799062Y-52749917I0J51000D01*
G01*
X93799062Y-52349919D01*
G75*
G02*
X93850062Y-52298919I51000J0D01*
G01*
X94650060Y-52298919D01*
G75*
G02*
X94701060Y-52349919I0J-51000D01*
G01*
G37*
G36*
G01*
X94701060Y-33850083D02*
X94701060Y-34250081D01*
G75*
G02*
X94650060Y-34301081I-51000J0D01*
G01*
X93850062Y-34301081D01*
G75*
G02*
X93799062Y-34250081I0J51000D01*
G01*
X93799062Y-33850083D01*
G75*
G02*
X93850062Y-33799083I51000J0D01*
G01*
X94650060Y-33799083D01*
G75*
G02*
X94701060Y-33850083I0J-51000D01*
G01*
G37*
D10*
X78070004Y-28500048D03*
X66829996Y-28500048D03*
D11*
X66829996Y-24500056D03*
X78070004Y-24500056D03*
G36*
G01*
X69300993Y-29099945D02*
X69300993Y-30299943D01*
G75*
G02*
X69249993Y-30350943I-51000J0D01*
G01*
X68949995Y-30350943D01*
G75*
G02*
X68898995Y-30299943I0J51000D01*
G01*
X68898995Y-29099945D01*
G75*
G02*
X68949995Y-29048945I51000J0D01*
G01*
X69249993Y-29048945D01*
G75*
G02*
X69300993Y-29099945I0J-51000D01*
G01*
G37*
G36*
G01*
X69600967Y-29099945D02*
X69600967Y-30299943D01*
G75*
G02*
X69549967Y-30350943I-51000J0D01*
G01*
X69249969Y-30350943D01*
G75*
G02*
X69198969Y-30299943I0J51000D01*
G01*
X69198969Y-29099945D01*
G75*
G02*
X69249969Y-29048945I51000J0D01*
G01*
X69549967Y-29048945D01*
G75*
G02*
X69600967Y-29099945I0J-51000D01*
G01*
G37*
G36*
G01*
X70100839Y-29099945D02*
X70100839Y-30299943D01*
G75*
G02*
X70049839Y-30350943I-51000J0D01*
G01*
X69749841Y-30350943D01*
G75*
G02*
X69698841Y-30299943I0J51000D01*
G01*
X69698841Y-29099945D01*
G75*
G02*
X69749841Y-29048945I51000J0D01*
G01*
X70049839Y-29048945D01*
G75*
G02*
X70100839Y-29099945I0J-51000D01*
G01*
G37*
G36*
G01*
X70401067Y-29099945D02*
X70401067Y-30299943D01*
G75*
G02*
X70350067Y-30350943I-51000J0D01*
G01*
X70050069Y-30350943D01*
G75*
G02*
X69999069Y-30299943I0J51000D01*
G01*
X69999069Y-29099945D01*
G75*
G02*
X70050069Y-29048945I51000J0D01*
G01*
X70350067Y-29048945D01*
G75*
G02*
X70401067Y-29099945I0J-51000D01*
G01*
G37*
G36*
G01*
X70900939Y-29099945D02*
X70900939Y-30299943D01*
G75*
G02*
X70849939Y-30350943I-51000J0D01*
G01*
X70549941Y-30350943D01*
G75*
G02*
X70498941Y-30299943I0J51000D01*
G01*
X70498941Y-29099945D01*
G75*
G02*
X70549941Y-29048945I51000J0D01*
G01*
X70849939Y-29048945D01*
G75*
G02*
X70900939Y-29099945I0J-51000D01*
G01*
G37*
G36*
G01*
X71401319Y-29099945D02*
X71401319Y-30299943D01*
G75*
G02*
X71350319Y-30350943I-51000J0D01*
G01*
X71050321Y-30350943D01*
G75*
G02*
X70999321Y-30299943I0J51000D01*
G01*
X70999321Y-29099945D01*
G75*
G02*
X71050321Y-29048945I51000J0D01*
G01*
X71350319Y-29048945D01*
G75*
G02*
X71401319Y-29099945I0J-51000D01*
G01*
G37*
G36*
G01*
X71900937Y-29099945D02*
X71900937Y-30299943D01*
G75*
G02*
X71849937Y-30350943I-51000J0D01*
G01*
X71549939Y-30350943D01*
G75*
G02*
X71498939Y-30299943I0J51000D01*
G01*
X71498939Y-29099945D01*
G75*
G02*
X71549939Y-29048945I51000J0D01*
G01*
X71849937Y-29048945D01*
G75*
G02*
X71900937Y-29099945I0J-51000D01*
G01*
G37*
G36*
G01*
X72401063Y-29099945D02*
X72401063Y-30299943D01*
G75*
G02*
X72350063Y-30350943I-51000J0D01*
G01*
X72050065Y-30350943D01*
G75*
G02*
X71999065Y-30299943I0J51000D01*
G01*
X71999065Y-29099945D01*
G75*
G02*
X72050065Y-29048945I51000J0D01*
G01*
X72350063Y-29048945D01*
G75*
G02*
X72401063Y-29099945I0J-51000D01*
G01*
G37*
G36*
G01*
X72900935Y-29099945D02*
X72900935Y-30299943D01*
G75*
G02*
X72849935Y-30350943I-51000J0D01*
G01*
X72549937Y-30350943D01*
G75*
G02*
X72498937Y-30299943I0J51000D01*
G01*
X72498937Y-29099945D01*
G75*
G02*
X72549937Y-29048945I51000J0D01*
G01*
X72849935Y-29048945D01*
G75*
G02*
X72900935Y-29099945I0J-51000D01*
G01*
G37*
G36*
G01*
X73401061Y-29099945D02*
X73401061Y-30299943D01*
G75*
G02*
X73350061Y-30350943I-51000J0D01*
G01*
X73050063Y-30350943D01*
G75*
G02*
X72999063Y-30299943I0J51000D01*
G01*
X72999063Y-29099945D01*
G75*
G02*
X73050063Y-29048945I51000J0D01*
G01*
X73350061Y-29048945D01*
G75*
G02*
X73401061Y-29099945I0J-51000D01*
G01*
G37*
G36*
G01*
X73900933Y-29099945D02*
X73900933Y-30299943D01*
G75*
G02*
X73849933Y-30350943I-51000J0D01*
G01*
X73549935Y-30350943D01*
G75*
G02*
X73498935Y-30299943I0J51000D01*
G01*
X73498935Y-29099945D01*
G75*
G02*
X73549935Y-29048945I51000J0D01*
G01*
X73849933Y-29048945D01*
G75*
G02*
X73900933Y-29099945I0J-51000D01*
G01*
G37*
G36*
G01*
X74401059Y-29099945D02*
X74401059Y-30299943D01*
G75*
G02*
X74350059Y-30350943I-51000J0D01*
G01*
X74050061Y-30350943D01*
G75*
G02*
X73999061Y-30299943I0J51000D01*
G01*
X73999061Y-29099945D01*
G75*
G02*
X74050061Y-29048945I51000J0D01*
G01*
X74350059Y-29048945D01*
G75*
G02*
X74401059Y-29099945I0J-51000D01*
G01*
G37*
G36*
G01*
X74900931Y-29099945D02*
X74900931Y-30299943D01*
G75*
G02*
X74849931Y-30350943I-51000J0D01*
G01*
X74549933Y-30350943D01*
G75*
G02*
X74498933Y-30299943I0J51000D01*
G01*
X74498933Y-29099945D01*
G75*
G02*
X74549933Y-29048945I51000J0D01*
G01*
X74849931Y-29048945D01*
G75*
G02*
X74900931Y-29099945I0J-51000D01*
G01*
G37*
G36*
G01*
X75200905Y-29099945D02*
X75200905Y-30299943D01*
G75*
G02*
X75149905Y-30350943I-51000J0D01*
G01*
X74849907Y-30350943D01*
G75*
G02*
X74798907Y-30299943I0J51000D01*
G01*
X74798907Y-29099945D01*
G75*
G02*
X74849907Y-29048945I51000J0D01*
G01*
X75149905Y-29048945D01*
G75*
G02*
X75200905Y-29099945I0J-51000D01*
G01*
G37*
G36*
G01*
X75701031Y-29099945D02*
X75701031Y-30299943D01*
G75*
G02*
X75650031Y-30350943I-51000J0D01*
G01*
X75350033Y-30350943D01*
G75*
G02*
X75299033Y-30299943I0J51000D01*
G01*
X75299033Y-29099945D01*
G75*
G02*
X75350033Y-29048945I51000J0D01*
G01*
X75650031Y-29048945D01*
G75*
G02*
X75701031Y-29099945I0J-51000D01*
G01*
G37*
G36*
G01*
X76001005Y-29099945D02*
X76001005Y-30299943D01*
G75*
G02*
X75950005Y-30350943I-51000J0D01*
G01*
X75650007Y-30350943D01*
G75*
G02*
X75599007Y-30299943I0J51000D01*
G01*
X75599007Y-29099945D01*
G75*
G02*
X75650007Y-29048945I51000J0D01*
G01*
X75950005Y-29048945D01*
G75*
G02*
X76001005Y-29099945I0J-51000D01*
G01*
G37*
D12*
X84000000Y-27000000D03*
X50000000Y-27000000D03*
D13*
X104550000Y-38025000D03*
G36*
G01*
X49800000Y-85249000D02*
X50050000Y-85249000D01*
G75*
G02*
X50101000Y-85300000I0J-51000D01*
G01*
X50101000Y-85850000D01*
G75*
G02*
X50050000Y-85901000I-51000J0D01*
G01*
X49800000Y-85901000D01*
G75*
G02*
X49749000Y-85850000I0J51000D01*
G01*
X49749000Y-85300000D01*
G75*
G02*
X49800000Y-85249000I51000J0D01*
G01*
G37*
G36*
G01*
X49300000Y-85249000D02*
X49550000Y-85249000D01*
G75*
G02*
X49601000Y-85300000I0J-51000D01*
G01*
X49601000Y-85850000D01*
G75*
G02*
X49550000Y-85901000I-51000J0D01*
G01*
X49300000Y-85901000D01*
G75*
G02*
X49249000Y-85850000I0J51000D01*
G01*
X49249000Y-85300000D01*
G75*
G02*
X49300000Y-85249000I51000J0D01*
G01*
G37*
G36*
G01*
X48800000Y-85249000D02*
X49050000Y-85249000D01*
G75*
G02*
X49101000Y-85300000I0J-51000D01*
G01*
X49101000Y-85850000D01*
G75*
G02*
X49050000Y-85901000I-51000J0D01*
G01*
X48800000Y-85901000D01*
G75*
G02*
X48749000Y-85850000I0J51000D01*
G01*
X48749000Y-85300000D01*
G75*
G02*
X48800000Y-85249000I51000J0D01*
G01*
G37*
G36*
G01*
X48550000Y-85901000D02*
X48300000Y-85901000D01*
G75*
G02*
X48249000Y-85850000I0J51000D01*
G01*
X48249000Y-85300000D01*
G75*
G02*
X48300000Y-85249000I51000J0D01*
G01*
X48550000Y-85249000D01*
G75*
G02*
X48601000Y-85300000I0J-51000D01*
G01*
X48601000Y-85850000D01*
G75*
G02*
X48550000Y-85901000I-51000J0D01*
G01*
G37*
G36*
G01*
X48300000Y-87599000D02*
X48550000Y-87599000D01*
G75*
G02*
X48601000Y-87650000I0J-51000D01*
G01*
X48601000Y-88200000D01*
G75*
G02*
X48550000Y-88251000I-51000J0D01*
G01*
X48300000Y-88251000D01*
G75*
G02*
X48249000Y-88200000I0J51000D01*
G01*
X48249000Y-87650000D01*
G75*
G02*
X48300000Y-87599000I51000J0D01*
G01*
G37*
G36*
G01*
X48800000Y-87599000D02*
X49050000Y-87599000D01*
G75*
G02*
X49101000Y-87650000I0J-51000D01*
G01*
X49101000Y-88200000D01*
G75*
G02*
X49050000Y-88251000I-51000J0D01*
G01*
X48800000Y-88251000D01*
G75*
G02*
X48749000Y-88200000I0J51000D01*
G01*
X48749000Y-87650000D01*
G75*
G02*
X48800000Y-87599000I51000J0D01*
G01*
G37*
G36*
G01*
X49300000Y-87599000D02*
X49550000Y-87599000D01*
G75*
G02*
X49601000Y-87650000I0J-51000D01*
G01*
X49601000Y-88200000D01*
G75*
G02*
X49550000Y-88251000I-51000J0D01*
G01*
X49300000Y-88251000D01*
G75*
G02*
X49249000Y-88200000I0J51000D01*
G01*
X49249000Y-87650000D01*
G75*
G02*
X49300000Y-87599000I51000J0D01*
G01*
G37*
G36*
G01*
X49800000Y-87599000D02*
X50050000Y-87599000D01*
G75*
G02*
X50101000Y-87650000I0J-51000D01*
G01*
X50101000Y-88200000D01*
G75*
G02*
X50050000Y-88251000I-51000J0D01*
G01*
X49800000Y-88251000D01*
G75*
G02*
X49749000Y-88200000I0J51000D01*
G01*
X49749000Y-87650000D01*
G75*
G02*
X49800000Y-87599000I51000J0D01*
G01*
G37*
D14*
G36*
X50075020Y-87259950D02*
G01*
X50072118Y-87269517D01*
X50067405Y-87278334D01*
X50061062Y-87286062D01*
X50053334Y-87292405D01*
X50044517Y-87297118D01*
X50034950Y-87300020D01*
X50025000Y-87301000D01*
X48325000Y-87301000D01*
X48315050Y-87300020D01*
X48305483Y-87297118D01*
X48296666Y-87292405D01*
X48288938Y-87286062D01*
X48282595Y-87278334D01*
X48277882Y-87269517D01*
X48274980Y-87259950D01*
X48274000Y-87250000D01*
X48274000Y-86250000D01*
X48274980Y-86240050D01*
X48277882Y-86230483D01*
X48282595Y-86221666D01*
X48288938Y-86213938D01*
X48296666Y-86207595D01*
X48305483Y-86202882D01*
X48315050Y-86199980D01*
X48325000Y-86199000D01*
X49725000Y-86199000D01*
X49734950Y-86199980D01*
X49744517Y-86202882D01*
X49753334Y-86207595D01*
X49761062Y-86213938D01*
X50061062Y-86513938D01*
X50067405Y-86521666D01*
X50072118Y-86530483D01*
X50075020Y-86540050D01*
X50076000Y-86550000D01*
X50076000Y-87250000D01*
X50075020Y-87259950D01*
G37*
D13*
X78790000Y-44220000D03*
X107750000Y-42325000D03*
X104500000Y-42300000D03*
X83220000Y-44320000D03*
G36*
G01*
X101948875Y-48724000D02*
X102901125Y-48724000D01*
G75*
G02*
X103176000Y-48998875I0J-274875D01*
G01*
X103176000Y-49576125D01*
G75*
G02*
X102901125Y-49851000I-274875J0D01*
G01*
X101948875Y-49851000D01*
G75*
G02*
X101674000Y-49576125I0J274875D01*
G01*
X101674000Y-48998875D01*
G75*
G02*
X101948875Y-48724000I274875J0D01*
G01*
G37*
G36*
G01*
X101948875Y-46899000D02*
X102901125Y-46899000D01*
G75*
G02*
X103176000Y-47173875I0J-274875D01*
G01*
X103176000Y-47751125D01*
G75*
G02*
X102901125Y-48026000I-274875J0D01*
G01*
X101948875Y-48026000D01*
G75*
G02*
X101674000Y-47751125I0J274875D01*
G01*
X101674000Y-47173875D01*
G75*
G02*
X101948875Y-46899000I274875J0D01*
G01*
G37*
G36*
G01*
X105698875Y-48699000D02*
X106651125Y-48699000D01*
G75*
G02*
X106926000Y-48973875I0J-274875D01*
G01*
X106926000Y-49551125D01*
G75*
G02*
X106651125Y-49826000I-274875J0D01*
G01*
X105698875Y-49826000D01*
G75*
G02*
X105424000Y-49551125I0J274875D01*
G01*
X105424000Y-48973875D01*
G75*
G02*
X105698875Y-48699000I274875J0D01*
G01*
G37*
G36*
G01*
X105698875Y-46874000D02*
X106651125Y-46874000D01*
G75*
G02*
X106926000Y-47148875I0J-274875D01*
G01*
X106926000Y-47726125D01*
G75*
G02*
X106651125Y-48001000I-274875J0D01*
G01*
X105698875Y-48001000D01*
G75*
G02*
X105424000Y-47726125I0J274875D01*
G01*
X105424000Y-47148875D01*
G75*
G02*
X105698875Y-46874000I274875J0D01*
G01*
G37*
G36*
G01*
X84324000Y-67276125D02*
X84324000Y-66323875D01*
G75*
G02*
X84598875Y-66049000I274875J0D01*
G01*
X85176125Y-66049000D01*
G75*
G02*
X85451000Y-66323875I0J-274875D01*
G01*
X85451000Y-67276125D01*
G75*
G02*
X85176125Y-67551000I-274875J0D01*
G01*
X84598875Y-67551000D01*
G75*
G02*
X84324000Y-67276125I0J274875D01*
G01*
G37*
G36*
G01*
X82499000Y-67276125D02*
X82499000Y-66323875D01*
G75*
G02*
X82773875Y-66049000I274875J0D01*
G01*
X83351125Y-66049000D01*
G75*
G02*
X83626000Y-66323875I0J-274875D01*
G01*
X83626000Y-67276125D01*
G75*
G02*
X83351125Y-67551000I-274875J0D01*
G01*
X82773875Y-67551000D01*
G75*
G02*
X82499000Y-67276125I0J274875D01*
G01*
G37*
G36*
G01*
X85388500Y-72348875D02*
X85388500Y-73301125D01*
G75*
G02*
X85113625Y-73576000I-274875J0D01*
G01*
X84536375Y-73576000D01*
G75*
G02*
X84261500Y-73301125I0J274875D01*
G01*
X84261500Y-72348875D01*
G75*
G02*
X84536375Y-72074000I274875J0D01*
G01*
X85113625Y-72074000D01*
G75*
G02*
X85388500Y-72348875I0J-274875D01*
G01*
G37*
G36*
G01*
X87213500Y-72348875D02*
X87213500Y-73301125D01*
G75*
G02*
X86938625Y-73576000I-274875J0D01*
G01*
X86361375Y-73576000D01*
G75*
G02*
X86086500Y-73301125I0J274875D01*
G01*
X86086500Y-72348875D01*
G75*
G02*
X86361375Y-72074000I274875J0D01*
G01*
X86938625Y-72074000D01*
G75*
G02*
X87213500Y-72348875I0J-274875D01*
G01*
G37*
D12*
X102000000Y-87500000D03*
X25500000Y-87500000D03*
D13*
X100825000Y-38025000D03*
G36*
G01*
X83701000Y-68974500D02*
X83701000Y-69525500D01*
G75*
G02*
X83450500Y-69776000I-250500J0D01*
G01*
X82949500Y-69776000D01*
G75*
G02*
X82699000Y-69525500I0J250500D01*
G01*
X82699000Y-68974500D01*
G75*
G02*
X82949500Y-68724000I250500J0D01*
G01*
X83450500Y-68724000D01*
G75*
G02*
X83701000Y-68974500I0J-250500D01*
G01*
G37*
G36*
G01*
X85251000Y-68974500D02*
X85251000Y-69525500D01*
G75*
G02*
X85000500Y-69776000I-250500J0D01*
G01*
X84499500Y-69776000D01*
G75*
G02*
X84249000Y-69525500I0J250500D01*
G01*
X84249000Y-68974500D01*
G75*
G02*
X84499500Y-68724000I250500J0D01*
G01*
X85000500Y-68724000D01*
G75*
G02*
X85251000Y-68974500I0J-250500D01*
G01*
G37*
X100950000Y-42225000D03*
D15*
X88740127Y-84690000D03*
G36*
G01*
X82941037Y-82599999D02*
X82941037Y-86780001D01*
G75*
G02*
X82890037Y-86831001I-51000J0D01*
G01*
X78990045Y-86831001D01*
G75*
G02*
X78939045Y-86780001I0J51000D01*
G01*
X78939045Y-82599999D01*
G75*
G02*
X78990045Y-82548999I51000J0D01*
G01*
X82890037Y-82548999D01*
G75*
G02*
X82941037Y-82599999I0J-51000D01*
G01*
G37*
G36*
G01*
X98540955Y-82599999D02*
X98540955Y-86780001D01*
G75*
G02*
X98489955Y-86831001I-51000J0D01*
G01*
X94589963Y-86831001D01*
G75*
G02*
X94538963Y-86780001I0J51000D01*
G01*
X94538963Y-82599999D01*
G75*
G02*
X94589963Y-82548999I51000J0D01*
G01*
X98489955Y-82548999D01*
G75*
G02*
X98540955Y-82599999I0J-51000D01*
G01*
G37*
G36*
G01*
X92728085Y-58731001D02*
X95728079Y-58731001D01*
G75*
G02*
X95779079Y-58782001I0J-51000D01*
G01*
X95779079Y-59581999D01*
G75*
G02*
X95728079Y-59632999I-51000J0D01*
G01*
X92728085Y-59632999D01*
G75*
G02*
X92677085Y-59581999I0J51000D01*
G01*
X92677085Y-58782001D01*
G75*
G02*
X92728085Y-58731001I51000J0D01*
G01*
G37*
G36*
G01*
X98328023Y-58731001D02*
X101328017Y-58731001D01*
G75*
G02*
X101379017Y-58782001I0J-51000D01*
G01*
X101379017Y-59581999D01*
G75*
G02*
X101328017Y-59632999I-51000J0D01*
G01*
X98328023Y-59632999D01*
G75*
G02*
X98277023Y-59581999I0J51000D01*
G01*
X98277023Y-58782001D01*
G75*
G02*
X98328023Y-58731001I51000J0D01*
G01*
G37*
G36*
G01*
X104469000Y-61165500D02*
X104469000Y-61516500D01*
G75*
G02*
X104293500Y-61692000I-175500J0D01*
G01*
X102592500Y-61692000D01*
G75*
G02*
X102417000Y-61516500I0J175500D01*
G01*
X102417000Y-61165500D01*
G75*
G02*
X102592500Y-60990000I175500J0D01*
G01*
X104293500Y-60990000D01*
G75*
G02*
X104469000Y-61165500I0J-175500D01*
G01*
G37*
G36*
G01*
X104469000Y-59895500D02*
X104469000Y-60246500D01*
G75*
G02*
X104293500Y-60422000I-175500J0D01*
G01*
X102592500Y-60422000D01*
G75*
G02*
X102417000Y-60246500I0J175500D01*
G01*
X102417000Y-59895500D01*
G75*
G02*
X102592500Y-59720000I175500J0D01*
G01*
X104293500Y-59720000D01*
G75*
G02*
X104469000Y-59895500I0J-175500D01*
G01*
G37*
G36*
G01*
X104469000Y-58625500D02*
X104469000Y-58976500D01*
G75*
G02*
X104293500Y-59152000I-175500J0D01*
G01*
X102592500Y-59152000D01*
G75*
G02*
X102417000Y-58976500I0J175500D01*
G01*
X102417000Y-58625500D01*
G75*
G02*
X102592500Y-58450000I175500J0D01*
G01*
X104293500Y-58450000D01*
G75*
G02*
X104469000Y-58625500I0J-175500D01*
G01*
G37*
G36*
G01*
X104469000Y-57355500D02*
X104469000Y-57706500D01*
G75*
G02*
X104293500Y-57882000I-175500J0D01*
G01*
X102592500Y-57882000D01*
G75*
G02*
X102417000Y-57706500I0J175500D01*
G01*
X102417000Y-57355500D01*
G75*
G02*
X102592500Y-57180000I175500J0D01*
G01*
X104293500Y-57180000D01*
G75*
G02*
X104469000Y-57355500I0J-175500D01*
G01*
G37*
G36*
G01*
X109419000Y-57355500D02*
X109419000Y-57706500D01*
G75*
G02*
X109243500Y-57882000I-175500J0D01*
G01*
X107542500Y-57882000D01*
G75*
G02*
X107367000Y-57706500I0J175500D01*
G01*
X107367000Y-57355500D01*
G75*
G02*
X107542500Y-57180000I175500J0D01*
G01*
X109243500Y-57180000D01*
G75*
G02*
X109419000Y-57355500I0J-175500D01*
G01*
G37*
G36*
G01*
X109419000Y-58625500D02*
X109419000Y-58976500D01*
G75*
G02*
X109243500Y-59152000I-175500J0D01*
G01*
X107542500Y-59152000D01*
G75*
G02*
X107367000Y-58976500I0J175500D01*
G01*
X107367000Y-58625500D01*
G75*
G02*
X107542500Y-58450000I175500J0D01*
G01*
X109243500Y-58450000D01*
G75*
G02*
X109419000Y-58625500I0J-175500D01*
G01*
G37*
G36*
G01*
X109419000Y-59895500D02*
X109419000Y-60246500D01*
G75*
G02*
X109243500Y-60422000I-175500J0D01*
G01*
X107542500Y-60422000D01*
G75*
G02*
X107367000Y-60246500I0J175500D01*
G01*
X107367000Y-59895500D01*
G75*
G02*
X107542500Y-59720000I175500J0D01*
G01*
X109243500Y-59720000D01*
G75*
G02*
X109419000Y-59895500I0J-175500D01*
G01*
G37*
G36*
G01*
X109419000Y-61165500D02*
X109419000Y-61516500D01*
G75*
G02*
X109243500Y-61692000I-175500J0D01*
G01*
X107542500Y-61692000D01*
G75*
G02*
X107367000Y-61516500I0J175500D01*
G01*
X107367000Y-61165500D01*
G75*
G02*
X107542500Y-60990000I175500J0D01*
G01*
X109243500Y-60990000D01*
G75*
G02*
X109419000Y-61165500I0J-175500D01*
G01*
G37*
D13*
X101800000Y-53200000D03*
G36*
G01*
X53244000Y-48158125D02*
X53244000Y-47205875D01*
G75*
G02*
X53518875Y-46931000I274875J0D01*
G01*
X54096125Y-46931000D01*
G75*
G02*
X54371000Y-47205875I0J-274875D01*
G01*
X54371000Y-48158125D01*
G75*
G02*
X54096125Y-48433000I-274875J0D01*
G01*
X53518875Y-48433000D01*
G75*
G02*
X53244000Y-48158125I0J274875D01*
G01*
G37*
G36*
G01*
X51419000Y-48158125D02*
X51419000Y-47205875D01*
G75*
G02*
X51693875Y-46931000I274875J0D01*
G01*
X52271125Y-46931000D01*
G75*
G02*
X52546000Y-47205875I0J-274875D01*
G01*
X52546000Y-48158125D01*
G75*
G02*
X52271125Y-48433000I-274875J0D01*
G01*
X51693875Y-48433000D01*
G75*
G02*
X51419000Y-48158125I0J274875D01*
G01*
G37*
G36*
G01*
X52101000Y-50398875D02*
X52101000Y-51351125D01*
G75*
G02*
X51826125Y-51626000I-274875J0D01*
G01*
X51248875Y-51626000D01*
G75*
G02*
X50974000Y-51351125I0J274875D01*
G01*
X50974000Y-50398875D01*
G75*
G02*
X51248875Y-50124000I274875J0D01*
G01*
X51826125Y-50124000D01*
G75*
G02*
X52101000Y-50398875I0J-274875D01*
G01*
G37*
G36*
G01*
X53926000Y-50398875D02*
X53926000Y-51351125D01*
G75*
G02*
X53651125Y-51626000I-274875J0D01*
G01*
X53073875Y-51626000D01*
G75*
G02*
X52799000Y-51351125I0J274875D01*
G01*
X52799000Y-50398875D01*
G75*
G02*
X53073875Y-50124000I274875J0D01*
G01*
X53651125Y-50124000D01*
G75*
G02*
X53926000Y-50398875I0J-274875D01*
G01*
G37*
G36*
G01*
X56585000Y-40523500D02*
X56585000Y-41124500D01*
G75*
G02*
X56359500Y-41350000I-225500J0D01*
G01*
X55908500Y-41350000D01*
G75*
G02*
X55683000Y-41124500I0J225500D01*
G01*
X55683000Y-40523500D01*
G75*
G02*
X55908500Y-40298000I225500J0D01*
G01*
X56359500Y-40298000D01*
G75*
G02*
X56585000Y-40523500I0J-225500D01*
G01*
G37*
G36*
G01*
X58235000Y-40523500D02*
X58235000Y-41124500D01*
G75*
G02*
X58009500Y-41350000I-225500J0D01*
G01*
X57558500Y-41350000D01*
G75*
G02*
X57333000Y-41124500I0J225500D01*
G01*
X57333000Y-40523500D01*
G75*
G02*
X57558500Y-40298000I225500J0D01*
G01*
X58009500Y-40298000D01*
G75*
G02*
X58235000Y-40523500I0J-225500D01*
G01*
G37*
G36*
G01*
X53074000Y-43075000D02*
X53074000Y-42275000D01*
G75*
G02*
X53125000Y-42224000I51000J0D01*
G01*
X54025000Y-42224000D01*
G75*
G02*
X54076000Y-42275000I0J-51000D01*
G01*
X54076000Y-43075000D01*
G75*
G02*
X54025000Y-43126000I-51000J0D01*
G01*
X53125000Y-43126000D01*
G75*
G02*
X53074000Y-43075000I0J51000D01*
G01*
G37*
G36*
G01*
X51074000Y-44025000D02*
X51074000Y-43225000D01*
G75*
G02*
X51125000Y-43174000I51000J0D01*
G01*
X52025000Y-43174000D01*
G75*
G02*
X52076000Y-43225000I0J-51000D01*
G01*
X52076000Y-44025000D01*
G75*
G02*
X52025000Y-44076000I-51000J0D01*
G01*
X51125000Y-44076000D01*
G75*
G02*
X51074000Y-44025000I0J51000D01*
G01*
G37*
G36*
G01*
X51074000Y-42125000D02*
X51074000Y-41325000D01*
G75*
G02*
X51125000Y-41274000I51000J0D01*
G01*
X52025000Y-41274000D01*
G75*
G02*
X52076000Y-41325000I0J-51000D01*
G01*
X52076000Y-42125000D01*
G75*
G02*
X52025000Y-42176000I-51000J0D01*
G01*
X51125000Y-42176000D01*
G75*
G02*
X51074000Y-42125000I0J51000D01*
G01*
G37*
G36*
G01*
X32358880Y-52285004D02*
X32358880Y-48764996D01*
G75*
G02*
X32409880Y-48713996I51000J0D01*
G01*
X34283892Y-48713996D01*
G75*
G02*
X34334892Y-48764996I0J-51000D01*
G01*
X34334892Y-52285004D01*
G75*
G02*
X34283892Y-52336004I-51000J0D01*
G01*
X32409880Y-52336004D01*
G75*
G02*
X32358880Y-52285004I0J51000D01*
G01*
G37*
G36*
G01*
X36215108Y-52285004D02*
X36215108Y-48764996D01*
G75*
G02*
X36266108Y-48713996I51000J0D01*
G01*
X38140120Y-48713996D01*
G75*
G02*
X38191120Y-48764996I0J-51000D01*
G01*
X38191120Y-52285004D01*
G75*
G02*
X38140120Y-52336004I-51000J0D01*
G01*
X36266108Y-52336004D01*
G75*
G02*
X36215108Y-52285004I0J51000D01*
G01*
G37*
G36*
G01*
X24578880Y-51982004D02*
X24578880Y-48461996D01*
G75*
G02*
X24629880Y-48410996I51000J0D01*
G01*
X26503892Y-48410996D01*
G75*
G02*
X26554892Y-48461996I0J-51000D01*
G01*
X26554892Y-51982004D01*
G75*
G02*
X26503892Y-52033004I-51000J0D01*
G01*
X24629880Y-52033004D01*
G75*
G02*
X24578880Y-51982004I0J51000D01*
G01*
G37*
G36*
G01*
X28435108Y-51982004D02*
X28435108Y-48461996D01*
G75*
G02*
X28486108Y-48410996I51000J0D01*
G01*
X30360120Y-48410996D01*
G75*
G02*
X30411120Y-48461996I0J-51000D01*
G01*
X30411120Y-51982004D01*
G75*
G02*
X30360120Y-52033004I-51000J0D01*
G01*
X28486108Y-52033004D01*
G75*
G02*
X28435108Y-51982004I0J51000D01*
G01*
G37*
G36*
G01*
X23870766Y-79630004D02*
X23870766Y-76109996D01*
G75*
G02*
X23921766Y-76058996I51000J0D01*
G01*
X25795778Y-76058996D01*
G75*
G02*
X25846778Y-76109996I0J-51000D01*
G01*
X25846778Y-79630004D01*
G75*
G02*
X25795778Y-79681004I-51000J0D01*
G01*
X23921766Y-79681004D01*
G75*
G02*
X23870766Y-79630004I0J51000D01*
G01*
G37*
G36*
G01*
X27726994Y-79630004D02*
X27726994Y-76109996D01*
G75*
G02*
X27777994Y-76058996I51000J0D01*
G01*
X29652006Y-76058996D01*
G75*
G02*
X29703006Y-76109996I0J-51000D01*
G01*
X29703006Y-79630004D01*
G75*
G02*
X29652006Y-79681004I-51000J0D01*
G01*
X27777994Y-79681004D01*
G75*
G02*
X27726994Y-79630004I0J51000D01*
G01*
G37*
G36*
G01*
X30916994Y-79500004D02*
X30916994Y-75979996D01*
G75*
G02*
X30967994Y-75928996I51000J0D01*
G01*
X32842006Y-75928996D01*
G75*
G02*
X32893006Y-75979996I0J-51000D01*
G01*
X32893006Y-79500004D01*
G75*
G02*
X32842006Y-79551004I-51000J0D01*
G01*
X30967994Y-79551004D01*
G75*
G02*
X30916994Y-79500004I0J51000D01*
G01*
G37*
G36*
G01*
X34773222Y-79500004D02*
X34773222Y-75979996D01*
G75*
G02*
X34824222Y-75928996I51000J0D01*
G01*
X36698234Y-75928996D01*
G75*
G02*
X36749234Y-75979996I0J-51000D01*
G01*
X36749234Y-79500004D01*
G75*
G02*
X36698234Y-79551004I-51000J0D01*
G01*
X34824222Y-79551004D01*
G75*
G02*
X34773222Y-79500004I0J51000D01*
G01*
G37*
G36*
G01*
X51351000Y-37425000D02*
X51351000Y-38625000D01*
G75*
G02*
X51300000Y-38676000I-51000J0D01*
G01*
X50400000Y-38676000D01*
G75*
G02*
X50349000Y-38625000I0J51000D01*
G01*
X50349000Y-37425000D01*
G75*
G02*
X50400000Y-37374000I51000J0D01*
G01*
X51300000Y-37374000D01*
G75*
G02*
X51351000Y-37425000I0J-51000D01*
G01*
G37*
G36*
G01*
X54651000Y-37425000D02*
X54651000Y-38625000D01*
G75*
G02*
X54600000Y-38676000I-51000J0D01*
G01*
X53700000Y-38676000D01*
G75*
G02*
X53649000Y-38625000I0J51000D01*
G01*
X53649000Y-37425000D01*
G75*
G02*
X53700000Y-37374000I51000J0D01*
G01*
X54600000Y-37374000D01*
G75*
G02*
X54651000Y-37425000I0J-51000D01*
G01*
G37*
G36*
G01*
X106813000Y-54956000D02*
X106813000Y-53756000D01*
G75*
G02*
X106864000Y-53705000I51000J0D01*
G01*
X107764000Y-53705000D01*
G75*
G02*
X107815000Y-53756000I0J-51000D01*
G01*
X107815000Y-54956000D01*
G75*
G02*
X107764000Y-55007000I-51000J0D01*
G01*
X106864000Y-55007000D01*
G75*
G02*
X106813000Y-54956000I0J51000D01*
G01*
G37*
G36*
G01*
X103513000Y-54956000D02*
X103513000Y-53756000D01*
G75*
G02*
X103564000Y-53705000I51000J0D01*
G01*
X104464000Y-53705000D01*
G75*
G02*
X104515000Y-53756000I0J-51000D01*
G01*
X104515000Y-54956000D01*
G75*
G02*
X104464000Y-55007000I-51000J0D01*
G01*
X103564000Y-55007000D01*
G75*
G02*
X103513000Y-54956000I0J51000D01*
G01*
G37*
G36*
G01*
X89101000Y-63916000D02*
X89101000Y-65116000D01*
G75*
G02*
X89050000Y-65167000I-51000J0D01*
G01*
X88150000Y-65167000D01*
G75*
G02*
X88099000Y-65116000I0J51000D01*
G01*
X88099000Y-63916000D01*
G75*
G02*
X88150000Y-63865000I51000J0D01*
G01*
X89050000Y-63865000D01*
G75*
G02*
X89101000Y-63916000I0J-51000D01*
G01*
G37*
G36*
G01*
X92401000Y-63916000D02*
X92401000Y-65116000D01*
G75*
G02*
X92350000Y-65167000I-51000J0D01*
G01*
X91450000Y-65167000D01*
G75*
G02*
X91399000Y-65116000I0J51000D01*
G01*
X91399000Y-63916000D01*
G75*
G02*
X91450000Y-63865000I51000J0D01*
G01*
X92350000Y-63865000D01*
G75*
G02*
X92401000Y-63916000I0J-51000D01*
G01*
G37*
G36*
G01*
X47785000Y-34345500D02*
X47785000Y-33794500D01*
G75*
G02*
X48035500Y-33544000I250500J0D01*
G01*
X48536500Y-33544000D01*
G75*
G02*
X48787000Y-33794500I0J-250500D01*
G01*
X48787000Y-34345500D01*
G75*
G02*
X48536500Y-34596000I-250500J0D01*
G01*
X48035500Y-34596000D01*
G75*
G02*
X47785000Y-34345500I0J250500D01*
G01*
G37*
G36*
G01*
X46235000Y-34345500D02*
X46235000Y-33794500D01*
G75*
G02*
X46485500Y-33544000I250500J0D01*
G01*
X46986500Y-33544000D01*
G75*
G02*
X47237000Y-33794500I0J-250500D01*
G01*
X47237000Y-34345500D01*
G75*
G02*
X46986500Y-34596000I-250500J0D01*
G01*
X46485500Y-34596000D01*
G75*
G02*
X46235000Y-34345500I0J250500D01*
G01*
G37*
G36*
G01*
X86624500Y-59474000D02*
X87175500Y-59474000D01*
G75*
G02*
X87426000Y-59724500I0J-250500D01*
G01*
X87426000Y-60225500D01*
G75*
G02*
X87175500Y-60476000I-250500J0D01*
G01*
X86624500Y-60476000D01*
G75*
G02*
X86374000Y-60225500I0J250500D01*
G01*
X86374000Y-59724500D01*
G75*
G02*
X86624500Y-59474000I250500J0D01*
G01*
G37*
G36*
G01*
X86624500Y-57924000D02*
X87175500Y-57924000D01*
G75*
G02*
X87426000Y-58174500I0J-250500D01*
G01*
X87426000Y-58675500D01*
G75*
G02*
X87175500Y-58926000I-250500J0D01*
G01*
X86624500Y-58926000D01*
G75*
G02*
X86374000Y-58675500I0J250500D01*
G01*
X86374000Y-58174500D01*
G75*
G02*
X86624500Y-57924000I250500J0D01*
G01*
G37*
G36*
G01*
X88624500Y-59456000D02*
X89175500Y-59456000D01*
G75*
G02*
X89426000Y-59706500I0J-250500D01*
G01*
X89426000Y-60207500D01*
G75*
G02*
X89175500Y-60458000I-250500J0D01*
G01*
X88624500Y-60458000D01*
G75*
G02*
X88374000Y-60207500I0J250500D01*
G01*
X88374000Y-59706500D01*
G75*
G02*
X88624500Y-59456000I250500J0D01*
G01*
G37*
G36*
G01*
X88624500Y-57906000D02*
X89175500Y-57906000D01*
G75*
G02*
X89426000Y-58156500I0J-250500D01*
G01*
X89426000Y-58657500D01*
G75*
G02*
X89175500Y-58908000I-250500J0D01*
G01*
X88624500Y-58908000D01*
G75*
G02*
X88374000Y-58657500I0J250500D01*
G01*
X88374000Y-58156500D01*
G75*
G02*
X88624500Y-57906000I250500J0D01*
G01*
G37*
G36*
G01*
X90656500Y-59456000D02*
X91207500Y-59456000D01*
G75*
G02*
X91458000Y-59706500I0J-250500D01*
G01*
X91458000Y-60207500D01*
G75*
G02*
X91207500Y-60458000I-250500J0D01*
G01*
X90656500Y-60458000D01*
G75*
G02*
X90406000Y-60207500I0J250500D01*
G01*
X90406000Y-59706500D01*
G75*
G02*
X90656500Y-59456000I250500J0D01*
G01*
G37*
G36*
G01*
X90656500Y-57906000D02*
X91207500Y-57906000D01*
G75*
G02*
X91458000Y-58156500I0J-250500D01*
G01*
X91458000Y-58657500D01*
G75*
G02*
X91207500Y-58908000I-250500J0D01*
G01*
X90656500Y-58908000D01*
G75*
G02*
X90406000Y-58657500I0J250500D01*
G01*
X90406000Y-58156500D01*
G75*
G02*
X90656500Y-57906000I250500J0D01*
G01*
G37*
G36*
G01*
X57837994Y-49488108D02*
X57837994Y-51288104D01*
G75*
G02*
X57786994Y-51339104I-51000J0D01*
G01*
X55986998Y-51339104D01*
G75*
G02*
X55935998Y-51288104I0J51000D01*
G01*
X55935998Y-49488108D01*
G75*
G02*
X55986998Y-49437108I51000J0D01*
G01*
X57786994Y-49437108D01*
G75*
G02*
X57837994Y-49488108I0J-51000D01*
G01*
G37*
G36*
G01*
X64814104Y-42511998D02*
X64814104Y-44311994D01*
G75*
G02*
X64763104Y-44362994I-51000J0D01*
G01*
X62963108Y-44362994D01*
G75*
G02*
X62912108Y-44311994I0J51000D01*
G01*
X62912108Y-42511998D01*
G75*
G02*
X62963108Y-42460998I51000J0D01*
G01*
X64763104Y-42460998D01*
G75*
G02*
X64814104Y-42511998I0J-51000D01*
G01*
G37*
G36*
G01*
X64814104Y-49488108D02*
X64814104Y-51288104D01*
G75*
G02*
X64763104Y-51339104I-51000J0D01*
G01*
X62963108Y-51339104D01*
G75*
G02*
X62912108Y-51288104I0J51000D01*
G01*
X62912108Y-49488108D01*
G75*
G02*
X62963108Y-49437108I51000J0D01*
G01*
X64763104Y-49437108D01*
G75*
G02*
X64814104Y-49488108I0J-51000D01*
G01*
G37*
G36*
G01*
X57837994Y-42511998D02*
X57837994Y-44311994D01*
G75*
G02*
X57786994Y-44362994I-51000J0D01*
G01*
X55986998Y-44362994D01*
G75*
G02*
X55935998Y-44311994I0J51000D01*
G01*
X55935998Y-42511998D01*
G75*
G02*
X55986998Y-42460998I51000J0D01*
G01*
X57786994Y-42460998D01*
G75*
G02*
X57837994Y-42511998I0J-51000D01*
G01*
G37*
G36*
G01*
X104825838Y-82610347D02*
X102925842Y-82610347D01*
G75*
G02*
X102874842Y-82559347I0J51000D01*
G01*
X102874842Y-81759349D01*
G75*
G02*
X102925842Y-81708349I51000J0D01*
G01*
X104825838Y-81708349D01*
G75*
G02*
X104876838Y-81759349I0J-51000D01*
G01*
X104876838Y-82559347D01*
G75*
G02*
X104825838Y-82610347I-51000J0D01*
G01*
G37*
G36*
G01*
X104825838Y-81360413D02*
X102925842Y-81360413D01*
G75*
G02*
X102874842Y-81309413I0J51000D01*
G01*
X102874842Y-80509415D01*
G75*
G02*
X102925842Y-80458415I51000J0D01*
G01*
X104825838Y-80458415D01*
G75*
G02*
X104876838Y-80509415I0J-51000D01*
G01*
X104876838Y-81309413D01*
G75*
G02*
X104825838Y-81360413I-51000J0D01*
G01*
G37*
G36*
G01*
X110776156Y-79334814D02*
X107176164Y-79334814D01*
G75*
G02*
X107125164Y-79283814I0J51000D01*
G01*
X107125164Y-77283818D01*
G75*
G02*
X107176164Y-77232818I51000J0D01*
G01*
X110776156Y-77232818D01*
G75*
G02*
X110827156Y-77283818I0J-51000D01*
G01*
X110827156Y-79283814D01*
G75*
G02*
X110776156Y-79334814I-51000J0D01*
G01*
G37*
G36*
G01*
X110776156Y-85835182D02*
X107176164Y-85835182D01*
G75*
G02*
X107125164Y-85784182I0J51000D01*
G01*
X107125164Y-83784186D01*
G75*
G02*
X107176164Y-83733186I51000J0D01*
G01*
X110776156Y-83733186D01*
G75*
G02*
X110827156Y-83784186I0J-51000D01*
G01*
X110827156Y-85784182D01*
G75*
G02*
X110776156Y-85835182I-51000J0D01*
G01*
G37*
G36*
G01*
X68464000Y-45093500D02*
X68464000Y-45444500D01*
G75*
G02*
X68288500Y-45620000I-175500J0D01*
G01*
X66587500Y-45620000D01*
G75*
G02*
X66412000Y-45444500I0J175500D01*
G01*
X66412000Y-45093500D01*
G75*
G02*
X66587500Y-44918000I175500J0D01*
G01*
X68288500Y-44918000D01*
G75*
G02*
X68464000Y-45093500I0J-175500D01*
G01*
G37*
G36*
G01*
X68464000Y-43823500D02*
X68464000Y-44174500D01*
G75*
G02*
X68288500Y-44350000I-175500J0D01*
G01*
X66587500Y-44350000D01*
G75*
G02*
X66412000Y-44174500I0J175500D01*
G01*
X66412000Y-43823500D01*
G75*
G02*
X66587500Y-43648000I175500J0D01*
G01*
X68288500Y-43648000D01*
G75*
G02*
X68464000Y-43823500I0J-175500D01*
G01*
G37*
G36*
G01*
X68464000Y-42553500D02*
X68464000Y-42904500D01*
G75*
G02*
X68288500Y-43080000I-175500J0D01*
G01*
X66587500Y-43080000D01*
G75*
G02*
X66412000Y-42904500I0J175500D01*
G01*
X66412000Y-42553500D01*
G75*
G02*
X66587500Y-42378000I175500J0D01*
G01*
X68288500Y-42378000D01*
G75*
G02*
X68464000Y-42553500I0J-175500D01*
G01*
G37*
G36*
G01*
X68464000Y-41283500D02*
X68464000Y-41634500D01*
G75*
G02*
X68288500Y-41810000I-175500J0D01*
G01*
X66587500Y-41810000D01*
G75*
G02*
X66412000Y-41634500I0J175500D01*
G01*
X66412000Y-41283500D01*
G75*
G02*
X66587500Y-41108000I175500J0D01*
G01*
X68288500Y-41108000D01*
G75*
G02*
X68464000Y-41283500I0J-175500D01*
G01*
G37*
G36*
G01*
X68464000Y-40013500D02*
X68464000Y-40364500D01*
G75*
G02*
X68288500Y-40540000I-175500J0D01*
G01*
X66587500Y-40540000D01*
G75*
G02*
X66412000Y-40364500I0J175500D01*
G01*
X66412000Y-40013500D01*
G75*
G02*
X66587500Y-39838000I175500J0D01*
G01*
X68288500Y-39838000D01*
G75*
G02*
X68464000Y-40013500I0J-175500D01*
G01*
G37*
G36*
G01*
X68464000Y-38743500D02*
X68464000Y-39094500D01*
G75*
G02*
X68288500Y-39270000I-175500J0D01*
G01*
X66587500Y-39270000D01*
G75*
G02*
X66412000Y-39094500I0J175500D01*
G01*
X66412000Y-38743500D01*
G75*
G02*
X66587500Y-38568000I175500J0D01*
G01*
X68288500Y-38568000D01*
G75*
G02*
X68464000Y-38743500I0J-175500D01*
G01*
G37*
G36*
G01*
X68464000Y-37473500D02*
X68464000Y-37824500D01*
G75*
G02*
X68288500Y-38000000I-175500J0D01*
G01*
X66587500Y-38000000D01*
G75*
G02*
X66412000Y-37824500I0J175500D01*
G01*
X66412000Y-37473500D01*
G75*
G02*
X66587500Y-37298000I175500J0D01*
G01*
X68288500Y-37298000D01*
G75*
G02*
X68464000Y-37473500I0J-175500D01*
G01*
G37*
G36*
G01*
X68464000Y-36203500D02*
X68464000Y-36554500D01*
G75*
G02*
X68288500Y-36730000I-175500J0D01*
G01*
X66587500Y-36730000D01*
G75*
G02*
X66412000Y-36554500I0J175500D01*
G01*
X66412000Y-36203500D01*
G75*
G02*
X66587500Y-36028000I175500J0D01*
G01*
X68288500Y-36028000D01*
G75*
G02*
X68464000Y-36203500I0J-175500D01*
G01*
G37*
G36*
G01*
X73414000Y-36203500D02*
X73414000Y-36554500D01*
G75*
G02*
X73238500Y-36730000I-175500J0D01*
G01*
X71537500Y-36730000D01*
G75*
G02*
X71362000Y-36554500I0J175500D01*
G01*
X71362000Y-36203500D01*
G75*
G02*
X71537500Y-36028000I175500J0D01*
G01*
X73238500Y-36028000D01*
G75*
G02*
X73414000Y-36203500I0J-175500D01*
G01*
G37*
G36*
G01*
X73414000Y-37473500D02*
X73414000Y-37824500D01*
G75*
G02*
X73238500Y-38000000I-175500J0D01*
G01*
X71537500Y-38000000D01*
G75*
G02*
X71362000Y-37824500I0J175500D01*
G01*
X71362000Y-37473500D01*
G75*
G02*
X71537500Y-37298000I175500J0D01*
G01*
X73238500Y-37298000D01*
G75*
G02*
X73414000Y-37473500I0J-175500D01*
G01*
G37*
G36*
G01*
X73414000Y-38743500D02*
X73414000Y-39094500D01*
G75*
G02*
X73238500Y-39270000I-175500J0D01*
G01*
X71537500Y-39270000D01*
G75*
G02*
X71362000Y-39094500I0J175500D01*
G01*
X71362000Y-38743500D01*
G75*
G02*
X71537500Y-38568000I175500J0D01*
G01*
X73238500Y-38568000D01*
G75*
G02*
X73414000Y-38743500I0J-175500D01*
G01*
G37*
G36*
G01*
X73414000Y-40013500D02*
X73414000Y-40364500D01*
G75*
G02*
X73238500Y-40540000I-175500J0D01*
G01*
X71537500Y-40540000D01*
G75*
G02*
X71362000Y-40364500I0J175500D01*
G01*
X71362000Y-40013500D01*
G75*
G02*
X71537500Y-39838000I175500J0D01*
G01*
X73238500Y-39838000D01*
G75*
G02*
X73414000Y-40013500I0J-175500D01*
G01*
G37*
G36*
G01*
X73414000Y-41283500D02*
X73414000Y-41634500D01*
G75*
G02*
X73238500Y-41810000I-175500J0D01*
G01*
X71537500Y-41810000D01*
G75*
G02*
X71362000Y-41634500I0J175500D01*
G01*
X71362000Y-41283500D01*
G75*
G02*
X71537500Y-41108000I175500J0D01*
G01*
X73238500Y-41108000D01*
G75*
G02*
X73414000Y-41283500I0J-175500D01*
G01*
G37*
G36*
G01*
X73414000Y-42553500D02*
X73414000Y-42904500D01*
G75*
G02*
X73238500Y-43080000I-175500J0D01*
G01*
X71537500Y-43080000D01*
G75*
G02*
X71362000Y-42904500I0J175500D01*
G01*
X71362000Y-42553500D01*
G75*
G02*
X71537500Y-42378000I175500J0D01*
G01*
X73238500Y-42378000D01*
G75*
G02*
X73414000Y-42553500I0J-175500D01*
G01*
G37*
G36*
G01*
X73414000Y-43823500D02*
X73414000Y-44174500D01*
G75*
G02*
X73238500Y-44350000I-175500J0D01*
G01*
X71537500Y-44350000D01*
G75*
G02*
X71362000Y-44174500I0J175500D01*
G01*
X71362000Y-43823500D01*
G75*
G02*
X71537500Y-43648000I175500J0D01*
G01*
X73238500Y-43648000D01*
G75*
G02*
X73414000Y-43823500I0J-175500D01*
G01*
G37*
G36*
G01*
X73414000Y-45093500D02*
X73414000Y-45444500D01*
G75*
G02*
X73238500Y-45620000I-175500J0D01*
G01*
X71537500Y-45620000D01*
G75*
G02*
X71362000Y-45444500I0J175500D01*
G01*
X71362000Y-45093500D01*
G75*
G02*
X71537500Y-44918000I175500J0D01*
G01*
X73238500Y-44918000D01*
G75*
G02*
X73414000Y-45093500I0J-175500D01*
G01*
G37*
G36*
G01*
X94824000Y-64045001D02*
X94824000Y-63394999D01*
G75*
G02*
X94874999Y-63344000I50999J0D01*
G01*
X96375001Y-63344000D01*
G75*
G02*
X96426000Y-63394999I0J-50999D01*
G01*
X96426000Y-64045001D01*
G75*
G02*
X96375001Y-64096000I-50999J0D01*
G01*
X94874999Y-64096000D01*
G75*
G02*
X94824000Y-64045001I0J50999D01*
G01*
G37*
G36*
G01*
X94824000Y-65315001D02*
X94824000Y-64664999D01*
G75*
G02*
X94874999Y-64614000I50999J0D01*
G01*
X96375001Y-64614000D01*
G75*
G02*
X96426000Y-64664999I0J-50999D01*
G01*
X96426000Y-65315001D01*
G75*
G02*
X96375001Y-65366000I-50999J0D01*
G01*
X94874999Y-65366000D01*
G75*
G02*
X94824000Y-65315001I0J50999D01*
G01*
G37*
G36*
G01*
X94824000Y-66585001D02*
X94824000Y-65934999D01*
G75*
G02*
X94874999Y-65884000I50999J0D01*
G01*
X96375001Y-65884000D01*
G75*
G02*
X96426000Y-65934999I0J-50999D01*
G01*
X96426000Y-66585001D01*
G75*
G02*
X96375001Y-66636000I-50999J0D01*
G01*
X94874999Y-66636000D01*
G75*
G02*
X94824000Y-66585001I0J50999D01*
G01*
G37*
G36*
G01*
X94824000Y-67855001D02*
X94824000Y-67204999D01*
G75*
G02*
X94874999Y-67154000I50999J0D01*
G01*
X96375001Y-67154000D01*
G75*
G02*
X96426000Y-67204999I0J-50999D01*
G01*
X96426000Y-67855001D01*
G75*
G02*
X96375001Y-67906000I-50999J0D01*
G01*
X94874999Y-67906000D01*
G75*
G02*
X94824000Y-67855001I0J50999D01*
G01*
G37*
G36*
G01*
X100224000Y-67855001D02*
X100224000Y-67204999D01*
G75*
G02*
X100274999Y-67154000I50999J0D01*
G01*
X101775001Y-67154000D01*
G75*
G02*
X101826000Y-67204999I0J-50999D01*
G01*
X101826000Y-67855001D01*
G75*
G02*
X101775001Y-67906000I-50999J0D01*
G01*
X100274999Y-67906000D01*
G75*
G02*
X100224000Y-67855001I0J50999D01*
G01*
G37*
G36*
G01*
X100224000Y-66585001D02*
X100224000Y-65934999D01*
G75*
G02*
X100274999Y-65884000I50999J0D01*
G01*
X101775001Y-65884000D01*
G75*
G02*
X101826000Y-65934999I0J-50999D01*
G01*
X101826000Y-66585001D01*
G75*
G02*
X101775001Y-66636000I-50999J0D01*
G01*
X100274999Y-66636000D01*
G75*
G02*
X100224000Y-66585001I0J50999D01*
G01*
G37*
G36*
G01*
X100224000Y-65315001D02*
X100224000Y-64664999D01*
G75*
G02*
X100274999Y-64614000I50999J0D01*
G01*
X101775001Y-64614000D01*
G75*
G02*
X101826000Y-64664999I0J-50999D01*
G01*
X101826000Y-65315001D01*
G75*
G02*
X101775001Y-65366000I-50999J0D01*
G01*
X100274999Y-65366000D01*
G75*
G02*
X100224000Y-65315001I0J50999D01*
G01*
G37*
G36*
G01*
X100224000Y-64045001D02*
X100224000Y-63394999D01*
G75*
G02*
X100274999Y-63344000I50999J0D01*
G01*
X101775001Y-63344000D01*
G75*
G02*
X101826000Y-63394999I0J-50999D01*
G01*
X101826000Y-64045001D01*
G75*
G02*
X101775001Y-64096000I-50999J0D01*
G01*
X100274999Y-64096000D01*
G75*
G02*
X100224000Y-64045001I0J50999D01*
G01*
G37*
G36*
G01*
X96924000Y-67425001D02*
X96924000Y-63824999D01*
G75*
G02*
X96974999Y-63774000I50999J0D01*
G01*
X99675001Y-63774000D01*
G75*
G02*
X99726000Y-63824999I0J-50999D01*
G01*
X99726000Y-67425001D01*
G75*
G02*
X99675001Y-67476000I-50999J0D01*
G01*
X96974999Y-67476000D01*
G75*
G02*
X96924000Y-67425001I0J50999D01*
G01*
G37*
G36*
G01*
X45249000Y-44130500D02*
X45249000Y-43779500D01*
G75*
G02*
X45424500Y-43604000I175500J0D01*
G01*
X47125500Y-43604000D01*
G75*
G02*
X47301000Y-43779500I0J-175500D01*
G01*
X47301000Y-44130500D01*
G75*
G02*
X47125500Y-44306000I-175500J0D01*
G01*
X45424500Y-44306000D01*
G75*
G02*
X45249000Y-44130500I0J175500D01*
G01*
G37*
G36*
G01*
X45249000Y-45400500D02*
X45249000Y-45049500D01*
G75*
G02*
X45424500Y-44874000I175500J0D01*
G01*
X47125500Y-44874000D01*
G75*
G02*
X47301000Y-45049500I0J-175500D01*
G01*
X47301000Y-45400500D01*
G75*
G02*
X47125500Y-45576000I-175500J0D01*
G01*
X45424500Y-45576000D01*
G75*
G02*
X45249000Y-45400500I0J175500D01*
G01*
G37*
G36*
G01*
X45249000Y-46670500D02*
X45249000Y-46319500D01*
G75*
G02*
X45424500Y-46144000I175500J0D01*
G01*
X47125500Y-46144000D01*
G75*
G02*
X47301000Y-46319500I0J-175500D01*
G01*
X47301000Y-46670500D01*
G75*
G02*
X47125500Y-46846000I-175500J0D01*
G01*
X45424500Y-46846000D01*
G75*
G02*
X45249000Y-46670500I0J175500D01*
G01*
G37*
G36*
G01*
X45249000Y-47940500D02*
X45249000Y-47589500D01*
G75*
G02*
X45424500Y-47414000I175500J0D01*
G01*
X47125500Y-47414000D01*
G75*
G02*
X47301000Y-47589500I0J-175500D01*
G01*
X47301000Y-47940500D01*
G75*
G02*
X47125500Y-48116000I-175500J0D01*
G01*
X45424500Y-48116000D01*
G75*
G02*
X45249000Y-47940500I0J175500D01*
G01*
G37*
G36*
G01*
X45249000Y-49210500D02*
X45249000Y-48859500D01*
G75*
G02*
X45424500Y-48684000I175500J0D01*
G01*
X47125500Y-48684000D01*
G75*
G02*
X47301000Y-48859500I0J-175500D01*
G01*
X47301000Y-49210500D01*
G75*
G02*
X47125500Y-49386000I-175500J0D01*
G01*
X45424500Y-49386000D01*
G75*
G02*
X45249000Y-49210500I0J175500D01*
G01*
G37*
G36*
G01*
X45249000Y-50480500D02*
X45249000Y-50129500D01*
G75*
G02*
X45424500Y-49954000I175500J0D01*
G01*
X47125500Y-49954000D01*
G75*
G02*
X47301000Y-50129500I0J-175500D01*
G01*
X47301000Y-50480500D01*
G75*
G02*
X47125500Y-50656000I-175500J0D01*
G01*
X45424500Y-50656000D01*
G75*
G02*
X45249000Y-50480500I0J175500D01*
G01*
G37*
G36*
G01*
X45249000Y-51750500D02*
X45249000Y-51399500D01*
G75*
G02*
X45424500Y-51224000I175500J0D01*
G01*
X47125500Y-51224000D01*
G75*
G02*
X47301000Y-51399500I0J-175500D01*
G01*
X47301000Y-51750500D01*
G75*
G02*
X47125500Y-51926000I-175500J0D01*
G01*
X45424500Y-51926000D01*
G75*
G02*
X45249000Y-51750500I0J175500D01*
G01*
G37*
G36*
G01*
X45249000Y-53020500D02*
X45249000Y-52669500D01*
G75*
G02*
X45424500Y-52494000I175500J0D01*
G01*
X47125500Y-52494000D01*
G75*
G02*
X47301000Y-52669500I0J-175500D01*
G01*
X47301000Y-53020500D01*
G75*
G02*
X47125500Y-53196000I-175500J0D01*
G01*
X45424500Y-53196000D01*
G75*
G02*
X45249000Y-53020500I0J175500D01*
G01*
G37*
G36*
G01*
X40299000Y-53020500D02*
X40299000Y-52669500D01*
G75*
G02*
X40474500Y-52494000I175500J0D01*
G01*
X42175500Y-52494000D01*
G75*
G02*
X42351000Y-52669500I0J-175500D01*
G01*
X42351000Y-53020500D01*
G75*
G02*
X42175500Y-53196000I-175500J0D01*
G01*
X40474500Y-53196000D01*
G75*
G02*
X40299000Y-53020500I0J175500D01*
G01*
G37*
G36*
G01*
X40299000Y-51750500D02*
X40299000Y-51399500D01*
G75*
G02*
X40474500Y-51224000I175500J0D01*
G01*
X42175500Y-51224000D01*
G75*
G02*
X42351000Y-51399500I0J-175500D01*
G01*
X42351000Y-51750500D01*
G75*
G02*
X42175500Y-51926000I-175500J0D01*
G01*
X40474500Y-51926000D01*
G75*
G02*
X40299000Y-51750500I0J175500D01*
G01*
G37*
G36*
G01*
X40299000Y-50480500D02*
X40299000Y-50129500D01*
G75*
G02*
X40474500Y-49954000I175500J0D01*
G01*
X42175500Y-49954000D01*
G75*
G02*
X42351000Y-50129500I0J-175500D01*
G01*
X42351000Y-50480500D01*
G75*
G02*
X42175500Y-50656000I-175500J0D01*
G01*
X40474500Y-50656000D01*
G75*
G02*
X40299000Y-50480500I0J175500D01*
G01*
G37*
G36*
G01*
X40299000Y-49210500D02*
X40299000Y-48859500D01*
G75*
G02*
X40474500Y-48684000I175500J0D01*
G01*
X42175500Y-48684000D01*
G75*
G02*
X42351000Y-48859500I0J-175500D01*
G01*
X42351000Y-49210500D01*
G75*
G02*
X42175500Y-49386000I-175500J0D01*
G01*
X40474500Y-49386000D01*
G75*
G02*
X40299000Y-49210500I0J175500D01*
G01*
G37*
G36*
G01*
X40299000Y-47940500D02*
X40299000Y-47589500D01*
G75*
G02*
X40474500Y-47414000I175500J0D01*
G01*
X42175500Y-47414000D01*
G75*
G02*
X42351000Y-47589500I0J-175500D01*
G01*
X42351000Y-47940500D01*
G75*
G02*
X42175500Y-48116000I-175500J0D01*
G01*
X40474500Y-48116000D01*
G75*
G02*
X40299000Y-47940500I0J175500D01*
G01*
G37*
G36*
G01*
X40299000Y-46670500D02*
X40299000Y-46319500D01*
G75*
G02*
X40474500Y-46144000I175500J0D01*
G01*
X42175500Y-46144000D01*
G75*
G02*
X42351000Y-46319500I0J-175500D01*
G01*
X42351000Y-46670500D01*
G75*
G02*
X42175500Y-46846000I-175500J0D01*
G01*
X40474500Y-46846000D01*
G75*
G02*
X40299000Y-46670500I0J175500D01*
G01*
G37*
G36*
G01*
X40299000Y-45400500D02*
X40299000Y-45049500D01*
G75*
G02*
X40474500Y-44874000I175500J0D01*
G01*
X42175500Y-44874000D01*
G75*
G02*
X42351000Y-45049500I0J-175500D01*
G01*
X42351000Y-45400500D01*
G75*
G02*
X42175500Y-45576000I-175500J0D01*
G01*
X40474500Y-45576000D01*
G75*
G02*
X40299000Y-45400500I0J175500D01*
G01*
G37*
G36*
G01*
X40299000Y-44130500D02*
X40299000Y-43779500D01*
G75*
G02*
X40474500Y-43604000I175500J0D01*
G01*
X42175500Y-43604000D01*
G75*
G02*
X42351000Y-43779500I0J-175500D01*
G01*
X42351000Y-44130500D01*
G75*
G02*
X42175500Y-44306000I-175500J0D01*
G01*
X40474500Y-44306000D01*
G75*
G02*
X40299000Y-44130500I0J175500D01*
G01*
G37*
G36*
G01*
X80324000Y-37883000D02*
X80324000Y-37507000D01*
G75*
G02*
X80512000Y-37319000I188000J0D01*
G01*
X82213000Y-37319000D01*
G75*
G02*
X82401000Y-37507000I0J-188000D01*
G01*
X82401000Y-37883000D01*
G75*
G02*
X82213000Y-38071000I-188000J0D01*
G01*
X80512000Y-38071000D01*
G75*
G02*
X80324000Y-37883000I0J188000D01*
G01*
G37*
G36*
G01*
X80324000Y-39153000D02*
X80324000Y-38777000D01*
G75*
G02*
X80512000Y-38589000I188000J0D01*
G01*
X82213000Y-38589000D01*
G75*
G02*
X82401000Y-38777000I0J-188000D01*
G01*
X82401000Y-39153000D01*
G75*
G02*
X82213000Y-39341000I-188000J0D01*
G01*
X80512000Y-39341000D01*
G75*
G02*
X80324000Y-39153000I0J188000D01*
G01*
G37*
G36*
G01*
X80324000Y-40423000D02*
X80324000Y-40047000D01*
G75*
G02*
X80512000Y-39859000I188000J0D01*
G01*
X82213000Y-39859000D01*
G75*
G02*
X82401000Y-40047000I0J-188000D01*
G01*
X82401000Y-40423000D01*
G75*
G02*
X82213000Y-40611000I-188000J0D01*
G01*
X80512000Y-40611000D01*
G75*
G02*
X80324000Y-40423000I0J188000D01*
G01*
G37*
G36*
G01*
X80324000Y-41693000D02*
X80324000Y-41317000D01*
G75*
G02*
X80512000Y-41129000I188000J0D01*
G01*
X82213000Y-41129000D01*
G75*
G02*
X82401000Y-41317000I0J-188000D01*
G01*
X82401000Y-41693000D01*
G75*
G02*
X82213000Y-41881000I-188000J0D01*
G01*
X80512000Y-41881000D01*
G75*
G02*
X80324000Y-41693000I0J188000D01*
G01*
G37*
G36*
G01*
X75249000Y-41693000D02*
X75249000Y-41317000D01*
G75*
G02*
X75437000Y-41129000I188000J0D01*
G01*
X77138000Y-41129000D01*
G75*
G02*
X77326000Y-41317000I0J-188000D01*
G01*
X77326000Y-41693000D01*
G75*
G02*
X77138000Y-41881000I-188000J0D01*
G01*
X75437000Y-41881000D01*
G75*
G02*
X75249000Y-41693000I0J188000D01*
G01*
G37*
G36*
G01*
X75249000Y-40423000D02*
X75249000Y-40047000D01*
G75*
G02*
X75437000Y-39859000I188000J0D01*
G01*
X77138000Y-39859000D01*
G75*
G02*
X77326000Y-40047000I0J-188000D01*
G01*
X77326000Y-40423000D01*
G75*
G02*
X77138000Y-40611000I-188000J0D01*
G01*
X75437000Y-40611000D01*
G75*
G02*
X75249000Y-40423000I0J188000D01*
G01*
G37*
G36*
G01*
X75249000Y-39153000D02*
X75249000Y-38777000D01*
G75*
G02*
X75437000Y-38589000I188000J0D01*
G01*
X77138000Y-38589000D01*
G75*
G02*
X77326000Y-38777000I0J-188000D01*
G01*
X77326000Y-39153000D01*
G75*
G02*
X77138000Y-39341000I-188000J0D01*
G01*
X75437000Y-39341000D01*
G75*
G02*
X75249000Y-39153000I0J188000D01*
G01*
G37*
G36*
G01*
X75249000Y-37883000D02*
X75249000Y-37507000D01*
G75*
G02*
X75437000Y-37319000I188000J0D01*
G01*
X77138000Y-37319000D01*
G75*
G02*
X77326000Y-37507000I0J-188000D01*
G01*
X77326000Y-37883000D01*
G75*
G02*
X77138000Y-38071000I-188000J0D01*
G01*
X75437000Y-38071000D01*
G75*
G02*
X75249000Y-37883000I0J188000D01*
G01*
G37*
D16*
X70925000Y-72505000D03*
G36*
G01*
X71476000Y-67995000D02*
X71476000Y-72995000D01*
G75*
G02*
X71425000Y-73046000I-51000J0D01*
G01*
X66425000Y-73046000D01*
G75*
G02*
X66374000Y-72995000I0J51000D01*
G01*
X66374000Y-67995000D01*
G75*
G02*
X66425000Y-67944000I51000J0D01*
G01*
X71425000Y-67944000D01*
G75*
G02*
X71476000Y-67995000I0J-51000D01*
G01*
G37*
D17*
X77525000Y-77415000D03*
X77525000Y-76145000D03*
X77525000Y-74875000D03*
X77525000Y-73605000D03*
X77525000Y-72335000D03*
X77525000Y-71065000D03*
X77525000Y-69795000D03*
X77525000Y-68525000D03*
X77525000Y-67255000D03*
X77525000Y-65985000D03*
X77525000Y-64715000D03*
X77525000Y-63445000D03*
X77525000Y-62175000D03*
X77525000Y-60905000D03*
X77525000Y-59605000D03*
X77525000Y-58335000D03*
X77525000Y-57065000D03*
X77525000Y-55795000D03*
X77525000Y-54525000D03*
X59525000Y-54525000D03*
X59525000Y-55795000D03*
X59525000Y-57065000D03*
X59525000Y-58335000D03*
X59525000Y-59605000D03*
X59495000Y-60905000D03*
X59495000Y-62175000D03*
X59495000Y-63445000D03*
X59495000Y-64715000D03*
X59495000Y-65985000D03*
X59495000Y-67255000D03*
X59495000Y-68525000D03*
X59495000Y-69795000D03*
X59495000Y-71065000D03*
X59495000Y-72335000D03*
X59495000Y-73605000D03*
X59495000Y-74875000D03*
X59495000Y-76145000D03*
X59495000Y-77415000D03*
D16*
X70925000Y-71505000D03*
X70925000Y-70505000D03*
X70925000Y-69505000D03*
X70925000Y-68505000D03*
X69925000Y-68505000D03*
X69925000Y-69505000D03*
X69925000Y-70505000D03*
X69925000Y-71505000D03*
X69925000Y-72505000D03*
X67925000Y-72505000D03*
X67925000Y-71505000D03*
X67925000Y-70505000D03*
X67925000Y-69505000D03*
X67925000Y-68505000D03*
X68925000Y-68505000D03*
X68925000Y-69505000D03*
X68925000Y-70505000D03*
X68925000Y-71505000D03*
X68925000Y-72505000D03*
X66925000Y-68505000D03*
X66925000Y-69505000D03*
X66925000Y-70505000D03*
X66925000Y-71505000D03*
X66925000Y-72505000D03*
G36*
G01*
X62909000Y-38021000D02*
X63709000Y-38021000D01*
G75*
G02*
X63760000Y-38072000I0J-51000D01*
G01*
X63760000Y-38972000D01*
G75*
G02*
X63709000Y-39023000I-51000J0D01*
G01*
X62909000Y-39023000D01*
G75*
G02*
X62858000Y-38972000I0J51000D01*
G01*
X62858000Y-38072000D01*
G75*
G02*
X62909000Y-38021000I51000J0D01*
G01*
G37*
G36*
G01*
X61959000Y-36021000D02*
X62759000Y-36021000D01*
G75*
G02*
X62810000Y-36072000I0J-51000D01*
G01*
X62810000Y-36972000D01*
G75*
G02*
X62759000Y-37023000I-51000J0D01*
G01*
X61959000Y-37023000D01*
G75*
G02*
X61908000Y-36972000I0J51000D01*
G01*
X61908000Y-36072000D01*
G75*
G02*
X61959000Y-36021000I51000J0D01*
G01*
G37*
G36*
G01*
X63859000Y-36021000D02*
X64659000Y-36021000D01*
G75*
G02*
X64710000Y-36072000I0J-51000D01*
G01*
X64710000Y-36972000D01*
G75*
G02*
X64659000Y-37023000I-51000J0D01*
G01*
X63859000Y-37023000D01*
G75*
G02*
X63808000Y-36972000I0J51000D01*
G01*
X63808000Y-36072000D01*
G75*
G02*
X63859000Y-36021000I51000J0D01*
G01*
G37*
G36*
G01*
X33951000Y-45150000D02*
X33951000Y-45450000D01*
G75*
G02*
X33900000Y-45501000I-51000J0D01*
G01*
X32500000Y-45501000D01*
G75*
G02*
X32449000Y-45450000I0J51000D01*
G01*
X32449000Y-45150000D01*
G75*
G02*
X32500000Y-45099000I51000J0D01*
G01*
X33900000Y-45099000D01*
G75*
G02*
X33951000Y-45150000I0J-51000D01*
G01*
G37*
G36*
G01*
X33951000Y-44650000D02*
X33951000Y-44950000D01*
G75*
G02*
X33900000Y-45001000I-51000J0D01*
G01*
X32500000Y-45001000D01*
G75*
G02*
X32449000Y-44950000I0J51000D01*
G01*
X32449000Y-44650000D01*
G75*
G02*
X32500000Y-44599000I51000J0D01*
G01*
X33900000Y-44599000D01*
G75*
G02*
X33951000Y-44650000I0J-51000D01*
G01*
G37*
G36*
G01*
X33951000Y-44150000D02*
X33951000Y-44450000D01*
G75*
G02*
X33900000Y-44501000I-51000J0D01*
G01*
X32500000Y-44501000D01*
G75*
G02*
X32449000Y-44450000I0J51000D01*
G01*
X32449000Y-44150000D01*
G75*
G02*
X32500000Y-44099000I51000J0D01*
G01*
X33900000Y-44099000D01*
G75*
G02*
X33951000Y-44150000I0J-51000D01*
G01*
G37*
G36*
G01*
X33951000Y-43650000D02*
X33951000Y-43950000D01*
G75*
G02*
X33900000Y-44001000I-51000J0D01*
G01*
X32500000Y-44001000D01*
G75*
G02*
X32449000Y-43950000I0J51000D01*
G01*
X32449000Y-43650000D01*
G75*
G02*
X32500000Y-43599000I51000J0D01*
G01*
X33900000Y-43599000D01*
G75*
G02*
X33951000Y-43650000I0J-51000D01*
G01*
G37*
G36*
G01*
X33951000Y-43150000D02*
X33951000Y-43450000D01*
G75*
G02*
X33900000Y-43501000I-51000J0D01*
G01*
X32500000Y-43501000D01*
G75*
G02*
X32449000Y-43450000I0J51000D01*
G01*
X32449000Y-43150000D01*
G75*
G02*
X32500000Y-43099000I51000J0D01*
G01*
X33900000Y-43099000D01*
G75*
G02*
X33951000Y-43150000I0J-51000D01*
G01*
G37*
G36*
G01*
X38351000Y-43150000D02*
X38351000Y-43450000D01*
G75*
G02*
X38300000Y-43501000I-51000J0D01*
G01*
X36900000Y-43501000D01*
G75*
G02*
X36849000Y-43450000I0J51000D01*
G01*
X36849000Y-43150000D01*
G75*
G02*
X36900000Y-43099000I51000J0D01*
G01*
X38300000Y-43099000D01*
G75*
G02*
X38351000Y-43150000I0J-51000D01*
G01*
G37*
G36*
G01*
X38351000Y-43650000D02*
X38351000Y-43950000D01*
G75*
G02*
X38300000Y-44001000I-51000J0D01*
G01*
X36900000Y-44001000D01*
G75*
G02*
X36849000Y-43950000I0J51000D01*
G01*
X36849000Y-43650000D01*
G75*
G02*
X36900000Y-43599000I51000J0D01*
G01*
X38300000Y-43599000D01*
G75*
G02*
X38351000Y-43650000I0J-51000D01*
G01*
G37*
G36*
G01*
X38351000Y-44150000D02*
X38351000Y-44450000D01*
G75*
G02*
X38300000Y-44501000I-51000J0D01*
G01*
X36900000Y-44501000D01*
G75*
G02*
X36849000Y-44450000I0J51000D01*
G01*
X36849000Y-44150000D01*
G75*
G02*
X36900000Y-44099000I51000J0D01*
G01*
X38300000Y-44099000D01*
G75*
G02*
X38351000Y-44150000I0J-51000D01*
G01*
G37*
G36*
G01*
X38351000Y-44650000D02*
X38351000Y-44950000D01*
G75*
G02*
X38300000Y-45001000I-51000J0D01*
G01*
X36900000Y-45001000D01*
G75*
G02*
X36849000Y-44950000I0J51000D01*
G01*
X36849000Y-44650000D01*
G75*
G02*
X36900000Y-44599000I51000J0D01*
G01*
X38300000Y-44599000D01*
G75*
G02*
X38351000Y-44650000I0J-51000D01*
G01*
G37*
G36*
G01*
X38351000Y-45150000D02*
X38351000Y-45450000D01*
G75*
G02*
X38300000Y-45501000I-51000J0D01*
G01*
X36900000Y-45501000D01*
G75*
G02*
X36849000Y-45450000I0J51000D01*
G01*
X36849000Y-45150000D01*
G75*
G02*
X36900000Y-45099000I51000J0D01*
G01*
X38300000Y-45099000D01*
G75*
G02*
X38351000Y-45150000I0J-51000D01*
G01*
G37*
G36*
G01*
X33655000Y-66019000D02*
X33955000Y-66019000D01*
G75*
G02*
X34006000Y-66070000I0J-51000D01*
G01*
X34006000Y-67470000D01*
G75*
G02*
X33955000Y-67521000I-51000J0D01*
G01*
X33655000Y-67521000D01*
G75*
G02*
X33604000Y-67470000I0J51000D01*
G01*
X33604000Y-66070000D01*
G75*
G02*
X33655000Y-66019000I51000J0D01*
G01*
G37*
G36*
G01*
X33155000Y-66019000D02*
X33455000Y-66019000D01*
G75*
G02*
X33506000Y-66070000I0J-51000D01*
G01*
X33506000Y-67470000D01*
G75*
G02*
X33455000Y-67521000I-51000J0D01*
G01*
X33155000Y-67521000D01*
G75*
G02*
X33104000Y-67470000I0J51000D01*
G01*
X33104000Y-66070000D01*
G75*
G02*
X33155000Y-66019000I51000J0D01*
G01*
G37*
G36*
G01*
X32655000Y-66019000D02*
X32955000Y-66019000D01*
G75*
G02*
X33006000Y-66070000I0J-51000D01*
G01*
X33006000Y-67470000D01*
G75*
G02*
X32955000Y-67521000I-51000J0D01*
G01*
X32655000Y-67521000D01*
G75*
G02*
X32604000Y-67470000I0J51000D01*
G01*
X32604000Y-66070000D01*
G75*
G02*
X32655000Y-66019000I51000J0D01*
G01*
G37*
G36*
G01*
X32155000Y-66019000D02*
X32455000Y-66019000D01*
G75*
G02*
X32506000Y-66070000I0J-51000D01*
G01*
X32506000Y-67470000D01*
G75*
G02*
X32455000Y-67521000I-51000J0D01*
G01*
X32155000Y-67521000D01*
G75*
G02*
X32104000Y-67470000I0J51000D01*
G01*
X32104000Y-66070000D01*
G75*
G02*
X32155000Y-66019000I51000J0D01*
G01*
G37*
G36*
G01*
X31655000Y-66019000D02*
X31955000Y-66019000D01*
G75*
G02*
X32006000Y-66070000I0J-51000D01*
G01*
X32006000Y-67470000D01*
G75*
G02*
X31955000Y-67521000I-51000J0D01*
G01*
X31655000Y-67521000D01*
G75*
G02*
X31604000Y-67470000I0J51000D01*
G01*
X31604000Y-66070000D01*
G75*
G02*
X31655000Y-66019000I51000J0D01*
G01*
G37*
G36*
G01*
X31655000Y-61619000D02*
X31955000Y-61619000D01*
G75*
G02*
X32006000Y-61670000I0J-51000D01*
G01*
X32006000Y-63070000D01*
G75*
G02*
X31955000Y-63121000I-51000J0D01*
G01*
X31655000Y-63121000D01*
G75*
G02*
X31604000Y-63070000I0J51000D01*
G01*
X31604000Y-61670000D01*
G75*
G02*
X31655000Y-61619000I51000J0D01*
G01*
G37*
G36*
G01*
X32155000Y-61619000D02*
X32455000Y-61619000D01*
G75*
G02*
X32506000Y-61670000I0J-51000D01*
G01*
X32506000Y-63070000D01*
G75*
G02*
X32455000Y-63121000I-51000J0D01*
G01*
X32155000Y-63121000D01*
G75*
G02*
X32104000Y-63070000I0J51000D01*
G01*
X32104000Y-61670000D01*
G75*
G02*
X32155000Y-61619000I51000J0D01*
G01*
G37*
G36*
G01*
X32655000Y-61619000D02*
X32955000Y-61619000D01*
G75*
G02*
X33006000Y-61670000I0J-51000D01*
G01*
X33006000Y-63070000D01*
G75*
G02*
X32955000Y-63121000I-51000J0D01*
G01*
X32655000Y-63121000D01*
G75*
G02*
X32604000Y-63070000I0J51000D01*
G01*
X32604000Y-61670000D01*
G75*
G02*
X32655000Y-61619000I51000J0D01*
G01*
G37*
G36*
G01*
X33155000Y-61619000D02*
X33455000Y-61619000D01*
G75*
G02*
X33506000Y-61670000I0J-51000D01*
G01*
X33506000Y-63070000D01*
G75*
G02*
X33455000Y-63121000I-51000J0D01*
G01*
X33155000Y-63121000D01*
G75*
G02*
X33104000Y-63070000I0J51000D01*
G01*
X33104000Y-61670000D01*
G75*
G02*
X33155000Y-61619000I51000J0D01*
G01*
G37*
G36*
G01*
X33655000Y-61619000D02*
X33955000Y-61619000D01*
G75*
G02*
X34006000Y-61670000I0J-51000D01*
G01*
X34006000Y-63070000D01*
G75*
G02*
X33955000Y-63121000I-51000J0D01*
G01*
X33655000Y-63121000D01*
G75*
G02*
X33604000Y-63070000I0J51000D01*
G01*
X33604000Y-61670000D01*
G75*
G02*
X33655000Y-61619000I51000J0D01*
G01*
G37*
G36*
G01*
X52724000Y-71200000D02*
X52724000Y-70400000D01*
G75*
G02*
X52775000Y-70349000I51000J0D01*
G01*
X53675000Y-70349000D01*
G75*
G02*
X53726000Y-70400000I0J-51000D01*
G01*
X53726000Y-71200000D01*
G75*
G02*
X53675000Y-71251000I-51000J0D01*
G01*
X52775000Y-71251000D01*
G75*
G02*
X52724000Y-71200000I0J51000D01*
G01*
G37*
G36*
G01*
X50724000Y-72150000D02*
X50724000Y-71350000D01*
G75*
G02*
X50775000Y-71299000I51000J0D01*
G01*
X51675000Y-71299000D01*
G75*
G02*
X51726000Y-71350000I0J-51000D01*
G01*
X51726000Y-72150000D01*
G75*
G02*
X51675000Y-72201000I-51000J0D01*
G01*
X50775000Y-72201000D01*
G75*
G02*
X50724000Y-72150000I0J51000D01*
G01*
G37*
G36*
G01*
X50724000Y-70250000D02*
X50724000Y-69450000D01*
G75*
G02*
X50775000Y-69399000I51000J0D01*
G01*
X51675000Y-69399000D01*
G75*
G02*
X51726000Y-69450000I0J-51000D01*
G01*
X51726000Y-70250000D01*
G75*
G02*
X51675000Y-70301000I-51000J0D01*
G01*
X50775000Y-70301000D01*
G75*
G02*
X50724000Y-70250000I0J51000D01*
G01*
G37*
D13*
X83200000Y-34075000D03*
G36*
G01*
X64750966Y-27021564D02*
X64750966Y-27951560D01*
G75*
G02*
X64699966Y-28002560I-51000J0D01*
G01*
X63599968Y-28002560D01*
G75*
G02*
X63548968Y-27951560I0J51000D01*
G01*
X63548968Y-27021564D01*
G75*
G02*
X63599968Y-26970564I51000J0D01*
G01*
X64699966Y-26970564D01*
G75*
G02*
X64750966Y-27021564I0J-51000D01*
G01*
G37*
G36*
G01*
X64750966Y-24751566D02*
X64750966Y-25681562D01*
G75*
G02*
X64699966Y-25732562I-51000J0D01*
G01*
X63599968Y-25732562D01*
G75*
G02*
X63548968Y-25681562I0J51000D01*
G01*
X63548968Y-24751566D01*
G75*
G02*
X63599968Y-24700566I51000J0D01*
G01*
X64699966Y-24700566D01*
G75*
G02*
X64750966Y-24751566I0J-51000D01*
G01*
G37*
G36*
G01*
X57151032Y-24751566D02*
X57151032Y-25681562D01*
G75*
G02*
X57100032Y-25732562I-51000J0D01*
G01*
X56000034Y-25732562D01*
G75*
G02*
X55949034Y-25681562I0J51000D01*
G01*
X55949034Y-24751566D01*
G75*
G02*
X56000034Y-24700566I51000J0D01*
G01*
X57100032Y-24700566D01*
G75*
G02*
X57151032Y-24751566I0J-51000D01*
G01*
G37*
G36*
G01*
X57151032Y-27021564D02*
X57151032Y-27951560D01*
G75*
G02*
X57100032Y-28002560I-51000J0D01*
G01*
X56000034Y-28002560D01*
G75*
G02*
X55949034Y-27951560I0J51000D01*
G01*
X55949034Y-27021564D01*
G75*
G02*
X56000034Y-26970564I51000J0D01*
G01*
X57100032Y-26970564D01*
G75*
G02*
X57151032Y-27021564I0J-51000D01*
G01*
G37*
G36*
G01*
X58601194Y-27483438D02*
X58601194Y-29283434D01*
G75*
G02*
X58550194Y-29334434I-51000J0D01*
G01*
X57650196Y-29334434D01*
G75*
G02*
X57599196Y-29283434I0J51000D01*
G01*
X57599196Y-27483438D01*
G75*
G02*
X57650196Y-27432438I51000J0D01*
G01*
X58550194Y-27432438D01*
G75*
G02*
X58601194Y-27483438I0J-51000D01*
G01*
G37*
G36*
G01*
X60101064Y-27483438D02*
X60101064Y-29283434D01*
G75*
G02*
X60050064Y-29334434I-51000J0D01*
G01*
X59150066Y-29334434D01*
G75*
G02*
X59099066Y-29283434I0J51000D01*
G01*
X59099066Y-27483438D01*
G75*
G02*
X59150066Y-27432438I51000J0D01*
G01*
X60050064Y-27432438D01*
G75*
G02*
X60101064Y-27483438I0J-51000D01*
G01*
G37*
G36*
G01*
X63101058Y-27483438D02*
X63101058Y-29283434D01*
G75*
G02*
X63050058Y-29334434I-51000J0D01*
G01*
X62150060Y-29334434D01*
G75*
G02*
X62099060Y-29283434I0J51000D01*
G01*
X62099060Y-27483438D01*
G75*
G02*
X62150060Y-27432438I51000J0D01*
G01*
X63050058Y-27432438D01*
G75*
G02*
X63101058Y-27483438I0J-51000D01*
G01*
G37*
D18*
X61849997Y-26351690D03*
X58850003Y-26351690D03*
G36*
G01*
X75049054Y-49799982D02*
X75049054Y-48299986D01*
G75*
G02*
X75100054Y-48248986I51000J0D01*
G01*
X76299950Y-48248986D01*
G75*
G02*
X76350950Y-48299986I0J-51000D01*
G01*
X76350950Y-49799982D01*
G75*
G02*
X76299950Y-49850982I-51000J0D01*
G01*
X75100054Y-49850982D01*
G75*
G02*
X75049054Y-49799982I0J51000D01*
G01*
G37*
G36*
G01*
X77049050Y-49799982D02*
X77049050Y-48299986D01*
G75*
G02*
X77100050Y-48248986I51000J0D01*
G01*
X78299946Y-48248986D01*
G75*
G02*
X78350946Y-48299986I0J-51000D01*
G01*
X78350946Y-49799982D01*
G75*
G02*
X78299946Y-49850982I-51000J0D01*
G01*
X77100050Y-49850982D01*
G75*
G02*
X77049050Y-49799982I0J51000D01*
G01*
G37*
G36*
G01*
X75849002Y-46550014D02*
X75849002Y-44950018D01*
G75*
G02*
X75900002Y-44899018I51000J0D01*
G01*
X77499998Y-44899018D01*
G75*
G02*
X77550998Y-44950018I0J-51000D01*
G01*
X77550998Y-46550014D01*
G75*
G02*
X77499998Y-46601014I-51000J0D01*
G01*
X75900002Y-46601014D01*
G75*
G02*
X75849002Y-46550014I0J51000D01*
G01*
G37*
G36*
G01*
X67463500Y-33073875D02*
X67463500Y-34026125D01*
G75*
G02*
X67188625Y-34301000I-274875J0D01*
G01*
X66611375Y-34301000D01*
G75*
G02*
X66336500Y-34026125I0J274875D01*
G01*
X66336500Y-33073875D01*
G75*
G02*
X66611375Y-32799000I274875J0D01*
G01*
X67188625Y-32799000D01*
G75*
G02*
X67463500Y-33073875I0J-274875D01*
G01*
G37*
G36*
G01*
X69288500Y-33073875D02*
X69288500Y-34026125D01*
G75*
G02*
X69013625Y-34301000I-274875J0D01*
G01*
X68436375Y-34301000D01*
G75*
G02*
X68161500Y-34026125I0J274875D01*
G01*
X68161500Y-33073875D01*
G75*
G02*
X68436375Y-32799000I274875J0D01*
G01*
X69013625Y-32799000D01*
G75*
G02*
X69288500Y-33073875I0J-274875D01*
G01*
G37*
G36*
G01*
X76049000Y-34951125D02*
X76049000Y-33998875D01*
G75*
G02*
X76323875Y-33724000I274875J0D01*
G01*
X76901125Y-33724000D01*
G75*
G02*
X77176000Y-33998875I0J-274875D01*
G01*
X77176000Y-34951125D01*
G75*
G02*
X76901125Y-35226000I-274875J0D01*
G01*
X76323875Y-35226000D01*
G75*
G02*
X76049000Y-34951125I0J274875D01*
G01*
G37*
G36*
G01*
X74224000Y-34951125D02*
X74224000Y-33998875D01*
G75*
G02*
X74498875Y-33724000I274875J0D01*
G01*
X75076125Y-33724000D01*
G75*
G02*
X75351000Y-33998875I0J-274875D01*
G01*
X75351000Y-34951125D01*
G75*
G02*
X75076125Y-35226000I-274875J0D01*
G01*
X74498875Y-35226000D01*
G75*
G02*
X74224000Y-34951125I0J274875D01*
G01*
G37*
G36*
G01*
X83376000Y-75748875D02*
X83376000Y-76701125D01*
G75*
G02*
X83101125Y-76976000I-274875J0D01*
G01*
X82523875Y-76976000D01*
G75*
G02*
X82249000Y-76701125I0J274875D01*
G01*
X82249000Y-75748875D01*
G75*
G02*
X82523875Y-75474000I274875J0D01*
G01*
X83101125Y-75474000D01*
G75*
G02*
X83376000Y-75748875I0J-274875D01*
G01*
G37*
G36*
G01*
X85201000Y-75748875D02*
X85201000Y-76701125D01*
G75*
G02*
X84926125Y-76976000I-274875J0D01*
G01*
X84348875Y-76976000D01*
G75*
G02*
X84074000Y-76701125I0J274875D01*
G01*
X84074000Y-75748875D01*
G75*
G02*
X84348875Y-75474000I274875J0D01*
G01*
X84926125Y-75474000D01*
G75*
G02*
X85201000Y-75748875I0J-274875D01*
G01*
G37*
G36*
G01*
X87376000Y-75823875D02*
X87376000Y-76776125D01*
G75*
G02*
X87101125Y-77051000I-274875J0D01*
G01*
X86523875Y-77051000D01*
G75*
G02*
X86249000Y-76776125I0J274875D01*
G01*
X86249000Y-75823875D01*
G75*
G02*
X86523875Y-75549000I274875J0D01*
G01*
X87101125Y-75549000D01*
G75*
G02*
X87376000Y-75823875I0J-274875D01*
G01*
G37*
G36*
G01*
X89201000Y-75823875D02*
X89201000Y-76776125D01*
G75*
G02*
X88926125Y-77051000I-274875J0D01*
G01*
X88348875Y-77051000D01*
G75*
G02*
X88074000Y-76776125I0J274875D01*
G01*
X88074000Y-75823875D01*
G75*
G02*
X88348875Y-75549000I274875J0D01*
G01*
X88926125Y-75549000D01*
G75*
G02*
X89201000Y-75823875I0J-274875D01*
G01*
G37*
G36*
G01*
X43001000Y-83623875D02*
X43001000Y-84576125D01*
G75*
G02*
X42726125Y-84851000I-274875J0D01*
G01*
X42148875Y-84851000D01*
G75*
G02*
X41874000Y-84576125I0J274875D01*
G01*
X41874000Y-83623875D01*
G75*
G02*
X42148875Y-83349000I274875J0D01*
G01*
X42726125Y-83349000D01*
G75*
G02*
X43001000Y-83623875I0J-274875D01*
G01*
G37*
G36*
G01*
X44826000Y-83623875D02*
X44826000Y-84576125D01*
G75*
G02*
X44551125Y-84851000I-274875J0D01*
G01*
X43973875Y-84851000D01*
G75*
G02*
X43699000Y-84576125I0J274875D01*
G01*
X43699000Y-83623875D01*
G75*
G02*
X43973875Y-83349000I274875J0D01*
G01*
X44551125Y-83349000D01*
G75*
G02*
X44826000Y-83623875I0J-274875D01*
G01*
G37*
G36*
G01*
X25495000Y-39572125D02*
X25495000Y-38619875D01*
G75*
G02*
X25769875Y-38345000I274875J0D01*
G01*
X26347125Y-38345000D01*
G75*
G02*
X26622000Y-38619875I0J-274875D01*
G01*
X26622000Y-39572125D01*
G75*
G02*
X26347125Y-39847000I-274875J0D01*
G01*
X25769875Y-39847000D01*
G75*
G02*
X25495000Y-39572125I0J274875D01*
G01*
G37*
G36*
G01*
X23670000Y-39572125D02*
X23670000Y-38619875D01*
G75*
G02*
X23944875Y-38345000I274875J0D01*
G01*
X24522125Y-38345000D01*
G75*
G02*
X24797000Y-38619875I0J-274875D01*
G01*
X24797000Y-39572125D01*
G75*
G02*
X24522125Y-39847000I-274875J0D01*
G01*
X23944875Y-39847000D01*
G75*
G02*
X23670000Y-39572125I0J274875D01*
G01*
G37*
G36*
G01*
X33368875Y-38633000D02*
X34321125Y-38633000D01*
G75*
G02*
X34596000Y-38907875I0J-274875D01*
G01*
X34596000Y-39485125D01*
G75*
G02*
X34321125Y-39760000I-274875J0D01*
G01*
X33368875Y-39760000D01*
G75*
G02*
X33094000Y-39485125I0J274875D01*
G01*
X33094000Y-38907875D01*
G75*
G02*
X33368875Y-38633000I274875J0D01*
G01*
G37*
G36*
G01*
X33368875Y-36808000D02*
X34321125Y-36808000D01*
G75*
G02*
X34596000Y-37082875I0J-274875D01*
G01*
X34596000Y-37660125D01*
G75*
G02*
X34321125Y-37935000I-274875J0D01*
G01*
X33368875Y-37935000D01*
G75*
G02*
X33094000Y-37660125I0J274875D01*
G01*
X33094000Y-37082875D01*
G75*
G02*
X33368875Y-36808000I274875J0D01*
G01*
G37*
G36*
G01*
X29636500Y-39426125D02*
X29636500Y-38473875D01*
G75*
G02*
X29911375Y-38199000I274875J0D01*
G01*
X30488625Y-38199000D01*
G75*
G02*
X30763500Y-38473875I0J-274875D01*
G01*
X30763500Y-39426125D01*
G75*
G02*
X30488625Y-39701000I-274875J0D01*
G01*
X29911375Y-39701000D01*
G75*
G02*
X29636500Y-39426125I0J274875D01*
G01*
G37*
G36*
G01*
X27811500Y-39426125D02*
X27811500Y-38473875D01*
G75*
G02*
X28086375Y-38199000I274875J0D01*
G01*
X28663625Y-38199000D01*
G75*
G02*
X28938500Y-38473875I0J-274875D01*
G01*
X28938500Y-39426125D01*
G75*
G02*
X28663625Y-39701000I-274875J0D01*
G01*
X28086375Y-39701000D01*
G75*
G02*
X27811500Y-39426125I0J274875D01*
G01*
G37*
G36*
G01*
X25248875Y-43249000D02*
X26201125Y-43249000D01*
G75*
G02*
X26476000Y-43523875I0J-274875D01*
G01*
X26476000Y-44101125D01*
G75*
G02*
X26201125Y-44376000I-274875J0D01*
G01*
X25248875Y-44376000D01*
G75*
G02*
X24974000Y-44101125I0J274875D01*
G01*
X24974000Y-43523875D01*
G75*
G02*
X25248875Y-43249000I274875J0D01*
G01*
G37*
G36*
G01*
X25248875Y-41424000D02*
X26201125Y-41424000D01*
G75*
G02*
X26476000Y-41698875I0J-274875D01*
G01*
X26476000Y-42276125D01*
G75*
G02*
X26201125Y-42551000I-274875J0D01*
G01*
X25248875Y-42551000D01*
G75*
G02*
X24974000Y-42276125I0J274875D01*
G01*
X24974000Y-41698875D01*
G75*
G02*
X25248875Y-41424000I274875J0D01*
G01*
G37*
G36*
G01*
X47226000Y-71663875D02*
X47226000Y-72616125D01*
G75*
G02*
X46951125Y-72891000I-274875J0D01*
G01*
X46373875Y-72891000D01*
G75*
G02*
X46099000Y-72616125I0J274875D01*
G01*
X46099000Y-71663875D01*
G75*
G02*
X46373875Y-71389000I274875J0D01*
G01*
X46951125Y-71389000D01*
G75*
G02*
X47226000Y-71663875I0J-274875D01*
G01*
G37*
G36*
G01*
X49051000Y-71663875D02*
X49051000Y-72616125D01*
G75*
G02*
X48776125Y-72891000I-274875J0D01*
G01*
X48198875Y-72891000D01*
G75*
G02*
X47924000Y-72616125I0J274875D01*
G01*
X47924000Y-71663875D01*
G75*
G02*
X48198875Y-71389000I274875J0D01*
G01*
X48776125Y-71389000D01*
G75*
G02*
X49051000Y-71663875I0J-274875D01*
G01*
G37*
G36*
G01*
X80168875Y-48039000D02*
X81121125Y-48039000D01*
G75*
G02*
X81396000Y-48313875I0J-274875D01*
G01*
X81396000Y-48891125D01*
G75*
G02*
X81121125Y-49166000I-274875J0D01*
G01*
X80168875Y-49166000D01*
G75*
G02*
X79894000Y-48891125I0J274875D01*
G01*
X79894000Y-48313875D01*
G75*
G02*
X80168875Y-48039000I274875J0D01*
G01*
G37*
G36*
G01*
X80168875Y-46214000D02*
X81121125Y-46214000D01*
G75*
G02*
X81396000Y-46488875I0J-274875D01*
G01*
X81396000Y-47066125D01*
G75*
G02*
X81121125Y-47341000I-274875J0D01*
G01*
X80168875Y-47341000D01*
G75*
G02*
X79894000Y-47066125I0J274875D01*
G01*
X79894000Y-46488875D01*
G75*
G02*
X80168875Y-46214000I274875J0D01*
G01*
G37*
G36*
G01*
X37786000Y-66693875D02*
X37786000Y-67646125D01*
G75*
G02*
X37511125Y-67921000I-274875J0D01*
G01*
X36933875Y-67921000D01*
G75*
G02*
X36659000Y-67646125I0J274875D01*
G01*
X36659000Y-66693875D01*
G75*
G02*
X36933875Y-66419000I274875J0D01*
G01*
X37511125Y-66419000D01*
G75*
G02*
X37786000Y-66693875I0J-274875D01*
G01*
G37*
G36*
G01*
X39611000Y-66693875D02*
X39611000Y-67646125D01*
G75*
G02*
X39336125Y-67921000I-274875J0D01*
G01*
X38758875Y-67921000D01*
G75*
G02*
X38484000Y-67646125I0J274875D01*
G01*
X38484000Y-66693875D01*
G75*
G02*
X38758875Y-66419000I274875J0D01*
G01*
X39336125Y-66419000D01*
G75*
G02*
X39611000Y-66693875I0J-274875D01*
G01*
G37*
G36*
G01*
X46667125Y-66515000D02*
X45714875Y-66515000D01*
G75*
G02*
X45440000Y-66240125I0J274875D01*
G01*
X45440000Y-65662875D01*
G75*
G02*
X45714875Y-65388000I274875J0D01*
G01*
X46667125Y-65388000D01*
G75*
G02*
X46942000Y-65662875I0J-274875D01*
G01*
X46942000Y-66240125D01*
G75*
G02*
X46667125Y-66515000I-274875J0D01*
G01*
G37*
G36*
G01*
X46667125Y-68340000D02*
X45714875Y-68340000D01*
G75*
G02*
X45440000Y-68065125I0J274875D01*
G01*
X45440000Y-67487875D01*
G75*
G02*
X45714875Y-67213000I274875J0D01*
G01*
X46667125Y-67213000D01*
G75*
G02*
X46942000Y-67487875I0J-274875D01*
G01*
X46942000Y-68065125D01*
G75*
G02*
X46667125Y-68340000I-274875J0D01*
G01*
G37*
G36*
G01*
X89226000Y-70473875D02*
X89226000Y-71426125D01*
G75*
G02*
X88951125Y-71701000I-274875J0D01*
G01*
X88373875Y-71701000D01*
G75*
G02*
X88099000Y-71426125I0J274875D01*
G01*
X88099000Y-70473875D01*
G75*
G02*
X88373875Y-70199000I274875J0D01*
G01*
X88951125Y-70199000D01*
G75*
G02*
X89226000Y-70473875I0J-274875D01*
G01*
G37*
G36*
G01*
X91051000Y-70473875D02*
X91051000Y-71426125D01*
G75*
G02*
X90776125Y-71701000I-274875J0D01*
G01*
X90198875Y-71701000D01*
G75*
G02*
X89924000Y-71426125I0J274875D01*
G01*
X89924000Y-70473875D01*
G75*
G02*
X90198875Y-70199000I274875J0D01*
G01*
X90776125Y-70199000D01*
G75*
G02*
X91051000Y-70473875I0J-274875D01*
G01*
G37*
G36*
G01*
X93440000Y-69557875D02*
X93440000Y-70510125D01*
G75*
G02*
X93165125Y-70785000I-274875J0D01*
G01*
X92587875Y-70785000D01*
G75*
G02*
X92313000Y-70510125I0J274875D01*
G01*
X92313000Y-69557875D01*
G75*
G02*
X92587875Y-69283000I274875J0D01*
G01*
X93165125Y-69283000D01*
G75*
G02*
X93440000Y-69557875I0J-274875D01*
G01*
G37*
G36*
G01*
X95265000Y-69557875D02*
X95265000Y-70510125D01*
G75*
G02*
X94990125Y-70785000I-274875J0D01*
G01*
X94412875Y-70785000D01*
G75*
G02*
X94138000Y-70510125I0J274875D01*
G01*
X94138000Y-69557875D01*
G75*
G02*
X94412875Y-69283000I274875J0D01*
G01*
X94990125Y-69283000D01*
G75*
G02*
X95265000Y-69557875I0J-274875D01*
G01*
G37*
G36*
G01*
X105568000Y-70002125D02*
X105568000Y-69049875D01*
G75*
G02*
X105842875Y-68775000I274875J0D01*
G01*
X106420125Y-68775000D01*
G75*
G02*
X106695000Y-69049875I0J-274875D01*
G01*
X106695000Y-70002125D01*
G75*
G02*
X106420125Y-70277000I-274875J0D01*
G01*
X105842875Y-70277000D01*
G75*
G02*
X105568000Y-70002125I0J274875D01*
G01*
G37*
G36*
G01*
X103743000Y-70002125D02*
X103743000Y-69049875D01*
G75*
G02*
X104017875Y-68775000I274875J0D01*
G01*
X104595125Y-68775000D01*
G75*
G02*
X104870000Y-69049875I0J-274875D01*
G01*
X104870000Y-70002125D01*
G75*
G02*
X104595125Y-70277000I-274875J0D01*
G01*
X104017875Y-70277000D01*
G75*
G02*
X103743000Y-70002125I0J274875D01*
G01*
G37*
G36*
G01*
X40293500Y-87152125D02*
X40293500Y-86199875D01*
G75*
G02*
X40568375Y-85925000I274875J0D01*
G01*
X41145625Y-85925000D01*
G75*
G02*
X41420500Y-86199875I0J-274875D01*
G01*
X41420500Y-87152125D01*
G75*
G02*
X41145625Y-87427000I-274875J0D01*
G01*
X40568375Y-87427000D01*
G75*
G02*
X40293500Y-87152125I0J274875D01*
G01*
G37*
G36*
G01*
X38468500Y-87152125D02*
X38468500Y-86199875D01*
G75*
G02*
X38743375Y-85925000I274875J0D01*
G01*
X39320625Y-85925000D01*
G75*
G02*
X39595500Y-86199875I0J-274875D01*
G01*
X39595500Y-87152125D01*
G75*
G02*
X39320625Y-87427000I-274875J0D01*
G01*
X38743375Y-87427000D01*
G75*
G02*
X38468500Y-87152125I0J274875D01*
G01*
G37*
G36*
G01*
X30982875Y-86009000D02*
X31935125Y-86009000D01*
G75*
G02*
X32210000Y-86283875I0J-274875D01*
G01*
X32210000Y-86861125D01*
G75*
G02*
X31935125Y-87136000I-274875J0D01*
G01*
X30982875Y-87136000D01*
G75*
G02*
X30708000Y-86861125I0J274875D01*
G01*
X30708000Y-86283875D01*
G75*
G02*
X30982875Y-86009000I274875J0D01*
G01*
G37*
G36*
G01*
X30982875Y-84184000D02*
X31935125Y-84184000D01*
G75*
G02*
X32210000Y-84458875I0J-274875D01*
G01*
X32210000Y-85036125D01*
G75*
G02*
X31935125Y-85311000I-274875J0D01*
G01*
X30982875Y-85311000D01*
G75*
G02*
X30708000Y-85036125I0J274875D01*
G01*
X30708000Y-84458875D01*
G75*
G02*
X30982875Y-84184000I274875J0D01*
G01*
G37*
G36*
G01*
X38774000Y-64316125D02*
X38774000Y-63363875D01*
G75*
G02*
X39048875Y-63089000I274875J0D01*
G01*
X39626125Y-63089000D01*
G75*
G02*
X39901000Y-63363875I0J-274875D01*
G01*
X39901000Y-64316125D01*
G75*
G02*
X39626125Y-64591000I-274875J0D01*
G01*
X39048875Y-64591000D01*
G75*
G02*
X38774000Y-64316125I0J274875D01*
G01*
G37*
G36*
G01*
X36949000Y-64316125D02*
X36949000Y-63363875D01*
G75*
G02*
X37223875Y-63089000I274875J0D01*
G01*
X37801125Y-63089000D01*
G75*
G02*
X38076000Y-63363875I0J-274875D01*
G01*
X38076000Y-64316125D01*
G75*
G02*
X37801125Y-64591000I-274875J0D01*
G01*
X37223875Y-64591000D01*
G75*
G02*
X36949000Y-64316125I0J274875D01*
G01*
G37*
G36*
G01*
X27172875Y-63553500D02*
X28125125Y-63553500D01*
G75*
G02*
X28400000Y-63828375I0J-274875D01*
G01*
X28400000Y-64405625D01*
G75*
G02*
X28125125Y-64680500I-274875J0D01*
G01*
X27172875Y-64680500D01*
G75*
G02*
X26898000Y-64405625I0J274875D01*
G01*
X26898000Y-63828375D01*
G75*
G02*
X27172875Y-63553500I274875J0D01*
G01*
G37*
G36*
G01*
X27172875Y-61728500D02*
X28125125Y-61728500D01*
G75*
G02*
X28400000Y-62003375I0J-274875D01*
G01*
X28400000Y-62580625D01*
G75*
G02*
X28125125Y-62855500I-274875J0D01*
G01*
X27172875Y-62855500D01*
G75*
G02*
X26898000Y-62580625I0J274875D01*
G01*
X26898000Y-62003375D01*
G75*
G02*
X27172875Y-61728500I274875J0D01*
G01*
G37*
G36*
G01*
X97349000Y-78776125D02*
X97349000Y-77823875D01*
G75*
G02*
X97623875Y-77549000I274875J0D01*
G01*
X98201125Y-77549000D01*
G75*
G02*
X98476000Y-77823875I0J-274875D01*
G01*
X98476000Y-78776125D01*
G75*
G02*
X98201125Y-79051000I-274875J0D01*
G01*
X97623875Y-79051000D01*
G75*
G02*
X97349000Y-78776125I0J274875D01*
G01*
G37*
G36*
G01*
X95524000Y-78776125D02*
X95524000Y-77823875D01*
G75*
G02*
X95798875Y-77549000I274875J0D01*
G01*
X96376125Y-77549000D01*
G75*
G02*
X96651000Y-77823875I0J-274875D01*
G01*
X96651000Y-78776125D01*
G75*
G02*
X96376125Y-79051000I-274875J0D01*
G01*
X95798875Y-79051000D01*
G75*
G02*
X95524000Y-78776125I0J274875D01*
G01*
G37*
G36*
G01*
X109442125Y-66707000D02*
X108489875Y-66707000D01*
G75*
G02*
X108215000Y-66432125I0J274875D01*
G01*
X108215000Y-65854875D01*
G75*
G02*
X108489875Y-65580000I274875J0D01*
G01*
X109442125Y-65580000D01*
G75*
G02*
X109717000Y-65854875I0J-274875D01*
G01*
X109717000Y-66432125D01*
G75*
G02*
X109442125Y-66707000I-274875J0D01*
G01*
G37*
G36*
G01*
X109442125Y-68532000D02*
X108489875Y-68532000D01*
G75*
G02*
X108215000Y-68257125I0J274875D01*
G01*
X108215000Y-67679875D01*
G75*
G02*
X108489875Y-67405000I274875J0D01*
G01*
X109442125Y-67405000D01*
G75*
G02*
X109717000Y-67679875I0J-274875D01*
G01*
X109717000Y-68257125D01*
G75*
G02*
X109442125Y-68532000I-274875J0D01*
G01*
G37*
G36*
G01*
X42540000Y-72229875D02*
X42540000Y-73182125D01*
G75*
G02*
X42265125Y-73457000I-274875J0D01*
G01*
X41687875Y-73457000D01*
G75*
G02*
X41413000Y-73182125I0J274875D01*
G01*
X41413000Y-72229875D01*
G75*
G02*
X41687875Y-71955000I274875J0D01*
G01*
X42265125Y-71955000D01*
G75*
G02*
X42540000Y-72229875I0J-274875D01*
G01*
G37*
G36*
G01*
X44365000Y-72229875D02*
X44365000Y-73182125D01*
G75*
G02*
X44090125Y-73457000I-274875J0D01*
G01*
X43512875Y-73457000D01*
G75*
G02*
X43238000Y-73182125I0J274875D01*
G01*
X43238000Y-72229875D01*
G75*
G02*
X43512875Y-71955000I274875J0D01*
G01*
X44090125Y-71955000D01*
G75*
G02*
X44365000Y-72229875I0J-274875D01*
G01*
G37*
G36*
G01*
X38816000Y-73106000D02*
X38816000Y-72306000D01*
G75*
G02*
X38867000Y-72255000I51000J0D01*
G01*
X39767000Y-72255000D01*
G75*
G02*
X39818000Y-72306000I0J-51000D01*
G01*
X39818000Y-73106000D01*
G75*
G02*
X39767000Y-73157000I-51000J0D01*
G01*
X38867000Y-73157000D01*
G75*
G02*
X38816000Y-73106000I0J51000D01*
G01*
G37*
G36*
G01*
X36816000Y-74056000D02*
X36816000Y-73256000D01*
G75*
G02*
X36867000Y-73205000I51000J0D01*
G01*
X37767000Y-73205000D01*
G75*
G02*
X37818000Y-73256000I0J-51000D01*
G01*
X37818000Y-74056000D01*
G75*
G02*
X37767000Y-74107000I-51000J0D01*
G01*
X36867000Y-74107000D01*
G75*
G02*
X36816000Y-74056000I0J51000D01*
G01*
G37*
G36*
G01*
X36816000Y-72156000D02*
X36816000Y-71356000D01*
G75*
G02*
X36867000Y-71305000I51000J0D01*
G01*
X37767000Y-71305000D01*
G75*
G02*
X37818000Y-71356000I0J-51000D01*
G01*
X37818000Y-72156000D01*
G75*
G02*
X37767000Y-72207000I-51000J0D01*
G01*
X36867000Y-72207000D01*
G75*
G02*
X36816000Y-72156000I0J51000D01*
G01*
G37*
G36*
G01*
X49701000Y-77645000D02*
X50501000Y-77645000D01*
G75*
G02*
X50552000Y-77696000I0J-51000D01*
G01*
X50552000Y-78596000D01*
G75*
G02*
X50501000Y-78647000I-51000J0D01*
G01*
X49701000Y-78647000D01*
G75*
G02*
X49650000Y-78596000I0J51000D01*
G01*
X49650000Y-77696000D01*
G75*
G02*
X49701000Y-77645000I51000J0D01*
G01*
G37*
G36*
G01*
X48751000Y-75645000D02*
X49551000Y-75645000D01*
G75*
G02*
X49602000Y-75696000I0J-51000D01*
G01*
X49602000Y-76596000D01*
G75*
G02*
X49551000Y-76647000I-51000J0D01*
G01*
X48751000Y-76647000D01*
G75*
G02*
X48700000Y-76596000I0J51000D01*
G01*
X48700000Y-75696000D01*
G75*
G02*
X48751000Y-75645000I51000J0D01*
G01*
G37*
G36*
G01*
X50651000Y-75645000D02*
X51451000Y-75645000D01*
G75*
G02*
X51502000Y-75696000I0J-51000D01*
G01*
X51502000Y-76596000D01*
G75*
G02*
X51451000Y-76647000I-51000J0D01*
G01*
X50651000Y-76647000D01*
G75*
G02*
X50600000Y-76596000I0J51000D01*
G01*
X50600000Y-75696000D01*
G75*
G02*
X50651000Y-75645000I51000J0D01*
G01*
G37*
G36*
G01*
X41882000Y-67226000D02*
X41882000Y-68026000D01*
G75*
G02*
X41831000Y-68077000I-51000J0D01*
G01*
X40931000Y-68077000D01*
G75*
G02*
X40880000Y-68026000I0J51000D01*
G01*
X40880000Y-67226000D01*
G75*
G02*
X40931000Y-67175000I51000J0D01*
G01*
X41831000Y-67175000D01*
G75*
G02*
X41882000Y-67226000I0J-51000D01*
G01*
G37*
G36*
G01*
X43882000Y-66276000D02*
X43882000Y-67076000D01*
G75*
G02*
X43831000Y-67127000I-51000J0D01*
G01*
X42931000Y-67127000D01*
G75*
G02*
X42880000Y-67076000I0J51000D01*
G01*
X42880000Y-66276000D01*
G75*
G02*
X42931000Y-66225000I51000J0D01*
G01*
X43831000Y-66225000D01*
G75*
G02*
X43882000Y-66276000I0J-51000D01*
G01*
G37*
G36*
G01*
X43882000Y-68176000D02*
X43882000Y-68976000D01*
G75*
G02*
X43831000Y-69027000I-51000J0D01*
G01*
X42931000Y-69027000D01*
G75*
G02*
X42880000Y-68976000I0J51000D01*
G01*
X42880000Y-68176000D01*
G75*
G02*
X42931000Y-68125000I51000J0D01*
G01*
X43831000Y-68125000D01*
G75*
G02*
X43882000Y-68176000I0J-51000D01*
G01*
G37*
G36*
G01*
X46591000Y-76525000D02*
X45791000Y-76525000D01*
G75*
G02*
X45740000Y-76474000I0J51000D01*
G01*
X45740000Y-75574000D01*
G75*
G02*
X45791000Y-75523000I51000J0D01*
G01*
X46591000Y-75523000D01*
G75*
G02*
X46642000Y-75574000I0J-51000D01*
G01*
X46642000Y-76474000D01*
G75*
G02*
X46591000Y-76525000I-51000J0D01*
G01*
G37*
G36*
G01*
X47541000Y-78525000D02*
X46741000Y-78525000D01*
G75*
G02*
X46690000Y-78474000I0J51000D01*
G01*
X46690000Y-77574000D01*
G75*
G02*
X46741000Y-77523000I51000J0D01*
G01*
X47541000Y-77523000D01*
G75*
G02*
X47592000Y-77574000I0J-51000D01*
G01*
X47592000Y-78474000D01*
G75*
G02*
X47541000Y-78525000I-51000J0D01*
G01*
G37*
G36*
G01*
X45641000Y-78525000D02*
X44841000Y-78525000D01*
G75*
G02*
X44790000Y-78474000I0J51000D01*
G01*
X44790000Y-77574000D01*
G75*
G02*
X44841000Y-77523000I51000J0D01*
G01*
X45641000Y-77523000D01*
G75*
G02*
X45692000Y-77574000I0J-51000D01*
G01*
X45692000Y-78474000D01*
G75*
G02*
X45641000Y-78525000I-51000J0D01*
G01*
G37*
G36*
G01*
X41375000Y-77216000D02*
X40575000Y-77216000D01*
G75*
G02*
X40524000Y-77165000I0J51000D01*
G01*
X40524000Y-76265000D01*
G75*
G02*
X40575000Y-76214000I51000J0D01*
G01*
X41375000Y-76214000D01*
G75*
G02*
X41426000Y-76265000I0J-51000D01*
G01*
X41426000Y-77165000D01*
G75*
G02*
X41375000Y-77216000I-51000J0D01*
G01*
G37*
G36*
G01*
X42325000Y-79216000D02*
X41525000Y-79216000D01*
G75*
G02*
X41474000Y-79165000I0J51000D01*
G01*
X41474000Y-78265000D01*
G75*
G02*
X41525000Y-78214000I51000J0D01*
G01*
X42325000Y-78214000D01*
G75*
G02*
X42376000Y-78265000I0J-51000D01*
G01*
X42376000Y-79165000D01*
G75*
G02*
X42325000Y-79216000I-51000J0D01*
G01*
G37*
G36*
G01*
X40425000Y-79216000D02*
X39625000Y-79216000D01*
G75*
G02*
X39574000Y-79165000I0J51000D01*
G01*
X39574000Y-78265000D01*
G75*
G02*
X39625000Y-78214000I51000J0D01*
G01*
X40425000Y-78214000D01*
G75*
G02*
X40476000Y-78265000I0J-51000D01*
G01*
X40476000Y-79165000D01*
G75*
G02*
X40425000Y-79216000I-51000J0D01*
G01*
G37*
G36*
G01*
X101492000Y-72145000D02*
X100692000Y-72145000D01*
G75*
G02*
X100641000Y-72094000I0J51000D01*
G01*
X100641000Y-71194000D01*
G75*
G02*
X100692000Y-71143000I51000J0D01*
G01*
X101492000Y-71143000D01*
G75*
G02*
X101543000Y-71194000I0J-51000D01*
G01*
X101543000Y-72094000D01*
G75*
G02*
X101492000Y-72145000I-51000J0D01*
G01*
G37*
G36*
G01*
X102442000Y-74145000D02*
X101642000Y-74145000D01*
G75*
G02*
X101591000Y-74094000I0J51000D01*
G01*
X101591000Y-73194000D01*
G75*
G02*
X101642000Y-73143000I51000J0D01*
G01*
X102442000Y-73143000D01*
G75*
G02*
X102493000Y-73194000I0J-51000D01*
G01*
X102493000Y-74094000D01*
G75*
G02*
X102442000Y-74145000I-51000J0D01*
G01*
G37*
G36*
G01*
X100542000Y-74145000D02*
X99742000Y-74145000D01*
G75*
G02*
X99691000Y-74094000I0J51000D01*
G01*
X99691000Y-73194000D01*
G75*
G02*
X99742000Y-73143000I51000J0D01*
G01*
X100542000Y-73143000D01*
G75*
G02*
X100593000Y-73194000I0J-51000D01*
G01*
X100593000Y-74094000D01*
G75*
G02*
X100542000Y-74145000I-51000J0D01*
G01*
G37*
G36*
G01*
X108549000Y-75900000D02*
X108549000Y-74700000D01*
G75*
G02*
X108600000Y-74649000I51000J0D01*
G01*
X109500000Y-74649000D01*
G75*
G02*
X109551000Y-74700000I0J-51000D01*
G01*
X109551000Y-75900000D01*
G75*
G02*
X109500000Y-75951000I-51000J0D01*
G01*
X108600000Y-75951000D01*
G75*
G02*
X108549000Y-75900000I0J51000D01*
G01*
G37*
G36*
G01*
X105249000Y-75900000D02*
X105249000Y-74700000D01*
G75*
G02*
X105300000Y-74649000I51000J0D01*
G01*
X106200000Y-74649000D01*
G75*
G02*
X106251000Y-74700000I0J-51000D01*
G01*
X106251000Y-75900000D01*
G75*
G02*
X106200000Y-75951000I-51000J0D01*
G01*
X105300000Y-75951000D01*
G75*
G02*
X105249000Y-75900000I0J51000D01*
G01*
G37*
G36*
G01*
X104820000Y-65234250D02*
X104820000Y-66197750D01*
G75*
G02*
X104550750Y-66467000I-269250J0D01*
G01*
X104012250Y-66467000D01*
G75*
G02*
X103743000Y-66197750I0J269250D01*
G01*
X103743000Y-65234250D01*
G75*
G02*
X104012250Y-64965000I269250J0D01*
G01*
X104550750Y-64965000D01*
G75*
G02*
X104820000Y-65234250I0J-269250D01*
G01*
G37*
G36*
G01*
X106695000Y-65234250D02*
X106695000Y-66197750D01*
G75*
G02*
X106425750Y-66467000I-269250J0D01*
G01*
X105887250Y-66467000D01*
G75*
G02*
X105618000Y-66197750I0J269250D01*
G01*
X105618000Y-65234250D01*
G75*
G02*
X105887250Y-64965000I269250J0D01*
G01*
X106425750Y-64965000D01*
G75*
G02*
X106695000Y-65234250I0J-269250D01*
G01*
G37*
G36*
G01*
X101599000Y-76981750D02*
X101599000Y-76018250D01*
G75*
G02*
X101868250Y-75749000I269250J0D01*
G01*
X102406750Y-75749000D01*
G75*
G02*
X102676000Y-76018250I0J-269250D01*
G01*
X102676000Y-76981750D01*
G75*
G02*
X102406750Y-77251000I-269250J0D01*
G01*
X101868250Y-77251000D01*
G75*
G02*
X101599000Y-76981750I0J269250D01*
G01*
G37*
G36*
G01*
X99724000Y-76981750D02*
X99724000Y-76018250D01*
G75*
G02*
X99993250Y-75749000I269250J0D01*
G01*
X100531750Y-75749000D01*
G75*
G02*
X100801000Y-76018250I0J-269250D01*
G01*
X100801000Y-76981750D01*
G75*
G02*
X100531750Y-77251000I-269250J0D01*
G01*
X99993250Y-77251000D01*
G75*
G02*
X99724000Y-76981750I0J269250D01*
G01*
G37*
G36*
G01*
X108549000Y-72800000D02*
X108549000Y-71600000D01*
G75*
G02*
X108600000Y-71549000I51000J0D01*
G01*
X109500000Y-71549000D01*
G75*
G02*
X109551000Y-71600000I0J-51000D01*
G01*
X109551000Y-72800000D01*
G75*
G02*
X109500000Y-72851000I-51000J0D01*
G01*
X108600000Y-72851000D01*
G75*
G02*
X108549000Y-72800000I0J51000D01*
G01*
G37*
G36*
G01*
X105249000Y-72800000D02*
X105249000Y-71600000D01*
G75*
G02*
X105300000Y-71549000I51000J0D01*
G01*
X106200000Y-71549000D01*
G75*
G02*
X106251000Y-71600000I0J-51000D01*
G01*
X106251000Y-72800000D01*
G75*
G02*
X106200000Y-72851000I-51000J0D01*
G01*
X105300000Y-72851000D01*
G75*
G02*
X105249000Y-72800000I0J51000D01*
G01*
G37*
G36*
G01*
X41627000Y-39941000D02*
X42827000Y-39941000D01*
G75*
G02*
X42878000Y-39992000I0J-51000D01*
G01*
X42878000Y-40892000D01*
G75*
G02*
X42827000Y-40943000I-51000J0D01*
G01*
X41627000Y-40943000D01*
G75*
G02*
X41576000Y-40892000I0J51000D01*
G01*
X41576000Y-39992000D01*
G75*
G02*
X41627000Y-39941000I51000J0D01*
G01*
G37*
G36*
G01*
X41627000Y-36641000D02*
X42827000Y-36641000D01*
G75*
G02*
X42878000Y-36692000I0J-51000D01*
G01*
X42878000Y-37592000D01*
G75*
G02*
X42827000Y-37643000I-51000J0D01*
G01*
X41627000Y-37643000D01*
G75*
G02*
X41576000Y-37592000I0J51000D01*
G01*
X41576000Y-36692000D01*
G75*
G02*
X41627000Y-36641000I51000J0D01*
G01*
G37*
G36*
G01*
X40582000Y-35074000D02*
X40582000Y-33874000D01*
G75*
G02*
X40633000Y-33823000I51000J0D01*
G01*
X41533000Y-33823000D01*
G75*
G02*
X41584000Y-33874000I0J-51000D01*
G01*
X41584000Y-35074000D01*
G75*
G02*
X41533000Y-35125000I-51000J0D01*
G01*
X40633000Y-35125000D01*
G75*
G02*
X40582000Y-35074000I0J51000D01*
G01*
G37*
G36*
G01*
X37282000Y-35074000D02*
X37282000Y-33874000D01*
G75*
G02*
X37333000Y-33823000I51000J0D01*
G01*
X38233000Y-33823000D01*
G75*
G02*
X38284000Y-33874000I0J-51000D01*
G01*
X38284000Y-35074000D01*
G75*
G02*
X38233000Y-35125000I-51000J0D01*
G01*
X37333000Y-35125000D01*
G75*
G02*
X37282000Y-35074000I0J51000D01*
G01*
G37*
G36*
G01*
X39779000Y-37389000D02*
X38579000Y-37389000D01*
G75*
G02*
X38528000Y-37338000I0J51000D01*
G01*
X38528000Y-36438000D01*
G75*
G02*
X38579000Y-36387000I51000J0D01*
G01*
X39779000Y-36387000D01*
G75*
G02*
X39830000Y-36438000I0J-51000D01*
G01*
X39830000Y-37338000D01*
G75*
G02*
X39779000Y-37389000I-51000J0D01*
G01*
G37*
G36*
G01*
X39779000Y-40689000D02*
X38579000Y-40689000D01*
G75*
G02*
X38528000Y-40638000I0J51000D01*
G01*
X38528000Y-39738000D01*
G75*
G02*
X38579000Y-39687000I51000J0D01*
G01*
X39779000Y-39687000D01*
G75*
G02*
X39830000Y-39738000I0J-51000D01*
G01*
X39830000Y-40638000D01*
G75*
G02*
X39779000Y-40689000I-51000J0D01*
G01*
G37*
G36*
G01*
X34345000Y-70287000D02*
X33145000Y-70287000D01*
G75*
G02*
X33094000Y-70236000I0J51000D01*
G01*
X33094000Y-69336000D01*
G75*
G02*
X33145000Y-69285000I51000J0D01*
G01*
X34345000Y-69285000D01*
G75*
G02*
X34396000Y-69336000I0J-51000D01*
G01*
X34396000Y-70236000D01*
G75*
G02*
X34345000Y-70287000I-51000J0D01*
G01*
G37*
G36*
G01*
X34345000Y-73587000D02*
X33145000Y-73587000D01*
G75*
G02*
X33094000Y-73536000I0J51000D01*
G01*
X33094000Y-72636000D01*
G75*
G02*
X33145000Y-72585000I51000J0D01*
G01*
X34345000Y-72585000D01*
G75*
G02*
X34396000Y-72636000I0J-51000D01*
G01*
X34396000Y-73536000D01*
G75*
G02*
X34345000Y-73587000I-51000J0D01*
G01*
G37*
G36*
G01*
X28290000Y-71782000D02*
X28290000Y-70582000D01*
G75*
G02*
X28341000Y-70531000I51000J0D01*
G01*
X29241000Y-70531000D01*
G75*
G02*
X29292000Y-70582000I0J-51000D01*
G01*
X29292000Y-71782000D01*
G75*
G02*
X29241000Y-71833000I-51000J0D01*
G01*
X28341000Y-71833000D01*
G75*
G02*
X28290000Y-71782000I0J51000D01*
G01*
G37*
G36*
G01*
X24990000Y-71782000D02*
X24990000Y-70582000D01*
G75*
G02*
X25041000Y-70531000I51000J0D01*
G01*
X25941000Y-70531000D01*
G75*
G02*
X25992000Y-70582000I0J-51000D01*
G01*
X25992000Y-71782000D01*
G75*
G02*
X25941000Y-71833000I-51000J0D01*
G01*
X25041000Y-71833000D01*
G75*
G02*
X24990000Y-71782000I0J51000D01*
G01*
G37*
G36*
G01*
X25484000Y-66518000D02*
X25484000Y-67718000D01*
G75*
G02*
X25433000Y-67769000I-51000J0D01*
G01*
X24533000Y-67769000D01*
G75*
G02*
X24482000Y-67718000I0J51000D01*
G01*
X24482000Y-66518000D01*
G75*
G02*
X24533000Y-66467000I51000J0D01*
G01*
X25433000Y-66467000D01*
G75*
G02*
X25484000Y-66518000I0J-51000D01*
G01*
G37*
G36*
G01*
X28784000Y-66518000D02*
X28784000Y-67718000D01*
G75*
G02*
X28733000Y-67769000I-51000J0D01*
G01*
X27833000Y-67769000D01*
G75*
G02*
X27782000Y-67718000I0J51000D01*
G01*
X27782000Y-66518000D01*
G75*
G02*
X27833000Y-66467000I51000J0D01*
G01*
X28733000Y-66467000D01*
G75*
G02*
X28784000Y-66518000I0J-51000D01*
G01*
G37*
G36*
G01*
X82024500Y-72574000D02*
X82575500Y-72574000D01*
G75*
G02*
X82826000Y-72824500I0J-250500D01*
G01*
X82826000Y-73325500D01*
G75*
G02*
X82575500Y-73576000I-250500J0D01*
G01*
X82024500Y-73576000D01*
G75*
G02*
X81774000Y-73325500I0J250500D01*
G01*
X81774000Y-72824500D01*
G75*
G02*
X82024500Y-72574000I250500J0D01*
G01*
G37*
G36*
G01*
X82024500Y-71024000D02*
X82575500Y-71024000D01*
G75*
G02*
X82826000Y-71274500I0J-250500D01*
G01*
X82826000Y-71775500D01*
G75*
G02*
X82575500Y-72026000I-250500J0D01*
G01*
X82024500Y-72026000D01*
G75*
G02*
X81774000Y-71775500I0J250500D01*
G01*
X81774000Y-71274500D01*
G75*
G02*
X82024500Y-71024000I250500J0D01*
G01*
G37*
G36*
G01*
X95975500Y-73951000D02*
X95424500Y-73951000D01*
G75*
G02*
X95174000Y-73700500I0J250500D01*
G01*
X95174000Y-73199500D01*
G75*
G02*
X95424500Y-72949000I250500J0D01*
G01*
X95975500Y-72949000D01*
G75*
G02*
X96226000Y-73199500I0J-250500D01*
G01*
X96226000Y-73700500D01*
G75*
G02*
X95975500Y-73951000I-250500J0D01*
G01*
G37*
G36*
G01*
X95975500Y-75501000D02*
X95424500Y-75501000D01*
G75*
G02*
X95174000Y-75250500I0J250500D01*
G01*
X95174000Y-74749500D01*
G75*
G02*
X95424500Y-74499000I250500J0D01*
G01*
X95975500Y-74499000D01*
G75*
G02*
X96226000Y-74749500I0J-250500D01*
G01*
X96226000Y-75250500D01*
G75*
G02*
X95975500Y-75501000I-250500J0D01*
G01*
G37*
G36*
G01*
X90024000Y-74175500D02*
X90024000Y-73624500D01*
G75*
G02*
X90274500Y-73374000I250500J0D01*
G01*
X90775500Y-73374000D01*
G75*
G02*
X91026000Y-73624500I0J-250500D01*
G01*
X91026000Y-74175500D01*
G75*
G02*
X90775500Y-74426000I-250500J0D01*
G01*
X90274500Y-74426000D01*
G75*
G02*
X90024000Y-74175500I0J250500D01*
G01*
G37*
G36*
G01*
X88474000Y-74175500D02*
X88474000Y-73624500D01*
G75*
G02*
X88724500Y-73374000I250500J0D01*
G01*
X89225500Y-73374000D01*
G75*
G02*
X89476000Y-73624500I0J-250500D01*
G01*
X89476000Y-74175500D01*
G75*
G02*
X89225500Y-74426000I-250500J0D01*
G01*
X88724500Y-74426000D01*
G75*
G02*
X88474000Y-74175500I0J250500D01*
G01*
G37*
G36*
G01*
X33838000Y-34452500D02*
X33838000Y-35003500D01*
G75*
G02*
X33587500Y-35254000I-250500J0D01*
G01*
X33086500Y-35254000D01*
G75*
G02*
X32836000Y-35003500I0J250500D01*
G01*
X32836000Y-34452500D01*
G75*
G02*
X33086500Y-34202000I250500J0D01*
G01*
X33587500Y-34202000D01*
G75*
G02*
X33838000Y-34452500I0J-250500D01*
G01*
G37*
G36*
G01*
X35388000Y-34452500D02*
X35388000Y-35003500D01*
G75*
G02*
X35137500Y-35254000I-250500J0D01*
G01*
X34636500Y-35254000D01*
G75*
G02*
X34386000Y-35003500I0J250500D01*
G01*
X34386000Y-34452500D01*
G75*
G02*
X34636500Y-34202000I250500J0D01*
G01*
X35137500Y-34202000D01*
G75*
G02*
X35388000Y-34452500I0J-250500D01*
G01*
G37*
G36*
G01*
X25101000Y-45574500D02*
X25101000Y-46125500D01*
G75*
G02*
X24850500Y-46376000I-250500J0D01*
G01*
X24349500Y-46376000D01*
G75*
G02*
X24099000Y-46125500I0J250500D01*
G01*
X24099000Y-45574500D01*
G75*
G02*
X24349500Y-45324000I250500J0D01*
G01*
X24850500Y-45324000D01*
G75*
G02*
X25101000Y-45574500I0J-250500D01*
G01*
G37*
G36*
G01*
X26651000Y-45574500D02*
X26651000Y-46125500D01*
G75*
G02*
X26400500Y-46376000I-250500J0D01*
G01*
X25899500Y-46376000D01*
G75*
G02*
X25649000Y-46125500I0J250500D01*
G01*
X25649000Y-45574500D01*
G75*
G02*
X25899500Y-45324000I250500J0D01*
G01*
X26400500Y-45324000D01*
G75*
G02*
X26651000Y-45574500I0J-250500D01*
G01*
G37*
G36*
G01*
X91270500Y-67474000D02*
X90719500Y-67474000D01*
G75*
G02*
X90469000Y-67223500I0J250500D01*
G01*
X90469000Y-66722500D01*
G75*
G02*
X90719500Y-66472000I250500J0D01*
G01*
X91270500Y-66472000D01*
G75*
G02*
X91521000Y-66722500I0J-250500D01*
G01*
X91521000Y-67223500D01*
G75*
G02*
X91270500Y-67474000I-250500J0D01*
G01*
G37*
G36*
G01*
X91270500Y-69024000D02*
X90719500Y-69024000D01*
G75*
G02*
X90469000Y-68773500I0J250500D01*
G01*
X90469000Y-68272500D01*
G75*
G02*
X90719500Y-68022000I250500J0D01*
G01*
X91270500Y-68022000D01*
G75*
G02*
X91521000Y-68272500I0J-250500D01*
G01*
X91521000Y-68773500D01*
G75*
G02*
X91270500Y-69024000I-250500J0D01*
G01*
G37*
G36*
G01*
X45975000Y-37327242D02*
X45975000Y-39240758D01*
G75*
G02*
X45705758Y-39510000I-269242J0D01*
G01*
X44817242Y-39510000D01*
G75*
G02*
X44548000Y-39240758I0J269242D01*
G01*
X44548000Y-37327242D01*
G75*
G02*
X44817242Y-37058000I269242J0D01*
G01*
X45705758Y-37058000D01*
G75*
G02*
X45975000Y-37327242I0J-269242D01*
G01*
G37*
G36*
G01*
X49050000Y-37327242D02*
X49050000Y-39240758D01*
G75*
G02*
X48780758Y-39510000I-269242J0D01*
G01*
X47892242Y-39510000D01*
G75*
G02*
X47623000Y-39240758I0J269242D01*
G01*
X47623000Y-37327242D01*
G75*
G02*
X47892242Y-37058000I269242J0D01*
G01*
X48780758Y-37058000D01*
G75*
G02*
X49050000Y-37327242I0J-269242D01*
G01*
G37*
G36*
G01*
X51859000Y-35214500D02*
X51859000Y-35765500D01*
G75*
G02*
X51608500Y-36016000I-250500J0D01*
G01*
X51107500Y-36016000D01*
G75*
G02*
X50857000Y-35765500I0J250500D01*
G01*
X50857000Y-35214500D01*
G75*
G02*
X51107500Y-34964000I250500J0D01*
G01*
X51608500Y-34964000D01*
G75*
G02*
X51859000Y-35214500I0J-250500D01*
G01*
G37*
G36*
G01*
X53409000Y-35214500D02*
X53409000Y-35765500D01*
G75*
G02*
X53158500Y-36016000I-250500J0D01*
G01*
X52657500Y-36016000D01*
G75*
G02*
X52407000Y-35765500I0J250500D01*
G01*
X52407000Y-35214500D01*
G75*
G02*
X52657500Y-34964000I250500J0D01*
G01*
X53158500Y-34964000D01*
G75*
G02*
X53409000Y-35214500I0J-250500D01*
G01*
G37*
G36*
G01*
X88476500Y-67487000D02*
X87925500Y-67487000D01*
G75*
G02*
X87675000Y-67236500I0J250500D01*
G01*
X87675000Y-66735500D01*
G75*
G02*
X87925500Y-66485000I250500J0D01*
G01*
X88476500Y-66485000D01*
G75*
G02*
X88727000Y-66735500I0J-250500D01*
G01*
X88727000Y-67236500D01*
G75*
G02*
X88476500Y-67487000I-250500J0D01*
G01*
G37*
G36*
G01*
X88476500Y-69037000D02*
X87925500Y-69037000D01*
G75*
G02*
X87675000Y-68786500I0J250500D01*
G01*
X87675000Y-68285500D01*
G75*
G02*
X87925500Y-68035000I250500J0D01*
G01*
X88476500Y-68035000D01*
G75*
G02*
X88727000Y-68285500I0J-250500D01*
G01*
X88727000Y-68786500D01*
G75*
G02*
X88476500Y-69037000I-250500J0D01*
G01*
G37*
G36*
G01*
X52407000Y-32717500D02*
X52407000Y-32166500D01*
G75*
G02*
X52657500Y-31916000I250500J0D01*
G01*
X53158500Y-31916000D01*
G75*
G02*
X53409000Y-32166500I0J-250500D01*
G01*
X53409000Y-32717500D01*
G75*
G02*
X53158500Y-32968000I-250500J0D01*
G01*
X52657500Y-32968000D01*
G75*
G02*
X52407000Y-32717500I0J250500D01*
G01*
G37*
G36*
G01*
X50857000Y-32717500D02*
X50857000Y-32166500D01*
G75*
G02*
X51107500Y-31916000I250500J0D01*
G01*
X51608500Y-31916000D01*
G75*
G02*
X51859000Y-32166500I0J-250500D01*
G01*
X51859000Y-32717500D01*
G75*
G02*
X51608500Y-32968000I-250500J0D01*
G01*
X51107500Y-32968000D01*
G75*
G02*
X50857000Y-32717500I0J250500D01*
G01*
G37*
G36*
G01*
X64091000Y-33795500D02*
X64091000Y-33244500D01*
G75*
G02*
X64341500Y-32994000I250500J0D01*
G01*
X64842500Y-32994000D01*
G75*
G02*
X65093000Y-33244500I0J-250500D01*
G01*
X65093000Y-33795500D01*
G75*
G02*
X64842500Y-34046000I-250500J0D01*
G01*
X64341500Y-34046000D01*
G75*
G02*
X64091000Y-33795500I0J250500D01*
G01*
G37*
G36*
G01*
X62541000Y-33795500D02*
X62541000Y-33244500D01*
G75*
G02*
X62791500Y-32994000I250500J0D01*
G01*
X63292500Y-32994000D01*
G75*
G02*
X63543000Y-33244500I0J-250500D01*
G01*
X63543000Y-33795500D01*
G75*
G02*
X63292500Y-34046000I-250500J0D01*
G01*
X62791500Y-34046000D01*
G75*
G02*
X62541000Y-33795500I0J250500D01*
G01*
G37*
G36*
G01*
X36560500Y-85627000D02*
X36009500Y-85627000D01*
G75*
G02*
X35759000Y-85376500I0J250500D01*
G01*
X35759000Y-84875500D01*
G75*
G02*
X36009500Y-84625000I250500J0D01*
G01*
X36560500Y-84625000D01*
G75*
G02*
X36811000Y-84875500I0J-250500D01*
G01*
X36811000Y-85376500D01*
G75*
G02*
X36560500Y-85627000I-250500J0D01*
G01*
G37*
G36*
G01*
X36560500Y-87177000D02*
X36009500Y-87177000D01*
G75*
G02*
X35759000Y-86926500I0J250500D01*
G01*
X35759000Y-86425500D01*
G75*
G02*
X36009500Y-86175000I250500J0D01*
G01*
X36560500Y-86175000D01*
G75*
G02*
X36811000Y-86425500I0J-250500D01*
G01*
X36811000Y-86926500D01*
G75*
G02*
X36560500Y-87177000I-250500J0D01*
G01*
G37*
G36*
G01*
X29801000Y-35003500D02*
X29801000Y-34452500D01*
G75*
G02*
X30051500Y-34202000I250500J0D01*
G01*
X30552500Y-34202000D01*
G75*
G02*
X30803000Y-34452500I0J-250500D01*
G01*
X30803000Y-35003500D01*
G75*
G02*
X30552500Y-35254000I-250500J0D01*
G01*
X30051500Y-35254000D01*
G75*
G02*
X29801000Y-35003500I0J250500D01*
G01*
G37*
G36*
G01*
X28251000Y-35003500D02*
X28251000Y-34452500D01*
G75*
G02*
X28501500Y-34202000I250500J0D01*
G01*
X29002500Y-34202000D01*
G75*
G02*
X29253000Y-34452500I0J-250500D01*
G01*
X29253000Y-35003500D01*
G75*
G02*
X29002500Y-35254000I-250500J0D01*
G01*
X28501500Y-35254000D01*
G75*
G02*
X28251000Y-35003500I0J250500D01*
G01*
G37*
G36*
G01*
X29750500Y-42701000D02*
X29199500Y-42701000D01*
G75*
G02*
X28949000Y-42450500I0J250500D01*
G01*
X28949000Y-41949500D01*
G75*
G02*
X29199500Y-41699000I250500J0D01*
G01*
X29750500Y-41699000D01*
G75*
G02*
X30001000Y-41949500I0J-250500D01*
G01*
X30001000Y-42450500D01*
G75*
G02*
X29750500Y-42701000I-250500J0D01*
G01*
G37*
G36*
G01*
X29750500Y-44251000D02*
X29199500Y-44251000D01*
G75*
G02*
X28949000Y-44000500I0J250500D01*
G01*
X28949000Y-43499500D01*
G75*
G02*
X29199500Y-43249000I250500J0D01*
G01*
X29750500Y-43249000D01*
G75*
G02*
X30001000Y-43499500I0J-250500D01*
G01*
X30001000Y-44000500D01*
G75*
G02*
X29750500Y-44251000I-250500J0D01*
G01*
G37*
G36*
G01*
X25384500Y-62793000D02*
X24833500Y-62793000D01*
G75*
G02*
X24583000Y-62542500I0J250500D01*
G01*
X24583000Y-62041500D01*
G75*
G02*
X24833500Y-61791000I250500J0D01*
G01*
X25384500Y-61791000D01*
G75*
G02*
X25635000Y-62041500I0J-250500D01*
G01*
X25635000Y-62542500D01*
G75*
G02*
X25384500Y-62793000I-250500J0D01*
G01*
G37*
G36*
G01*
X25384500Y-64343000D02*
X24833500Y-64343000D01*
G75*
G02*
X24583000Y-64092500I0J250500D01*
G01*
X24583000Y-63591500D01*
G75*
G02*
X24833500Y-63341000I250500J0D01*
G01*
X25384500Y-63341000D01*
G75*
G02*
X25635000Y-63591500I0J-250500D01*
G01*
X25635000Y-64092500D01*
G75*
G02*
X25384500Y-64343000I-250500J0D01*
G01*
G37*
G36*
G01*
X34274500Y-85653000D02*
X33723500Y-85653000D01*
G75*
G02*
X33473000Y-85402500I0J250500D01*
G01*
X33473000Y-84901500D01*
G75*
G02*
X33723500Y-84651000I250500J0D01*
G01*
X34274500Y-84651000D01*
G75*
G02*
X34525000Y-84901500I0J-250500D01*
G01*
X34525000Y-85402500D01*
G75*
G02*
X34274500Y-85653000I-250500J0D01*
G01*
G37*
G36*
G01*
X34274500Y-87203000D02*
X33723500Y-87203000D01*
G75*
G02*
X33473000Y-86952500I0J250500D01*
G01*
X33473000Y-86451500D01*
G75*
G02*
X33723500Y-86201000I250500J0D01*
G01*
X34274500Y-86201000D01*
G75*
G02*
X34525000Y-86451500I0J-250500D01*
G01*
X34525000Y-86952500D01*
G75*
G02*
X34274500Y-87203000I-250500J0D01*
G01*
G37*
G36*
G01*
X36109500Y-38558000D02*
X36660500Y-38558000D01*
G75*
G02*
X36911000Y-38808500I0J-250500D01*
G01*
X36911000Y-39309500D01*
G75*
G02*
X36660500Y-39560000I-250500J0D01*
G01*
X36109500Y-39560000D01*
G75*
G02*
X35859000Y-39309500I0J250500D01*
G01*
X35859000Y-38808500D01*
G75*
G02*
X36109500Y-38558000I250500J0D01*
G01*
G37*
G36*
G01*
X36109500Y-37008000D02*
X36660500Y-37008000D01*
G75*
G02*
X36911000Y-37258500I0J-250500D01*
G01*
X36911000Y-37759500D01*
G75*
G02*
X36660500Y-38010000I-250500J0D01*
G01*
X36109500Y-38010000D01*
G75*
G02*
X35859000Y-37759500I0J250500D01*
G01*
X35859000Y-37258500D01*
G75*
G02*
X36109500Y-37008000I250500J0D01*
G01*
G37*
G36*
G01*
X39299000Y-84190500D02*
X39299000Y-83639500D01*
G75*
G02*
X39549500Y-83389000I250500J0D01*
G01*
X40050500Y-83389000D01*
G75*
G02*
X40301000Y-83639500I0J-250500D01*
G01*
X40301000Y-84190500D01*
G75*
G02*
X40050500Y-84441000I-250500J0D01*
G01*
X39549500Y-84441000D01*
G75*
G02*
X39299000Y-84190500I0J250500D01*
G01*
G37*
G36*
G01*
X37749000Y-84190500D02*
X37749000Y-83639500D01*
G75*
G02*
X37999500Y-83389000I250500J0D01*
G01*
X38500500Y-83389000D01*
G75*
G02*
X38751000Y-83639500I0J-250500D01*
G01*
X38751000Y-84190500D01*
G75*
G02*
X38500500Y-84441000I-250500J0D01*
G01*
X37999500Y-84441000D01*
G75*
G02*
X37749000Y-84190500I0J250500D01*
G01*
G37*
G36*
G01*
X42851000Y-63304500D02*
X42851000Y-63855500D01*
G75*
G02*
X42600500Y-64106000I-250500J0D01*
G01*
X42099500Y-64106000D01*
G75*
G02*
X41849000Y-63855500I0J250500D01*
G01*
X41849000Y-63304500D01*
G75*
G02*
X42099500Y-63054000I250500J0D01*
G01*
X42600500Y-63054000D01*
G75*
G02*
X42851000Y-63304500I0J-250500D01*
G01*
G37*
G36*
G01*
X44401000Y-63304500D02*
X44401000Y-63855500D01*
G75*
G02*
X44150500Y-64106000I-250500J0D01*
G01*
X43649500Y-64106000D01*
G75*
G02*
X43399000Y-63855500I0J250500D01*
G01*
X43399000Y-63304500D01*
G75*
G02*
X43649500Y-63054000I250500J0D01*
G01*
X44150500Y-63054000D01*
G75*
G02*
X44401000Y-63304500I0J-250500D01*
G01*
G37*
G36*
G01*
X31480500Y-71162000D02*
X30929500Y-71162000D01*
G75*
G02*
X30679000Y-70911500I0J250500D01*
G01*
X30679000Y-70410500D01*
G75*
G02*
X30929500Y-70160000I250500J0D01*
G01*
X31480500Y-70160000D01*
G75*
G02*
X31731000Y-70410500I0J-250500D01*
G01*
X31731000Y-70911500D01*
G75*
G02*
X31480500Y-71162000I-250500J0D01*
G01*
G37*
G36*
G01*
X31480500Y-72712000D02*
X30929500Y-72712000D01*
G75*
G02*
X30679000Y-72461500I0J250500D01*
G01*
X30679000Y-71960500D01*
G75*
G02*
X30929500Y-71710000I250500J0D01*
G01*
X31480500Y-71710000D01*
G75*
G02*
X31731000Y-71960500I0J-250500D01*
G01*
X31731000Y-72461500D01*
G75*
G02*
X31480500Y-72712000I-250500J0D01*
G01*
G37*
G36*
G01*
X44279000Y-34495500D02*
X44279000Y-33944500D01*
G75*
G02*
X44529500Y-33694000I250500J0D01*
G01*
X45030500Y-33694000D01*
G75*
G02*
X45281000Y-33944500I0J-250500D01*
G01*
X45281000Y-34495500D01*
G75*
G02*
X45030500Y-34746000I-250500J0D01*
G01*
X44529500Y-34746000D01*
G75*
G02*
X44279000Y-34495500I0J250500D01*
G01*
G37*
G36*
G01*
X42729000Y-34495500D02*
X42729000Y-33944500D01*
G75*
G02*
X42979500Y-33694000I250500J0D01*
G01*
X43480500Y-33694000D01*
G75*
G02*
X43731000Y-33944500I0J-250500D01*
G01*
X43731000Y-34495500D01*
G75*
G02*
X43480500Y-34746000I-250500J0D01*
G01*
X42979500Y-34746000D01*
G75*
G02*
X42729000Y-34495500I0J250500D01*
G01*
G37*
G36*
G01*
X52124000Y-65750500D02*
X52124000Y-65199500D01*
G75*
G02*
X52374500Y-64949000I250500J0D01*
G01*
X52875500Y-64949000D01*
G75*
G02*
X53126000Y-65199500I0J-250500D01*
G01*
X53126000Y-65750500D01*
G75*
G02*
X52875500Y-66001000I-250500J0D01*
G01*
X52374500Y-66001000D01*
G75*
G02*
X52124000Y-65750500I0J250500D01*
G01*
G37*
G36*
G01*
X50574000Y-65750500D02*
X50574000Y-65199500D01*
G75*
G02*
X50824500Y-64949000I250500J0D01*
G01*
X51325500Y-64949000D01*
G75*
G02*
X51576000Y-65199500I0J-250500D01*
G01*
X51576000Y-65750500D01*
G75*
G02*
X51325500Y-66001000I-250500J0D01*
G01*
X50824500Y-66001000D01*
G75*
G02*
X50574000Y-65750500I0J250500D01*
G01*
G37*
G36*
G01*
X28951000Y-45624500D02*
X28951000Y-46175500D01*
G75*
G02*
X28700500Y-46426000I-250500J0D01*
G01*
X28199500Y-46426000D01*
G75*
G02*
X27949000Y-46175500I0J250500D01*
G01*
X27949000Y-45624500D01*
G75*
G02*
X28199500Y-45374000I250500J0D01*
G01*
X28700500Y-45374000D01*
G75*
G02*
X28951000Y-45624500I0J-250500D01*
G01*
G37*
G36*
G01*
X30501000Y-45624500D02*
X30501000Y-46175500D01*
G75*
G02*
X30250500Y-46426000I-250500J0D01*
G01*
X29749500Y-46426000D01*
G75*
G02*
X29499000Y-46175500I0J250500D01*
G01*
X29499000Y-45624500D01*
G75*
G02*
X29749500Y-45374000I250500J0D01*
G01*
X30250500Y-45374000D01*
G75*
G02*
X30501000Y-45624500I0J-250500D01*
G01*
G37*
D12*
X108500000Y-33500000D03*
G36*
G01*
X84774000Y-64751125D02*
X84774000Y-63798875D01*
G75*
G02*
X85048875Y-63524000I274875J0D01*
G01*
X85626125Y-63524000D01*
G75*
G02*
X85901000Y-63798875I0J-274875D01*
G01*
X85901000Y-64751125D01*
G75*
G02*
X85626125Y-65026000I-274875J0D01*
G01*
X85048875Y-65026000D01*
G75*
G02*
X84774000Y-64751125I0J274875D01*
G01*
G37*
G36*
G01*
X82949000Y-64751125D02*
X82949000Y-63798875D01*
G75*
G02*
X83223875Y-63524000I274875J0D01*
G01*
X83801125Y-63524000D01*
G75*
G02*
X84076000Y-63798875I0J-274875D01*
G01*
X84076000Y-64751125D01*
G75*
G02*
X83801125Y-65026000I-274875J0D01*
G01*
X83223875Y-65026000D01*
G75*
G02*
X82949000Y-64751125I0J274875D01*
G01*
G37*
G36*
G01*
X48699062Y-59599933D02*
X48699062Y-59299935D01*
G75*
G02*
X48750062Y-59248935I51000J0D01*
G01*
X49750060Y-59248935D01*
G75*
G02*
X49801060Y-59299935I0J-51000D01*
G01*
X49801060Y-59599933D01*
G75*
G02*
X49750060Y-59650933I-51000J0D01*
G01*
X48750062Y-59650933D01*
G75*
G02*
X48699062Y-59599933I0J51000D01*
G01*
G37*
G36*
G01*
X48699062Y-59100061D02*
X48699062Y-58800063D01*
G75*
G02*
X48750062Y-58749063I51000J0D01*
G01*
X49750060Y-58749063D01*
G75*
G02*
X49801060Y-58800063I0J-51000D01*
G01*
X49801060Y-59100061D01*
G75*
G02*
X49750060Y-59151061I-51000J0D01*
G01*
X48750062Y-59151061D01*
G75*
G02*
X48699062Y-59100061I0J51000D01*
G01*
G37*
G36*
G01*
X48699062Y-58599935D02*
X48699062Y-58299937D01*
G75*
G02*
X48750062Y-58248937I51000J0D01*
G01*
X49750060Y-58248937D01*
G75*
G02*
X49801060Y-58299937I0J-51000D01*
G01*
X49801060Y-58599935D01*
G75*
G02*
X49750060Y-58650935I-51000J0D01*
G01*
X48750062Y-58650935D01*
G75*
G02*
X48699062Y-58599935I0J51000D01*
G01*
G37*
G36*
G01*
X48699062Y-58100063D02*
X48699062Y-57800065D01*
G75*
G02*
X48750062Y-57749065I51000J0D01*
G01*
X49750060Y-57749065D01*
G75*
G02*
X49801060Y-57800065I0J-51000D01*
G01*
X49801060Y-58100063D01*
G75*
G02*
X49750060Y-58151063I-51000J0D01*
G01*
X48750062Y-58151063D01*
G75*
G02*
X48699062Y-58100063I0J51000D01*
G01*
G37*
G36*
G01*
X48699062Y-57599937D02*
X48699062Y-57299939D01*
G75*
G02*
X48750062Y-57248939I51000J0D01*
G01*
X49750060Y-57248939D01*
G75*
G02*
X49801060Y-57299939I0J-51000D01*
G01*
X49801060Y-57599937D01*
G75*
G02*
X49750060Y-57650937I-51000J0D01*
G01*
X48750062Y-57650937D01*
G75*
G02*
X48699062Y-57599937I0J51000D01*
G01*
G37*
G36*
G01*
X48699062Y-57100065D02*
X48699062Y-56800067D01*
G75*
G02*
X48750062Y-56749067I51000J0D01*
G01*
X49750060Y-56749067D01*
G75*
G02*
X49801060Y-56800067I0J-51000D01*
G01*
X49801060Y-57100065D01*
G75*
G02*
X49750060Y-57151065I-51000J0D01*
G01*
X48750062Y-57151065D01*
G75*
G02*
X48699062Y-57100065I0J51000D01*
G01*
G37*
G36*
G01*
X46198940Y-56250068D02*
X46198940Y-55650068D01*
G75*
G02*
X46249939Y-55599069I50999J0D01*
G01*
X47249939Y-55599069D01*
G75*
G02*
X47300938Y-55650068I0J-50999D01*
G01*
X47300938Y-56250068D01*
G75*
G02*
X47249939Y-56301067I-50999J0D01*
G01*
X46249939Y-56301067D01*
G75*
G02*
X46198940Y-56250068I0J50999D01*
G01*
G37*
G36*
G01*
X46198940Y-60749932D02*
X46198940Y-60149932D01*
G75*
G02*
X46249939Y-60098933I50999J0D01*
G01*
X47249939Y-60098933D01*
G75*
G02*
X47300938Y-60149932I0J-50999D01*
G01*
X47300938Y-60749932D01*
G75*
G02*
X47249939Y-60800931I-50999J0D01*
G01*
X46249939Y-60800931D01*
G75*
G02*
X46198940Y-60749932I0J50999D01*
G01*
G37*
X25500000Y-33500000D03*
D14*
G36*
X48750732Y-87598000D02*
G01*
X48751000Y-87599000D01*
X48751000Y-88251000D01*
X48750000Y-88252732D01*
X48749000Y-88253000D01*
X48601000Y-88253000D01*
X48599268Y-88252000D01*
X48599000Y-88251000D01*
X48599000Y-87599000D01*
X48600000Y-87597268D01*
X48601000Y-87597000D01*
X48749000Y-87597000D01*
X48750732Y-87598000D01*
G37*
G36*
X49250732Y-87598000D02*
G01*
X49251000Y-87599000D01*
X49251000Y-88251000D01*
X49250000Y-88252732D01*
X49249000Y-88253000D01*
X49101000Y-88253000D01*
X49099268Y-88252000D01*
X49099000Y-88251000D01*
X49099000Y-87599000D01*
X49100000Y-87597268D01*
X49101000Y-87597000D01*
X49249000Y-87597000D01*
X49250732Y-87598000D01*
G37*
G36*
X49750732Y-87598000D02*
G01*
X49751000Y-87599000D01*
X49751000Y-88251000D01*
X49750000Y-88252732D01*
X49749000Y-88253000D01*
X49601000Y-88253000D01*
X49599268Y-88252000D01*
X49599000Y-88251000D01*
X49599000Y-87599000D01*
X49600000Y-87597268D01*
X49601000Y-87597000D01*
X49749000Y-87597000D01*
X49750732Y-87598000D01*
G37*
G36*
X49750732Y-85248000D02*
G01*
X49751000Y-85249000D01*
X49751000Y-85901000D01*
X49750000Y-85902732D01*
X49749000Y-85903000D01*
X49601000Y-85903000D01*
X49599268Y-85902000D01*
X49599000Y-85901000D01*
X49599000Y-85249000D01*
X49600000Y-85247268D01*
X49601000Y-85247000D01*
X49749000Y-85247000D01*
X49750732Y-85248000D01*
G37*
G36*
X48750732Y-85248000D02*
G01*
X48751000Y-85249000D01*
X48751000Y-85901000D01*
X48750000Y-85902732D01*
X48749000Y-85903000D01*
X48601000Y-85903000D01*
X48599268Y-85902000D01*
X48599000Y-85901000D01*
X48599000Y-85249000D01*
X48600000Y-85247268D01*
X48601000Y-85247000D01*
X48749000Y-85247000D01*
X48750732Y-85248000D01*
G37*
G36*
X49250732Y-85248000D02*
G01*
X49251000Y-85249000D01*
X49251000Y-85901000D01*
X49250000Y-85902732D01*
X49249000Y-85903000D01*
X49101000Y-85903000D01*
X49099268Y-85902000D01*
X49099000Y-85901000D01*
X49099000Y-85249000D01*
X49100000Y-85247268D01*
X49101000Y-85247000D01*
X49249000Y-85247000D01*
X49250732Y-85248000D01*
G37*
G36*
X32605732Y-66018000D02*
G01*
X32606000Y-66019000D01*
X32606000Y-67521000D01*
X32605000Y-67522732D01*
X32604000Y-67523000D01*
X32506000Y-67523000D01*
X32504268Y-67522000D01*
X32504000Y-67521000D01*
X32504000Y-66019000D01*
X32505000Y-66017268D01*
X32506000Y-66017000D01*
X32604000Y-66017000D01*
X32605732Y-66018000D01*
G37*
G36*
X33105732Y-66018000D02*
G01*
X33106000Y-66019000D01*
X33106000Y-67521000D01*
X33105000Y-67522732D01*
X33104000Y-67523000D01*
X33006000Y-67523000D01*
X33004268Y-67522000D01*
X33004000Y-67521000D01*
X33004000Y-66019000D01*
X33005000Y-66017268D01*
X33006000Y-66017000D01*
X33104000Y-66017000D01*
X33105732Y-66018000D01*
G37*
G36*
X32105732Y-66018000D02*
G01*
X32106000Y-66019000D01*
X32106000Y-67521000D01*
X32105000Y-67522732D01*
X32104000Y-67523000D01*
X32006000Y-67523000D01*
X32004268Y-67522000D01*
X32004000Y-67521000D01*
X32004000Y-66019000D01*
X32005000Y-66017268D01*
X32006000Y-66017000D01*
X32104000Y-66017000D01*
X32105732Y-66018000D01*
G37*
G36*
X33605732Y-66018000D02*
G01*
X33606000Y-66019000D01*
X33606000Y-67521000D01*
X33605000Y-67522732D01*
X33604000Y-67523000D01*
X33506000Y-67523000D01*
X33504268Y-67522000D01*
X33504000Y-67521000D01*
X33504000Y-66019000D01*
X33505000Y-66017268D01*
X33506000Y-66017000D01*
X33604000Y-66017000D01*
X33605732Y-66018000D01*
G37*
G36*
X33605732Y-61618000D02*
G01*
X33606000Y-61619000D01*
X33606000Y-63121000D01*
X33605000Y-63122732D01*
X33604000Y-63123000D01*
X33506000Y-63123000D01*
X33504268Y-63122000D01*
X33504000Y-63121000D01*
X33504000Y-61619000D01*
X33505000Y-61617268D01*
X33506000Y-61617000D01*
X33604000Y-61617000D01*
X33605732Y-61618000D01*
G37*
G36*
X32105732Y-61618000D02*
G01*
X32106000Y-61619000D01*
X32106000Y-63121000D01*
X32105000Y-63122732D01*
X32104000Y-63123000D01*
X32006000Y-63123000D01*
X32004268Y-63122000D01*
X32004000Y-63121000D01*
X32004000Y-61619000D01*
X32005000Y-61617268D01*
X32006000Y-61617000D01*
X32104000Y-61617000D01*
X32105732Y-61618000D01*
G37*
G36*
X33105732Y-61618000D02*
G01*
X33106000Y-61619000D01*
X33106000Y-63121000D01*
X33105000Y-63122732D01*
X33104000Y-63123000D01*
X33006000Y-63123000D01*
X33004268Y-63122000D01*
X33004000Y-63121000D01*
X33004000Y-61619000D01*
X33005000Y-61617268D01*
X33006000Y-61617000D01*
X33104000Y-61617000D01*
X33105732Y-61618000D01*
G37*
G36*
X32605732Y-61618000D02*
G01*
X32606000Y-61619000D01*
X32606000Y-63121000D01*
X32605000Y-63122732D01*
X32604000Y-63123000D01*
X32506000Y-63123000D01*
X32504268Y-63122000D01*
X32504000Y-63121000D01*
X32504000Y-61619000D01*
X32505000Y-61617268D01*
X32506000Y-61617000D01*
X32604000Y-61617000D01*
X32605732Y-61618000D01*
G37*
G36*
X49802792Y-59150061D02*
G01*
X49803060Y-59151061D01*
X49803060Y-59248935D01*
X49802060Y-59250667D01*
X49801060Y-59250935D01*
X48699062Y-59250935D01*
X48697330Y-59249935D01*
X48697062Y-59248935D01*
X48697062Y-59151061D01*
X48698062Y-59149329D01*
X48699062Y-59149061D01*
X49801060Y-59149061D01*
X49802792Y-59150061D01*
G37*
G36*
X49802792Y-58649935D02*
G01*
X49803060Y-58650935D01*
X49803060Y-58749063D01*
X49802060Y-58750795D01*
X49801060Y-58751063D01*
X48699062Y-58751063D01*
X48697330Y-58750063D01*
X48697062Y-58749063D01*
X48697062Y-58650935D01*
X48698062Y-58649203D01*
X48699062Y-58648935D01*
X49801060Y-58648935D01*
X49802792Y-58649935D01*
G37*
G36*
X49802792Y-58150063D02*
G01*
X49803060Y-58151063D01*
X49803060Y-58248937D01*
X49802060Y-58250669D01*
X49801060Y-58250937D01*
X48699062Y-58250937D01*
X48697330Y-58249937D01*
X48697062Y-58248937D01*
X48697062Y-58151063D01*
X48698062Y-58149331D01*
X48699062Y-58149063D01*
X49801060Y-58149063D01*
X49802792Y-58150063D01*
G37*
G36*
X49802792Y-57649937D02*
G01*
X49803060Y-57650937D01*
X49803060Y-57749065D01*
X49802060Y-57750797D01*
X49801060Y-57751065D01*
X48699062Y-57751065D01*
X48697330Y-57750065D01*
X48697062Y-57749065D01*
X48697062Y-57650937D01*
X48698062Y-57649205D01*
X48699062Y-57648937D01*
X49801060Y-57648937D01*
X49802792Y-57649937D01*
G37*
G36*
X49802792Y-57150065D02*
G01*
X49803060Y-57151065D01*
X49803060Y-57248939D01*
X49802060Y-57250671D01*
X49801060Y-57250939D01*
X48699062Y-57250939D01*
X48697330Y-57249939D01*
X48697062Y-57248939D01*
X48697062Y-57151065D01*
X48698062Y-57149333D01*
X48699062Y-57149065D01*
X49801060Y-57149065D01*
X49802792Y-57150065D01*
G37*
G36*
X92202670Y-51250047D02*
G01*
X92202938Y-51251047D01*
X92202938Y-51348921D01*
X92201938Y-51350653D01*
X92200938Y-51350921D01*
X91298940Y-51350921D01*
X91297208Y-51349921D01*
X91296940Y-51348921D01*
X91296940Y-51251047D01*
X91297940Y-51249315D01*
X91298940Y-51249047D01*
X92200938Y-51249047D01*
X92202670Y-51250047D01*
G37*
G36*
X92202670Y-50749921D02*
G01*
X92202938Y-50750921D01*
X92202938Y-50849049D01*
X92201938Y-50850781D01*
X92200938Y-50851049D01*
X91298940Y-50851049D01*
X91297208Y-50850049D01*
X91296940Y-50849049D01*
X91296940Y-50750921D01*
X91297940Y-50749189D01*
X91298940Y-50748921D01*
X92200938Y-50748921D01*
X92202670Y-50749921D01*
G37*
G36*
X92202670Y-50250049D02*
G01*
X92202938Y-50251049D01*
X92202938Y-50348923D01*
X92201938Y-50350655D01*
X92200938Y-50350923D01*
X91298940Y-50350923D01*
X91297208Y-50349923D01*
X91296940Y-50348923D01*
X91296940Y-50251049D01*
X91297940Y-50249317D01*
X91298940Y-50249049D01*
X92200938Y-50249049D01*
X92202670Y-50250049D01*
G37*
G36*
X92202670Y-49749923D02*
G01*
X92202938Y-49750923D01*
X92202938Y-49849051D01*
X92201938Y-49850783D01*
X92200938Y-49851051D01*
X91298940Y-49851051D01*
X91297208Y-49850051D01*
X91296940Y-49849051D01*
X91296940Y-49750923D01*
X91297940Y-49749191D01*
X91298940Y-49748923D01*
X92200938Y-49748923D01*
X92202670Y-49749923D01*
G37*
G36*
X92202670Y-49250051D02*
G01*
X92202938Y-49251051D01*
X92202938Y-49348925D01*
X92201938Y-49350657D01*
X92200938Y-49350925D01*
X91298940Y-49350925D01*
X91297208Y-49349925D01*
X91296940Y-49348925D01*
X91296940Y-49251051D01*
X91297940Y-49249319D01*
X91298940Y-49249051D01*
X92200938Y-49249051D01*
X92202670Y-49250051D01*
G37*
G36*
X92202670Y-48749925D02*
G01*
X92202938Y-48750925D01*
X92202938Y-48849053D01*
X92201938Y-48850785D01*
X92200938Y-48851053D01*
X91298940Y-48851053D01*
X91297208Y-48850053D01*
X91296940Y-48849053D01*
X91296940Y-48750925D01*
X91297940Y-48749193D01*
X91298940Y-48748925D01*
X92200938Y-48748925D01*
X92202670Y-48749925D01*
G37*
G36*
X92202670Y-48250053D02*
G01*
X92202938Y-48251053D01*
X92202938Y-48348927D01*
X92201938Y-48350659D01*
X92200938Y-48350927D01*
X91298940Y-48350927D01*
X91297208Y-48349927D01*
X91296940Y-48348927D01*
X91296940Y-48251053D01*
X91297940Y-48249321D01*
X91298940Y-48249053D01*
X92200938Y-48249053D01*
X92202670Y-48250053D01*
G37*
G36*
X92202670Y-47749927D02*
G01*
X92202938Y-47750927D01*
X92202938Y-47849055D01*
X92201938Y-47850787D01*
X92200938Y-47851055D01*
X91298940Y-47851055D01*
X91297208Y-47850055D01*
X91296940Y-47849055D01*
X91296940Y-47750927D01*
X91297940Y-47749195D01*
X91298940Y-47748927D01*
X92200938Y-47748927D01*
X92202670Y-47749927D01*
G37*
G36*
X92202670Y-47250055D02*
G01*
X92202938Y-47251055D01*
X92202938Y-47348929D01*
X92201938Y-47350661D01*
X92200938Y-47350929D01*
X91298940Y-47350929D01*
X91297208Y-47349929D01*
X91296940Y-47348929D01*
X91296940Y-47251055D01*
X91297940Y-47249323D01*
X91298940Y-47249055D01*
X92200938Y-47249055D01*
X92202670Y-47250055D01*
G37*
G36*
X92202670Y-46749929D02*
G01*
X92202938Y-46750929D01*
X92202938Y-46849057D01*
X92201938Y-46850789D01*
X92200938Y-46851057D01*
X91298940Y-46851057D01*
X91297208Y-46850057D01*
X91296940Y-46849057D01*
X91296940Y-46750929D01*
X91297940Y-46749197D01*
X91298940Y-46748929D01*
X92200938Y-46748929D01*
X92202670Y-46749929D01*
G37*
G36*
X92202670Y-46250057D02*
G01*
X92202938Y-46251057D01*
X92202938Y-46348931D01*
X92201938Y-46350663D01*
X92200938Y-46350931D01*
X91298940Y-46350931D01*
X91297208Y-46349931D01*
X91296940Y-46348931D01*
X91296940Y-46251057D01*
X91297940Y-46249325D01*
X91298940Y-46249057D01*
X92200938Y-46249057D01*
X92202670Y-46250057D01*
G37*
G36*
X92202670Y-45749931D02*
G01*
X92202938Y-45750931D01*
X92202938Y-45849059D01*
X92201938Y-45850791D01*
X92200938Y-45851059D01*
X91298940Y-45851059D01*
X91297208Y-45850059D01*
X91296940Y-45849059D01*
X91296940Y-45750931D01*
X91297940Y-45749199D01*
X91298940Y-45748931D01*
X92200938Y-45748931D01*
X92202670Y-45749931D01*
G37*
G36*
X92202670Y-45250059D02*
G01*
X92202938Y-45251059D01*
X92202938Y-45348933D01*
X92201938Y-45350665D01*
X92200938Y-45350933D01*
X91298940Y-45350933D01*
X91297208Y-45349933D01*
X91296940Y-45348933D01*
X91296940Y-45251059D01*
X91297940Y-45249327D01*
X91298940Y-45249059D01*
X92200938Y-45249059D01*
X92202670Y-45250059D01*
G37*
G36*
X33952732Y-45000000D02*
G01*
X33953000Y-45001000D01*
X33953000Y-45099000D01*
X33952000Y-45100732D01*
X33951000Y-45101000D01*
X32449000Y-45101000D01*
X32447268Y-45100000D01*
X32447000Y-45099000D01*
X32447000Y-45001000D01*
X32448000Y-44999268D01*
X32449000Y-44999000D01*
X33951000Y-44999000D01*
X33952732Y-45000000D01*
G37*
G36*
X38352732Y-45000000D02*
G01*
X38353000Y-45001000D01*
X38353000Y-45099000D01*
X38352000Y-45100732D01*
X38351000Y-45101000D01*
X36849000Y-45101000D01*
X36847268Y-45100000D01*
X36847000Y-45099000D01*
X36847000Y-45001000D01*
X36848000Y-44999268D01*
X36849000Y-44999000D01*
X38351000Y-44999000D01*
X38352732Y-45000000D01*
G37*
G36*
X92202670Y-44749933D02*
G01*
X92202938Y-44750933D01*
X92202938Y-44849061D01*
X92201938Y-44850793D01*
X92200938Y-44851061D01*
X91298940Y-44851061D01*
X91297208Y-44850061D01*
X91296940Y-44849061D01*
X91296940Y-44750933D01*
X91297940Y-44749201D01*
X91298940Y-44748933D01*
X92200938Y-44748933D01*
X92202670Y-44749933D01*
G37*
G36*
X38352732Y-44500000D02*
G01*
X38353000Y-44501000D01*
X38353000Y-44599000D01*
X38352000Y-44600732D01*
X38351000Y-44601000D01*
X36849000Y-44601000D01*
X36847268Y-44600000D01*
X36847000Y-44599000D01*
X36847000Y-44501000D01*
X36848000Y-44499268D01*
X36849000Y-44499000D01*
X38351000Y-44499000D01*
X38352732Y-44500000D01*
G37*
G36*
X33952732Y-44500000D02*
G01*
X33953000Y-44501000D01*
X33953000Y-44599000D01*
X33952000Y-44600732D01*
X33951000Y-44601000D01*
X32449000Y-44601000D01*
X32447268Y-44600000D01*
X32447000Y-44599000D01*
X32447000Y-44501000D01*
X32448000Y-44499268D01*
X32449000Y-44499000D01*
X33951000Y-44499000D01*
X33952732Y-44500000D01*
G37*
G36*
X92202670Y-44250061D02*
G01*
X92202938Y-44251061D01*
X92202938Y-44348935D01*
X92201938Y-44350667D01*
X92200938Y-44350935D01*
X91298940Y-44350935D01*
X91297208Y-44349935D01*
X91296940Y-44348935D01*
X91296940Y-44251061D01*
X91297940Y-44249329D01*
X91298940Y-44249061D01*
X92200938Y-44249061D01*
X92202670Y-44250061D01*
G37*
G36*
X38352732Y-44000000D02*
G01*
X38353000Y-44001000D01*
X38353000Y-44099000D01*
X38352000Y-44100732D01*
X38351000Y-44101000D01*
X36849000Y-44101000D01*
X36847268Y-44100000D01*
X36847000Y-44099000D01*
X36847000Y-44001000D01*
X36848000Y-43999268D01*
X36849000Y-43999000D01*
X38351000Y-43999000D01*
X38352732Y-44000000D01*
G37*
G36*
X33952732Y-44000000D02*
G01*
X33953000Y-44001000D01*
X33953000Y-44099000D01*
X33952000Y-44100732D01*
X33951000Y-44101000D01*
X32449000Y-44101000D01*
X32447268Y-44100000D01*
X32447000Y-44099000D01*
X32447000Y-44001000D01*
X32448000Y-43999268D01*
X32449000Y-43999000D01*
X33951000Y-43999000D01*
X33952732Y-44000000D01*
G37*
G36*
X92202670Y-43749935D02*
G01*
X92202938Y-43750935D01*
X92202938Y-43849063D01*
X92201938Y-43850795D01*
X92200938Y-43851063D01*
X91298940Y-43851063D01*
X91297208Y-43850063D01*
X91296940Y-43849063D01*
X91296940Y-43750935D01*
X91297940Y-43749203D01*
X91298940Y-43748935D01*
X92200938Y-43748935D01*
X92202670Y-43749935D01*
G37*
G36*
X33952732Y-43500000D02*
G01*
X33953000Y-43501000D01*
X33953000Y-43599000D01*
X33952000Y-43600732D01*
X33951000Y-43601000D01*
X32449000Y-43601000D01*
X32447268Y-43600000D01*
X32447000Y-43599000D01*
X32447000Y-43501000D01*
X32448000Y-43499268D01*
X32449000Y-43499000D01*
X33951000Y-43499000D01*
X33952732Y-43500000D01*
G37*
G36*
X38352732Y-43500000D02*
G01*
X38353000Y-43501000D01*
X38353000Y-43599000D01*
X38352000Y-43600732D01*
X38351000Y-43601000D01*
X36849000Y-43601000D01*
X36847268Y-43600000D01*
X36847000Y-43599000D01*
X36847000Y-43501000D01*
X36848000Y-43499268D01*
X36849000Y-43499000D01*
X38351000Y-43499000D01*
X38352732Y-43500000D01*
G37*
G36*
X92202670Y-43250063D02*
G01*
X92202938Y-43251063D01*
X92202938Y-43348937D01*
X92201938Y-43350669D01*
X92200938Y-43350937D01*
X91298940Y-43350937D01*
X91297208Y-43349937D01*
X91296940Y-43348937D01*
X91296940Y-43251063D01*
X91297940Y-43249331D01*
X91298940Y-43249063D01*
X92200938Y-43249063D01*
X92202670Y-43250063D01*
G37*
G36*
X92202670Y-42749937D02*
G01*
X92202938Y-42750937D01*
X92202938Y-42849065D01*
X92201938Y-42850797D01*
X92200938Y-42851065D01*
X91298940Y-42851065D01*
X91297208Y-42850065D01*
X91296940Y-42849065D01*
X91296940Y-42750937D01*
X91297940Y-42749205D01*
X91298940Y-42748937D01*
X92200938Y-42748937D01*
X92202670Y-42749937D01*
G37*
G36*
X92202670Y-42250065D02*
G01*
X92202938Y-42251065D01*
X92202938Y-42348939D01*
X92201938Y-42350671D01*
X92200938Y-42350939D01*
X91298940Y-42350939D01*
X91297208Y-42349939D01*
X91296940Y-42348939D01*
X91296940Y-42251065D01*
X91297940Y-42249333D01*
X91298940Y-42249065D01*
X92200938Y-42249065D01*
X92202670Y-42250065D01*
G37*
G36*
X92202670Y-41749939D02*
G01*
X92202938Y-41750939D01*
X92202938Y-41849067D01*
X92201938Y-41850799D01*
X92200938Y-41851067D01*
X91298940Y-41851067D01*
X91297208Y-41850067D01*
X91296940Y-41849067D01*
X91296940Y-41750939D01*
X91297940Y-41749207D01*
X91298940Y-41748939D01*
X92200938Y-41748939D01*
X92202670Y-41749939D01*
G37*
G36*
X92202670Y-41250067D02*
G01*
X92202938Y-41251067D01*
X92202938Y-41348941D01*
X92201938Y-41350673D01*
X92200938Y-41350941D01*
X91298940Y-41350941D01*
X91297208Y-41349941D01*
X91296940Y-41348941D01*
X91296940Y-41251067D01*
X91297940Y-41249335D01*
X91298940Y-41249067D01*
X92200938Y-41249067D01*
X92202670Y-41250067D01*
G37*
G36*
X92202670Y-40749941D02*
G01*
X92202938Y-40750941D01*
X92202938Y-40849069D01*
X92201938Y-40850801D01*
X92200938Y-40851069D01*
X91298940Y-40851069D01*
X91297208Y-40850069D01*
X91296940Y-40849069D01*
X91296940Y-40750941D01*
X91297940Y-40749209D01*
X91298940Y-40748941D01*
X92200938Y-40748941D01*
X92202670Y-40749941D01*
G37*
G36*
X92202670Y-40250069D02*
G01*
X92202938Y-40251069D01*
X92202938Y-40348943D01*
X92201938Y-40350675D01*
X92200938Y-40350943D01*
X91298940Y-40350943D01*
X91297208Y-40349943D01*
X91296940Y-40348943D01*
X91296940Y-40251069D01*
X91297940Y-40249337D01*
X91298940Y-40249069D01*
X92200938Y-40249069D01*
X92202670Y-40250069D01*
G37*
G36*
X92202670Y-39749943D02*
G01*
X92202938Y-39750943D01*
X92202938Y-39849071D01*
X92201938Y-39850803D01*
X92200938Y-39851071D01*
X91298940Y-39851071D01*
X91297208Y-39850071D01*
X91296940Y-39849071D01*
X91296940Y-39750943D01*
X91297940Y-39749211D01*
X91298940Y-39748943D01*
X92200938Y-39748943D01*
X92202670Y-39749943D01*
G37*
G36*
X92202670Y-39250071D02*
G01*
X92202938Y-39251071D01*
X92202938Y-39348945D01*
X92201938Y-39350677D01*
X92200938Y-39350945D01*
X91298940Y-39350945D01*
X91297208Y-39349945D01*
X91296940Y-39348945D01*
X91296940Y-39251071D01*
X91297940Y-39249339D01*
X91298940Y-39249071D01*
X92200938Y-39249071D01*
X92202670Y-39250071D01*
G37*
G36*
X92202670Y-38749945D02*
G01*
X92202938Y-38750945D01*
X92202938Y-38849073D01*
X92201938Y-38850805D01*
X92200938Y-38851073D01*
X91298940Y-38851073D01*
X91297208Y-38850073D01*
X91296940Y-38849073D01*
X91296940Y-38750945D01*
X91297940Y-38749213D01*
X91298940Y-38748945D01*
X92200938Y-38748945D01*
X92202670Y-38749945D01*
G37*
G36*
X92202670Y-38250073D02*
G01*
X92202938Y-38251073D01*
X92202938Y-38348947D01*
X92201938Y-38350679D01*
X92200938Y-38350947D01*
X91298940Y-38350947D01*
X91297208Y-38349947D01*
X91296940Y-38348947D01*
X91296940Y-38251073D01*
X91297940Y-38249341D01*
X91298940Y-38249073D01*
X92200938Y-38249073D01*
X92202670Y-38250073D01*
G37*
G36*
X92202670Y-37749947D02*
G01*
X92202938Y-37750947D01*
X92202938Y-37849075D01*
X92201938Y-37850807D01*
X92200938Y-37851075D01*
X91298940Y-37851075D01*
X91297208Y-37850075D01*
X91296940Y-37849075D01*
X91296940Y-37750947D01*
X91297940Y-37749215D01*
X91298940Y-37748947D01*
X92200938Y-37748947D01*
X92202670Y-37749947D01*
G37*
G36*
X92202670Y-37250075D02*
G01*
X92202938Y-37251075D01*
X92202938Y-37348949D01*
X92201938Y-37350681D01*
X92200938Y-37350949D01*
X91298940Y-37350949D01*
X91297208Y-37349949D01*
X91296940Y-37348949D01*
X91296940Y-37251075D01*
X91297940Y-37249343D01*
X91298940Y-37249075D01*
X92200938Y-37249075D01*
X92202670Y-37250075D01*
G37*
G36*
X92202670Y-36749949D02*
G01*
X92202938Y-36750949D01*
X92202938Y-36849077D01*
X92201938Y-36850809D01*
X92200938Y-36851077D01*
X91298940Y-36851077D01*
X91297208Y-36850077D01*
X91296940Y-36849077D01*
X91296940Y-36750949D01*
X91297940Y-36749217D01*
X91298940Y-36748949D01*
X92200938Y-36748949D01*
X92202670Y-36749949D01*
G37*
G36*
X92202670Y-36250077D02*
G01*
X92202938Y-36251077D01*
X92202938Y-36348951D01*
X92201938Y-36350683D01*
X92200938Y-36350951D01*
X91298940Y-36350951D01*
X91297208Y-36349951D01*
X91296940Y-36348951D01*
X91296940Y-36251077D01*
X91297940Y-36249345D01*
X91298940Y-36249077D01*
X92200938Y-36249077D01*
X92202670Y-36250077D01*
G37*
G36*
X92202670Y-35749951D02*
G01*
X92202938Y-35750951D01*
X92202938Y-35849079D01*
X92201938Y-35850811D01*
X92200938Y-35851079D01*
X91298940Y-35851079D01*
X91297208Y-35850079D01*
X91296940Y-35849079D01*
X91296940Y-35750951D01*
X91297940Y-35749219D01*
X91298940Y-35748951D01*
X92200938Y-35748951D01*
X92202670Y-35749951D01*
G37*
G36*
X92202670Y-35250079D02*
G01*
X92202938Y-35251079D01*
X92202938Y-35348953D01*
X92201938Y-35350685D01*
X92200938Y-35350953D01*
X91298940Y-35350953D01*
X91297208Y-35349953D01*
X91296940Y-35348953D01*
X91296940Y-35251079D01*
X91297940Y-35249347D01*
X91298940Y-35249079D01*
X92200938Y-35249079D01*
X92202670Y-35250079D01*
G37*
G36*
X75300765Y-29047945D02*
G01*
X75301033Y-29048945D01*
X75301033Y-30350943D01*
X75300033Y-30352675D01*
X75299033Y-30352943D01*
X75200905Y-30352943D01*
X75199173Y-30351943D01*
X75198905Y-30350943D01*
X75198905Y-29048945D01*
X75199905Y-29047213D01*
X75200905Y-29046945D01*
X75299033Y-29046945D01*
X75300765Y-29047945D01*
G37*
G36*
X74500665Y-29047945D02*
G01*
X74500933Y-29048945D01*
X74500933Y-30350943D01*
X74499933Y-30352675D01*
X74498933Y-30352943D01*
X74401059Y-30352943D01*
X74399327Y-30351943D01*
X74399059Y-30350943D01*
X74399059Y-29048945D01*
X74400059Y-29047213D01*
X74401059Y-29046945D01*
X74498933Y-29046945D01*
X74500665Y-29047945D01*
G37*
G36*
X74000793Y-29047945D02*
G01*
X74001061Y-29048945D01*
X74001061Y-30350943D01*
X74000061Y-30352675D01*
X73999061Y-30352943D01*
X73900933Y-30352943D01*
X73899201Y-30351943D01*
X73898933Y-30350943D01*
X73898933Y-29048945D01*
X73899933Y-29047213D01*
X73900933Y-29046945D01*
X73999061Y-29046945D01*
X74000793Y-29047945D01*
G37*
G36*
X73500667Y-29047945D02*
G01*
X73500935Y-29048945D01*
X73500935Y-30350943D01*
X73499935Y-30352675D01*
X73498935Y-30352943D01*
X73401061Y-30352943D01*
X73399329Y-30351943D01*
X73399061Y-30350943D01*
X73399061Y-29048945D01*
X73400061Y-29047213D01*
X73401061Y-29046945D01*
X73498935Y-29046945D01*
X73500667Y-29047945D01*
G37*
G36*
X73000795Y-29047945D02*
G01*
X73001063Y-29048945D01*
X73001063Y-30350943D01*
X73000063Y-30352675D01*
X72999063Y-30352943D01*
X72900935Y-30352943D01*
X72899203Y-30351943D01*
X72898935Y-30350943D01*
X72898935Y-29048945D01*
X72899935Y-29047213D01*
X72900935Y-29046945D01*
X72999063Y-29046945D01*
X73000795Y-29047945D01*
G37*
G36*
X72500669Y-29047945D02*
G01*
X72500937Y-29048945D01*
X72500937Y-30350943D01*
X72499937Y-30352675D01*
X72498937Y-30352943D01*
X72401063Y-30352943D01*
X72399331Y-30351943D01*
X72399063Y-30350943D01*
X72399063Y-29048945D01*
X72400063Y-29047213D01*
X72401063Y-29046945D01*
X72498937Y-29046945D01*
X72500669Y-29047945D01*
G37*
G36*
X72000797Y-29047945D02*
G01*
X72001065Y-29048945D01*
X72001065Y-30350943D01*
X72000065Y-30352675D01*
X71999065Y-30352943D01*
X71900937Y-30352943D01*
X71899205Y-30351943D01*
X71898937Y-30350943D01*
X71898937Y-29048945D01*
X71899937Y-29047213D01*
X71900937Y-29046945D01*
X71999065Y-29046945D01*
X72000797Y-29047945D01*
G37*
G36*
X71500671Y-29047945D02*
G01*
X71500939Y-29048945D01*
X71500939Y-30350943D01*
X71499939Y-30352675D01*
X71498939Y-30352943D01*
X71401319Y-30352943D01*
X71399587Y-30351943D01*
X71399319Y-30350943D01*
X71399319Y-29048945D01*
X71400319Y-29047213D01*
X71401319Y-29046945D01*
X71498939Y-29046945D01*
X71500671Y-29047945D01*
G37*
G36*
X71001053Y-29047945D02*
G01*
X71001321Y-29048945D01*
X71001321Y-30350943D01*
X71000321Y-30352675D01*
X70999321Y-30352943D01*
X70900939Y-30352943D01*
X70899207Y-30351943D01*
X70898939Y-30350943D01*
X70898939Y-29048945D01*
X70899939Y-29047213D01*
X70900939Y-29046945D01*
X70999321Y-29046945D01*
X71001053Y-29047945D01*
G37*
G36*
X70500673Y-29047945D02*
G01*
X70500941Y-29048945D01*
X70500941Y-30350943D01*
X70499941Y-30352675D01*
X70498941Y-30352943D01*
X70401067Y-30352943D01*
X70399335Y-30351943D01*
X70399067Y-30350943D01*
X70399067Y-29048945D01*
X70400067Y-29047213D01*
X70401067Y-29046945D01*
X70498941Y-29046945D01*
X70500673Y-29047945D01*
G37*
G36*
X69700573Y-29047945D02*
G01*
X69700841Y-29048945D01*
X69700841Y-30350943D01*
X69699841Y-30352675D01*
X69698841Y-30352943D01*
X69600967Y-30352943D01*
X69599235Y-30351943D01*
X69598967Y-30350943D01*
X69598967Y-29048945D01*
X69599967Y-29047213D01*
X69600967Y-29046945D01*
X69698841Y-29046945D01*
X69700573Y-29047945D01*
G37*
M02*
