G04 #@! TF.GenerationSoftware,KiCad,Pcbnew,(5.1.10)-1*
G04 #@! TF.CreationDate,2023-06-26T10:38:49+08:00*
G04 #@! TF.ProjectId,epaper-breakout,65706170-6572-42d6-9272-65616b6f7574,rev?*
G04 #@! TF.SameCoordinates,Original*
G04 #@! TF.FileFunction,Copper,L2,Bot*
G04 #@! TF.FilePolarity,Positive*
%FSLAX46Y46*%
G04 Gerber Fmt 4.6, Leading zero omitted, Abs format (unit mm)*
G04 Created by KiCad (PCBNEW (5.1.10)-1) date 2023-06-26 10:38:49*
%MOMM*%
%LPD*%
G01*
G04 APERTURE LIST*
G04 #@! TA.AperFunction,ComponentPad*
%ADD10O,1.199998X1.999996*%
G04 #@! TD*
G04 #@! TA.AperFunction,ComponentPad*
%ADD11O,1.199998X2.399995*%
G04 #@! TD*
G04 #@! TA.AperFunction,ComponentPad*
%ADD12C,0.800000*%
G04 #@! TD*
G04 #@! TA.AperFunction,ViaPad*
%ADD13C,0.800000*%
G04 #@! TD*
G04 #@! TA.AperFunction,Conductor*
%ADD14C,0.200000*%
G04 #@! TD*
G04 #@! TA.AperFunction,Conductor*
%ADD15C,0.250000*%
G04 #@! TD*
G04 #@! TA.AperFunction,Conductor*
%ADD16C,0.700000*%
G04 #@! TD*
G04 #@! TA.AperFunction,Conductor*
%ADD17C,0.500000*%
G04 #@! TD*
G04 #@! TA.AperFunction,Conductor*
%ADD18C,0.254000*%
G04 #@! TD*
G04 #@! TA.AperFunction,Conductor*
%ADD19C,0.100000*%
G04 #@! TD*
G04 APERTURE END LIST*
D10*
X78070004Y-28500048D03*
X66829996Y-28500048D03*
D11*
X66829996Y-24500056D03*
X78070004Y-24500056D03*
D12*
X70925000Y-72505000D03*
X70925000Y-71505000D03*
X70925000Y-70505000D03*
X70925000Y-69505000D03*
X70925000Y-68505000D03*
X69925000Y-68505000D03*
X69925000Y-69505000D03*
X69925000Y-70505000D03*
X69925000Y-71505000D03*
X69925000Y-72505000D03*
X67925000Y-72505000D03*
X67925000Y-71505000D03*
X67925000Y-70505000D03*
X67925000Y-69505000D03*
X67925000Y-68505000D03*
X68925000Y-68505000D03*
X68925000Y-69505000D03*
X68925000Y-70505000D03*
X68925000Y-71505000D03*
X68925000Y-72505000D03*
X66925000Y-68505000D03*
X66925000Y-69505000D03*
X66925000Y-70505000D03*
X66925000Y-71505000D03*
X66925000Y-72505000D03*
D13*
X31496000Y-45720000D03*
X93200000Y-75000000D03*
X108630000Y-55870000D03*
X68100000Y-35140000D03*
X86090000Y-37750000D03*
X93580000Y-68180000D03*
X87500000Y-65710000D03*
X85720000Y-65600000D03*
X84690000Y-71030000D03*
X83510000Y-73330000D03*
X48006000Y-58166000D03*
X107696000Y-63500000D03*
X25908000Y-69088000D03*
X56388000Y-65278000D03*
X40386000Y-65786000D03*
X35814000Y-67564000D03*
X24130000Y-47498000D03*
X26924000Y-40894000D03*
X49530000Y-36068000D03*
X49784000Y-37846000D03*
X52070000Y-64008000D03*
X36068000Y-46990000D03*
X30226000Y-66548000D03*
X24550000Y-82250000D03*
X95491691Y-51041691D03*
X93980000Y-39319998D03*
X29935000Y-65085994D03*
X41619002Y-65086002D03*
X90170008Y-34290000D03*
X36345000Y-69400000D03*
X31205000Y-83120000D03*
X87375000Y-53650000D03*
X42989000Y-42094000D03*
X32066998Y-36760000D03*
X98500000Y-40800000D03*
X74400000Y-41900000D03*
X84425002Y-40500000D03*
X78765000Y-36940000D03*
X39179000Y-38538000D03*
X69151000Y-77908000D03*
X81026000Y-74930000D03*
X46300000Y-79500000D03*
X87625000Y-69925000D03*
X56835000Y-58850000D03*
X83883000Y-58096000D03*
X81596993Y-65716007D03*
X56679708Y-64220021D03*
X47800000Y-50100000D03*
X97840024Y-36874323D03*
X74345000Y-51730000D03*
X85600000Y-49200000D03*
X96000000Y-49600000D03*
X82104994Y-63510010D03*
X96200000Y-48400000D03*
X62000000Y-58700000D03*
X95925000Y-46500000D03*
X63064990Y-58339990D03*
X63784834Y-57467638D03*
X96520026Y-44450000D03*
X64745000Y-56400000D03*
X96520000Y-43180000D03*
X65491103Y-54799991D03*
X95250000Y-41910000D03*
X66805002Y-54119990D03*
X95250000Y-40640000D03*
X68815000Y-53759979D03*
X87775000Y-43500000D03*
X64071000Y-52762000D03*
X67935000Y-52740000D03*
X83321691Y-50816691D03*
X44600000Y-49700002D03*
X47600002Y-54700000D03*
X93979976Y-38100000D03*
X74485000Y-46158000D03*
X79180000Y-41130000D03*
X57213000Y-72320000D03*
X74231000Y-73590000D03*
X61800000Y-73605000D03*
X74231000Y-72320000D03*
X81280000Y-76199986D03*
X47749932Y-59449934D03*
X89925000Y-69675000D03*
X89900000Y-64250000D03*
X100325000Y-47525000D03*
X53200000Y-76575000D03*
X71500000Y-77999996D03*
X48300000Y-64800000D03*
X28003000Y-40570000D03*
X35877000Y-43872024D03*
X31242000Y-43688000D03*
X29173000Y-85406000D03*
X35714000Y-65918000D03*
X24447000Y-40824000D03*
X38013317Y-46043756D03*
X48000000Y-48199999D03*
X32400000Y-60400000D03*
X50879000Y-78924000D03*
X84500000Y-78000000D03*
X64325002Y-41586000D03*
X49085000Y-42094000D03*
X64833000Y-40570000D03*
X49085000Y-40824000D03*
X75200000Y-32475000D03*
X110414986Y-66300000D03*
X107825000Y-37750000D03*
X96925000Y-72025000D03*
X99975000Y-74700000D03*
X69727504Y-31847496D03*
X42127000Y-80326000D03*
X72914125Y-75211978D03*
X107200000Y-72600000D03*
X54673000Y-35998000D03*
X61785000Y-37776000D03*
X47200000Y-70200000D03*
X48100000Y-61400002D03*
X41900000Y-70300002D03*
X56500000Y-61400000D03*
X70903983Y-33439990D03*
X72540052Y-33279320D03*
X50800000Y-58100000D03*
X55525000Y-58775000D03*
X87710320Y-56638762D03*
X101644000Y-57531000D03*
X106300000Y-50700000D03*
X81100000Y-61699992D03*
X54000000Y-63200000D03*
X87850000Y-55400000D03*
X81284129Y-59724268D03*
X50726868Y-59353802D03*
X54300000Y-59600000D03*
X47200000Y-57200000D03*
X71300000Y-76200000D03*
X54200000Y-75910000D03*
X49023198Y-66500000D03*
X108300000Y-81100000D03*
X109150000Y-63950000D03*
X75100000Y-61401190D03*
X51700000Y-62060002D03*
X35814000Y-40894000D03*
X33528000Y-47244000D03*
X31205000Y-61530000D03*
X28919000Y-63816000D03*
X37555000Y-62292000D03*
X43651001Y-62292000D03*
X67119000Y-66478000D03*
X53154989Y-69804454D03*
X106000000Y-63600000D03*
X105800000Y-61241010D03*
X96837000Y-69018000D03*
X104281500Y-64016500D03*
X101950000Y-78025000D03*
X99500000Y-70175000D03*
X102800000Y-70800000D03*
X102101902Y-79864351D03*
X68982698Y-47850302D03*
X39499999Y-46800000D03*
X39700000Y-45600000D03*
X70000000Y-46300000D03*
D14*
X85830000Y-65710000D02*
X85720000Y-65600000D01*
X87500000Y-65710000D02*
X85830000Y-65710000D01*
D15*
X29935000Y-65085994D02*
X41618994Y-65085994D01*
X41618994Y-65085994D02*
X41619002Y-65086002D01*
D14*
X42184687Y-65086002D02*
X41619002Y-65086002D01*
X44735345Y-62535345D02*
X42184687Y-65086002D01*
X44819002Y-62451687D02*
X44735345Y-62535345D01*
X64785160Y-54019998D02*
X84515158Y-34290000D01*
X84515158Y-34290000D02*
X90170008Y-34290000D01*
X46980002Y-54019998D02*
X64785160Y-54019998D01*
X44735345Y-62535345D02*
X44735345Y-56264655D01*
X44735345Y-56264655D02*
X46980002Y-54019998D01*
X36345000Y-77980000D02*
X31205000Y-83120000D01*
X36345000Y-69400000D02*
X36345000Y-77980000D01*
X88899999Y-55174999D02*
X87375000Y-53650000D01*
X88899999Y-60445001D02*
X88899999Y-55174999D01*
X86495000Y-62850000D02*
X88899999Y-60445001D01*
X80550000Y-62850000D02*
X86495000Y-62850000D01*
X79839989Y-63560011D02*
X80550000Y-62850000D01*
X55849121Y-63560011D02*
X79839989Y-63560011D01*
X50009132Y-69400000D02*
X55849121Y-63560011D01*
X36345000Y-69400000D02*
X50009132Y-69400000D01*
X42989000Y-42094000D02*
X40444988Y-39549988D01*
X40444988Y-39549988D02*
X34856986Y-39549988D01*
X34856986Y-39549988D02*
X32066998Y-36760000D01*
D15*
X42989000Y-42094000D02*
X44249989Y-43354989D01*
X44249989Y-43354989D02*
X72945011Y-43354989D01*
X72945011Y-43354989D02*
X74400000Y-41900000D01*
D14*
X98500000Y-40800000D02*
X97679998Y-39979998D01*
X97679998Y-39979998D02*
X84945004Y-39979998D01*
X84945004Y-39979998D02*
X84825001Y-40100001D01*
X84825001Y-40100001D02*
X84425002Y-40500000D01*
X77167000Y-38538000D02*
X39179000Y-38538000D01*
X78765000Y-36940000D02*
X77167000Y-38538000D01*
D15*
X69151000Y-77908000D02*
X69327994Y-78084994D01*
D14*
X48400000Y-79500000D02*
X46300000Y-79500000D01*
X49992000Y-77908000D02*
X48400000Y-79500000D01*
X69151000Y-77908000D02*
X49992000Y-77908000D01*
X87625000Y-71150000D02*
X87625000Y-69925000D01*
X83845000Y-74930000D02*
X87625000Y-71150000D01*
X81026000Y-74930000D02*
X83845000Y-74930000D01*
X58224989Y-60239989D02*
X79835011Y-60239989D01*
X56835000Y-58850000D02*
X58224989Y-60239989D01*
X79835011Y-60239989D02*
X81979000Y-58096000D01*
X81979000Y-58096000D02*
X83883000Y-58096000D01*
X81596993Y-65716007D02*
X58175694Y-65716007D01*
X58175694Y-65716007D02*
X56679708Y-64220021D01*
X68003000Y-50100000D02*
X84173010Y-33929990D01*
X84173010Y-33929990D02*
X88283206Y-33929990D01*
X88283206Y-33929990D02*
X88583197Y-33629999D01*
X88583197Y-33629999D02*
X94595700Y-33629999D01*
X47800000Y-50100000D02*
X68003000Y-50100000D01*
X94595700Y-33629999D02*
X97840024Y-36874323D01*
X76875000Y-49200000D02*
X85600000Y-49200000D01*
X74345000Y-51730000D02*
X76875000Y-49200000D01*
X92750000Y-59389000D02*
X88628990Y-63510010D01*
X92750000Y-52850000D02*
X92750000Y-59389000D01*
X88628990Y-63510010D02*
X82104994Y-63510010D01*
X96000000Y-49600000D02*
X92750000Y-52850000D01*
X89773245Y-52669172D02*
X89630828Y-52669172D01*
X91930828Y-52669172D02*
X96200000Y-48400000D01*
X89630828Y-52669172D02*
X91930828Y-52669172D01*
X62399999Y-59099999D02*
X62000000Y-58700000D01*
X80465869Y-59099999D02*
X62399999Y-59099999D01*
X89630828Y-52669172D02*
X89576654Y-52614998D01*
X86950870Y-52614998D02*
X80465869Y-59099999D01*
X89576654Y-52614998D02*
X86950870Y-52614998D01*
X89625000Y-51510000D02*
X89510000Y-51510000D01*
X95525001Y-46899999D02*
X95925000Y-46500000D01*
X89510000Y-51510000D02*
X90915000Y-51510000D01*
X90915000Y-51510000D02*
X95525001Y-46899999D01*
X87295000Y-51510000D02*
X80585024Y-58219976D01*
X80324942Y-58479990D02*
X63204990Y-58479990D01*
X80584955Y-58219977D02*
X80324942Y-58479990D01*
X89510000Y-51510000D02*
X87295000Y-51510000D01*
X63204990Y-58479990D02*
X63064990Y-58339990D01*
X80585024Y-58219976D02*
X80584955Y-58219977D01*
X89820037Y-51149989D02*
X96520026Y-44450000D01*
X63784834Y-57467638D02*
X80828230Y-57467638D01*
X80828230Y-57467638D02*
X87145879Y-51149989D01*
X87145879Y-51149989D02*
X89820037Y-51149989D01*
X86996758Y-50789978D02*
X87865022Y-50789978D01*
X87865022Y-50789978D02*
X89855000Y-48800000D01*
X81386736Y-56400000D02*
X86996758Y-50789978D01*
X75042884Y-56365788D02*
X75077096Y-56400000D01*
X75077096Y-56400000D02*
X81386736Y-56400000D01*
X64779212Y-56365788D02*
X75042884Y-56365788D01*
X64745000Y-56400000D02*
X64779212Y-56365788D01*
X90000000Y-48800000D02*
X90776802Y-48800000D01*
X89855000Y-48800000D02*
X90000000Y-48800000D01*
X96120001Y-43579999D02*
X96520000Y-43180000D01*
X90000000Y-48800000D02*
X90900000Y-48800000D01*
X90900000Y-48800000D02*
X96120001Y-43579999D01*
X95250000Y-43180000D02*
X95250000Y-41910000D01*
X93319998Y-43840002D02*
X94589998Y-43840002D01*
X82360009Y-54799991D02*
X93319998Y-43840002D01*
X94589998Y-43840002D02*
X95250000Y-43180000D01*
X65491103Y-54799991D02*
X82360009Y-54799991D01*
X66805002Y-54119990D02*
X67105001Y-54419989D01*
X67105001Y-54419989D02*
X82035696Y-54419989D01*
X92959987Y-43495698D02*
X92959987Y-42364328D01*
X92959987Y-42364328D02*
X94684315Y-40640000D01*
X82035696Y-54419989D02*
X92959987Y-43495698D01*
X94684315Y-40640000D02*
X95250000Y-40640000D01*
X68815000Y-53759979D02*
X82005706Y-53759979D01*
X82005706Y-53759979D02*
X87775000Y-47990685D01*
X87775000Y-47990685D02*
X87775000Y-43500000D01*
X83321691Y-50816691D02*
X81398382Y-52740000D01*
X81398382Y-52740000D02*
X67935000Y-52740000D01*
X47661998Y-52762000D02*
X44600000Y-49700002D01*
X64071000Y-52762000D02*
X47661998Y-52762000D01*
X52879998Y-54679998D02*
X53020002Y-54679998D01*
X47620004Y-54679998D02*
X47600002Y-54700000D01*
X52879998Y-54679998D02*
X47620004Y-54679998D01*
X64634292Y-54679998D02*
X80814291Y-38499999D01*
X52879998Y-54679998D02*
X64634292Y-54679998D01*
X80814291Y-38499999D02*
X93579977Y-38499999D01*
X93579977Y-38499999D02*
X93979976Y-38100000D01*
X74485000Y-46158000D02*
X79180000Y-41463000D01*
X79180000Y-41463000D02*
X79180000Y-41130000D01*
X57213000Y-72320000D02*
X59390999Y-74497999D01*
X59390999Y-74497999D02*
X73323001Y-74497999D01*
X73323001Y-74497999D02*
X74231000Y-73590000D01*
X72946000Y-73605000D02*
X74231000Y-72320000D01*
X61800000Y-73605000D02*
X72946000Y-73605000D01*
X89575000Y-70025000D02*
X89925000Y-69675000D01*
X89575000Y-71862402D02*
X89575000Y-70025000D01*
X85237416Y-76199986D02*
X89575000Y-71862402D01*
X81280000Y-76199986D02*
X85237416Y-76199986D01*
X99100000Y-48750000D02*
X100325000Y-47525000D01*
X99100000Y-55050000D02*
X99100000Y-48750000D01*
X89900000Y-64250000D02*
X99100000Y-55050000D01*
X53200000Y-76575000D02*
X70075004Y-76575000D01*
X70075004Y-76575000D02*
X71500000Y-77999996D01*
X47079989Y-63579989D02*
X48300000Y-64800000D01*
X47749932Y-59449934D02*
X47079989Y-60119877D01*
X47079989Y-60119877D02*
X47079989Y-63579989D01*
X31242000Y-41910000D02*
X31242000Y-43688000D01*
X29902000Y-40570000D02*
X31242000Y-41910000D01*
X28003000Y-40570000D02*
X29902000Y-40570000D01*
D15*
X31426024Y-43872024D02*
X31242000Y-43688000D01*
X35877000Y-43872024D02*
X31426024Y-43872024D01*
D14*
X29173000Y-85406000D02*
X29173000Y-72459000D01*
X29173000Y-72459000D02*
X35714000Y-65918000D01*
X38013317Y-40166317D02*
X38013317Y-46043756D01*
X25361001Y-39909999D02*
X37756999Y-39909999D01*
X24447000Y-40824000D02*
X25361001Y-39909999D01*
X37756999Y-39909999D02*
X38013317Y-40166317D01*
D15*
X44600001Y-48199999D02*
X32400000Y-60400000D01*
X48000000Y-48199999D02*
X44600001Y-48199999D01*
D14*
X50879000Y-78924000D02*
X83576000Y-78924000D01*
X83576000Y-78924000D02*
X84500000Y-78000000D01*
X64325002Y-41586000D02*
X49593000Y-41586000D01*
X49593000Y-41586000D02*
X49085000Y-42094000D01*
X64833000Y-40570000D02*
X49339000Y-40570000D01*
X49339000Y-40570000D02*
X49085000Y-40824000D01*
D16*
X102550000Y-32475000D02*
X107825000Y-37750000D01*
X75200000Y-32475000D02*
X102550000Y-32475000D01*
X110414986Y-66300000D02*
X110414986Y-40339986D01*
X110414986Y-40339986D02*
X107825000Y-37750000D01*
D14*
X99600000Y-74700000D02*
X99975000Y-74700000D01*
X96925000Y-72025000D02*
X99600000Y-74700000D01*
X75200000Y-32475000D02*
X70355008Y-32475000D01*
X70355008Y-32475000D02*
X69727504Y-31847496D01*
D17*
X47000000Y-75100000D02*
X47600000Y-75100000D01*
X42127000Y-79973000D02*
X47000000Y-75100000D01*
X42127000Y-80326000D02*
X42127000Y-79973000D01*
X72802147Y-75100000D02*
X72914125Y-75211978D01*
X47400000Y-75100000D02*
X72802147Y-75100000D01*
X85900000Y-77099994D02*
X74802141Y-77099994D01*
X105125647Y-80674353D02*
X101713100Y-80674353D01*
X107200000Y-78600000D02*
X105125647Y-80674353D01*
X101713100Y-80674353D02*
X101338747Y-80300000D01*
X74802141Y-77099994D02*
X72914125Y-75211978D01*
X89100006Y-80300000D02*
X85900000Y-77099994D01*
X101338747Y-80300000D02*
X89100006Y-80300000D01*
X107200000Y-72600000D02*
X107200000Y-78600000D01*
D14*
X56451000Y-37776000D02*
X61785000Y-37776000D01*
X54673000Y-35998000D02*
X56451000Y-37776000D01*
X42000002Y-70200000D02*
X41900000Y-70300002D01*
X47200000Y-70200000D02*
X42000002Y-70200000D01*
X48100000Y-61400002D02*
X56499998Y-61400002D01*
D15*
X56563382Y-61400000D02*
X56500000Y-61400000D01*
D14*
X56499998Y-61400002D02*
X56500000Y-61400000D01*
X72379382Y-33439990D02*
X72540052Y-33279320D01*
X70903983Y-33439990D02*
X72379382Y-33439990D01*
X54850000Y-58100000D02*
X55525000Y-58775000D01*
X50800000Y-58100000D02*
X54850000Y-58100000D01*
X101644000Y-55356000D02*
X106300000Y-50700000D01*
X101644000Y-57531000D02*
X101644000Y-55356000D01*
X82649090Y-61699992D02*
X81100000Y-61699992D01*
X87710320Y-56638762D02*
X82649090Y-61699992D01*
X79100000Y-63200000D02*
X54000000Y-63200000D01*
X80600008Y-61699992D02*
X79100000Y-63200000D01*
X81100000Y-61699992D02*
X80600008Y-61699992D01*
X83525732Y-59724268D02*
X81284129Y-59724268D01*
X87850000Y-55400000D02*
X83525732Y-59724268D01*
X50726868Y-59353802D02*
X54053802Y-59353802D01*
X54053802Y-59353802D02*
X54300000Y-59600000D01*
X57776803Y-60699999D02*
X56676804Y-59600000D01*
X56676804Y-59600000D02*
X54300000Y-59600000D01*
X81284129Y-59724268D02*
X80308398Y-60699999D01*
X80308398Y-60699999D02*
X57776803Y-60699999D01*
X54210000Y-75900000D02*
X54200000Y-75910000D01*
X71000000Y-75900000D02*
X54210000Y-75900000D01*
X71300000Y-76200000D02*
X71000000Y-75900000D01*
X47200000Y-57200000D02*
X46719978Y-57680022D01*
X46719978Y-57680022D02*
X46719978Y-64196780D01*
X46719978Y-64196780D02*
X49023198Y-66500000D01*
X108300000Y-64800000D02*
X109150000Y-63950000D01*
X108300000Y-81100000D02*
X108300000Y-64800000D01*
X74441188Y-62060002D02*
X51700000Y-62060002D01*
X75100000Y-61401190D02*
X74441188Y-62060002D01*
D15*
X36562001Y-44209999D02*
X33528000Y-47244000D01*
X36562001Y-41642001D02*
X36562001Y-44209999D01*
X35814000Y-40894000D02*
X36562001Y-41642001D01*
D14*
X31205000Y-61530000D02*
X28919000Y-63816000D01*
X37555000Y-62292000D02*
X43651001Y-62292000D01*
X31967000Y-62292000D02*
X37555000Y-62292000D01*
X31205000Y-61530000D02*
X31967000Y-62292000D01*
D17*
X53075000Y-69724465D02*
X53154989Y-69804454D01*
X53075000Y-67075000D02*
X53075000Y-69724465D01*
X53672000Y-66478000D02*
X53075000Y-67075000D01*
X67119000Y-66478000D02*
X53672000Y-66478000D01*
D14*
X106000000Y-61441010D02*
X105800000Y-61241010D01*
X106000000Y-63600000D02*
X106000000Y-61441010D01*
X104281500Y-64367500D02*
X104281500Y-64016500D01*
X99631000Y-69018000D02*
X104281500Y-64367500D01*
X96837000Y-69018000D02*
X99631000Y-69018000D01*
D17*
X101300000Y-71975000D02*
X99500000Y-70175000D01*
X101300000Y-77375000D02*
X101300000Y-71975000D01*
X101950000Y-78025000D02*
X101300000Y-77375000D01*
D14*
X102800000Y-71300000D02*
X102800000Y-70800000D01*
X103199999Y-71199999D02*
X103199999Y-79331939D01*
X103199999Y-79331939D02*
X102667587Y-79864351D01*
X102800000Y-70800000D02*
X103199999Y-71199999D01*
X102667587Y-79864351D02*
X102101902Y-79864351D01*
X68982698Y-47850302D02*
X67932396Y-46800000D01*
X67932396Y-46800000D02*
X39499999Y-46800000D01*
X68800001Y-45100001D02*
X70000000Y-46300000D01*
X40199999Y-45100001D02*
X68800001Y-45100001D01*
X39700000Y-45600000D02*
X40199999Y-45100001D01*
D18*
X81264686Y-24803911D02*
X81278841Y-24821159D01*
X81347667Y-24877643D01*
X81426190Y-24919614D01*
X81511393Y-24945460D01*
X81577795Y-24952000D01*
X81577796Y-24952000D01*
X81599999Y-24954187D01*
X81622202Y-24952000D01*
X86248000Y-24952000D01*
X86248001Y-30977785D01*
X86245813Y-31000000D01*
X86254540Y-31088607D01*
X86280386Y-31173810D01*
X86322357Y-31252333D01*
X86378841Y-31321159D01*
X86447667Y-31377643D01*
X86526190Y-31419614D01*
X86611393Y-31445460D01*
X86677795Y-31452000D01*
X86700000Y-31454187D01*
X86722205Y-31452000D01*
X110548000Y-31452000D01*
X110548000Y-39374156D01*
X108576096Y-37402253D01*
X108557877Y-37358269D01*
X108467372Y-37222819D01*
X108352181Y-37107628D01*
X108216731Y-37017123D01*
X108172749Y-36998905D01*
X104523448Y-33349604D01*
X106973000Y-33349604D01*
X106973000Y-33650396D01*
X107031681Y-33945410D01*
X107146790Y-34223306D01*
X107313901Y-34473406D01*
X107526594Y-34686099D01*
X107776694Y-34853210D01*
X108054590Y-34968319D01*
X108349604Y-35027000D01*
X108650396Y-35027000D01*
X108945410Y-34968319D01*
X109223306Y-34853210D01*
X109473406Y-34686099D01*
X109686099Y-34473406D01*
X109853210Y-34223306D01*
X109968319Y-33945410D01*
X110027000Y-33650396D01*
X110027000Y-33349604D01*
X109968319Y-33054590D01*
X109853210Y-32776694D01*
X109686099Y-32526594D01*
X109473406Y-32313901D01*
X109223306Y-32146790D01*
X108945410Y-32031681D01*
X108650396Y-31973000D01*
X108349604Y-31973000D01*
X108054590Y-32031681D01*
X107776694Y-32146790D01*
X107526594Y-32313901D01*
X107313901Y-32526594D01*
X107146790Y-32776694D01*
X107031681Y-33054590D01*
X106973000Y-33349604D01*
X104523448Y-33349604D01*
X103126413Y-31952570D01*
X103102080Y-31922920D01*
X102983766Y-31825823D01*
X102848784Y-31753673D01*
X102702319Y-31709243D01*
X102588166Y-31698000D01*
X102588163Y-31698000D01*
X102550000Y-31694241D01*
X102511837Y-31698000D01*
X75485209Y-31698000D01*
X75441227Y-31679782D01*
X75281452Y-31648000D01*
X75118548Y-31648000D01*
X74958773Y-31679782D01*
X74808269Y-31742123D01*
X74672819Y-31832628D01*
X74557628Y-31947819D01*
X74557507Y-31948000D01*
X70573298Y-31948000D01*
X70554461Y-31929163D01*
X70554504Y-31928948D01*
X70554504Y-31766044D01*
X70522722Y-31606269D01*
X70460381Y-31455765D01*
X70369876Y-31320315D01*
X70254685Y-31205124D01*
X70119235Y-31114619D01*
X69968731Y-31052278D01*
X69808956Y-31020496D01*
X69646052Y-31020496D01*
X69486277Y-31052278D01*
X69335773Y-31114619D01*
X69200323Y-31205124D01*
X69085132Y-31320315D01*
X68994627Y-31455765D01*
X68932286Y-31606269D01*
X68900504Y-31766044D01*
X68900504Y-31928948D01*
X68932286Y-32088723D01*
X68994627Y-32239227D01*
X69085132Y-32374677D01*
X69200323Y-32489868D01*
X69335773Y-32580373D01*
X69486277Y-32642714D01*
X69646052Y-32674496D01*
X69808956Y-32674496D01*
X69809171Y-32674453D01*
X69964061Y-32829344D01*
X69980560Y-32849448D01*
X70060806Y-32915304D01*
X70152358Y-32964239D01*
X70214625Y-32983128D01*
X70171106Y-33048259D01*
X70108765Y-33198763D01*
X70076983Y-33358538D01*
X70076983Y-33521442D01*
X70108765Y-33681217D01*
X70171106Y-33831721D01*
X70261611Y-33967171D01*
X70376802Y-34082362D01*
X70512252Y-34172867D01*
X70662756Y-34235208D01*
X70822531Y-34266990D01*
X70985435Y-34266990D01*
X71145210Y-34235208D01*
X71295714Y-34172867D01*
X71431164Y-34082362D01*
X71546355Y-33967171D01*
X71546476Y-33966990D01*
X72080664Y-33966990D01*
X72148321Y-34012197D01*
X72298825Y-34074538D01*
X72458600Y-34106320D01*
X72621504Y-34106320D01*
X72781279Y-34074538D01*
X72931783Y-34012197D01*
X73067233Y-33921692D01*
X73182424Y-33806501D01*
X73272929Y-33671051D01*
X73335270Y-33520547D01*
X73367052Y-33360772D01*
X73367052Y-33197868D01*
X73335270Y-33038093D01*
X73320320Y-33002000D01*
X74557507Y-33002000D01*
X74557628Y-33002181D01*
X74672819Y-33117372D01*
X74808269Y-33207877D01*
X74958773Y-33270218D01*
X75118548Y-33302000D01*
X75281452Y-33302000D01*
X75441227Y-33270218D01*
X75485209Y-33252000D01*
X88213076Y-33252000D01*
X88208749Y-33255551D01*
X88192242Y-33275665D01*
X88064917Y-33402990D01*
X84198887Y-33402990D01*
X84173009Y-33400441D01*
X84147131Y-33402990D01*
X84147129Y-33402990D01*
X84069700Y-33410616D01*
X83970360Y-33440751D01*
X83878808Y-33489686D01*
X83798562Y-33555542D01*
X83782059Y-33575651D01*
X75180181Y-42177530D01*
X75195218Y-42141227D01*
X75227000Y-41981452D01*
X75227000Y-41818548D01*
X75195218Y-41658773D01*
X75132877Y-41508269D01*
X75042372Y-41372819D01*
X74927181Y-41257628D01*
X74791731Y-41167123D01*
X74641227Y-41104782D01*
X74481452Y-41073000D01*
X74318548Y-41073000D01*
X74158773Y-41104782D01*
X74008269Y-41167123D01*
X73872819Y-41257628D01*
X73757628Y-41372819D01*
X73667123Y-41508269D01*
X73604782Y-41658773D01*
X73573000Y-41818548D01*
X73573000Y-41946355D01*
X72716367Y-42802989D01*
X49512482Y-42802989D01*
X49612181Y-42736372D01*
X49727372Y-42621181D01*
X49817877Y-42485731D01*
X49880218Y-42335227D01*
X49912000Y-42175452D01*
X49912000Y-42113000D01*
X63682509Y-42113000D01*
X63682630Y-42113181D01*
X63797821Y-42228372D01*
X63933271Y-42318877D01*
X64083775Y-42381218D01*
X64243550Y-42413000D01*
X64406454Y-42413000D01*
X64566229Y-42381218D01*
X64716733Y-42318877D01*
X64852183Y-42228372D01*
X64967374Y-42113181D01*
X65057879Y-41977731D01*
X65120220Y-41827227D01*
X65152002Y-41667452D01*
X65152002Y-41504548D01*
X65120476Y-41346061D01*
X65224731Y-41302877D01*
X65360181Y-41212372D01*
X65475372Y-41097181D01*
X65565877Y-40961731D01*
X65628218Y-40811227D01*
X65660000Y-40651452D01*
X65660000Y-40488548D01*
X65628218Y-40328773D01*
X65565877Y-40178269D01*
X65475372Y-40042819D01*
X65360181Y-39927628D01*
X65224731Y-39837123D01*
X65074227Y-39774782D01*
X64914452Y-39743000D01*
X64751548Y-39743000D01*
X64591773Y-39774782D01*
X64441269Y-39837123D01*
X64305819Y-39927628D01*
X64190628Y-40042819D01*
X64190507Y-40043000D01*
X49364880Y-40043000D01*
X49359202Y-40042441D01*
X49326227Y-40028782D01*
X49166452Y-39997000D01*
X49003548Y-39997000D01*
X48843773Y-40028782D01*
X48693269Y-40091123D01*
X48557819Y-40181628D01*
X48442628Y-40296819D01*
X48352123Y-40432269D01*
X48289782Y-40582773D01*
X48258000Y-40742548D01*
X48258000Y-40905452D01*
X48289782Y-41065227D01*
X48352123Y-41215731D01*
X48442628Y-41351181D01*
X48550447Y-41459000D01*
X48442628Y-41566819D01*
X48352123Y-41702269D01*
X48289782Y-41852773D01*
X48258000Y-42012548D01*
X48258000Y-42175452D01*
X48289782Y-42335227D01*
X48352123Y-42485731D01*
X48442628Y-42621181D01*
X48557819Y-42736372D01*
X48657518Y-42802989D01*
X44478635Y-42802989D01*
X43816000Y-42140355D01*
X43816000Y-42012548D01*
X43784218Y-41852773D01*
X43721877Y-41702269D01*
X43631372Y-41566819D01*
X43516181Y-41451628D01*
X43380731Y-41361123D01*
X43230227Y-41298782D01*
X43070452Y-41267000D01*
X42907548Y-41267000D01*
X42907333Y-41267043D01*
X40835943Y-39195654D01*
X40819436Y-39175540D01*
X40739190Y-39109684D01*
X40655591Y-39065000D01*
X77141119Y-39065000D01*
X77167000Y-39067549D01*
X77192881Y-39065000D01*
X77270310Y-39057374D01*
X77369650Y-39027239D01*
X77461202Y-38978304D01*
X77541448Y-38912448D01*
X77557955Y-38892334D01*
X78683333Y-37766957D01*
X78683548Y-37767000D01*
X78846452Y-37767000D01*
X79006227Y-37735218D01*
X79156731Y-37672877D01*
X79292181Y-37582372D01*
X79407372Y-37467181D01*
X79497877Y-37331731D01*
X79560218Y-37181227D01*
X79592000Y-37021452D01*
X79592000Y-36858548D01*
X79560218Y-36698773D01*
X79497877Y-36548269D01*
X79407372Y-36412819D01*
X79292181Y-36297628D01*
X79156731Y-36207123D01*
X79006227Y-36144782D01*
X78846452Y-36113000D01*
X78683548Y-36113000D01*
X78523773Y-36144782D01*
X78373269Y-36207123D01*
X78237819Y-36297628D01*
X78122628Y-36412819D01*
X78032123Y-36548269D01*
X77969782Y-36698773D01*
X77938000Y-36858548D01*
X77938000Y-37021452D01*
X77938043Y-37021667D01*
X76948711Y-38011000D01*
X62581457Y-38011000D01*
X62612000Y-37857452D01*
X62612000Y-37694548D01*
X62580218Y-37534773D01*
X62517877Y-37384269D01*
X62427372Y-37248819D01*
X62312181Y-37133628D01*
X62176731Y-37043123D01*
X62026227Y-36980782D01*
X61866452Y-36949000D01*
X61703548Y-36949000D01*
X61543773Y-36980782D01*
X61393269Y-37043123D01*
X61257819Y-37133628D01*
X61142628Y-37248819D01*
X61142507Y-37249000D01*
X56669291Y-37249000D01*
X55499957Y-36079668D01*
X55500000Y-36079452D01*
X55500000Y-35916548D01*
X55468218Y-35756773D01*
X55405877Y-35606269D01*
X55315372Y-35470819D01*
X55200181Y-35355628D01*
X55064731Y-35265123D01*
X54914227Y-35202782D01*
X54754452Y-35171000D01*
X54591548Y-35171000D01*
X54431773Y-35202782D01*
X54281269Y-35265123D01*
X54145819Y-35355628D01*
X54030628Y-35470819D01*
X53940123Y-35606269D01*
X53877782Y-35756773D01*
X53846000Y-35916548D01*
X53846000Y-36079452D01*
X53877782Y-36239227D01*
X53940123Y-36389731D01*
X54030628Y-36525181D01*
X54145819Y-36640372D01*
X54281269Y-36730877D01*
X54431773Y-36793218D01*
X54591548Y-36825000D01*
X54754452Y-36825000D01*
X54754668Y-36824957D01*
X55940709Y-38011000D01*
X39821493Y-38011000D01*
X39821372Y-38010819D01*
X39706181Y-37895628D01*
X39570731Y-37805123D01*
X39420227Y-37742782D01*
X39260452Y-37711000D01*
X39097548Y-37711000D01*
X38937773Y-37742782D01*
X38787269Y-37805123D01*
X38651819Y-37895628D01*
X38536628Y-38010819D01*
X38446123Y-38146269D01*
X38383782Y-38296773D01*
X38352000Y-38456548D01*
X38352000Y-38619452D01*
X38383782Y-38779227D01*
X38446123Y-38929731D01*
X38508435Y-39022988D01*
X35075276Y-39022988D01*
X32893955Y-36841668D01*
X32893998Y-36841452D01*
X32893998Y-36678548D01*
X32862216Y-36518773D01*
X32799875Y-36368269D01*
X32709370Y-36232819D01*
X32594179Y-36117628D01*
X32458729Y-36027123D01*
X32308225Y-35964782D01*
X32148450Y-35933000D01*
X31985546Y-35933000D01*
X31825771Y-35964782D01*
X31675267Y-36027123D01*
X31539817Y-36117628D01*
X31424626Y-36232819D01*
X31334121Y-36368269D01*
X31271780Y-36518773D01*
X31239998Y-36678548D01*
X31239998Y-36841452D01*
X31271780Y-37001227D01*
X31334121Y-37151731D01*
X31424626Y-37287181D01*
X31539817Y-37402372D01*
X31675267Y-37492877D01*
X31825771Y-37555218D01*
X31985546Y-37587000D01*
X32148450Y-37587000D01*
X32148666Y-37586957D01*
X33944707Y-39382999D01*
X25386882Y-39382999D01*
X25361001Y-39380450D01*
X25335120Y-39382999D01*
X25257691Y-39390625D01*
X25158351Y-39420760D01*
X25066799Y-39469695D01*
X24986553Y-39535551D01*
X24970054Y-39555655D01*
X24528667Y-39997043D01*
X24528452Y-39997000D01*
X24365548Y-39997000D01*
X24205773Y-40028782D01*
X24055269Y-40091123D01*
X23919819Y-40181628D01*
X23804628Y-40296819D01*
X23714123Y-40432269D01*
X23651782Y-40582773D01*
X23620000Y-40742548D01*
X23620000Y-40905452D01*
X23651782Y-41065227D01*
X23714123Y-41215731D01*
X23804628Y-41351181D01*
X23919819Y-41466372D01*
X24055269Y-41556877D01*
X24205773Y-41619218D01*
X24365548Y-41651000D01*
X24528452Y-41651000D01*
X24688227Y-41619218D01*
X24838731Y-41556877D01*
X24974181Y-41466372D01*
X25089372Y-41351181D01*
X25179877Y-41215731D01*
X25242218Y-41065227D01*
X25274000Y-40905452D01*
X25274000Y-40742548D01*
X25273957Y-40742333D01*
X25579292Y-40436999D01*
X27186254Y-40436999D01*
X27176000Y-40488548D01*
X27176000Y-40651452D01*
X27207782Y-40811227D01*
X27270123Y-40961731D01*
X27360628Y-41097181D01*
X27475819Y-41212372D01*
X27611269Y-41302877D01*
X27761773Y-41365218D01*
X27921548Y-41397000D01*
X28084452Y-41397000D01*
X28244227Y-41365218D01*
X28394731Y-41302877D01*
X28530181Y-41212372D01*
X28645372Y-41097181D01*
X28645493Y-41097000D01*
X29683711Y-41097000D01*
X30715000Y-42128290D01*
X30715001Y-43045507D01*
X30714819Y-43045628D01*
X30599628Y-43160819D01*
X30509123Y-43296269D01*
X30446782Y-43446773D01*
X30415000Y-43606548D01*
X30415000Y-43769452D01*
X30446782Y-43929227D01*
X30509123Y-44079731D01*
X30599628Y-44215181D01*
X30714819Y-44330372D01*
X30850269Y-44420877D01*
X31000773Y-44483218D01*
X31160548Y-44515000D01*
X31323452Y-44515000D01*
X31483227Y-44483218D01*
X31626133Y-44424024D01*
X35259447Y-44424024D01*
X35349819Y-44514396D01*
X35426033Y-44565321D01*
X33574356Y-46417000D01*
X33446548Y-46417000D01*
X33286773Y-46448782D01*
X33136269Y-46511123D01*
X33000819Y-46601628D01*
X32885628Y-46716819D01*
X32795123Y-46852269D01*
X32732782Y-47002773D01*
X32701000Y-47162548D01*
X32701000Y-47325452D01*
X32732782Y-47485227D01*
X32795123Y-47635731D01*
X32885628Y-47771181D01*
X33000819Y-47886372D01*
X33136269Y-47976877D01*
X33286773Y-48039218D01*
X33446548Y-48071000D01*
X33609452Y-48071000D01*
X33769227Y-48039218D01*
X33919731Y-47976877D01*
X34055181Y-47886372D01*
X34170372Y-47771181D01*
X34260877Y-47635731D01*
X34323218Y-47485227D01*
X34355000Y-47325452D01*
X34355000Y-47197644D01*
X36933155Y-44619491D01*
X36954212Y-44602210D01*
X36994343Y-44553310D01*
X37023192Y-44518158D01*
X37059622Y-44450001D01*
X37074449Y-44422262D01*
X37106013Y-44318210D01*
X37114001Y-44237108D01*
X37114001Y-44237098D01*
X37116670Y-44210000D01*
X37114001Y-44182902D01*
X37114001Y-41669106D01*
X37116671Y-41642000D01*
X37112063Y-41595218D01*
X37106013Y-41533790D01*
X37074449Y-41429738D01*
X37023192Y-41333843D01*
X36954212Y-41249790D01*
X36933155Y-41232509D01*
X36641000Y-40940355D01*
X36641000Y-40812548D01*
X36609218Y-40652773D01*
X36546877Y-40502269D01*
X36503265Y-40436999D01*
X37486317Y-40436999D01*
X37486318Y-45401262D01*
X37486136Y-45401384D01*
X37370945Y-45516575D01*
X37280440Y-45652025D01*
X37218099Y-45802529D01*
X37186317Y-45962304D01*
X37186317Y-46125208D01*
X37218099Y-46284983D01*
X37280440Y-46435487D01*
X37370945Y-46570937D01*
X37486136Y-46686128D01*
X37621586Y-46776633D01*
X37772090Y-46838974D01*
X37931865Y-46870756D01*
X38094769Y-46870756D01*
X38254544Y-46838974D01*
X38405048Y-46776633D01*
X38540498Y-46686128D01*
X38655689Y-46570937D01*
X38746194Y-46435487D01*
X38808535Y-46284983D01*
X38840317Y-46125208D01*
X38840317Y-45962304D01*
X38808535Y-45802529D01*
X38746194Y-45652025D01*
X38655689Y-45516575D01*
X38540498Y-45401384D01*
X38540317Y-45401263D01*
X38540317Y-40192194D01*
X38542866Y-40166316D01*
X38538366Y-40120626D01*
X38534068Y-40076988D01*
X40226699Y-40076988D01*
X42162043Y-42012333D01*
X42162000Y-42012548D01*
X42162000Y-42175452D01*
X42193782Y-42335227D01*
X42256123Y-42485731D01*
X42346628Y-42621181D01*
X42461819Y-42736372D01*
X42597269Y-42826877D01*
X42747773Y-42889218D01*
X42907548Y-42921000D01*
X43035355Y-42921000D01*
X43840497Y-43726143D01*
X43857778Y-43747200D01*
X43878834Y-43764480D01*
X43878835Y-43764481D01*
X43941831Y-43816180D01*
X44037726Y-43867437D01*
X44141778Y-43899001D01*
X44249989Y-43909659D01*
X44277097Y-43906989D01*
X72917905Y-43906989D01*
X72945011Y-43909659D01*
X72972117Y-43906989D01*
X72972120Y-43906989D01*
X73053222Y-43899001D01*
X73157274Y-43867437D01*
X73253169Y-43816180D01*
X73337222Y-43747200D01*
X73354511Y-43726133D01*
X74353645Y-42727000D01*
X74481452Y-42727000D01*
X74641227Y-42695218D01*
X74677530Y-42680181D01*
X70780181Y-46577530D01*
X70795218Y-46541227D01*
X70827000Y-46381452D01*
X70827000Y-46218548D01*
X70795218Y-46058773D01*
X70732877Y-45908269D01*
X70642372Y-45772819D01*
X70527181Y-45657628D01*
X70391731Y-45567123D01*
X70241227Y-45504782D01*
X70081452Y-45473000D01*
X69918548Y-45473000D01*
X69918333Y-45473043D01*
X69190956Y-44745667D01*
X69174449Y-44725553D01*
X69094203Y-44659697D01*
X69002651Y-44610762D01*
X68903311Y-44580627D01*
X68825882Y-44573001D01*
X68800001Y-44570452D01*
X68774120Y-44573001D01*
X40225876Y-44573001D01*
X40199998Y-44570452D01*
X40174120Y-44573001D01*
X40174118Y-44573001D01*
X40096689Y-44580627D01*
X39997349Y-44610762D01*
X39905797Y-44659697D01*
X39825551Y-44725553D01*
X39809048Y-44745662D01*
X39781667Y-44773043D01*
X39781452Y-44773000D01*
X39618548Y-44773000D01*
X39458773Y-44804782D01*
X39308269Y-44867123D01*
X39172819Y-44957628D01*
X39057628Y-45072819D01*
X38967123Y-45208269D01*
X38904782Y-45358773D01*
X38873000Y-45518548D01*
X38873000Y-45681452D01*
X38904782Y-45841227D01*
X38967123Y-45991731D01*
X39045515Y-46109053D01*
X38972818Y-46157628D01*
X38857627Y-46272819D01*
X38767122Y-46408269D01*
X38704781Y-46558773D01*
X38672999Y-46718548D01*
X38672999Y-46881452D01*
X38704781Y-47041227D01*
X38767122Y-47191731D01*
X38857627Y-47327181D01*
X38972818Y-47442372D01*
X39108268Y-47532877D01*
X39258772Y-47595218D01*
X39418547Y-47627000D01*
X39581451Y-47627000D01*
X39741226Y-47595218D01*
X39891730Y-47532877D01*
X40027180Y-47442372D01*
X40142371Y-47327181D01*
X40142492Y-47327000D01*
X67714107Y-47327000D01*
X68155741Y-47768634D01*
X68155698Y-47768850D01*
X68155698Y-47931754D01*
X68187480Y-48091529D01*
X68249821Y-48242033D01*
X68340326Y-48377483D01*
X68455517Y-48492674D01*
X68590967Y-48583179D01*
X68720767Y-48636944D01*
X67784711Y-49573000D01*
X48442493Y-49573000D01*
X48442372Y-49572819D01*
X48327181Y-49457628D01*
X48191731Y-49367123D01*
X48041227Y-49304782D01*
X47881452Y-49273000D01*
X47718548Y-49273000D01*
X47558773Y-49304782D01*
X47408269Y-49367123D01*
X47272819Y-49457628D01*
X47157628Y-49572819D01*
X47067123Y-49708269D01*
X47004782Y-49858773D01*
X46973000Y-50018548D01*
X46973000Y-50181452D01*
X47004782Y-50341227D01*
X47067123Y-50491731D01*
X47157628Y-50627181D01*
X47272819Y-50742372D01*
X47408269Y-50832877D01*
X47558773Y-50895218D01*
X47718548Y-50927000D01*
X47881452Y-50927000D01*
X48041227Y-50895218D01*
X48191731Y-50832877D01*
X48327181Y-50742372D01*
X48442372Y-50627181D01*
X48442493Y-50627000D01*
X67432869Y-50627000D01*
X64566871Y-53492998D01*
X64465543Y-53492998D01*
X64598181Y-53404372D01*
X64713372Y-53289181D01*
X64803877Y-53153731D01*
X64866218Y-53003227D01*
X64898000Y-52843452D01*
X64898000Y-52680548D01*
X64866218Y-52520773D01*
X64803877Y-52370269D01*
X64713372Y-52234819D01*
X64598181Y-52119628D01*
X64462731Y-52029123D01*
X64312227Y-51966782D01*
X64152452Y-51935000D01*
X63989548Y-51935000D01*
X63829773Y-51966782D01*
X63679269Y-52029123D01*
X63543819Y-52119628D01*
X63428628Y-52234819D01*
X63428507Y-52235000D01*
X47880288Y-52235000D01*
X45426957Y-49781670D01*
X45427000Y-49781454D01*
X45427000Y-49618550D01*
X45395218Y-49458775D01*
X45332877Y-49308271D01*
X45242372Y-49172821D01*
X45127181Y-49057630D01*
X44991731Y-48967125D01*
X44841227Y-48904784D01*
X44703298Y-48877347D01*
X44828646Y-48751999D01*
X47382447Y-48751999D01*
X47472819Y-48842371D01*
X47608269Y-48932876D01*
X47758773Y-48995217D01*
X47918548Y-49026999D01*
X48081452Y-49026999D01*
X48241227Y-48995217D01*
X48391731Y-48932876D01*
X48527181Y-48842371D01*
X48642372Y-48727180D01*
X48732877Y-48591730D01*
X48795218Y-48441226D01*
X48827000Y-48281451D01*
X48827000Y-48118547D01*
X48795218Y-47958772D01*
X48732877Y-47808268D01*
X48642372Y-47672818D01*
X48527181Y-47557627D01*
X48391731Y-47467122D01*
X48241227Y-47404781D01*
X48081452Y-47372999D01*
X47918548Y-47372999D01*
X47758773Y-47404781D01*
X47608269Y-47467122D01*
X47472819Y-47557627D01*
X47382447Y-47647999D01*
X44627107Y-47647999D01*
X44600001Y-47645329D01*
X44572895Y-47647999D01*
X44572892Y-47647999D01*
X44491790Y-47655987D01*
X44387738Y-47687551D01*
X44291843Y-47738808D01*
X44207790Y-47807788D01*
X44190505Y-47828850D01*
X32446356Y-59573000D01*
X32318548Y-59573000D01*
X32158773Y-59604782D01*
X32008269Y-59667123D01*
X31872819Y-59757628D01*
X31757628Y-59872819D01*
X31667123Y-60008269D01*
X31604782Y-60158773D01*
X31573000Y-60318548D01*
X31573000Y-60481452D01*
X31604782Y-60641227D01*
X31667123Y-60791731D01*
X31730408Y-60886443D01*
X31596731Y-60797123D01*
X31446227Y-60734782D01*
X31286452Y-60703000D01*
X31123548Y-60703000D01*
X30963773Y-60734782D01*
X30813269Y-60797123D01*
X30677819Y-60887628D01*
X30562628Y-61002819D01*
X30472123Y-61138269D01*
X30409782Y-61288773D01*
X30378000Y-61448548D01*
X30378000Y-61611452D01*
X30378043Y-61611667D01*
X29000668Y-62989043D01*
X29000452Y-62989000D01*
X28837548Y-62989000D01*
X28677773Y-63020782D01*
X28527269Y-63083123D01*
X28391819Y-63173628D01*
X28276628Y-63288819D01*
X28186123Y-63424269D01*
X28123782Y-63574773D01*
X28092000Y-63734548D01*
X28092000Y-63897452D01*
X28123782Y-64057227D01*
X28186123Y-64207731D01*
X28276628Y-64343181D01*
X28391819Y-64458372D01*
X28527269Y-64548877D01*
X28677773Y-64611218D01*
X28837548Y-64643000D01*
X29000452Y-64643000D01*
X29160227Y-64611218D01*
X29296789Y-64554652D01*
X29292628Y-64558813D01*
X29202123Y-64694263D01*
X29139782Y-64844767D01*
X29108000Y-65004542D01*
X29108000Y-65167446D01*
X29139782Y-65327221D01*
X29202123Y-65477725D01*
X29292628Y-65613175D01*
X29407819Y-65728366D01*
X29543269Y-65818871D01*
X29693773Y-65881212D01*
X29853548Y-65912994D01*
X30016452Y-65912994D01*
X30176227Y-65881212D01*
X30326731Y-65818871D01*
X30462181Y-65728366D01*
X30552553Y-65637994D01*
X34934845Y-65637994D01*
X34918782Y-65676773D01*
X34887000Y-65836548D01*
X34887000Y-65999452D01*
X34887043Y-65999667D01*
X28818662Y-72068049D01*
X28798553Y-72084552D01*
X28770304Y-72118974D01*
X28732696Y-72164799D01*
X28683761Y-72256351D01*
X28653626Y-72355691D01*
X28643451Y-72459000D01*
X28646001Y-72484891D01*
X28646000Y-84763507D01*
X28645819Y-84763628D01*
X28530628Y-84878819D01*
X28440123Y-85014269D01*
X28377782Y-85164773D01*
X28346000Y-85324548D01*
X28346000Y-85487452D01*
X28377782Y-85647227D01*
X28440123Y-85797731D01*
X28530628Y-85933181D01*
X28645819Y-86048372D01*
X28781269Y-86138877D01*
X28931773Y-86201218D01*
X29091548Y-86233000D01*
X29254452Y-86233000D01*
X29414227Y-86201218D01*
X29564731Y-86138877D01*
X29700181Y-86048372D01*
X29815372Y-85933181D01*
X29905877Y-85797731D01*
X29968218Y-85647227D01*
X30000000Y-85487452D01*
X30000000Y-85324548D01*
X29968218Y-85164773D01*
X29905877Y-85014269D01*
X29815372Y-84878819D01*
X29700181Y-84763628D01*
X29700000Y-84763507D01*
X29700000Y-72677289D01*
X35632333Y-66744957D01*
X35632548Y-66745000D01*
X35795452Y-66745000D01*
X35955227Y-66713218D01*
X36105731Y-66650877D01*
X36241181Y-66560372D01*
X36356372Y-66445181D01*
X36446877Y-66309731D01*
X36509218Y-66159227D01*
X36541000Y-65999452D01*
X36541000Y-65836548D01*
X36509218Y-65676773D01*
X36493155Y-65637994D01*
X41001441Y-65637994D01*
X41091821Y-65728374D01*
X41227271Y-65818879D01*
X41377775Y-65881220D01*
X41537550Y-65913002D01*
X41700454Y-65913002D01*
X41860229Y-65881220D01*
X42010733Y-65818879D01*
X42146183Y-65728374D01*
X42261374Y-65613183D01*
X42265082Y-65607633D01*
X42287997Y-65605376D01*
X42387337Y-65575241D01*
X42478889Y-65526306D01*
X42559135Y-65460450D01*
X42575642Y-65440336D01*
X45089689Y-62926292D01*
X45109793Y-62909793D01*
X45126300Y-62889679D01*
X45209950Y-62806029D01*
X45259308Y-62745885D01*
X45308242Y-62654332D01*
X45338377Y-62554993D01*
X45348551Y-62451684D01*
X45338375Y-62348374D01*
X45308240Y-62249035D01*
X45262345Y-62163172D01*
X45262345Y-56482944D01*
X46804664Y-54940625D01*
X46804784Y-54941227D01*
X46867125Y-55091731D01*
X46957630Y-55227181D01*
X47072821Y-55342372D01*
X47208271Y-55432877D01*
X47358775Y-55495218D01*
X47518550Y-55527000D01*
X47681454Y-55527000D01*
X47841229Y-55495218D01*
X47991733Y-55432877D01*
X48127183Y-55342372D01*
X48242374Y-55227181D01*
X48255860Y-55206998D01*
X64608411Y-55206998D01*
X64634292Y-55209547D01*
X64660173Y-55206998D01*
X64737602Y-55199372D01*
X64759000Y-55192881D01*
X64848731Y-55327172D01*
X64963922Y-55442363D01*
X65099372Y-55532868D01*
X65249876Y-55595209D01*
X65409651Y-55626991D01*
X65572555Y-55626991D01*
X65732330Y-55595209D01*
X65882834Y-55532868D01*
X66018284Y-55442363D01*
X66133475Y-55327172D01*
X66133596Y-55326991D01*
X81714456Y-55326991D01*
X81168447Y-55873000D01*
X75233835Y-55873000D01*
X75146194Y-55846414D01*
X75068765Y-55838788D01*
X75042884Y-55836239D01*
X75017003Y-55838788D01*
X65353341Y-55838788D01*
X65272181Y-55757628D01*
X65136731Y-55667123D01*
X64986227Y-55604782D01*
X64826452Y-55573000D01*
X64663548Y-55573000D01*
X64503773Y-55604782D01*
X64353269Y-55667123D01*
X64217819Y-55757628D01*
X64102628Y-55872819D01*
X64012123Y-56008269D01*
X63949782Y-56158773D01*
X63918000Y-56318548D01*
X63918000Y-56481452D01*
X63949782Y-56641227D01*
X63957013Y-56658685D01*
X63866286Y-56640638D01*
X63703382Y-56640638D01*
X63543607Y-56672420D01*
X63393103Y-56734761D01*
X63257653Y-56825266D01*
X63142462Y-56940457D01*
X63051957Y-57075907D01*
X62989616Y-57226411D01*
X62957834Y-57386186D01*
X62957834Y-57518103D01*
X62823763Y-57544772D01*
X62673259Y-57607113D01*
X62537809Y-57697618D01*
X62422618Y-57812809D01*
X62335164Y-57943692D01*
X62241227Y-57904782D01*
X62081452Y-57873000D01*
X61918548Y-57873000D01*
X61758773Y-57904782D01*
X61608269Y-57967123D01*
X61472819Y-58057628D01*
X61357628Y-58172819D01*
X61267123Y-58308269D01*
X61204782Y-58458773D01*
X61173000Y-58618548D01*
X61173000Y-58781452D01*
X61204782Y-58941227D01*
X61267123Y-59091731D01*
X61357628Y-59227181D01*
X61472819Y-59342372D01*
X61608269Y-59432877D01*
X61758773Y-59495218D01*
X61918548Y-59527000D01*
X62081452Y-59527000D01*
X62088000Y-59525697D01*
X62094932Y-59531386D01*
X62105797Y-59540303D01*
X62197349Y-59589238D01*
X62296689Y-59619373D01*
X62399998Y-59629548D01*
X62425879Y-59626999D01*
X79702712Y-59626999D01*
X79616722Y-59712989D01*
X58443279Y-59712989D01*
X57661957Y-58931668D01*
X57662000Y-58931452D01*
X57662000Y-58768548D01*
X57630218Y-58608773D01*
X57567877Y-58458269D01*
X57477372Y-58322819D01*
X57362181Y-58207628D01*
X57226731Y-58117123D01*
X57076227Y-58054782D01*
X56916452Y-58023000D01*
X56753548Y-58023000D01*
X56593773Y-58054782D01*
X56443269Y-58117123D01*
X56307819Y-58207628D01*
X56207529Y-58307918D01*
X56167372Y-58247819D01*
X56052181Y-58132628D01*
X55916731Y-58042123D01*
X55766227Y-57979782D01*
X55606452Y-57948000D01*
X55443548Y-57948000D01*
X55443332Y-57948043D01*
X55240955Y-57745666D01*
X55224448Y-57725552D01*
X55144202Y-57659696D01*
X55052650Y-57610761D01*
X54953310Y-57580626D01*
X54875881Y-57573000D01*
X54850000Y-57570451D01*
X54824119Y-57573000D01*
X51442493Y-57573000D01*
X51442372Y-57572819D01*
X51327181Y-57457628D01*
X51191731Y-57367123D01*
X51041227Y-57304782D01*
X50881452Y-57273000D01*
X50718548Y-57273000D01*
X50558773Y-57304782D01*
X50408269Y-57367123D01*
X50272819Y-57457628D01*
X50157628Y-57572819D01*
X50067123Y-57708269D01*
X50004782Y-57858773D01*
X49973000Y-58018548D01*
X49973000Y-58181452D01*
X50004782Y-58341227D01*
X50067123Y-58491731D01*
X50157628Y-58627181D01*
X50224978Y-58694531D01*
X50199687Y-58711430D01*
X50084496Y-58826621D01*
X49993991Y-58962071D01*
X49931650Y-59112575D01*
X49899868Y-59272350D01*
X49899868Y-59435254D01*
X49931650Y-59595029D01*
X49993991Y-59745533D01*
X50084496Y-59880983D01*
X50199687Y-59996174D01*
X50335137Y-60086679D01*
X50485641Y-60149020D01*
X50645416Y-60180802D01*
X50808320Y-60180802D01*
X50968095Y-60149020D01*
X51118599Y-60086679D01*
X51254049Y-59996174D01*
X51369240Y-59880983D01*
X51369361Y-59880802D01*
X53521175Y-59880802D01*
X53567123Y-59991731D01*
X53657628Y-60127181D01*
X53772819Y-60242372D01*
X53908269Y-60332877D01*
X54058773Y-60395218D01*
X54218548Y-60427000D01*
X54381452Y-60427000D01*
X54541227Y-60395218D01*
X54691731Y-60332877D01*
X54827181Y-60242372D01*
X54942372Y-60127181D01*
X54942493Y-60127000D01*
X56458515Y-60127000D01*
X57385856Y-61054343D01*
X57402355Y-61074447D01*
X57482601Y-61140303D01*
X57574153Y-61189238D01*
X57645077Y-61210753D01*
X57673493Y-61219373D01*
X57776803Y-61229548D01*
X57802684Y-61226999D01*
X74291447Y-61226999D01*
X74273000Y-61319738D01*
X74273000Y-61482642D01*
X74273043Y-61482858D01*
X74222899Y-61533002D01*
X57316746Y-61533002D01*
X57327000Y-61481452D01*
X57327000Y-61318548D01*
X57295218Y-61158773D01*
X57232877Y-61008269D01*
X57142372Y-60872819D01*
X57027181Y-60757628D01*
X56891731Y-60667123D01*
X56741227Y-60604782D01*
X56581452Y-60573000D01*
X56418548Y-60573000D01*
X56258773Y-60604782D01*
X56108269Y-60667123D01*
X55972819Y-60757628D01*
X55857628Y-60872819D01*
X55857506Y-60873002D01*
X48742493Y-60873002D01*
X48742372Y-60872821D01*
X48627181Y-60757630D01*
X48491731Y-60667125D01*
X48341227Y-60604784D01*
X48181452Y-60573002D01*
X48018548Y-60573002D01*
X47858773Y-60604784D01*
X47708269Y-60667125D01*
X47606989Y-60734798D01*
X47606989Y-60338166D01*
X47668264Y-60276891D01*
X47668480Y-60276934D01*
X47831384Y-60276934D01*
X47991159Y-60245152D01*
X48141663Y-60182811D01*
X48277113Y-60092306D01*
X48392304Y-59977115D01*
X48482809Y-59841665D01*
X48545150Y-59691161D01*
X48576932Y-59531386D01*
X48576932Y-59368482D01*
X48545150Y-59208707D01*
X48482809Y-59058203D01*
X48392304Y-58922753D01*
X48277113Y-58807562D01*
X48141663Y-58717057D01*
X47991159Y-58654716D01*
X47831384Y-58622934D01*
X47668480Y-58622934D01*
X47508705Y-58654716D01*
X47358201Y-58717057D01*
X47246978Y-58791374D01*
X47246978Y-58027000D01*
X47281452Y-58027000D01*
X47441227Y-57995218D01*
X47591731Y-57932877D01*
X47727181Y-57842372D01*
X47842372Y-57727181D01*
X47932877Y-57591731D01*
X47995218Y-57441227D01*
X48027000Y-57281452D01*
X48027000Y-57118548D01*
X47995218Y-56958773D01*
X47932877Y-56808269D01*
X47842372Y-56672819D01*
X47727181Y-56557628D01*
X47591731Y-56467123D01*
X47441227Y-56404782D01*
X47281452Y-56373000D01*
X47118548Y-56373000D01*
X46958773Y-56404782D01*
X46808269Y-56467123D01*
X46672819Y-56557628D01*
X46557628Y-56672819D01*
X46467123Y-56808269D01*
X46404782Y-56958773D01*
X46373000Y-57118548D01*
X46373000Y-57281452D01*
X46373043Y-57281668D01*
X46365644Y-57289067D01*
X46345530Y-57305574D01*
X46279674Y-57385820D01*
X46243431Y-57453628D01*
X46230739Y-57477373D01*
X46200604Y-57576713D01*
X46190429Y-57680022D01*
X46192978Y-57705903D01*
X46192979Y-64170889D01*
X46190429Y-64196780D01*
X46200604Y-64300089D01*
X46230739Y-64399429D01*
X46263782Y-64461248D01*
X46279675Y-64490982D01*
X46345531Y-64571228D01*
X46365640Y-64587731D01*
X48196241Y-66418333D01*
X48196198Y-66418548D01*
X48196198Y-66581452D01*
X48227980Y-66741227D01*
X48290321Y-66891731D01*
X48380826Y-67027181D01*
X48496017Y-67142372D01*
X48631467Y-67232877D01*
X48781971Y-67295218D01*
X48941746Y-67327000D01*
X49104650Y-67327000D01*
X49264425Y-67295218D01*
X49414929Y-67232877D01*
X49550379Y-67142372D01*
X49665570Y-67027181D01*
X49756075Y-66891731D01*
X49818416Y-66741227D01*
X49850198Y-66581452D01*
X49850198Y-66418548D01*
X49818416Y-66258773D01*
X49756075Y-66108269D01*
X49665570Y-65972819D01*
X49550379Y-65857628D01*
X49414929Y-65767123D01*
X49264425Y-65704782D01*
X49104650Y-65673000D01*
X48941746Y-65673000D01*
X48941531Y-65673043D01*
X48757452Y-65488964D01*
X48827181Y-65442372D01*
X48942372Y-65327181D01*
X49032877Y-65191731D01*
X49095218Y-65041227D01*
X49127000Y-64881452D01*
X49127000Y-64718548D01*
X49095218Y-64558773D01*
X49032877Y-64408269D01*
X48942372Y-64272819D01*
X48827181Y-64157628D01*
X48691731Y-64067123D01*
X48541227Y-64004782D01*
X48381452Y-63973000D01*
X48218548Y-63973000D01*
X48218332Y-63973043D01*
X47606989Y-63361700D01*
X47606989Y-62065206D01*
X47708269Y-62132879D01*
X47858773Y-62195220D01*
X48018548Y-62227002D01*
X48181452Y-62227002D01*
X48341227Y-62195220D01*
X48491731Y-62132879D01*
X48627181Y-62042374D01*
X48742372Y-61927183D01*
X48742493Y-61927002D01*
X50883254Y-61927002D01*
X50873000Y-61978550D01*
X50873000Y-62141454D01*
X50904782Y-62301229D01*
X50967123Y-62451733D01*
X51057628Y-62587183D01*
X51172819Y-62702374D01*
X51308269Y-62792879D01*
X51458773Y-62855220D01*
X51618548Y-62887002D01*
X51781452Y-62887002D01*
X51941227Y-62855220D01*
X52091731Y-62792879D01*
X52227181Y-62702374D01*
X52342372Y-62587183D01*
X52342493Y-62587002D01*
X53443445Y-62587002D01*
X53357628Y-62672819D01*
X53267123Y-62808269D01*
X53204782Y-62958773D01*
X53173000Y-63118548D01*
X53173000Y-63281452D01*
X53204782Y-63441227D01*
X53267123Y-63591731D01*
X53357628Y-63727181D01*
X53472819Y-63842372D01*
X53608269Y-63932877D01*
X53758773Y-63995218D01*
X53918548Y-64027000D01*
X54081452Y-64027000D01*
X54241227Y-63995218D01*
X54391731Y-63932877D01*
X54527181Y-63842372D01*
X54642372Y-63727181D01*
X54642493Y-63727000D01*
X54936841Y-63727000D01*
X49790843Y-68873000D01*
X36987493Y-68873000D01*
X36987372Y-68872819D01*
X36872181Y-68757628D01*
X36736731Y-68667123D01*
X36586227Y-68604782D01*
X36426452Y-68573000D01*
X36263548Y-68573000D01*
X36103773Y-68604782D01*
X35953269Y-68667123D01*
X35817819Y-68757628D01*
X35702628Y-68872819D01*
X35612123Y-69008269D01*
X35549782Y-69158773D01*
X35518000Y-69318548D01*
X35518000Y-69481452D01*
X35549782Y-69641227D01*
X35612123Y-69791731D01*
X35702628Y-69927181D01*
X35817819Y-70042372D01*
X35818000Y-70042493D01*
X35818001Y-77761708D01*
X31286668Y-82293043D01*
X31286452Y-82293000D01*
X31123548Y-82293000D01*
X30963773Y-82324782D01*
X30813269Y-82387123D01*
X30677819Y-82477628D01*
X30562628Y-82592819D01*
X30472123Y-82728269D01*
X30409782Y-82878773D01*
X30378000Y-83038548D01*
X30378000Y-83201452D01*
X30409782Y-83361227D01*
X30472123Y-83511731D01*
X30562628Y-83647181D01*
X30677819Y-83762372D01*
X30813269Y-83852877D01*
X30963773Y-83915218D01*
X31123548Y-83947000D01*
X31286452Y-83947000D01*
X31446227Y-83915218D01*
X31596731Y-83852877D01*
X31732181Y-83762372D01*
X31847372Y-83647181D01*
X31937877Y-83511731D01*
X32000218Y-83361227D01*
X32032000Y-83201452D01*
X32032000Y-83038548D01*
X32031957Y-83038332D01*
X36699345Y-78370946D01*
X36719448Y-78354448D01*
X36785304Y-78274202D01*
X36834239Y-78182650D01*
X36864374Y-78083310D01*
X36872000Y-78005881D01*
X36874549Y-77980000D01*
X36872000Y-77954119D01*
X36872000Y-70042493D01*
X36872181Y-70042372D01*
X36987372Y-69927181D01*
X36987493Y-69927000D01*
X41159365Y-69927000D01*
X41104782Y-70058775D01*
X41073000Y-70218550D01*
X41073000Y-70381454D01*
X41104782Y-70541229D01*
X41167123Y-70691733D01*
X41257628Y-70827183D01*
X41372819Y-70942374D01*
X41508269Y-71032879D01*
X41658773Y-71095220D01*
X41818548Y-71127002D01*
X41981452Y-71127002D01*
X42141227Y-71095220D01*
X42291731Y-71032879D01*
X42427181Y-70942374D01*
X42542372Y-70827183D01*
X42609312Y-70727000D01*
X46557507Y-70727000D01*
X46557628Y-70727181D01*
X46672819Y-70842372D01*
X46808269Y-70932877D01*
X46958773Y-70995218D01*
X47118548Y-71027000D01*
X47281452Y-71027000D01*
X47441227Y-70995218D01*
X47591731Y-70932877D01*
X47727181Y-70842372D01*
X47842372Y-70727181D01*
X47932877Y-70591731D01*
X47995218Y-70441227D01*
X48027000Y-70281452D01*
X48027000Y-70118548D01*
X47995218Y-69958773D01*
X47982057Y-69927000D01*
X49983251Y-69927000D01*
X50009132Y-69929549D01*
X50035013Y-69927000D01*
X50112442Y-69919374D01*
X50211782Y-69889239D01*
X50303334Y-69840304D01*
X50383580Y-69774448D01*
X50400087Y-69754334D01*
X52398000Y-67756421D01*
X52398001Y-69470932D01*
X52359771Y-69563227D01*
X52327989Y-69723002D01*
X52327989Y-69885906D01*
X52359771Y-70045681D01*
X52422112Y-70196185D01*
X52512617Y-70331635D01*
X52627808Y-70446826D01*
X52763258Y-70537331D01*
X52913762Y-70599672D01*
X53073537Y-70631454D01*
X53236441Y-70631454D01*
X53396216Y-70599672D01*
X53546720Y-70537331D01*
X53682170Y-70446826D01*
X53797361Y-70331635D01*
X53887866Y-70196185D01*
X53950207Y-70045681D01*
X53981989Y-69885906D01*
X53981989Y-69723002D01*
X53950207Y-69563227D01*
X53887866Y-69412723D01*
X53797361Y-69277273D01*
X53752000Y-69231912D01*
X53752000Y-67355422D01*
X53952422Y-67155000D01*
X66643643Y-67155000D01*
X66727269Y-67210877D01*
X66877773Y-67273218D01*
X67037548Y-67305000D01*
X67200452Y-67305000D01*
X67360227Y-67273218D01*
X67510731Y-67210877D01*
X67646181Y-67120372D01*
X67761372Y-67005181D01*
X67851877Y-66869731D01*
X67914218Y-66719227D01*
X67946000Y-66559452D01*
X67946000Y-66396548D01*
X67915458Y-66243007D01*
X80954500Y-66243007D01*
X80954621Y-66243188D01*
X81069812Y-66358379D01*
X81205262Y-66448884D01*
X81355766Y-66511225D01*
X81515541Y-66543007D01*
X81678445Y-66543007D01*
X81838220Y-66511225D01*
X81988724Y-66448884D01*
X82124174Y-66358379D01*
X82239365Y-66243188D01*
X82329870Y-66107738D01*
X82392211Y-65957234D01*
X82423993Y-65797459D01*
X82423993Y-65634555D01*
X82392211Y-65474780D01*
X82329870Y-65324276D01*
X82239365Y-65188826D01*
X82124174Y-65073635D01*
X81988724Y-64983130D01*
X81838220Y-64920789D01*
X81678445Y-64889007D01*
X81515541Y-64889007D01*
X81355766Y-64920789D01*
X81205262Y-64983130D01*
X81069812Y-65073635D01*
X80954621Y-65188826D01*
X80954500Y-65189007D01*
X58393985Y-65189007D01*
X57506665Y-64301689D01*
X57506708Y-64301473D01*
X57506708Y-64138569D01*
X57496452Y-64087011D01*
X79814108Y-64087011D01*
X79839989Y-64089560D01*
X79865870Y-64087011D01*
X79943299Y-64079385D01*
X80042639Y-64049250D01*
X80134191Y-64000315D01*
X80214437Y-63934459D01*
X80230944Y-63914345D01*
X80768290Y-63377000D01*
X81288250Y-63377000D01*
X81277994Y-63428558D01*
X81277994Y-63591462D01*
X81309776Y-63751237D01*
X81372117Y-63901741D01*
X81462622Y-64037191D01*
X81577813Y-64152382D01*
X81713263Y-64242887D01*
X81863767Y-64305228D01*
X82023542Y-64337010D01*
X82186446Y-64337010D01*
X82346221Y-64305228D01*
X82496725Y-64242887D01*
X82607980Y-64168548D01*
X89073000Y-64168548D01*
X89073000Y-64331452D01*
X89104782Y-64491227D01*
X89167123Y-64641731D01*
X89257628Y-64777181D01*
X89372819Y-64892372D01*
X89508269Y-64982877D01*
X89658773Y-65045218D01*
X89818548Y-65077000D01*
X89981452Y-65077000D01*
X90141227Y-65045218D01*
X90291731Y-64982877D01*
X90427181Y-64892372D01*
X90542372Y-64777181D01*
X90632877Y-64641731D01*
X90695218Y-64491227D01*
X90727000Y-64331452D01*
X90727000Y-64168548D01*
X90726957Y-64168332D01*
X93735731Y-61159558D01*
X104973000Y-61159558D01*
X104973000Y-61322462D01*
X105004782Y-61482237D01*
X105067123Y-61632741D01*
X105157628Y-61768191D01*
X105272819Y-61883382D01*
X105408269Y-61973887D01*
X105473001Y-62000700D01*
X105473000Y-62957507D01*
X105472819Y-62957628D01*
X105357628Y-63072819D01*
X105267123Y-63208269D01*
X105204782Y-63358773D01*
X105173000Y-63518548D01*
X105173000Y-63681452D01*
X105204782Y-63841227D01*
X105267123Y-63991731D01*
X105357628Y-64127181D01*
X105472819Y-64242372D01*
X105608269Y-64332877D01*
X105758773Y-64395218D01*
X105918548Y-64427000D01*
X106081452Y-64427000D01*
X106241227Y-64395218D01*
X106391731Y-64332877D01*
X106527181Y-64242372D01*
X106642372Y-64127181D01*
X106732877Y-63991731D01*
X106795218Y-63841227D01*
X106827000Y-63681452D01*
X106827000Y-63518548D01*
X106795218Y-63358773D01*
X106732877Y-63208269D01*
X106642372Y-63072819D01*
X106527181Y-62957628D01*
X106527000Y-62957507D01*
X106527000Y-61641537D01*
X106532877Y-61632741D01*
X106595218Y-61482237D01*
X106627000Y-61322462D01*
X106627000Y-61159558D01*
X106595218Y-60999783D01*
X106532877Y-60849279D01*
X106442372Y-60713829D01*
X106327181Y-60598638D01*
X106191731Y-60508133D01*
X106041227Y-60445792D01*
X105881452Y-60414010D01*
X105718548Y-60414010D01*
X105558773Y-60445792D01*
X105408269Y-60508133D01*
X105272819Y-60598638D01*
X105157628Y-60713829D01*
X105067123Y-60849279D01*
X105004782Y-60999783D01*
X104973000Y-61159558D01*
X93735731Y-61159558D01*
X97445742Y-57449548D01*
X100817000Y-57449548D01*
X100817000Y-57612452D01*
X100848782Y-57772227D01*
X100911123Y-57922731D01*
X101001628Y-58058181D01*
X101116819Y-58173372D01*
X101252269Y-58263877D01*
X101402773Y-58326218D01*
X101562548Y-58358000D01*
X101725452Y-58358000D01*
X101885227Y-58326218D01*
X102035731Y-58263877D01*
X102171181Y-58173372D01*
X102286372Y-58058181D01*
X102376877Y-57922731D01*
X102439218Y-57772227D01*
X102471000Y-57612452D01*
X102471000Y-57449548D01*
X102439218Y-57289773D01*
X102376877Y-57139269D01*
X102286372Y-57003819D01*
X102171181Y-56888628D01*
X102171000Y-56888507D01*
X102171000Y-55574289D01*
X106218333Y-51526957D01*
X106218548Y-51527000D01*
X106381452Y-51527000D01*
X106541227Y-51495218D01*
X106691731Y-51432877D01*
X106827181Y-51342372D01*
X106942372Y-51227181D01*
X107032877Y-51091731D01*
X107095218Y-50941227D01*
X107127000Y-50781452D01*
X107127000Y-50618548D01*
X107095218Y-50458773D01*
X107032877Y-50308269D01*
X106942372Y-50172819D01*
X106827181Y-50057628D01*
X106691731Y-49967123D01*
X106541227Y-49904782D01*
X106381452Y-49873000D01*
X106218548Y-49873000D01*
X106058773Y-49904782D01*
X105908269Y-49967123D01*
X105772819Y-50057628D01*
X105657628Y-50172819D01*
X105567123Y-50308269D01*
X105504782Y-50458773D01*
X105473000Y-50618548D01*
X105473000Y-50781452D01*
X105473043Y-50781667D01*
X101289662Y-54965049D01*
X101269553Y-54981552D01*
X101220587Y-55041218D01*
X101203696Y-55061799D01*
X101154761Y-55153351D01*
X101124626Y-55252691D01*
X101114451Y-55356000D01*
X101117001Y-55381890D01*
X101117000Y-56888507D01*
X101116819Y-56888628D01*
X101001628Y-57003819D01*
X100911123Y-57139269D01*
X100848782Y-57289773D01*
X100817000Y-57449548D01*
X97445742Y-57449548D01*
X99454345Y-55440946D01*
X99474448Y-55424448D01*
X99540304Y-55344202D01*
X99589239Y-55252650D01*
X99619374Y-55153310D01*
X99627000Y-55075881D01*
X99627000Y-55075880D01*
X99629549Y-55050000D01*
X99627000Y-55024119D01*
X99627000Y-48968289D01*
X100243333Y-48351957D01*
X100243548Y-48352000D01*
X100406452Y-48352000D01*
X100566227Y-48320218D01*
X100716731Y-48257877D01*
X100852181Y-48167372D01*
X100967372Y-48052181D01*
X101057877Y-47916731D01*
X101120218Y-47766227D01*
X101152000Y-47606452D01*
X101152000Y-47443548D01*
X101120218Y-47283773D01*
X101057877Y-47133269D01*
X100967372Y-46997819D01*
X100852181Y-46882628D01*
X100716731Y-46792123D01*
X100566227Y-46729782D01*
X100406452Y-46698000D01*
X100243548Y-46698000D01*
X100083773Y-46729782D01*
X99933269Y-46792123D01*
X99797819Y-46882628D01*
X99682628Y-46997819D01*
X99592123Y-47133269D01*
X99529782Y-47283773D01*
X99498000Y-47443548D01*
X99498000Y-47606452D01*
X99498043Y-47606667D01*
X98745662Y-48359049D01*
X98725553Y-48375552D01*
X98680057Y-48430989D01*
X98659696Y-48455799D01*
X98610761Y-48547351D01*
X98580626Y-48646691D01*
X98570451Y-48750000D01*
X98573001Y-48775891D01*
X98573000Y-54831709D01*
X89981668Y-63423043D01*
X89981452Y-63423000D01*
X89818548Y-63423000D01*
X89658773Y-63454782D01*
X89508269Y-63517123D01*
X89372819Y-63607628D01*
X89257628Y-63722819D01*
X89167123Y-63858269D01*
X89104782Y-64008773D01*
X89073000Y-64168548D01*
X82607980Y-64168548D01*
X82632175Y-64152382D01*
X82747366Y-64037191D01*
X82747487Y-64037010D01*
X88603109Y-64037010D01*
X88628990Y-64039559D01*
X88654871Y-64037010D01*
X88732300Y-64029384D01*
X88831640Y-63999249D01*
X88923192Y-63950314D01*
X89003438Y-63884458D01*
X89019945Y-63864344D01*
X93104339Y-59779951D01*
X93124448Y-59763448D01*
X93190304Y-59683202D01*
X93239239Y-59591650D01*
X93269374Y-59492310D01*
X93277000Y-59414881D01*
X93279549Y-59389001D01*
X93277000Y-59363120D01*
X93277000Y-53068289D01*
X95918333Y-50426957D01*
X95918548Y-50427000D01*
X96081452Y-50427000D01*
X96241227Y-50395218D01*
X96391731Y-50332877D01*
X96527181Y-50242372D01*
X96642372Y-50127181D01*
X96732877Y-49991731D01*
X96795218Y-49841227D01*
X96827000Y-49681452D01*
X96827000Y-49518548D01*
X96795218Y-49358773D01*
X96732877Y-49208269D01*
X96654484Y-49090946D01*
X96727181Y-49042372D01*
X96842372Y-48927181D01*
X96932877Y-48791731D01*
X96995218Y-48641227D01*
X97027000Y-48481452D01*
X97027000Y-48318548D01*
X96995218Y-48158773D01*
X96932877Y-48008269D01*
X96842372Y-47872819D01*
X96727181Y-47757628D01*
X96591731Y-47667123D01*
X96441227Y-47604782D01*
X96281452Y-47573000D01*
X96118548Y-47573000D01*
X95958773Y-47604782D01*
X95808269Y-47667123D01*
X95672819Y-47757628D01*
X95557628Y-47872819D01*
X95467123Y-48008269D01*
X95404782Y-48158773D01*
X95373000Y-48318548D01*
X95373000Y-48481452D01*
X95373043Y-48481667D01*
X91712539Y-52142172D01*
X89810011Y-52142172D01*
X89779304Y-52125759D01*
X89679964Y-52095624D01*
X89602535Y-52087998D01*
X89576654Y-52085449D01*
X89550773Y-52087998D01*
X87462292Y-52087998D01*
X87513290Y-52037000D01*
X90889119Y-52037000D01*
X90915000Y-52039549D01*
X90940881Y-52037000D01*
X91018310Y-52029374D01*
X91117650Y-51999239D01*
X91209202Y-51950304D01*
X91289448Y-51884448D01*
X91305955Y-51864334D01*
X95843333Y-47326957D01*
X95843548Y-47327000D01*
X96006452Y-47327000D01*
X96166227Y-47295218D01*
X96316731Y-47232877D01*
X96452181Y-47142372D01*
X96567372Y-47027181D01*
X96657877Y-46891731D01*
X96720218Y-46741227D01*
X96752000Y-46581452D01*
X96752000Y-46418548D01*
X96720218Y-46258773D01*
X96657877Y-46108269D01*
X96567372Y-45972819D01*
X96452181Y-45857628D01*
X96316731Y-45767123D01*
X96166227Y-45704782D01*
X96036366Y-45678950D01*
X96438359Y-45276957D01*
X96438574Y-45277000D01*
X96601478Y-45277000D01*
X96761253Y-45245218D01*
X96911757Y-45182877D01*
X97047207Y-45092372D01*
X97162398Y-44977181D01*
X97252903Y-44841731D01*
X97315244Y-44691227D01*
X97347026Y-44531452D01*
X97347026Y-44368548D01*
X97315244Y-44208773D01*
X97252903Y-44058269D01*
X97162398Y-43922819D01*
X97054566Y-43814987D01*
X97162372Y-43707181D01*
X97252877Y-43571731D01*
X97315218Y-43421227D01*
X97347000Y-43261452D01*
X97347000Y-43098548D01*
X97315218Y-42938773D01*
X97252877Y-42788269D01*
X97162372Y-42652819D01*
X97047181Y-42537628D01*
X96911731Y-42447123D01*
X96761227Y-42384782D01*
X96601452Y-42353000D01*
X96438548Y-42353000D01*
X96278773Y-42384782D01*
X96128269Y-42447123D01*
X95992819Y-42537628D01*
X95877628Y-42652819D01*
X95787123Y-42788269D01*
X95777000Y-42812708D01*
X95777000Y-42552493D01*
X95777181Y-42552372D01*
X95892372Y-42437181D01*
X95982877Y-42301731D01*
X96045218Y-42151227D01*
X96077000Y-41991452D01*
X96077000Y-41828548D01*
X96045218Y-41668773D01*
X95982877Y-41518269D01*
X95892372Y-41382819D01*
X95784553Y-41275000D01*
X95892372Y-41167181D01*
X95982877Y-41031731D01*
X96045218Y-40881227D01*
X96077000Y-40721452D01*
X96077000Y-40558548D01*
X96066746Y-40506998D01*
X97461709Y-40506998D01*
X97673043Y-40718332D01*
X97673000Y-40718548D01*
X97673000Y-40881452D01*
X97704782Y-41041227D01*
X97767123Y-41191731D01*
X97857628Y-41327181D01*
X97972819Y-41442372D01*
X98108269Y-41532877D01*
X98258773Y-41595218D01*
X98418548Y-41627000D01*
X98581452Y-41627000D01*
X98741227Y-41595218D01*
X98891731Y-41532877D01*
X99027181Y-41442372D01*
X99142372Y-41327181D01*
X99232877Y-41191731D01*
X99295218Y-41041227D01*
X99327000Y-40881452D01*
X99327000Y-40718548D01*
X99295218Y-40558773D01*
X99232877Y-40408269D01*
X99142372Y-40272819D01*
X99027181Y-40157628D01*
X98891731Y-40067123D01*
X98741227Y-40004782D01*
X98581452Y-39973000D01*
X98418548Y-39973000D01*
X98418332Y-39973043D01*
X98070953Y-39625664D01*
X98054446Y-39605550D01*
X97974200Y-39539694D01*
X97882648Y-39490759D01*
X97783308Y-39460624D01*
X97705879Y-39452998D01*
X97679998Y-39450449D01*
X97654117Y-39452998D01*
X84970885Y-39452998D01*
X84945004Y-39450449D01*
X84919123Y-39452998D01*
X84841694Y-39460624D01*
X84742354Y-39490759D01*
X84650802Y-39539694D01*
X84570556Y-39605550D01*
X84554049Y-39625664D01*
X84506670Y-39673043D01*
X84506454Y-39673000D01*
X84343550Y-39673000D01*
X84183775Y-39704782D01*
X84033271Y-39767123D01*
X83897821Y-39857628D01*
X83782630Y-39972819D01*
X83692125Y-40108269D01*
X83629784Y-40258773D01*
X83598002Y-40418548D01*
X83598002Y-40581452D01*
X83629784Y-40741227D01*
X83692125Y-40891731D01*
X83782630Y-41027181D01*
X83897821Y-41142372D01*
X84033271Y-41232877D01*
X84183775Y-41295218D01*
X84343550Y-41327000D01*
X84506454Y-41327000D01*
X84666229Y-41295218D01*
X84816733Y-41232877D01*
X84952183Y-41142372D01*
X85067374Y-41027181D01*
X85157879Y-40891731D01*
X85220220Y-40741227D01*
X85252002Y-40581452D01*
X85252002Y-40506998D01*
X94072027Y-40506998D01*
X92605649Y-41973377D01*
X92585540Y-41989880D01*
X92528048Y-42059934D01*
X92519683Y-42070127D01*
X92470748Y-42161679D01*
X92440613Y-42261019D01*
X92430438Y-42364328D01*
X92432988Y-42390218D01*
X92432987Y-43277408D01*
X88302000Y-47408395D01*
X88302000Y-44142493D01*
X88302181Y-44142372D01*
X88417372Y-44027181D01*
X88507877Y-43891731D01*
X88570218Y-43741227D01*
X88602000Y-43581452D01*
X88602000Y-43418548D01*
X88570218Y-43258773D01*
X88507877Y-43108269D01*
X88417372Y-42972819D01*
X88302181Y-42857628D01*
X88166731Y-42767123D01*
X88016227Y-42704782D01*
X87856452Y-42673000D01*
X87693548Y-42673000D01*
X87533773Y-42704782D01*
X87383269Y-42767123D01*
X87247819Y-42857628D01*
X87132628Y-42972819D01*
X87042123Y-43108269D01*
X86979782Y-43258773D01*
X86948000Y-43418548D01*
X86948000Y-43581452D01*
X86979782Y-43741227D01*
X87042123Y-43891731D01*
X87132628Y-44027181D01*
X87247819Y-44142372D01*
X87248001Y-44142494D01*
X87248000Y-47772394D01*
X86284511Y-48735884D01*
X86242372Y-48672819D01*
X86127181Y-48557628D01*
X85991731Y-48467123D01*
X85841227Y-48404782D01*
X85681452Y-48373000D01*
X85518548Y-48373000D01*
X85358773Y-48404782D01*
X85208269Y-48467123D01*
X85072819Y-48557628D01*
X84957628Y-48672819D01*
X84957507Y-48673000D01*
X76900877Y-48673000D01*
X76874999Y-48670451D01*
X76849121Y-48673000D01*
X76849119Y-48673000D01*
X76771690Y-48680626D01*
X76672350Y-48710761D01*
X76580798Y-48759696D01*
X76500552Y-48825552D01*
X76484049Y-48845661D01*
X74426668Y-50903043D01*
X74426452Y-50903000D01*
X74263548Y-50903000D01*
X74103773Y-50934782D01*
X73953269Y-50997123D01*
X73817819Y-51087628D01*
X73702628Y-51202819D01*
X73612123Y-51338269D01*
X73549782Y-51488773D01*
X73518000Y-51648548D01*
X73518000Y-51811452D01*
X73549782Y-51971227D01*
X73612123Y-52121731D01*
X73673107Y-52213000D01*
X68577493Y-52213000D01*
X68577372Y-52212819D01*
X68462181Y-52097628D01*
X68326731Y-52007123D01*
X68176227Y-51944782D01*
X68124989Y-51934590D01*
X73684899Y-46374680D01*
X73689782Y-46399227D01*
X73752123Y-46549731D01*
X73842628Y-46685181D01*
X73957819Y-46800372D01*
X74093269Y-46890877D01*
X74243773Y-46953218D01*
X74403548Y-46985000D01*
X74566452Y-46985000D01*
X74726227Y-46953218D01*
X74876731Y-46890877D01*
X75012181Y-46800372D01*
X75127372Y-46685181D01*
X75217877Y-46549731D01*
X75280218Y-46399227D01*
X75312000Y-46239452D01*
X75312000Y-46076548D01*
X75311957Y-46076332D01*
X79492663Y-41895628D01*
X79571731Y-41862877D01*
X79707181Y-41772372D01*
X79822372Y-41657181D01*
X79912877Y-41521731D01*
X79975218Y-41371227D01*
X80007000Y-41211452D01*
X80007000Y-41048548D01*
X79975218Y-40888773D01*
X79912877Y-40738269D01*
X79822372Y-40602819D01*
X79707181Y-40487628D01*
X79626117Y-40433463D01*
X81032581Y-39026999D01*
X93554096Y-39026999D01*
X93579977Y-39029548D01*
X93605858Y-39026999D01*
X93683287Y-39019373D01*
X93782627Y-38989238D01*
X93874179Y-38940303D01*
X93891976Y-38925697D01*
X93898524Y-38927000D01*
X94061428Y-38927000D01*
X94221203Y-38895218D01*
X94371707Y-38832877D01*
X94507157Y-38742372D01*
X94622348Y-38627181D01*
X94712853Y-38491731D01*
X94775194Y-38341227D01*
X94806976Y-38181452D01*
X94806976Y-38018548D01*
X94775194Y-37858773D01*
X94712853Y-37708269D01*
X94622348Y-37572819D01*
X94507157Y-37457628D01*
X94371707Y-37367123D01*
X94221203Y-37304782D01*
X94061428Y-37273000D01*
X93898524Y-37273000D01*
X93738749Y-37304782D01*
X93588245Y-37367123D01*
X93452795Y-37457628D01*
X93337604Y-37572819D01*
X93247099Y-37708269D01*
X93184758Y-37858773D01*
X93162036Y-37972999D01*
X81577450Y-37972999D01*
X84733449Y-34817000D01*
X89527515Y-34817000D01*
X89527636Y-34817181D01*
X89642827Y-34932372D01*
X89778277Y-35022877D01*
X89928781Y-35085218D01*
X90088556Y-35117000D01*
X90251460Y-35117000D01*
X90411235Y-35085218D01*
X90561739Y-35022877D01*
X90697189Y-34932372D01*
X90812380Y-34817181D01*
X90902885Y-34681731D01*
X90965226Y-34531227D01*
X90997008Y-34371452D01*
X90997008Y-34208548D01*
X90986754Y-34156999D01*
X94377411Y-34156999D01*
X97013067Y-36792656D01*
X97013024Y-36792871D01*
X97013024Y-36955775D01*
X97044806Y-37115550D01*
X97107147Y-37266054D01*
X97197652Y-37401504D01*
X97312843Y-37516695D01*
X97448293Y-37607200D01*
X97598797Y-37669541D01*
X97758572Y-37701323D01*
X97921476Y-37701323D01*
X98081251Y-37669541D01*
X98231755Y-37607200D01*
X98367205Y-37516695D01*
X98482396Y-37401504D01*
X98572901Y-37266054D01*
X98635242Y-37115550D01*
X98667024Y-36955775D01*
X98667024Y-36792871D01*
X98635242Y-36633096D01*
X98572901Y-36482592D01*
X98482396Y-36347142D01*
X98367205Y-36231951D01*
X98231755Y-36141446D01*
X98081251Y-36079105D01*
X97921476Y-36047323D01*
X97758572Y-36047323D01*
X97758357Y-36047366D01*
X94986655Y-33275665D01*
X94970148Y-33255551D01*
X94965821Y-33252000D01*
X102228157Y-33252000D01*
X107073905Y-38097749D01*
X107092123Y-38141731D01*
X107182628Y-38277181D01*
X107297819Y-38392372D01*
X107433269Y-38482877D01*
X107477253Y-38501096D01*
X109637987Y-40661831D01*
X109637986Y-63281439D01*
X109541731Y-63217123D01*
X109391227Y-63154782D01*
X109231452Y-63123000D01*
X109068548Y-63123000D01*
X108908773Y-63154782D01*
X108758269Y-63217123D01*
X108622819Y-63307628D01*
X108507628Y-63422819D01*
X108417123Y-63558269D01*
X108354782Y-63708773D01*
X108323000Y-63868548D01*
X108323000Y-64031452D01*
X108323043Y-64031667D01*
X107945661Y-64409049D01*
X107925553Y-64425552D01*
X107871857Y-64490981D01*
X107859696Y-64505799D01*
X107810761Y-64597351D01*
X107780626Y-64696691D01*
X107770451Y-64800000D01*
X107773001Y-64825891D01*
X107773001Y-72003448D01*
X107727181Y-71957628D01*
X107591731Y-71867123D01*
X107441227Y-71804782D01*
X107281452Y-71773000D01*
X107118548Y-71773000D01*
X106958773Y-71804782D01*
X106808269Y-71867123D01*
X106672819Y-71957628D01*
X106557628Y-72072819D01*
X106467123Y-72208269D01*
X106404782Y-72358773D01*
X106373000Y-72518548D01*
X106373000Y-72681452D01*
X106404782Y-72841227D01*
X106467123Y-72991731D01*
X106523000Y-73075357D01*
X106523001Y-78319577D01*
X104845225Y-79997353D01*
X103279874Y-79997353D01*
X103554338Y-79722890D01*
X103574447Y-79706387D01*
X103640303Y-79626141D01*
X103689238Y-79534589D01*
X103719373Y-79435249D01*
X103726999Y-79357820D01*
X103726999Y-79357818D01*
X103729548Y-79331940D01*
X103726999Y-79306062D01*
X103726999Y-71225879D01*
X103729548Y-71199998D01*
X103719373Y-71096689D01*
X103689238Y-70997349D01*
X103640303Y-70905797D01*
X103638261Y-70903309D01*
X103625697Y-70888000D01*
X103627000Y-70881452D01*
X103627000Y-70718548D01*
X103595218Y-70558773D01*
X103532877Y-70408269D01*
X103442372Y-70272819D01*
X103327181Y-70157628D01*
X103191731Y-70067123D01*
X103041227Y-70004782D01*
X102881452Y-69973000D01*
X102718548Y-69973000D01*
X102558773Y-70004782D01*
X102408269Y-70067123D01*
X102272819Y-70157628D01*
X102157628Y-70272819D01*
X102067123Y-70408269D01*
X102004782Y-70558773D01*
X101973000Y-70718548D01*
X101973000Y-70881452D01*
X102004782Y-71041227D01*
X102067123Y-71191731D01*
X102157628Y-71327181D01*
X102272819Y-71442372D01*
X102297473Y-71458845D01*
X102310761Y-71502649D01*
X102359696Y-71594202D01*
X102425552Y-71674448D01*
X102505798Y-71740304D01*
X102597350Y-71789239D01*
X102672999Y-71812187D01*
X102673000Y-77618487D01*
X102592372Y-77497819D01*
X102477181Y-77382628D01*
X102341731Y-77292123D01*
X102191227Y-77229782D01*
X102092582Y-77210160D01*
X101977000Y-77094578D01*
X101977000Y-72008241D01*
X101980274Y-71974999D01*
X101977000Y-71941757D01*
X101977000Y-71941748D01*
X101967204Y-71842285D01*
X101928492Y-71714670D01*
X101865628Y-71597059D01*
X101781027Y-71493973D01*
X101755196Y-71472774D01*
X100314840Y-70032418D01*
X100295218Y-69933773D01*
X100232877Y-69783269D01*
X100142372Y-69647819D01*
X100027181Y-69532628D01*
X99920060Y-69461052D01*
X99925202Y-69458304D01*
X100005448Y-69392448D01*
X100021955Y-69372334D01*
X104624889Y-64769401D01*
X104673231Y-64749377D01*
X104808681Y-64658872D01*
X104923872Y-64543681D01*
X105014377Y-64408231D01*
X105076718Y-64257727D01*
X105108500Y-64097952D01*
X105108500Y-63935048D01*
X105076718Y-63775273D01*
X105014377Y-63624769D01*
X104923872Y-63489319D01*
X104808681Y-63374128D01*
X104673231Y-63283623D01*
X104522727Y-63221282D01*
X104362952Y-63189500D01*
X104200048Y-63189500D01*
X104040273Y-63221282D01*
X103889769Y-63283623D01*
X103754319Y-63374128D01*
X103639128Y-63489319D01*
X103548623Y-63624769D01*
X103486282Y-63775273D01*
X103454500Y-63935048D01*
X103454500Y-64097952D01*
X103486282Y-64257727D01*
X103533057Y-64370653D01*
X99412711Y-68491000D01*
X97479493Y-68491000D01*
X97479372Y-68490819D01*
X97364181Y-68375628D01*
X97228731Y-68285123D01*
X97078227Y-68222782D01*
X96918452Y-68191000D01*
X96755548Y-68191000D01*
X96595773Y-68222782D01*
X96445269Y-68285123D01*
X96309819Y-68375628D01*
X96194628Y-68490819D01*
X96104123Y-68626269D01*
X96041782Y-68776773D01*
X96010000Y-68936548D01*
X96010000Y-69099452D01*
X96041782Y-69259227D01*
X96104123Y-69409731D01*
X96194628Y-69545181D01*
X96309819Y-69660372D01*
X96445269Y-69750877D01*
X96595773Y-69813218D01*
X96755548Y-69845000D01*
X96918452Y-69845000D01*
X97078227Y-69813218D01*
X97228731Y-69750877D01*
X97364181Y-69660372D01*
X97479372Y-69545181D01*
X97479493Y-69545000D01*
X98960447Y-69545000D01*
X98857628Y-69647819D01*
X98767123Y-69783269D01*
X98704782Y-69933773D01*
X98673000Y-70093548D01*
X98673000Y-70256452D01*
X98704782Y-70416227D01*
X98767123Y-70566731D01*
X98857628Y-70702181D01*
X98972819Y-70817372D01*
X99108269Y-70907877D01*
X99258773Y-70970218D01*
X99357418Y-70989840D01*
X100623001Y-72255423D01*
X100623001Y-74181243D01*
X100617372Y-74172819D01*
X100502181Y-74057628D01*
X100366731Y-73967123D01*
X100216227Y-73904782D01*
X100056452Y-73873000D01*
X99893548Y-73873000D01*
X99733773Y-73904782D01*
X99603877Y-73958587D01*
X97751957Y-72106668D01*
X97752000Y-72106452D01*
X97752000Y-71943548D01*
X97720218Y-71783773D01*
X97657877Y-71633269D01*
X97567372Y-71497819D01*
X97452181Y-71382628D01*
X97316731Y-71292123D01*
X97166227Y-71229782D01*
X97006452Y-71198000D01*
X96843548Y-71198000D01*
X96683773Y-71229782D01*
X96533269Y-71292123D01*
X96397819Y-71382628D01*
X96282628Y-71497819D01*
X96192123Y-71633269D01*
X96129782Y-71783773D01*
X96098000Y-71943548D01*
X96098000Y-72106452D01*
X96129782Y-72266227D01*
X96192123Y-72416731D01*
X96282628Y-72552181D01*
X96397819Y-72667372D01*
X96533269Y-72757877D01*
X96683773Y-72820218D01*
X96843548Y-72852000D01*
X97006452Y-72852000D01*
X97006668Y-72851957D01*
X99209049Y-75054339D01*
X99225552Y-75074448D01*
X99239811Y-75086150D01*
X99242123Y-75091731D01*
X99332628Y-75227181D01*
X99447819Y-75342372D01*
X99583269Y-75432877D01*
X99733773Y-75495218D01*
X99893548Y-75527000D01*
X100056452Y-75527000D01*
X100216227Y-75495218D01*
X100366731Y-75432877D01*
X100502181Y-75342372D01*
X100617372Y-75227181D01*
X100623000Y-75218758D01*
X100623000Y-77341755D01*
X100619726Y-77375000D01*
X100623000Y-77408245D01*
X100623000Y-77408251D01*
X100632796Y-77507714D01*
X100671508Y-77635329D01*
X100734372Y-77752940D01*
X100818973Y-77856026D01*
X100844800Y-77877222D01*
X101135160Y-78167582D01*
X101154782Y-78266227D01*
X101217123Y-78416731D01*
X101307628Y-78552181D01*
X101422819Y-78667372D01*
X101558269Y-78757877D01*
X101708773Y-78820218D01*
X101868548Y-78852000D01*
X102031452Y-78852000D01*
X102191227Y-78820218D01*
X102341731Y-78757877D01*
X102477181Y-78667372D01*
X102592372Y-78552181D01*
X102673000Y-78431513D01*
X102673000Y-79113648D01*
X102590470Y-79196179D01*
X102493633Y-79131474D01*
X102343129Y-79069133D01*
X102183354Y-79037351D01*
X102020450Y-79037351D01*
X101860675Y-79069133D01*
X101710171Y-79131474D01*
X101574721Y-79221979D01*
X101459530Y-79337170D01*
X101369025Y-79472620D01*
X101306788Y-79622873D01*
X101305502Y-79623000D01*
X89380429Y-79623000D01*
X86402226Y-76644798D01*
X86381027Y-76618967D01*
X86277941Y-76534366D01*
X86160330Y-76471502D01*
X86032715Y-76432790D01*
X85933252Y-76422994D01*
X85933245Y-76422994D01*
X85900000Y-76419720D01*
X85866755Y-76422994D01*
X85759697Y-76422994D01*
X89929339Y-72253353D01*
X89949448Y-72236850D01*
X90015304Y-72156604D01*
X90064239Y-72065052D01*
X90094374Y-71965712D01*
X90102000Y-71888283D01*
X90102000Y-71888282D01*
X90104549Y-71862403D01*
X90102000Y-71836522D01*
X90102000Y-70482994D01*
X90166227Y-70470218D01*
X90316731Y-70407877D01*
X90452181Y-70317372D01*
X90567372Y-70202181D01*
X90657877Y-70066731D01*
X90720218Y-69916227D01*
X90752000Y-69756452D01*
X90752000Y-69593548D01*
X90720218Y-69433773D01*
X90657877Y-69283269D01*
X90567372Y-69147819D01*
X90452181Y-69032628D01*
X90316731Y-68942123D01*
X90166227Y-68879782D01*
X90006452Y-68848000D01*
X89843548Y-68848000D01*
X89683773Y-68879782D01*
X89533269Y-68942123D01*
X89397819Y-69032628D01*
X89282628Y-69147819D01*
X89192123Y-69283269D01*
X89129782Y-69433773D01*
X89098000Y-69593548D01*
X89098000Y-69756452D01*
X89104234Y-69787790D01*
X89085761Y-69822351D01*
X89055626Y-69921691D01*
X89045451Y-70025000D01*
X89048001Y-70050890D01*
X89048000Y-71644112D01*
X85019127Y-75672986D01*
X81922493Y-75672986D01*
X81922372Y-75672805D01*
X81807181Y-75557614D01*
X81671731Y-75467109D01*
X81662336Y-75463217D01*
X81668372Y-75457181D01*
X81668493Y-75457000D01*
X83819119Y-75457000D01*
X83845000Y-75459549D01*
X83870881Y-75457000D01*
X83948310Y-75449374D01*
X84047650Y-75419239D01*
X84139202Y-75370304D01*
X84219448Y-75304448D01*
X84235955Y-75284334D01*
X87979339Y-71540951D01*
X87999448Y-71524448D01*
X88065304Y-71444202D01*
X88114239Y-71352650D01*
X88144374Y-71253310D01*
X88152000Y-71175881D01*
X88152000Y-71175879D01*
X88154549Y-71150001D01*
X88152000Y-71124123D01*
X88152000Y-70567493D01*
X88152181Y-70567372D01*
X88267372Y-70452181D01*
X88357877Y-70316731D01*
X88420218Y-70166227D01*
X88452000Y-70006452D01*
X88452000Y-69843548D01*
X88420218Y-69683773D01*
X88357877Y-69533269D01*
X88267372Y-69397819D01*
X88152181Y-69282628D01*
X88016731Y-69192123D01*
X87866227Y-69129782D01*
X87706452Y-69098000D01*
X87543548Y-69098000D01*
X87383773Y-69129782D01*
X87233269Y-69192123D01*
X87097819Y-69282628D01*
X86982628Y-69397819D01*
X86892123Y-69533269D01*
X86829782Y-69683773D01*
X86798000Y-69843548D01*
X86798000Y-70006452D01*
X86829782Y-70166227D01*
X86892123Y-70316731D01*
X86982628Y-70452181D01*
X87097819Y-70567372D01*
X87098000Y-70567493D01*
X87098000Y-70931710D01*
X83626711Y-74403000D01*
X81668493Y-74403000D01*
X81668372Y-74402819D01*
X81553181Y-74287628D01*
X81417731Y-74197123D01*
X81267227Y-74134782D01*
X81107452Y-74103000D01*
X80944548Y-74103000D01*
X80784773Y-74134782D01*
X80634269Y-74197123D01*
X80498819Y-74287628D01*
X80383628Y-74402819D01*
X80293123Y-74538269D01*
X80230782Y-74688773D01*
X80199000Y-74848548D01*
X80199000Y-75011452D01*
X80230782Y-75171227D01*
X80293123Y-75321731D01*
X80383628Y-75457181D01*
X80498819Y-75572372D01*
X80634269Y-75662877D01*
X80643664Y-75666769D01*
X80637628Y-75672805D01*
X80547123Y-75808255D01*
X80484782Y-75958759D01*
X80453000Y-76118534D01*
X80453000Y-76281438D01*
X80481158Y-76422994D01*
X75082564Y-76422994D01*
X73728965Y-75069396D01*
X73709343Y-74970751D01*
X73675937Y-74890102D01*
X73697449Y-74872447D01*
X73713956Y-74852333D01*
X74149333Y-74416957D01*
X74149548Y-74417000D01*
X74312452Y-74417000D01*
X74472227Y-74385218D01*
X74622731Y-74322877D01*
X74758181Y-74232372D01*
X74873372Y-74117181D01*
X74963877Y-73981731D01*
X75026218Y-73831227D01*
X75058000Y-73671452D01*
X75058000Y-73508548D01*
X75026218Y-73348773D01*
X74963877Y-73198269D01*
X74873372Y-73062819D01*
X74765553Y-72955000D01*
X74873372Y-72847181D01*
X74963877Y-72711731D01*
X75026218Y-72561227D01*
X75058000Y-72401452D01*
X75058000Y-72238548D01*
X75026218Y-72078773D01*
X74963877Y-71928269D01*
X74873372Y-71792819D01*
X74758181Y-71677628D01*
X74622731Y-71587123D01*
X74472227Y-71524782D01*
X74312452Y-71493000D01*
X74149548Y-71493000D01*
X73989773Y-71524782D01*
X73839269Y-71587123D01*
X73703819Y-71677628D01*
X73588628Y-71792819D01*
X73498123Y-71928269D01*
X73435782Y-72078773D01*
X73404000Y-72238548D01*
X73404000Y-72401452D01*
X73404043Y-72401667D01*
X72727711Y-73078000D01*
X71677608Y-73078000D01*
X71631444Y-73031836D01*
X71834736Y-73008981D01*
X71915577Y-72821816D01*
X71958351Y-72622477D01*
X71961413Y-72418623D01*
X71924647Y-72218088D01*
X71849466Y-72028580D01*
X71836638Y-72004578D01*
X71915577Y-71821816D01*
X71958351Y-71622477D01*
X71961413Y-71418623D01*
X71924647Y-71218088D01*
X71849466Y-71028580D01*
X71836638Y-71004578D01*
X71915577Y-70821816D01*
X71958351Y-70622477D01*
X71961413Y-70418623D01*
X71924647Y-70218088D01*
X71849466Y-70028580D01*
X71836638Y-70004578D01*
X71915577Y-69821816D01*
X71958351Y-69622477D01*
X71961413Y-69418623D01*
X71924647Y-69218088D01*
X71849466Y-69028580D01*
X71836638Y-69004578D01*
X71915577Y-68821816D01*
X71958351Y-68622477D01*
X71961413Y-68418623D01*
X71924647Y-68218088D01*
X71849466Y-68028580D01*
X71834736Y-68001019D01*
X71631441Y-67978164D01*
X71121088Y-68488517D01*
X71042477Y-68471649D01*
X70960635Y-68470420D01*
X70961413Y-68418623D01*
X70941327Y-68309068D01*
X71451836Y-67798559D01*
X71428981Y-67595264D01*
X71241816Y-67514423D01*
X71042477Y-67471649D01*
X70838623Y-67468587D01*
X70638088Y-67505353D01*
X70448580Y-67580534D01*
X70424578Y-67593362D01*
X70241816Y-67514423D01*
X70042477Y-67471649D01*
X69838623Y-67468587D01*
X69638088Y-67505353D01*
X69448580Y-67580534D01*
X69424578Y-67593362D01*
X69241816Y-67514423D01*
X69042477Y-67471649D01*
X68838623Y-67468587D01*
X68638088Y-67505353D01*
X68448580Y-67580534D01*
X68424578Y-67593362D01*
X68241816Y-67514423D01*
X68042477Y-67471649D01*
X67838623Y-67468587D01*
X67638088Y-67505353D01*
X67448580Y-67580534D01*
X67424578Y-67593362D01*
X67241816Y-67514423D01*
X67042477Y-67471649D01*
X66838623Y-67468587D01*
X66638088Y-67505353D01*
X66448580Y-67580534D01*
X66421019Y-67595264D01*
X66398164Y-67798559D01*
X66908517Y-68308912D01*
X66891649Y-68387523D01*
X66890420Y-68469365D01*
X66838623Y-68468587D01*
X66729068Y-68488673D01*
X66218559Y-67978164D01*
X66015264Y-68001019D01*
X65934423Y-68188184D01*
X65891649Y-68387523D01*
X65888587Y-68591377D01*
X65925353Y-68791912D01*
X66000534Y-68981420D01*
X66013362Y-69005422D01*
X65934423Y-69188184D01*
X65891649Y-69387523D01*
X65888587Y-69591377D01*
X65925353Y-69791912D01*
X66000534Y-69981420D01*
X66013362Y-70005422D01*
X65934423Y-70188184D01*
X65891649Y-70387523D01*
X65888587Y-70591377D01*
X65925353Y-70791912D01*
X66000534Y-70981420D01*
X66013362Y-71005422D01*
X65934423Y-71188184D01*
X65891649Y-71387523D01*
X65888587Y-71591377D01*
X65925353Y-71791912D01*
X66000534Y-71981420D01*
X66013362Y-72005422D01*
X65934423Y-72188184D01*
X65891649Y-72387523D01*
X65888587Y-72591377D01*
X65925353Y-72791912D01*
X66000534Y-72981420D01*
X66015264Y-73008981D01*
X66218556Y-73031836D01*
X66172392Y-73078000D01*
X62442493Y-73078000D01*
X62442372Y-73077819D01*
X62327181Y-72962628D01*
X62191731Y-72872123D01*
X62041227Y-72809782D01*
X61881452Y-72778000D01*
X61718548Y-72778000D01*
X61558773Y-72809782D01*
X61408269Y-72872123D01*
X61272819Y-72962628D01*
X61157628Y-73077819D01*
X61067123Y-73213269D01*
X61004782Y-73363773D01*
X60973000Y-73523548D01*
X60973000Y-73686452D01*
X61004782Y-73846227D01*
X61056464Y-73970999D01*
X59609290Y-73970999D01*
X58039957Y-72401668D01*
X58040000Y-72401452D01*
X58040000Y-72238548D01*
X58008218Y-72078773D01*
X57945877Y-71928269D01*
X57855372Y-71792819D01*
X57740181Y-71677628D01*
X57604731Y-71587123D01*
X57454227Y-71524782D01*
X57294452Y-71493000D01*
X57131548Y-71493000D01*
X56971773Y-71524782D01*
X56821269Y-71587123D01*
X56685819Y-71677628D01*
X56570628Y-71792819D01*
X56480123Y-71928269D01*
X56417782Y-72078773D01*
X56386000Y-72238548D01*
X56386000Y-72401452D01*
X56417782Y-72561227D01*
X56480123Y-72711731D01*
X56570628Y-72847181D01*
X56685819Y-72962372D01*
X56821269Y-73052877D01*
X56971773Y-73115218D01*
X57131548Y-73147000D01*
X57294452Y-73147000D01*
X57294668Y-73146957D01*
X58570709Y-74423000D01*
X47033252Y-74423000D01*
X47000000Y-74419725D01*
X46867285Y-74432796D01*
X46739670Y-74471508D01*
X46622059Y-74534372D01*
X46546125Y-74596690D01*
X46518973Y-74618973D01*
X46497778Y-74644799D01*
X41671800Y-79470778D01*
X41645974Y-79491973D01*
X41561372Y-79595059D01*
X41498508Y-79712670D01*
X41462186Y-79832405D01*
X41394123Y-79934269D01*
X41331782Y-80084773D01*
X41300000Y-80244548D01*
X41300000Y-80407452D01*
X41331782Y-80567227D01*
X41394123Y-80717731D01*
X41484628Y-80853181D01*
X41599819Y-80968372D01*
X41735269Y-81058877D01*
X41885773Y-81121218D01*
X42045548Y-81153000D01*
X42208452Y-81153000D01*
X42368227Y-81121218D01*
X42518731Y-81058877D01*
X42654181Y-80968372D01*
X42769372Y-80853181D01*
X42859877Y-80717731D01*
X42922218Y-80567227D01*
X42954000Y-80407452D01*
X42954000Y-80244548D01*
X42930585Y-80126837D01*
X47280423Y-75777000D01*
X52972759Y-75777000D01*
X52958773Y-75779782D01*
X52808269Y-75842123D01*
X52672819Y-75932628D01*
X52557628Y-76047819D01*
X52467123Y-76183269D01*
X52404782Y-76333773D01*
X52373000Y-76493548D01*
X52373000Y-76656452D01*
X52404782Y-76816227D01*
X52467123Y-76966731D01*
X52557628Y-77102181D01*
X52672819Y-77217372D01*
X52808269Y-77307877D01*
X52958773Y-77370218D01*
X53012976Y-77381000D01*
X50017881Y-77381000D01*
X49992000Y-77378451D01*
X49966119Y-77381000D01*
X49888690Y-77388626D01*
X49789350Y-77418761D01*
X49697798Y-77467696D01*
X49617552Y-77533552D01*
X49601049Y-77553661D01*
X48181711Y-78973000D01*
X46942493Y-78973000D01*
X46942372Y-78972819D01*
X46827181Y-78857628D01*
X46691731Y-78767123D01*
X46541227Y-78704782D01*
X46381452Y-78673000D01*
X46218548Y-78673000D01*
X46058773Y-78704782D01*
X45908269Y-78767123D01*
X45772819Y-78857628D01*
X45657628Y-78972819D01*
X45567123Y-79108269D01*
X45504782Y-79258773D01*
X45473000Y-79418548D01*
X45473000Y-79581452D01*
X45504782Y-79741227D01*
X45567123Y-79891731D01*
X45657628Y-80027181D01*
X45772819Y-80142372D01*
X45908269Y-80232877D01*
X46058773Y-80295218D01*
X46218548Y-80327000D01*
X46381452Y-80327000D01*
X46541227Y-80295218D01*
X46691731Y-80232877D01*
X46827181Y-80142372D01*
X46942372Y-80027181D01*
X46942493Y-80027000D01*
X48374119Y-80027000D01*
X48400000Y-80029549D01*
X48425881Y-80027000D01*
X48503310Y-80019374D01*
X48602650Y-79989239D01*
X48694202Y-79940304D01*
X48774448Y-79874448D01*
X48790955Y-79854334D01*
X50210290Y-78435000D01*
X50211116Y-78435000D01*
X50146123Y-78532269D01*
X50083782Y-78682773D01*
X50052000Y-78842548D01*
X50052000Y-79005452D01*
X50083782Y-79165227D01*
X50146123Y-79315731D01*
X50236628Y-79451181D01*
X50351819Y-79566372D01*
X50487269Y-79656877D01*
X50637773Y-79719218D01*
X50797548Y-79751000D01*
X50960452Y-79751000D01*
X51120227Y-79719218D01*
X51270731Y-79656877D01*
X51406181Y-79566372D01*
X51521372Y-79451181D01*
X51521493Y-79451000D01*
X58834692Y-79451000D01*
X58818410Y-89548000D01*
X52623656Y-89548000D01*
X52620972Y-89185642D01*
X52673810Y-89169614D01*
X52752333Y-89127643D01*
X52821159Y-89071159D01*
X52877643Y-89002333D01*
X52919614Y-88923810D01*
X52945460Y-88838607D01*
X52954187Y-88750000D01*
X52952000Y-88727795D01*
X52952000Y-83272205D01*
X52954187Y-83250000D01*
X52945460Y-83161393D01*
X52919614Y-83076190D01*
X52877643Y-82997667D01*
X52821159Y-82928841D01*
X52752333Y-82872357D01*
X52673810Y-82830386D01*
X52588607Y-82804540D01*
X52522205Y-82798000D01*
X52500000Y-82795813D01*
X52477795Y-82798000D01*
X50622205Y-82798000D01*
X50600000Y-82795813D01*
X50577795Y-82798000D01*
X50511393Y-82804540D01*
X50426190Y-82830386D01*
X50347667Y-82872357D01*
X50278841Y-82928841D01*
X50222357Y-82997667D01*
X50180386Y-83076190D01*
X50173323Y-83099474D01*
X48972915Y-83087073D01*
X48969614Y-83076190D01*
X48927643Y-82997667D01*
X48871159Y-82928841D01*
X48802333Y-82872357D01*
X48723810Y-82830386D01*
X48638607Y-82804540D01*
X48572205Y-82798000D01*
X48550000Y-82795813D01*
X48527795Y-82798000D01*
X46322205Y-82798000D01*
X46300000Y-82795813D01*
X46277795Y-82798000D01*
X46211393Y-82804540D01*
X46126190Y-82830386D01*
X46047667Y-82872357D01*
X45978841Y-82928841D01*
X45922357Y-82997667D01*
X45880386Y-83076190D01*
X45854540Y-83161393D01*
X45845813Y-83250000D01*
X45848001Y-83272215D01*
X45848000Y-88727795D01*
X45845813Y-88750000D01*
X45854540Y-88838607D01*
X45880386Y-88923810D01*
X45922357Y-89002333D01*
X45942601Y-89027000D01*
X45978841Y-89071159D01*
X46047667Y-89127643D01*
X46100267Y-89155758D01*
X46088918Y-89548000D01*
X23452000Y-89548000D01*
X23452000Y-87349604D01*
X23973000Y-87349604D01*
X23973000Y-87650396D01*
X24031681Y-87945410D01*
X24146790Y-88223306D01*
X24313901Y-88473406D01*
X24526594Y-88686099D01*
X24776694Y-88853210D01*
X25054590Y-88968319D01*
X25349604Y-89027000D01*
X25650396Y-89027000D01*
X25945410Y-88968319D01*
X26223306Y-88853210D01*
X26473406Y-88686099D01*
X26686099Y-88473406D01*
X26853210Y-88223306D01*
X26968319Y-87945410D01*
X27027000Y-87650396D01*
X27027000Y-87349604D01*
X26968319Y-87054590D01*
X26853210Y-86776694D01*
X26686099Y-86526594D01*
X26473406Y-86313901D01*
X26223306Y-86146790D01*
X25945410Y-86031681D01*
X25650396Y-85973000D01*
X25349604Y-85973000D01*
X25054590Y-86031681D01*
X24776694Y-86146790D01*
X24526594Y-86313901D01*
X24313901Y-86526594D01*
X24146790Y-86776694D01*
X24031681Y-87054590D01*
X23973000Y-87349604D01*
X23452000Y-87349604D01*
X23452000Y-33349604D01*
X23973000Y-33349604D01*
X23973000Y-33650396D01*
X24031681Y-33945410D01*
X24146790Y-34223306D01*
X24313901Y-34473406D01*
X24526594Y-34686099D01*
X24776694Y-34853210D01*
X25054590Y-34968319D01*
X25349604Y-35027000D01*
X25650396Y-35027000D01*
X25945410Y-34968319D01*
X26223306Y-34853210D01*
X26473406Y-34686099D01*
X26686099Y-34473406D01*
X26853210Y-34223306D01*
X26968319Y-33945410D01*
X27027000Y-33650396D01*
X27027000Y-33349604D01*
X26968319Y-33054590D01*
X26853210Y-32776694D01*
X26686099Y-32526594D01*
X26473406Y-32313901D01*
X26223306Y-32146790D01*
X25945410Y-32031681D01*
X25650396Y-31973000D01*
X25349604Y-31973000D01*
X25054590Y-32031681D01*
X24776694Y-32146790D01*
X24526594Y-32313901D01*
X24313901Y-32526594D01*
X24146790Y-32776694D01*
X24031681Y-33054590D01*
X23973000Y-33349604D01*
X23452000Y-33349604D01*
X23452000Y-31452000D01*
X47277795Y-31452000D01*
X47300000Y-31454187D01*
X47322205Y-31452000D01*
X47388607Y-31445460D01*
X47473810Y-31419614D01*
X47552333Y-31377643D01*
X47621159Y-31321159D01*
X47677643Y-31252333D01*
X47719614Y-31173810D01*
X47745460Y-31088607D01*
X47754187Y-31000000D01*
X47752000Y-30977795D01*
X47752000Y-28627048D01*
X65594997Y-28627048D01*
X65594997Y-29027047D01*
X65643504Y-29265543D01*
X65737607Y-29489993D01*
X65873690Y-29691772D01*
X66046523Y-29863125D01*
X66249464Y-29997468D01*
X66474715Y-30089638D01*
X66512387Y-30093508D01*
X66702996Y-29968777D01*
X66702996Y-28627048D01*
X65594997Y-28627048D01*
X47752000Y-28627048D01*
X47752000Y-26849604D01*
X48473000Y-26849604D01*
X48473000Y-27150396D01*
X48531681Y-27445410D01*
X48646790Y-27723306D01*
X48813901Y-27973406D01*
X49026594Y-28186099D01*
X49276694Y-28353210D01*
X49554590Y-28468319D01*
X49849604Y-28527000D01*
X50150396Y-28527000D01*
X50445410Y-28468319D01*
X50723306Y-28353210D01*
X50973406Y-28186099D01*
X51186099Y-27973406D01*
X51186337Y-27973049D01*
X65594997Y-27973049D01*
X65594997Y-28373048D01*
X66702996Y-28373048D01*
X66702996Y-27031319D01*
X66512387Y-26906588D01*
X66474715Y-26910458D01*
X66249464Y-27002628D01*
X66046523Y-27136971D01*
X65873690Y-27308324D01*
X65737607Y-27510103D01*
X65643504Y-27734553D01*
X65594997Y-27973049D01*
X51186337Y-27973049D01*
X51353210Y-27723306D01*
X51468319Y-27445410D01*
X51527000Y-27150396D01*
X51527000Y-26849604D01*
X51468319Y-26554590D01*
X51353210Y-26276694D01*
X51347252Y-26267776D01*
X57998010Y-26267776D01*
X57998010Y-26435604D01*
X58030752Y-26600207D01*
X58094977Y-26755260D01*
X58188217Y-26894804D01*
X58306889Y-27013476D01*
X58446433Y-27106716D01*
X58601486Y-27170941D01*
X58766089Y-27203683D01*
X58933917Y-27203683D01*
X59098520Y-27170941D01*
X59253573Y-27106716D01*
X59393117Y-27013476D01*
X59511789Y-26894804D01*
X59605029Y-26755260D01*
X59669254Y-26600207D01*
X59701996Y-26435604D01*
X59701996Y-26267776D01*
X60998004Y-26267776D01*
X60998004Y-26435604D01*
X61030746Y-26600207D01*
X61094971Y-26755260D01*
X61188211Y-26894804D01*
X61306883Y-27013476D01*
X61446427Y-27106716D01*
X61601480Y-27170941D01*
X61766083Y-27203683D01*
X61933911Y-27203683D01*
X62098514Y-27170941D01*
X62253567Y-27106716D01*
X62393111Y-27013476D01*
X62511783Y-26894804D01*
X62605023Y-26755260D01*
X62669248Y-26600207D01*
X62701990Y-26435604D01*
X62701990Y-26267776D01*
X62669248Y-26103173D01*
X62605023Y-25948120D01*
X62511783Y-25808576D01*
X62393111Y-25689904D01*
X62253567Y-25596664D01*
X62098514Y-25532439D01*
X61933911Y-25499697D01*
X61766083Y-25499697D01*
X61601480Y-25532439D01*
X61446427Y-25596664D01*
X61306883Y-25689904D01*
X61188211Y-25808576D01*
X61094971Y-25948120D01*
X61030746Y-26103173D01*
X60998004Y-26267776D01*
X59701996Y-26267776D01*
X59669254Y-26103173D01*
X59605029Y-25948120D01*
X59511789Y-25808576D01*
X59393117Y-25689904D01*
X59253573Y-25596664D01*
X59098520Y-25532439D01*
X58933917Y-25499697D01*
X58766089Y-25499697D01*
X58601486Y-25532439D01*
X58446433Y-25596664D01*
X58306889Y-25689904D01*
X58188217Y-25808576D01*
X58094977Y-25948120D01*
X58030752Y-26103173D01*
X57998010Y-26267776D01*
X51347252Y-26267776D01*
X51186099Y-26026594D01*
X50973406Y-25813901D01*
X50723306Y-25646790D01*
X50445410Y-25531681D01*
X50150396Y-25473000D01*
X49849604Y-25473000D01*
X49554590Y-25531681D01*
X49276694Y-25646790D01*
X49026594Y-25813901D01*
X48813901Y-26026594D01*
X48646790Y-26276694D01*
X48531681Y-26554590D01*
X48473000Y-26849604D01*
X47752000Y-26849604D01*
X47752000Y-24952000D01*
X64377795Y-24952000D01*
X64400000Y-24954187D01*
X64422205Y-24952000D01*
X64488607Y-24945460D01*
X64573810Y-24919614D01*
X64652333Y-24877643D01*
X64721159Y-24821159D01*
X64735323Y-24803900D01*
X64912167Y-24627056D01*
X65594997Y-24627056D01*
X65594997Y-25227054D01*
X65643504Y-25465550D01*
X65737607Y-25690000D01*
X65873690Y-25891779D01*
X66046523Y-26063132D01*
X66249464Y-26197475D01*
X66474715Y-26289645D01*
X66512387Y-26293515D01*
X66702996Y-26168784D01*
X66702996Y-24627056D01*
X65594997Y-24627056D01*
X64912167Y-24627056D01*
X65594997Y-23944227D01*
X65594997Y-24373056D01*
X66702996Y-24373056D01*
X66702996Y-24353056D01*
X66956996Y-24353056D01*
X66956996Y-24373056D01*
X66976996Y-24373056D01*
X66976996Y-24627056D01*
X66956996Y-24627056D01*
X66956996Y-26168784D01*
X67147605Y-26293515D01*
X67185277Y-26289645D01*
X67373000Y-26212831D01*
X67373000Y-26987272D01*
X67185277Y-26910458D01*
X67147605Y-26906588D01*
X66956996Y-27031319D01*
X66956996Y-28373048D01*
X66976996Y-28373048D01*
X66976996Y-28627048D01*
X66956996Y-28627048D01*
X66956996Y-29968777D01*
X67147605Y-30093508D01*
X67185277Y-30089638D01*
X67410528Y-29997468D01*
X67613469Y-29863125D01*
X67786302Y-29691772D01*
X67922385Y-29489993D01*
X67959277Y-29402000D01*
X76940723Y-29402000D01*
X76977615Y-29489993D01*
X77113698Y-29691772D01*
X77286531Y-29863125D01*
X77489472Y-29997468D01*
X77714723Y-30089638D01*
X77752395Y-30093508D01*
X77943004Y-29968777D01*
X77943004Y-28627048D01*
X78197004Y-28627048D01*
X78197004Y-29968777D01*
X78387613Y-30093508D01*
X78425285Y-30089638D01*
X78650536Y-29997468D01*
X78853477Y-29863125D01*
X79026310Y-29691772D01*
X79162393Y-29489993D01*
X79256496Y-29265543D01*
X79305003Y-29027047D01*
X79305003Y-28627048D01*
X78197004Y-28627048D01*
X77943004Y-28627048D01*
X77923004Y-28627048D01*
X77923004Y-28373048D01*
X77943004Y-28373048D01*
X77943004Y-27031319D01*
X78197004Y-27031319D01*
X78197004Y-28373048D01*
X79305003Y-28373048D01*
X79305003Y-27973049D01*
X79256496Y-27734553D01*
X79162393Y-27510103D01*
X79026310Y-27308324D01*
X78853477Y-27136971D01*
X78650536Y-27002628D01*
X78425285Y-26910458D01*
X78387613Y-26906588D01*
X78197004Y-27031319D01*
X77943004Y-27031319D01*
X77752395Y-26906588D01*
X77714723Y-26910458D01*
X77502000Y-26997502D01*
X77502000Y-26849604D01*
X82473000Y-26849604D01*
X82473000Y-27150396D01*
X82531681Y-27445410D01*
X82646790Y-27723306D01*
X82813901Y-27973406D01*
X83026594Y-28186099D01*
X83276694Y-28353210D01*
X83554590Y-28468319D01*
X83849604Y-28527000D01*
X84150396Y-28527000D01*
X84445410Y-28468319D01*
X84723306Y-28353210D01*
X84973406Y-28186099D01*
X85186099Y-27973406D01*
X85353210Y-27723306D01*
X85468319Y-27445410D01*
X85527000Y-27150396D01*
X85527000Y-26849604D01*
X85468319Y-26554590D01*
X85353210Y-26276694D01*
X85186099Y-26026594D01*
X84973406Y-25813901D01*
X84723306Y-25646790D01*
X84445410Y-25531681D01*
X84150396Y-25473000D01*
X83849604Y-25473000D01*
X83554590Y-25531681D01*
X83276694Y-25646790D01*
X83026594Y-25813901D01*
X82813901Y-26026594D01*
X82646790Y-26276694D01*
X82531681Y-26554590D01*
X82473000Y-26849604D01*
X77502000Y-26849604D01*
X77502000Y-26202601D01*
X77714723Y-26289645D01*
X77752395Y-26293515D01*
X77943004Y-26168784D01*
X77943004Y-24627056D01*
X78197004Y-24627056D01*
X78197004Y-26168784D01*
X78387613Y-26293515D01*
X78425285Y-26289645D01*
X78650536Y-26197475D01*
X78853477Y-26063132D01*
X79026310Y-25891779D01*
X79162393Y-25690000D01*
X79256496Y-25465550D01*
X79305003Y-25227054D01*
X79305003Y-24627056D01*
X78197004Y-24627056D01*
X77943004Y-24627056D01*
X77923004Y-24627056D01*
X77923004Y-24373056D01*
X77943004Y-24373056D01*
X77943004Y-24353056D01*
X78197004Y-24353056D01*
X78197004Y-24373056D01*
X79305003Y-24373056D01*
X79305003Y-23773058D01*
X79256496Y-23534562D01*
X79162393Y-23310112D01*
X79026310Y-23108333D01*
X78853477Y-22936980D01*
X78725105Y-22852000D01*
X79312777Y-22852000D01*
X81264686Y-24803911D01*
G04 #@! TA.AperFunction,Conductor*
D19*
G36*
X81264686Y-24803911D02*
G01*
X81278841Y-24821159D01*
X81347667Y-24877643D01*
X81426190Y-24919614D01*
X81511393Y-24945460D01*
X81577795Y-24952000D01*
X81577796Y-24952000D01*
X81599999Y-24954187D01*
X81622202Y-24952000D01*
X86248000Y-24952000D01*
X86248001Y-30977785D01*
X86245813Y-31000000D01*
X86254540Y-31088607D01*
X86280386Y-31173810D01*
X86322357Y-31252333D01*
X86378841Y-31321159D01*
X86447667Y-31377643D01*
X86526190Y-31419614D01*
X86611393Y-31445460D01*
X86677795Y-31452000D01*
X86700000Y-31454187D01*
X86722205Y-31452000D01*
X110548000Y-31452000D01*
X110548000Y-39374156D01*
X108576096Y-37402253D01*
X108557877Y-37358269D01*
X108467372Y-37222819D01*
X108352181Y-37107628D01*
X108216731Y-37017123D01*
X108172749Y-36998905D01*
X104523448Y-33349604D01*
X106973000Y-33349604D01*
X106973000Y-33650396D01*
X107031681Y-33945410D01*
X107146790Y-34223306D01*
X107313901Y-34473406D01*
X107526594Y-34686099D01*
X107776694Y-34853210D01*
X108054590Y-34968319D01*
X108349604Y-35027000D01*
X108650396Y-35027000D01*
X108945410Y-34968319D01*
X109223306Y-34853210D01*
X109473406Y-34686099D01*
X109686099Y-34473406D01*
X109853210Y-34223306D01*
X109968319Y-33945410D01*
X110027000Y-33650396D01*
X110027000Y-33349604D01*
X109968319Y-33054590D01*
X109853210Y-32776694D01*
X109686099Y-32526594D01*
X109473406Y-32313901D01*
X109223306Y-32146790D01*
X108945410Y-32031681D01*
X108650396Y-31973000D01*
X108349604Y-31973000D01*
X108054590Y-32031681D01*
X107776694Y-32146790D01*
X107526594Y-32313901D01*
X107313901Y-32526594D01*
X107146790Y-32776694D01*
X107031681Y-33054590D01*
X106973000Y-33349604D01*
X104523448Y-33349604D01*
X103126413Y-31952570D01*
X103102080Y-31922920D01*
X102983766Y-31825823D01*
X102848784Y-31753673D01*
X102702319Y-31709243D01*
X102588166Y-31698000D01*
X102588163Y-31698000D01*
X102550000Y-31694241D01*
X102511837Y-31698000D01*
X75485209Y-31698000D01*
X75441227Y-31679782D01*
X75281452Y-31648000D01*
X75118548Y-31648000D01*
X74958773Y-31679782D01*
X74808269Y-31742123D01*
X74672819Y-31832628D01*
X74557628Y-31947819D01*
X74557507Y-31948000D01*
X70573298Y-31948000D01*
X70554461Y-31929163D01*
X70554504Y-31928948D01*
X70554504Y-31766044D01*
X70522722Y-31606269D01*
X70460381Y-31455765D01*
X70369876Y-31320315D01*
X70254685Y-31205124D01*
X70119235Y-31114619D01*
X69968731Y-31052278D01*
X69808956Y-31020496D01*
X69646052Y-31020496D01*
X69486277Y-31052278D01*
X69335773Y-31114619D01*
X69200323Y-31205124D01*
X69085132Y-31320315D01*
X68994627Y-31455765D01*
X68932286Y-31606269D01*
X68900504Y-31766044D01*
X68900504Y-31928948D01*
X68932286Y-32088723D01*
X68994627Y-32239227D01*
X69085132Y-32374677D01*
X69200323Y-32489868D01*
X69335773Y-32580373D01*
X69486277Y-32642714D01*
X69646052Y-32674496D01*
X69808956Y-32674496D01*
X69809171Y-32674453D01*
X69964061Y-32829344D01*
X69980560Y-32849448D01*
X70060806Y-32915304D01*
X70152358Y-32964239D01*
X70214625Y-32983128D01*
X70171106Y-33048259D01*
X70108765Y-33198763D01*
X70076983Y-33358538D01*
X70076983Y-33521442D01*
X70108765Y-33681217D01*
X70171106Y-33831721D01*
X70261611Y-33967171D01*
X70376802Y-34082362D01*
X70512252Y-34172867D01*
X70662756Y-34235208D01*
X70822531Y-34266990D01*
X70985435Y-34266990D01*
X71145210Y-34235208D01*
X71295714Y-34172867D01*
X71431164Y-34082362D01*
X71546355Y-33967171D01*
X71546476Y-33966990D01*
X72080664Y-33966990D01*
X72148321Y-34012197D01*
X72298825Y-34074538D01*
X72458600Y-34106320D01*
X72621504Y-34106320D01*
X72781279Y-34074538D01*
X72931783Y-34012197D01*
X73067233Y-33921692D01*
X73182424Y-33806501D01*
X73272929Y-33671051D01*
X73335270Y-33520547D01*
X73367052Y-33360772D01*
X73367052Y-33197868D01*
X73335270Y-33038093D01*
X73320320Y-33002000D01*
X74557507Y-33002000D01*
X74557628Y-33002181D01*
X74672819Y-33117372D01*
X74808269Y-33207877D01*
X74958773Y-33270218D01*
X75118548Y-33302000D01*
X75281452Y-33302000D01*
X75441227Y-33270218D01*
X75485209Y-33252000D01*
X88213076Y-33252000D01*
X88208749Y-33255551D01*
X88192242Y-33275665D01*
X88064917Y-33402990D01*
X84198887Y-33402990D01*
X84173009Y-33400441D01*
X84147131Y-33402990D01*
X84147129Y-33402990D01*
X84069700Y-33410616D01*
X83970360Y-33440751D01*
X83878808Y-33489686D01*
X83798562Y-33555542D01*
X83782059Y-33575651D01*
X75180181Y-42177530D01*
X75195218Y-42141227D01*
X75227000Y-41981452D01*
X75227000Y-41818548D01*
X75195218Y-41658773D01*
X75132877Y-41508269D01*
X75042372Y-41372819D01*
X74927181Y-41257628D01*
X74791731Y-41167123D01*
X74641227Y-41104782D01*
X74481452Y-41073000D01*
X74318548Y-41073000D01*
X74158773Y-41104782D01*
X74008269Y-41167123D01*
X73872819Y-41257628D01*
X73757628Y-41372819D01*
X73667123Y-41508269D01*
X73604782Y-41658773D01*
X73573000Y-41818548D01*
X73573000Y-41946355D01*
X72716367Y-42802989D01*
X49512482Y-42802989D01*
X49612181Y-42736372D01*
X49727372Y-42621181D01*
X49817877Y-42485731D01*
X49880218Y-42335227D01*
X49912000Y-42175452D01*
X49912000Y-42113000D01*
X63682509Y-42113000D01*
X63682630Y-42113181D01*
X63797821Y-42228372D01*
X63933271Y-42318877D01*
X64083775Y-42381218D01*
X64243550Y-42413000D01*
X64406454Y-42413000D01*
X64566229Y-42381218D01*
X64716733Y-42318877D01*
X64852183Y-42228372D01*
X64967374Y-42113181D01*
X65057879Y-41977731D01*
X65120220Y-41827227D01*
X65152002Y-41667452D01*
X65152002Y-41504548D01*
X65120476Y-41346061D01*
X65224731Y-41302877D01*
X65360181Y-41212372D01*
X65475372Y-41097181D01*
X65565877Y-40961731D01*
X65628218Y-40811227D01*
X65660000Y-40651452D01*
X65660000Y-40488548D01*
X65628218Y-40328773D01*
X65565877Y-40178269D01*
X65475372Y-40042819D01*
X65360181Y-39927628D01*
X65224731Y-39837123D01*
X65074227Y-39774782D01*
X64914452Y-39743000D01*
X64751548Y-39743000D01*
X64591773Y-39774782D01*
X64441269Y-39837123D01*
X64305819Y-39927628D01*
X64190628Y-40042819D01*
X64190507Y-40043000D01*
X49364880Y-40043000D01*
X49359202Y-40042441D01*
X49326227Y-40028782D01*
X49166452Y-39997000D01*
X49003548Y-39997000D01*
X48843773Y-40028782D01*
X48693269Y-40091123D01*
X48557819Y-40181628D01*
X48442628Y-40296819D01*
X48352123Y-40432269D01*
X48289782Y-40582773D01*
X48258000Y-40742548D01*
X48258000Y-40905452D01*
X48289782Y-41065227D01*
X48352123Y-41215731D01*
X48442628Y-41351181D01*
X48550447Y-41459000D01*
X48442628Y-41566819D01*
X48352123Y-41702269D01*
X48289782Y-41852773D01*
X48258000Y-42012548D01*
X48258000Y-42175452D01*
X48289782Y-42335227D01*
X48352123Y-42485731D01*
X48442628Y-42621181D01*
X48557819Y-42736372D01*
X48657518Y-42802989D01*
X44478635Y-42802989D01*
X43816000Y-42140355D01*
X43816000Y-42012548D01*
X43784218Y-41852773D01*
X43721877Y-41702269D01*
X43631372Y-41566819D01*
X43516181Y-41451628D01*
X43380731Y-41361123D01*
X43230227Y-41298782D01*
X43070452Y-41267000D01*
X42907548Y-41267000D01*
X42907333Y-41267043D01*
X40835943Y-39195654D01*
X40819436Y-39175540D01*
X40739190Y-39109684D01*
X40655591Y-39065000D01*
X77141119Y-39065000D01*
X77167000Y-39067549D01*
X77192881Y-39065000D01*
X77270310Y-39057374D01*
X77369650Y-39027239D01*
X77461202Y-38978304D01*
X77541448Y-38912448D01*
X77557955Y-38892334D01*
X78683333Y-37766957D01*
X78683548Y-37767000D01*
X78846452Y-37767000D01*
X79006227Y-37735218D01*
X79156731Y-37672877D01*
X79292181Y-37582372D01*
X79407372Y-37467181D01*
X79497877Y-37331731D01*
X79560218Y-37181227D01*
X79592000Y-37021452D01*
X79592000Y-36858548D01*
X79560218Y-36698773D01*
X79497877Y-36548269D01*
X79407372Y-36412819D01*
X79292181Y-36297628D01*
X79156731Y-36207123D01*
X79006227Y-36144782D01*
X78846452Y-36113000D01*
X78683548Y-36113000D01*
X78523773Y-36144782D01*
X78373269Y-36207123D01*
X78237819Y-36297628D01*
X78122628Y-36412819D01*
X78032123Y-36548269D01*
X77969782Y-36698773D01*
X77938000Y-36858548D01*
X77938000Y-37021452D01*
X77938043Y-37021667D01*
X76948711Y-38011000D01*
X62581457Y-38011000D01*
X62612000Y-37857452D01*
X62612000Y-37694548D01*
X62580218Y-37534773D01*
X62517877Y-37384269D01*
X62427372Y-37248819D01*
X62312181Y-37133628D01*
X62176731Y-37043123D01*
X62026227Y-36980782D01*
X61866452Y-36949000D01*
X61703548Y-36949000D01*
X61543773Y-36980782D01*
X61393269Y-37043123D01*
X61257819Y-37133628D01*
X61142628Y-37248819D01*
X61142507Y-37249000D01*
X56669291Y-37249000D01*
X55499957Y-36079668D01*
X55500000Y-36079452D01*
X55500000Y-35916548D01*
X55468218Y-35756773D01*
X55405877Y-35606269D01*
X55315372Y-35470819D01*
X55200181Y-35355628D01*
X55064731Y-35265123D01*
X54914227Y-35202782D01*
X54754452Y-35171000D01*
X54591548Y-35171000D01*
X54431773Y-35202782D01*
X54281269Y-35265123D01*
X54145819Y-35355628D01*
X54030628Y-35470819D01*
X53940123Y-35606269D01*
X53877782Y-35756773D01*
X53846000Y-35916548D01*
X53846000Y-36079452D01*
X53877782Y-36239227D01*
X53940123Y-36389731D01*
X54030628Y-36525181D01*
X54145819Y-36640372D01*
X54281269Y-36730877D01*
X54431773Y-36793218D01*
X54591548Y-36825000D01*
X54754452Y-36825000D01*
X54754668Y-36824957D01*
X55940709Y-38011000D01*
X39821493Y-38011000D01*
X39821372Y-38010819D01*
X39706181Y-37895628D01*
X39570731Y-37805123D01*
X39420227Y-37742782D01*
X39260452Y-37711000D01*
X39097548Y-37711000D01*
X38937773Y-37742782D01*
X38787269Y-37805123D01*
X38651819Y-37895628D01*
X38536628Y-38010819D01*
X38446123Y-38146269D01*
X38383782Y-38296773D01*
X38352000Y-38456548D01*
X38352000Y-38619452D01*
X38383782Y-38779227D01*
X38446123Y-38929731D01*
X38508435Y-39022988D01*
X35075276Y-39022988D01*
X32893955Y-36841668D01*
X32893998Y-36841452D01*
X32893998Y-36678548D01*
X32862216Y-36518773D01*
X32799875Y-36368269D01*
X32709370Y-36232819D01*
X32594179Y-36117628D01*
X32458729Y-36027123D01*
X32308225Y-35964782D01*
X32148450Y-35933000D01*
X31985546Y-35933000D01*
X31825771Y-35964782D01*
X31675267Y-36027123D01*
X31539817Y-36117628D01*
X31424626Y-36232819D01*
X31334121Y-36368269D01*
X31271780Y-36518773D01*
X31239998Y-36678548D01*
X31239998Y-36841452D01*
X31271780Y-37001227D01*
X31334121Y-37151731D01*
X31424626Y-37287181D01*
X31539817Y-37402372D01*
X31675267Y-37492877D01*
X31825771Y-37555218D01*
X31985546Y-37587000D01*
X32148450Y-37587000D01*
X32148666Y-37586957D01*
X33944707Y-39382999D01*
X25386882Y-39382999D01*
X25361001Y-39380450D01*
X25335120Y-39382999D01*
X25257691Y-39390625D01*
X25158351Y-39420760D01*
X25066799Y-39469695D01*
X24986553Y-39535551D01*
X24970054Y-39555655D01*
X24528667Y-39997043D01*
X24528452Y-39997000D01*
X24365548Y-39997000D01*
X24205773Y-40028782D01*
X24055269Y-40091123D01*
X23919819Y-40181628D01*
X23804628Y-40296819D01*
X23714123Y-40432269D01*
X23651782Y-40582773D01*
X23620000Y-40742548D01*
X23620000Y-40905452D01*
X23651782Y-41065227D01*
X23714123Y-41215731D01*
X23804628Y-41351181D01*
X23919819Y-41466372D01*
X24055269Y-41556877D01*
X24205773Y-41619218D01*
X24365548Y-41651000D01*
X24528452Y-41651000D01*
X24688227Y-41619218D01*
X24838731Y-41556877D01*
X24974181Y-41466372D01*
X25089372Y-41351181D01*
X25179877Y-41215731D01*
X25242218Y-41065227D01*
X25274000Y-40905452D01*
X25274000Y-40742548D01*
X25273957Y-40742333D01*
X25579292Y-40436999D01*
X27186254Y-40436999D01*
X27176000Y-40488548D01*
X27176000Y-40651452D01*
X27207782Y-40811227D01*
X27270123Y-40961731D01*
X27360628Y-41097181D01*
X27475819Y-41212372D01*
X27611269Y-41302877D01*
X27761773Y-41365218D01*
X27921548Y-41397000D01*
X28084452Y-41397000D01*
X28244227Y-41365218D01*
X28394731Y-41302877D01*
X28530181Y-41212372D01*
X28645372Y-41097181D01*
X28645493Y-41097000D01*
X29683711Y-41097000D01*
X30715000Y-42128290D01*
X30715001Y-43045507D01*
X30714819Y-43045628D01*
X30599628Y-43160819D01*
X30509123Y-43296269D01*
X30446782Y-43446773D01*
X30415000Y-43606548D01*
X30415000Y-43769452D01*
X30446782Y-43929227D01*
X30509123Y-44079731D01*
X30599628Y-44215181D01*
X30714819Y-44330372D01*
X30850269Y-44420877D01*
X31000773Y-44483218D01*
X31160548Y-44515000D01*
X31323452Y-44515000D01*
X31483227Y-44483218D01*
X31626133Y-44424024D01*
X35259447Y-44424024D01*
X35349819Y-44514396D01*
X35426033Y-44565321D01*
X33574356Y-46417000D01*
X33446548Y-46417000D01*
X33286773Y-46448782D01*
X33136269Y-46511123D01*
X33000819Y-46601628D01*
X32885628Y-46716819D01*
X32795123Y-46852269D01*
X32732782Y-47002773D01*
X32701000Y-47162548D01*
X32701000Y-47325452D01*
X32732782Y-47485227D01*
X32795123Y-47635731D01*
X32885628Y-47771181D01*
X33000819Y-47886372D01*
X33136269Y-47976877D01*
X33286773Y-48039218D01*
X33446548Y-48071000D01*
X33609452Y-48071000D01*
X33769227Y-48039218D01*
X33919731Y-47976877D01*
X34055181Y-47886372D01*
X34170372Y-47771181D01*
X34260877Y-47635731D01*
X34323218Y-47485227D01*
X34355000Y-47325452D01*
X34355000Y-47197644D01*
X36933155Y-44619491D01*
X36954212Y-44602210D01*
X36994343Y-44553310D01*
X37023192Y-44518158D01*
X37059622Y-44450001D01*
X37074449Y-44422262D01*
X37106013Y-44318210D01*
X37114001Y-44237108D01*
X37114001Y-44237098D01*
X37116670Y-44210000D01*
X37114001Y-44182902D01*
X37114001Y-41669106D01*
X37116671Y-41642000D01*
X37112063Y-41595218D01*
X37106013Y-41533790D01*
X37074449Y-41429738D01*
X37023192Y-41333843D01*
X36954212Y-41249790D01*
X36933155Y-41232509D01*
X36641000Y-40940355D01*
X36641000Y-40812548D01*
X36609218Y-40652773D01*
X36546877Y-40502269D01*
X36503265Y-40436999D01*
X37486317Y-40436999D01*
X37486318Y-45401262D01*
X37486136Y-45401384D01*
X37370945Y-45516575D01*
X37280440Y-45652025D01*
X37218099Y-45802529D01*
X37186317Y-45962304D01*
X37186317Y-46125208D01*
X37218099Y-46284983D01*
X37280440Y-46435487D01*
X37370945Y-46570937D01*
X37486136Y-46686128D01*
X37621586Y-46776633D01*
X37772090Y-46838974D01*
X37931865Y-46870756D01*
X38094769Y-46870756D01*
X38254544Y-46838974D01*
X38405048Y-46776633D01*
X38540498Y-46686128D01*
X38655689Y-46570937D01*
X38746194Y-46435487D01*
X38808535Y-46284983D01*
X38840317Y-46125208D01*
X38840317Y-45962304D01*
X38808535Y-45802529D01*
X38746194Y-45652025D01*
X38655689Y-45516575D01*
X38540498Y-45401384D01*
X38540317Y-45401263D01*
X38540317Y-40192194D01*
X38542866Y-40166316D01*
X38538366Y-40120626D01*
X38534068Y-40076988D01*
X40226699Y-40076988D01*
X42162043Y-42012333D01*
X42162000Y-42012548D01*
X42162000Y-42175452D01*
X42193782Y-42335227D01*
X42256123Y-42485731D01*
X42346628Y-42621181D01*
X42461819Y-42736372D01*
X42597269Y-42826877D01*
X42747773Y-42889218D01*
X42907548Y-42921000D01*
X43035355Y-42921000D01*
X43840497Y-43726143D01*
X43857778Y-43747200D01*
X43878834Y-43764480D01*
X43878835Y-43764481D01*
X43941831Y-43816180D01*
X44037726Y-43867437D01*
X44141778Y-43899001D01*
X44249989Y-43909659D01*
X44277097Y-43906989D01*
X72917905Y-43906989D01*
X72945011Y-43909659D01*
X72972117Y-43906989D01*
X72972120Y-43906989D01*
X73053222Y-43899001D01*
X73157274Y-43867437D01*
X73253169Y-43816180D01*
X73337222Y-43747200D01*
X73354511Y-43726133D01*
X74353645Y-42727000D01*
X74481452Y-42727000D01*
X74641227Y-42695218D01*
X74677530Y-42680181D01*
X70780181Y-46577530D01*
X70795218Y-46541227D01*
X70827000Y-46381452D01*
X70827000Y-46218548D01*
X70795218Y-46058773D01*
X70732877Y-45908269D01*
X70642372Y-45772819D01*
X70527181Y-45657628D01*
X70391731Y-45567123D01*
X70241227Y-45504782D01*
X70081452Y-45473000D01*
X69918548Y-45473000D01*
X69918333Y-45473043D01*
X69190956Y-44745667D01*
X69174449Y-44725553D01*
X69094203Y-44659697D01*
X69002651Y-44610762D01*
X68903311Y-44580627D01*
X68825882Y-44573001D01*
X68800001Y-44570452D01*
X68774120Y-44573001D01*
X40225876Y-44573001D01*
X40199998Y-44570452D01*
X40174120Y-44573001D01*
X40174118Y-44573001D01*
X40096689Y-44580627D01*
X39997349Y-44610762D01*
X39905797Y-44659697D01*
X39825551Y-44725553D01*
X39809048Y-44745662D01*
X39781667Y-44773043D01*
X39781452Y-44773000D01*
X39618548Y-44773000D01*
X39458773Y-44804782D01*
X39308269Y-44867123D01*
X39172819Y-44957628D01*
X39057628Y-45072819D01*
X38967123Y-45208269D01*
X38904782Y-45358773D01*
X38873000Y-45518548D01*
X38873000Y-45681452D01*
X38904782Y-45841227D01*
X38967123Y-45991731D01*
X39045515Y-46109053D01*
X38972818Y-46157628D01*
X38857627Y-46272819D01*
X38767122Y-46408269D01*
X38704781Y-46558773D01*
X38672999Y-46718548D01*
X38672999Y-46881452D01*
X38704781Y-47041227D01*
X38767122Y-47191731D01*
X38857627Y-47327181D01*
X38972818Y-47442372D01*
X39108268Y-47532877D01*
X39258772Y-47595218D01*
X39418547Y-47627000D01*
X39581451Y-47627000D01*
X39741226Y-47595218D01*
X39891730Y-47532877D01*
X40027180Y-47442372D01*
X40142371Y-47327181D01*
X40142492Y-47327000D01*
X67714107Y-47327000D01*
X68155741Y-47768634D01*
X68155698Y-47768850D01*
X68155698Y-47931754D01*
X68187480Y-48091529D01*
X68249821Y-48242033D01*
X68340326Y-48377483D01*
X68455517Y-48492674D01*
X68590967Y-48583179D01*
X68720767Y-48636944D01*
X67784711Y-49573000D01*
X48442493Y-49573000D01*
X48442372Y-49572819D01*
X48327181Y-49457628D01*
X48191731Y-49367123D01*
X48041227Y-49304782D01*
X47881452Y-49273000D01*
X47718548Y-49273000D01*
X47558773Y-49304782D01*
X47408269Y-49367123D01*
X47272819Y-49457628D01*
X47157628Y-49572819D01*
X47067123Y-49708269D01*
X47004782Y-49858773D01*
X46973000Y-50018548D01*
X46973000Y-50181452D01*
X47004782Y-50341227D01*
X47067123Y-50491731D01*
X47157628Y-50627181D01*
X47272819Y-50742372D01*
X47408269Y-50832877D01*
X47558773Y-50895218D01*
X47718548Y-50927000D01*
X47881452Y-50927000D01*
X48041227Y-50895218D01*
X48191731Y-50832877D01*
X48327181Y-50742372D01*
X48442372Y-50627181D01*
X48442493Y-50627000D01*
X67432869Y-50627000D01*
X64566871Y-53492998D01*
X64465543Y-53492998D01*
X64598181Y-53404372D01*
X64713372Y-53289181D01*
X64803877Y-53153731D01*
X64866218Y-53003227D01*
X64898000Y-52843452D01*
X64898000Y-52680548D01*
X64866218Y-52520773D01*
X64803877Y-52370269D01*
X64713372Y-52234819D01*
X64598181Y-52119628D01*
X64462731Y-52029123D01*
X64312227Y-51966782D01*
X64152452Y-51935000D01*
X63989548Y-51935000D01*
X63829773Y-51966782D01*
X63679269Y-52029123D01*
X63543819Y-52119628D01*
X63428628Y-52234819D01*
X63428507Y-52235000D01*
X47880288Y-52235000D01*
X45426957Y-49781670D01*
X45427000Y-49781454D01*
X45427000Y-49618550D01*
X45395218Y-49458775D01*
X45332877Y-49308271D01*
X45242372Y-49172821D01*
X45127181Y-49057630D01*
X44991731Y-48967125D01*
X44841227Y-48904784D01*
X44703298Y-48877347D01*
X44828646Y-48751999D01*
X47382447Y-48751999D01*
X47472819Y-48842371D01*
X47608269Y-48932876D01*
X47758773Y-48995217D01*
X47918548Y-49026999D01*
X48081452Y-49026999D01*
X48241227Y-48995217D01*
X48391731Y-48932876D01*
X48527181Y-48842371D01*
X48642372Y-48727180D01*
X48732877Y-48591730D01*
X48795218Y-48441226D01*
X48827000Y-48281451D01*
X48827000Y-48118547D01*
X48795218Y-47958772D01*
X48732877Y-47808268D01*
X48642372Y-47672818D01*
X48527181Y-47557627D01*
X48391731Y-47467122D01*
X48241227Y-47404781D01*
X48081452Y-47372999D01*
X47918548Y-47372999D01*
X47758773Y-47404781D01*
X47608269Y-47467122D01*
X47472819Y-47557627D01*
X47382447Y-47647999D01*
X44627107Y-47647999D01*
X44600001Y-47645329D01*
X44572895Y-47647999D01*
X44572892Y-47647999D01*
X44491790Y-47655987D01*
X44387738Y-47687551D01*
X44291843Y-47738808D01*
X44207790Y-47807788D01*
X44190505Y-47828850D01*
X32446356Y-59573000D01*
X32318548Y-59573000D01*
X32158773Y-59604782D01*
X32008269Y-59667123D01*
X31872819Y-59757628D01*
X31757628Y-59872819D01*
X31667123Y-60008269D01*
X31604782Y-60158773D01*
X31573000Y-60318548D01*
X31573000Y-60481452D01*
X31604782Y-60641227D01*
X31667123Y-60791731D01*
X31730408Y-60886443D01*
X31596731Y-60797123D01*
X31446227Y-60734782D01*
X31286452Y-60703000D01*
X31123548Y-60703000D01*
X30963773Y-60734782D01*
X30813269Y-60797123D01*
X30677819Y-60887628D01*
X30562628Y-61002819D01*
X30472123Y-61138269D01*
X30409782Y-61288773D01*
X30378000Y-61448548D01*
X30378000Y-61611452D01*
X30378043Y-61611667D01*
X29000668Y-62989043D01*
X29000452Y-62989000D01*
X28837548Y-62989000D01*
X28677773Y-63020782D01*
X28527269Y-63083123D01*
X28391819Y-63173628D01*
X28276628Y-63288819D01*
X28186123Y-63424269D01*
X28123782Y-63574773D01*
X28092000Y-63734548D01*
X28092000Y-63897452D01*
X28123782Y-64057227D01*
X28186123Y-64207731D01*
X28276628Y-64343181D01*
X28391819Y-64458372D01*
X28527269Y-64548877D01*
X28677773Y-64611218D01*
X28837548Y-64643000D01*
X29000452Y-64643000D01*
X29160227Y-64611218D01*
X29296789Y-64554652D01*
X29292628Y-64558813D01*
X29202123Y-64694263D01*
X29139782Y-64844767D01*
X29108000Y-65004542D01*
X29108000Y-65167446D01*
X29139782Y-65327221D01*
X29202123Y-65477725D01*
X29292628Y-65613175D01*
X29407819Y-65728366D01*
X29543269Y-65818871D01*
X29693773Y-65881212D01*
X29853548Y-65912994D01*
X30016452Y-65912994D01*
X30176227Y-65881212D01*
X30326731Y-65818871D01*
X30462181Y-65728366D01*
X30552553Y-65637994D01*
X34934845Y-65637994D01*
X34918782Y-65676773D01*
X34887000Y-65836548D01*
X34887000Y-65999452D01*
X34887043Y-65999667D01*
X28818662Y-72068049D01*
X28798553Y-72084552D01*
X28770304Y-72118974D01*
X28732696Y-72164799D01*
X28683761Y-72256351D01*
X28653626Y-72355691D01*
X28643451Y-72459000D01*
X28646001Y-72484891D01*
X28646000Y-84763507D01*
X28645819Y-84763628D01*
X28530628Y-84878819D01*
X28440123Y-85014269D01*
X28377782Y-85164773D01*
X28346000Y-85324548D01*
X28346000Y-85487452D01*
X28377782Y-85647227D01*
X28440123Y-85797731D01*
X28530628Y-85933181D01*
X28645819Y-86048372D01*
X28781269Y-86138877D01*
X28931773Y-86201218D01*
X29091548Y-86233000D01*
X29254452Y-86233000D01*
X29414227Y-86201218D01*
X29564731Y-86138877D01*
X29700181Y-86048372D01*
X29815372Y-85933181D01*
X29905877Y-85797731D01*
X29968218Y-85647227D01*
X30000000Y-85487452D01*
X30000000Y-85324548D01*
X29968218Y-85164773D01*
X29905877Y-85014269D01*
X29815372Y-84878819D01*
X29700181Y-84763628D01*
X29700000Y-84763507D01*
X29700000Y-72677289D01*
X35632333Y-66744957D01*
X35632548Y-66745000D01*
X35795452Y-66745000D01*
X35955227Y-66713218D01*
X36105731Y-66650877D01*
X36241181Y-66560372D01*
X36356372Y-66445181D01*
X36446877Y-66309731D01*
X36509218Y-66159227D01*
X36541000Y-65999452D01*
X36541000Y-65836548D01*
X36509218Y-65676773D01*
X36493155Y-65637994D01*
X41001441Y-65637994D01*
X41091821Y-65728374D01*
X41227271Y-65818879D01*
X41377775Y-65881220D01*
X41537550Y-65913002D01*
X41700454Y-65913002D01*
X41860229Y-65881220D01*
X42010733Y-65818879D01*
X42146183Y-65728374D01*
X42261374Y-65613183D01*
X42265082Y-65607633D01*
X42287997Y-65605376D01*
X42387337Y-65575241D01*
X42478889Y-65526306D01*
X42559135Y-65460450D01*
X42575642Y-65440336D01*
X45089689Y-62926292D01*
X45109793Y-62909793D01*
X45126300Y-62889679D01*
X45209950Y-62806029D01*
X45259308Y-62745885D01*
X45308242Y-62654332D01*
X45338377Y-62554993D01*
X45348551Y-62451684D01*
X45338375Y-62348374D01*
X45308240Y-62249035D01*
X45262345Y-62163172D01*
X45262345Y-56482944D01*
X46804664Y-54940625D01*
X46804784Y-54941227D01*
X46867125Y-55091731D01*
X46957630Y-55227181D01*
X47072821Y-55342372D01*
X47208271Y-55432877D01*
X47358775Y-55495218D01*
X47518550Y-55527000D01*
X47681454Y-55527000D01*
X47841229Y-55495218D01*
X47991733Y-55432877D01*
X48127183Y-55342372D01*
X48242374Y-55227181D01*
X48255860Y-55206998D01*
X64608411Y-55206998D01*
X64634292Y-55209547D01*
X64660173Y-55206998D01*
X64737602Y-55199372D01*
X64759000Y-55192881D01*
X64848731Y-55327172D01*
X64963922Y-55442363D01*
X65099372Y-55532868D01*
X65249876Y-55595209D01*
X65409651Y-55626991D01*
X65572555Y-55626991D01*
X65732330Y-55595209D01*
X65882834Y-55532868D01*
X66018284Y-55442363D01*
X66133475Y-55327172D01*
X66133596Y-55326991D01*
X81714456Y-55326991D01*
X81168447Y-55873000D01*
X75233835Y-55873000D01*
X75146194Y-55846414D01*
X75068765Y-55838788D01*
X75042884Y-55836239D01*
X75017003Y-55838788D01*
X65353341Y-55838788D01*
X65272181Y-55757628D01*
X65136731Y-55667123D01*
X64986227Y-55604782D01*
X64826452Y-55573000D01*
X64663548Y-55573000D01*
X64503773Y-55604782D01*
X64353269Y-55667123D01*
X64217819Y-55757628D01*
X64102628Y-55872819D01*
X64012123Y-56008269D01*
X63949782Y-56158773D01*
X63918000Y-56318548D01*
X63918000Y-56481452D01*
X63949782Y-56641227D01*
X63957013Y-56658685D01*
X63866286Y-56640638D01*
X63703382Y-56640638D01*
X63543607Y-56672420D01*
X63393103Y-56734761D01*
X63257653Y-56825266D01*
X63142462Y-56940457D01*
X63051957Y-57075907D01*
X62989616Y-57226411D01*
X62957834Y-57386186D01*
X62957834Y-57518103D01*
X62823763Y-57544772D01*
X62673259Y-57607113D01*
X62537809Y-57697618D01*
X62422618Y-57812809D01*
X62335164Y-57943692D01*
X62241227Y-57904782D01*
X62081452Y-57873000D01*
X61918548Y-57873000D01*
X61758773Y-57904782D01*
X61608269Y-57967123D01*
X61472819Y-58057628D01*
X61357628Y-58172819D01*
X61267123Y-58308269D01*
X61204782Y-58458773D01*
X61173000Y-58618548D01*
X61173000Y-58781452D01*
X61204782Y-58941227D01*
X61267123Y-59091731D01*
X61357628Y-59227181D01*
X61472819Y-59342372D01*
X61608269Y-59432877D01*
X61758773Y-59495218D01*
X61918548Y-59527000D01*
X62081452Y-59527000D01*
X62088000Y-59525697D01*
X62094932Y-59531386D01*
X62105797Y-59540303D01*
X62197349Y-59589238D01*
X62296689Y-59619373D01*
X62399998Y-59629548D01*
X62425879Y-59626999D01*
X79702712Y-59626999D01*
X79616722Y-59712989D01*
X58443279Y-59712989D01*
X57661957Y-58931668D01*
X57662000Y-58931452D01*
X57662000Y-58768548D01*
X57630218Y-58608773D01*
X57567877Y-58458269D01*
X57477372Y-58322819D01*
X57362181Y-58207628D01*
X57226731Y-58117123D01*
X57076227Y-58054782D01*
X56916452Y-58023000D01*
X56753548Y-58023000D01*
X56593773Y-58054782D01*
X56443269Y-58117123D01*
X56307819Y-58207628D01*
X56207529Y-58307918D01*
X56167372Y-58247819D01*
X56052181Y-58132628D01*
X55916731Y-58042123D01*
X55766227Y-57979782D01*
X55606452Y-57948000D01*
X55443548Y-57948000D01*
X55443332Y-57948043D01*
X55240955Y-57745666D01*
X55224448Y-57725552D01*
X55144202Y-57659696D01*
X55052650Y-57610761D01*
X54953310Y-57580626D01*
X54875881Y-57573000D01*
X54850000Y-57570451D01*
X54824119Y-57573000D01*
X51442493Y-57573000D01*
X51442372Y-57572819D01*
X51327181Y-57457628D01*
X51191731Y-57367123D01*
X51041227Y-57304782D01*
X50881452Y-57273000D01*
X50718548Y-57273000D01*
X50558773Y-57304782D01*
X50408269Y-57367123D01*
X50272819Y-57457628D01*
X50157628Y-57572819D01*
X50067123Y-57708269D01*
X50004782Y-57858773D01*
X49973000Y-58018548D01*
X49973000Y-58181452D01*
X50004782Y-58341227D01*
X50067123Y-58491731D01*
X50157628Y-58627181D01*
X50224978Y-58694531D01*
X50199687Y-58711430D01*
X50084496Y-58826621D01*
X49993991Y-58962071D01*
X49931650Y-59112575D01*
X49899868Y-59272350D01*
X49899868Y-59435254D01*
X49931650Y-59595029D01*
X49993991Y-59745533D01*
X50084496Y-59880983D01*
X50199687Y-59996174D01*
X50335137Y-60086679D01*
X50485641Y-60149020D01*
X50645416Y-60180802D01*
X50808320Y-60180802D01*
X50968095Y-60149020D01*
X51118599Y-60086679D01*
X51254049Y-59996174D01*
X51369240Y-59880983D01*
X51369361Y-59880802D01*
X53521175Y-59880802D01*
X53567123Y-59991731D01*
X53657628Y-60127181D01*
X53772819Y-60242372D01*
X53908269Y-60332877D01*
X54058773Y-60395218D01*
X54218548Y-60427000D01*
X54381452Y-60427000D01*
X54541227Y-60395218D01*
X54691731Y-60332877D01*
X54827181Y-60242372D01*
X54942372Y-60127181D01*
X54942493Y-60127000D01*
X56458515Y-60127000D01*
X57385856Y-61054343D01*
X57402355Y-61074447D01*
X57482601Y-61140303D01*
X57574153Y-61189238D01*
X57645077Y-61210753D01*
X57673493Y-61219373D01*
X57776803Y-61229548D01*
X57802684Y-61226999D01*
X74291447Y-61226999D01*
X74273000Y-61319738D01*
X74273000Y-61482642D01*
X74273043Y-61482858D01*
X74222899Y-61533002D01*
X57316746Y-61533002D01*
X57327000Y-61481452D01*
X57327000Y-61318548D01*
X57295218Y-61158773D01*
X57232877Y-61008269D01*
X57142372Y-60872819D01*
X57027181Y-60757628D01*
X56891731Y-60667123D01*
X56741227Y-60604782D01*
X56581452Y-60573000D01*
X56418548Y-60573000D01*
X56258773Y-60604782D01*
X56108269Y-60667123D01*
X55972819Y-60757628D01*
X55857628Y-60872819D01*
X55857506Y-60873002D01*
X48742493Y-60873002D01*
X48742372Y-60872821D01*
X48627181Y-60757630D01*
X48491731Y-60667125D01*
X48341227Y-60604784D01*
X48181452Y-60573002D01*
X48018548Y-60573002D01*
X47858773Y-60604784D01*
X47708269Y-60667125D01*
X47606989Y-60734798D01*
X47606989Y-60338166D01*
X47668264Y-60276891D01*
X47668480Y-60276934D01*
X47831384Y-60276934D01*
X47991159Y-60245152D01*
X48141663Y-60182811D01*
X48277113Y-60092306D01*
X48392304Y-59977115D01*
X48482809Y-59841665D01*
X48545150Y-59691161D01*
X48576932Y-59531386D01*
X48576932Y-59368482D01*
X48545150Y-59208707D01*
X48482809Y-59058203D01*
X48392304Y-58922753D01*
X48277113Y-58807562D01*
X48141663Y-58717057D01*
X47991159Y-58654716D01*
X47831384Y-58622934D01*
X47668480Y-58622934D01*
X47508705Y-58654716D01*
X47358201Y-58717057D01*
X47246978Y-58791374D01*
X47246978Y-58027000D01*
X47281452Y-58027000D01*
X47441227Y-57995218D01*
X47591731Y-57932877D01*
X47727181Y-57842372D01*
X47842372Y-57727181D01*
X47932877Y-57591731D01*
X47995218Y-57441227D01*
X48027000Y-57281452D01*
X48027000Y-57118548D01*
X47995218Y-56958773D01*
X47932877Y-56808269D01*
X47842372Y-56672819D01*
X47727181Y-56557628D01*
X47591731Y-56467123D01*
X47441227Y-56404782D01*
X47281452Y-56373000D01*
X47118548Y-56373000D01*
X46958773Y-56404782D01*
X46808269Y-56467123D01*
X46672819Y-56557628D01*
X46557628Y-56672819D01*
X46467123Y-56808269D01*
X46404782Y-56958773D01*
X46373000Y-57118548D01*
X46373000Y-57281452D01*
X46373043Y-57281668D01*
X46365644Y-57289067D01*
X46345530Y-57305574D01*
X46279674Y-57385820D01*
X46243431Y-57453628D01*
X46230739Y-57477373D01*
X46200604Y-57576713D01*
X46190429Y-57680022D01*
X46192978Y-57705903D01*
X46192979Y-64170889D01*
X46190429Y-64196780D01*
X46200604Y-64300089D01*
X46230739Y-64399429D01*
X46263782Y-64461248D01*
X46279675Y-64490982D01*
X46345531Y-64571228D01*
X46365640Y-64587731D01*
X48196241Y-66418333D01*
X48196198Y-66418548D01*
X48196198Y-66581452D01*
X48227980Y-66741227D01*
X48290321Y-66891731D01*
X48380826Y-67027181D01*
X48496017Y-67142372D01*
X48631467Y-67232877D01*
X48781971Y-67295218D01*
X48941746Y-67327000D01*
X49104650Y-67327000D01*
X49264425Y-67295218D01*
X49414929Y-67232877D01*
X49550379Y-67142372D01*
X49665570Y-67027181D01*
X49756075Y-66891731D01*
X49818416Y-66741227D01*
X49850198Y-66581452D01*
X49850198Y-66418548D01*
X49818416Y-66258773D01*
X49756075Y-66108269D01*
X49665570Y-65972819D01*
X49550379Y-65857628D01*
X49414929Y-65767123D01*
X49264425Y-65704782D01*
X49104650Y-65673000D01*
X48941746Y-65673000D01*
X48941531Y-65673043D01*
X48757452Y-65488964D01*
X48827181Y-65442372D01*
X48942372Y-65327181D01*
X49032877Y-65191731D01*
X49095218Y-65041227D01*
X49127000Y-64881452D01*
X49127000Y-64718548D01*
X49095218Y-64558773D01*
X49032877Y-64408269D01*
X48942372Y-64272819D01*
X48827181Y-64157628D01*
X48691731Y-64067123D01*
X48541227Y-64004782D01*
X48381452Y-63973000D01*
X48218548Y-63973000D01*
X48218332Y-63973043D01*
X47606989Y-63361700D01*
X47606989Y-62065206D01*
X47708269Y-62132879D01*
X47858773Y-62195220D01*
X48018548Y-62227002D01*
X48181452Y-62227002D01*
X48341227Y-62195220D01*
X48491731Y-62132879D01*
X48627181Y-62042374D01*
X48742372Y-61927183D01*
X48742493Y-61927002D01*
X50883254Y-61927002D01*
X50873000Y-61978550D01*
X50873000Y-62141454D01*
X50904782Y-62301229D01*
X50967123Y-62451733D01*
X51057628Y-62587183D01*
X51172819Y-62702374D01*
X51308269Y-62792879D01*
X51458773Y-62855220D01*
X51618548Y-62887002D01*
X51781452Y-62887002D01*
X51941227Y-62855220D01*
X52091731Y-62792879D01*
X52227181Y-62702374D01*
X52342372Y-62587183D01*
X52342493Y-62587002D01*
X53443445Y-62587002D01*
X53357628Y-62672819D01*
X53267123Y-62808269D01*
X53204782Y-62958773D01*
X53173000Y-63118548D01*
X53173000Y-63281452D01*
X53204782Y-63441227D01*
X53267123Y-63591731D01*
X53357628Y-63727181D01*
X53472819Y-63842372D01*
X53608269Y-63932877D01*
X53758773Y-63995218D01*
X53918548Y-64027000D01*
X54081452Y-64027000D01*
X54241227Y-63995218D01*
X54391731Y-63932877D01*
X54527181Y-63842372D01*
X54642372Y-63727181D01*
X54642493Y-63727000D01*
X54936841Y-63727000D01*
X49790843Y-68873000D01*
X36987493Y-68873000D01*
X36987372Y-68872819D01*
X36872181Y-68757628D01*
X36736731Y-68667123D01*
X36586227Y-68604782D01*
X36426452Y-68573000D01*
X36263548Y-68573000D01*
X36103773Y-68604782D01*
X35953269Y-68667123D01*
X35817819Y-68757628D01*
X35702628Y-68872819D01*
X35612123Y-69008269D01*
X35549782Y-69158773D01*
X35518000Y-69318548D01*
X35518000Y-69481452D01*
X35549782Y-69641227D01*
X35612123Y-69791731D01*
X35702628Y-69927181D01*
X35817819Y-70042372D01*
X35818000Y-70042493D01*
X35818001Y-77761708D01*
X31286668Y-82293043D01*
X31286452Y-82293000D01*
X31123548Y-82293000D01*
X30963773Y-82324782D01*
X30813269Y-82387123D01*
X30677819Y-82477628D01*
X30562628Y-82592819D01*
X30472123Y-82728269D01*
X30409782Y-82878773D01*
X30378000Y-83038548D01*
X30378000Y-83201452D01*
X30409782Y-83361227D01*
X30472123Y-83511731D01*
X30562628Y-83647181D01*
X30677819Y-83762372D01*
X30813269Y-83852877D01*
X30963773Y-83915218D01*
X31123548Y-83947000D01*
X31286452Y-83947000D01*
X31446227Y-83915218D01*
X31596731Y-83852877D01*
X31732181Y-83762372D01*
X31847372Y-83647181D01*
X31937877Y-83511731D01*
X32000218Y-83361227D01*
X32032000Y-83201452D01*
X32032000Y-83038548D01*
X32031957Y-83038332D01*
X36699345Y-78370946D01*
X36719448Y-78354448D01*
X36785304Y-78274202D01*
X36834239Y-78182650D01*
X36864374Y-78083310D01*
X36872000Y-78005881D01*
X36874549Y-77980000D01*
X36872000Y-77954119D01*
X36872000Y-70042493D01*
X36872181Y-70042372D01*
X36987372Y-69927181D01*
X36987493Y-69927000D01*
X41159365Y-69927000D01*
X41104782Y-70058775D01*
X41073000Y-70218550D01*
X41073000Y-70381454D01*
X41104782Y-70541229D01*
X41167123Y-70691733D01*
X41257628Y-70827183D01*
X41372819Y-70942374D01*
X41508269Y-71032879D01*
X41658773Y-71095220D01*
X41818548Y-71127002D01*
X41981452Y-71127002D01*
X42141227Y-71095220D01*
X42291731Y-71032879D01*
X42427181Y-70942374D01*
X42542372Y-70827183D01*
X42609312Y-70727000D01*
X46557507Y-70727000D01*
X46557628Y-70727181D01*
X46672819Y-70842372D01*
X46808269Y-70932877D01*
X46958773Y-70995218D01*
X47118548Y-71027000D01*
X47281452Y-71027000D01*
X47441227Y-70995218D01*
X47591731Y-70932877D01*
X47727181Y-70842372D01*
X47842372Y-70727181D01*
X47932877Y-70591731D01*
X47995218Y-70441227D01*
X48027000Y-70281452D01*
X48027000Y-70118548D01*
X47995218Y-69958773D01*
X47982057Y-69927000D01*
X49983251Y-69927000D01*
X50009132Y-69929549D01*
X50035013Y-69927000D01*
X50112442Y-69919374D01*
X50211782Y-69889239D01*
X50303334Y-69840304D01*
X50383580Y-69774448D01*
X50400087Y-69754334D01*
X52398000Y-67756421D01*
X52398001Y-69470932D01*
X52359771Y-69563227D01*
X52327989Y-69723002D01*
X52327989Y-69885906D01*
X52359771Y-70045681D01*
X52422112Y-70196185D01*
X52512617Y-70331635D01*
X52627808Y-70446826D01*
X52763258Y-70537331D01*
X52913762Y-70599672D01*
X53073537Y-70631454D01*
X53236441Y-70631454D01*
X53396216Y-70599672D01*
X53546720Y-70537331D01*
X53682170Y-70446826D01*
X53797361Y-70331635D01*
X53887866Y-70196185D01*
X53950207Y-70045681D01*
X53981989Y-69885906D01*
X53981989Y-69723002D01*
X53950207Y-69563227D01*
X53887866Y-69412723D01*
X53797361Y-69277273D01*
X53752000Y-69231912D01*
X53752000Y-67355422D01*
X53952422Y-67155000D01*
X66643643Y-67155000D01*
X66727269Y-67210877D01*
X66877773Y-67273218D01*
X67037548Y-67305000D01*
X67200452Y-67305000D01*
X67360227Y-67273218D01*
X67510731Y-67210877D01*
X67646181Y-67120372D01*
X67761372Y-67005181D01*
X67851877Y-66869731D01*
X67914218Y-66719227D01*
X67946000Y-66559452D01*
X67946000Y-66396548D01*
X67915458Y-66243007D01*
X80954500Y-66243007D01*
X80954621Y-66243188D01*
X81069812Y-66358379D01*
X81205262Y-66448884D01*
X81355766Y-66511225D01*
X81515541Y-66543007D01*
X81678445Y-66543007D01*
X81838220Y-66511225D01*
X81988724Y-66448884D01*
X82124174Y-66358379D01*
X82239365Y-66243188D01*
X82329870Y-66107738D01*
X82392211Y-65957234D01*
X82423993Y-65797459D01*
X82423993Y-65634555D01*
X82392211Y-65474780D01*
X82329870Y-65324276D01*
X82239365Y-65188826D01*
X82124174Y-65073635D01*
X81988724Y-64983130D01*
X81838220Y-64920789D01*
X81678445Y-64889007D01*
X81515541Y-64889007D01*
X81355766Y-64920789D01*
X81205262Y-64983130D01*
X81069812Y-65073635D01*
X80954621Y-65188826D01*
X80954500Y-65189007D01*
X58393985Y-65189007D01*
X57506665Y-64301689D01*
X57506708Y-64301473D01*
X57506708Y-64138569D01*
X57496452Y-64087011D01*
X79814108Y-64087011D01*
X79839989Y-64089560D01*
X79865870Y-64087011D01*
X79943299Y-64079385D01*
X80042639Y-64049250D01*
X80134191Y-64000315D01*
X80214437Y-63934459D01*
X80230944Y-63914345D01*
X80768290Y-63377000D01*
X81288250Y-63377000D01*
X81277994Y-63428558D01*
X81277994Y-63591462D01*
X81309776Y-63751237D01*
X81372117Y-63901741D01*
X81462622Y-64037191D01*
X81577813Y-64152382D01*
X81713263Y-64242887D01*
X81863767Y-64305228D01*
X82023542Y-64337010D01*
X82186446Y-64337010D01*
X82346221Y-64305228D01*
X82496725Y-64242887D01*
X82607980Y-64168548D01*
X89073000Y-64168548D01*
X89073000Y-64331452D01*
X89104782Y-64491227D01*
X89167123Y-64641731D01*
X89257628Y-64777181D01*
X89372819Y-64892372D01*
X89508269Y-64982877D01*
X89658773Y-65045218D01*
X89818548Y-65077000D01*
X89981452Y-65077000D01*
X90141227Y-65045218D01*
X90291731Y-64982877D01*
X90427181Y-64892372D01*
X90542372Y-64777181D01*
X90632877Y-64641731D01*
X90695218Y-64491227D01*
X90727000Y-64331452D01*
X90727000Y-64168548D01*
X90726957Y-64168332D01*
X93735731Y-61159558D01*
X104973000Y-61159558D01*
X104973000Y-61322462D01*
X105004782Y-61482237D01*
X105067123Y-61632741D01*
X105157628Y-61768191D01*
X105272819Y-61883382D01*
X105408269Y-61973887D01*
X105473001Y-62000700D01*
X105473000Y-62957507D01*
X105472819Y-62957628D01*
X105357628Y-63072819D01*
X105267123Y-63208269D01*
X105204782Y-63358773D01*
X105173000Y-63518548D01*
X105173000Y-63681452D01*
X105204782Y-63841227D01*
X105267123Y-63991731D01*
X105357628Y-64127181D01*
X105472819Y-64242372D01*
X105608269Y-64332877D01*
X105758773Y-64395218D01*
X105918548Y-64427000D01*
X106081452Y-64427000D01*
X106241227Y-64395218D01*
X106391731Y-64332877D01*
X106527181Y-64242372D01*
X106642372Y-64127181D01*
X106732877Y-63991731D01*
X106795218Y-63841227D01*
X106827000Y-63681452D01*
X106827000Y-63518548D01*
X106795218Y-63358773D01*
X106732877Y-63208269D01*
X106642372Y-63072819D01*
X106527181Y-62957628D01*
X106527000Y-62957507D01*
X106527000Y-61641537D01*
X106532877Y-61632741D01*
X106595218Y-61482237D01*
X106627000Y-61322462D01*
X106627000Y-61159558D01*
X106595218Y-60999783D01*
X106532877Y-60849279D01*
X106442372Y-60713829D01*
X106327181Y-60598638D01*
X106191731Y-60508133D01*
X106041227Y-60445792D01*
X105881452Y-60414010D01*
X105718548Y-60414010D01*
X105558773Y-60445792D01*
X105408269Y-60508133D01*
X105272819Y-60598638D01*
X105157628Y-60713829D01*
X105067123Y-60849279D01*
X105004782Y-60999783D01*
X104973000Y-61159558D01*
X93735731Y-61159558D01*
X97445742Y-57449548D01*
X100817000Y-57449548D01*
X100817000Y-57612452D01*
X100848782Y-57772227D01*
X100911123Y-57922731D01*
X101001628Y-58058181D01*
X101116819Y-58173372D01*
X101252269Y-58263877D01*
X101402773Y-58326218D01*
X101562548Y-58358000D01*
X101725452Y-58358000D01*
X101885227Y-58326218D01*
X102035731Y-58263877D01*
X102171181Y-58173372D01*
X102286372Y-58058181D01*
X102376877Y-57922731D01*
X102439218Y-57772227D01*
X102471000Y-57612452D01*
X102471000Y-57449548D01*
X102439218Y-57289773D01*
X102376877Y-57139269D01*
X102286372Y-57003819D01*
X102171181Y-56888628D01*
X102171000Y-56888507D01*
X102171000Y-55574289D01*
X106218333Y-51526957D01*
X106218548Y-51527000D01*
X106381452Y-51527000D01*
X106541227Y-51495218D01*
X106691731Y-51432877D01*
X106827181Y-51342372D01*
X106942372Y-51227181D01*
X107032877Y-51091731D01*
X107095218Y-50941227D01*
X107127000Y-50781452D01*
X107127000Y-50618548D01*
X107095218Y-50458773D01*
X107032877Y-50308269D01*
X106942372Y-50172819D01*
X106827181Y-50057628D01*
X106691731Y-49967123D01*
X106541227Y-49904782D01*
X106381452Y-49873000D01*
X106218548Y-49873000D01*
X106058773Y-49904782D01*
X105908269Y-49967123D01*
X105772819Y-50057628D01*
X105657628Y-50172819D01*
X105567123Y-50308269D01*
X105504782Y-50458773D01*
X105473000Y-50618548D01*
X105473000Y-50781452D01*
X105473043Y-50781667D01*
X101289662Y-54965049D01*
X101269553Y-54981552D01*
X101220587Y-55041218D01*
X101203696Y-55061799D01*
X101154761Y-55153351D01*
X101124626Y-55252691D01*
X101114451Y-55356000D01*
X101117001Y-55381890D01*
X101117000Y-56888507D01*
X101116819Y-56888628D01*
X101001628Y-57003819D01*
X100911123Y-57139269D01*
X100848782Y-57289773D01*
X100817000Y-57449548D01*
X97445742Y-57449548D01*
X99454345Y-55440946D01*
X99474448Y-55424448D01*
X99540304Y-55344202D01*
X99589239Y-55252650D01*
X99619374Y-55153310D01*
X99627000Y-55075881D01*
X99627000Y-55075880D01*
X99629549Y-55050000D01*
X99627000Y-55024119D01*
X99627000Y-48968289D01*
X100243333Y-48351957D01*
X100243548Y-48352000D01*
X100406452Y-48352000D01*
X100566227Y-48320218D01*
X100716731Y-48257877D01*
X100852181Y-48167372D01*
X100967372Y-48052181D01*
X101057877Y-47916731D01*
X101120218Y-47766227D01*
X101152000Y-47606452D01*
X101152000Y-47443548D01*
X101120218Y-47283773D01*
X101057877Y-47133269D01*
X100967372Y-46997819D01*
X100852181Y-46882628D01*
X100716731Y-46792123D01*
X100566227Y-46729782D01*
X100406452Y-46698000D01*
X100243548Y-46698000D01*
X100083773Y-46729782D01*
X99933269Y-46792123D01*
X99797819Y-46882628D01*
X99682628Y-46997819D01*
X99592123Y-47133269D01*
X99529782Y-47283773D01*
X99498000Y-47443548D01*
X99498000Y-47606452D01*
X99498043Y-47606667D01*
X98745662Y-48359049D01*
X98725553Y-48375552D01*
X98680057Y-48430989D01*
X98659696Y-48455799D01*
X98610761Y-48547351D01*
X98580626Y-48646691D01*
X98570451Y-48750000D01*
X98573001Y-48775891D01*
X98573000Y-54831709D01*
X89981668Y-63423043D01*
X89981452Y-63423000D01*
X89818548Y-63423000D01*
X89658773Y-63454782D01*
X89508269Y-63517123D01*
X89372819Y-63607628D01*
X89257628Y-63722819D01*
X89167123Y-63858269D01*
X89104782Y-64008773D01*
X89073000Y-64168548D01*
X82607980Y-64168548D01*
X82632175Y-64152382D01*
X82747366Y-64037191D01*
X82747487Y-64037010D01*
X88603109Y-64037010D01*
X88628990Y-64039559D01*
X88654871Y-64037010D01*
X88732300Y-64029384D01*
X88831640Y-63999249D01*
X88923192Y-63950314D01*
X89003438Y-63884458D01*
X89019945Y-63864344D01*
X93104339Y-59779951D01*
X93124448Y-59763448D01*
X93190304Y-59683202D01*
X93239239Y-59591650D01*
X93269374Y-59492310D01*
X93277000Y-59414881D01*
X93279549Y-59389001D01*
X93277000Y-59363120D01*
X93277000Y-53068289D01*
X95918333Y-50426957D01*
X95918548Y-50427000D01*
X96081452Y-50427000D01*
X96241227Y-50395218D01*
X96391731Y-50332877D01*
X96527181Y-50242372D01*
X96642372Y-50127181D01*
X96732877Y-49991731D01*
X96795218Y-49841227D01*
X96827000Y-49681452D01*
X96827000Y-49518548D01*
X96795218Y-49358773D01*
X96732877Y-49208269D01*
X96654484Y-49090946D01*
X96727181Y-49042372D01*
X96842372Y-48927181D01*
X96932877Y-48791731D01*
X96995218Y-48641227D01*
X97027000Y-48481452D01*
X97027000Y-48318548D01*
X96995218Y-48158773D01*
X96932877Y-48008269D01*
X96842372Y-47872819D01*
X96727181Y-47757628D01*
X96591731Y-47667123D01*
X96441227Y-47604782D01*
X96281452Y-47573000D01*
X96118548Y-47573000D01*
X95958773Y-47604782D01*
X95808269Y-47667123D01*
X95672819Y-47757628D01*
X95557628Y-47872819D01*
X95467123Y-48008269D01*
X95404782Y-48158773D01*
X95373000Y-48318548D01*
X95373000Y-48481452D01*
X95373043Y-48481667D01*
X91712539Y-52142172D01*
X89810011Y-52142172D01*
X89779304Y-52125759D01*
X89679964Y-52095624D01*
X89602535Y-52087998D01*
X89576654Y-52085449D01*
X89550773Y-52087998D01*
X87462292Y-52087998D01*
X87513290Y-52037000D01*
X90889119Y-52037000D01*
X90915000Y-52039549D01*
X90940881Y-52037000D01*
X91018310Y-52029374D01*
X91117650Y-51999239D01*
X91209202Y-51950304D01*
X91289448Y-51884448D01*
X91305955Y-51864334D01*
X95843333Y-47326957D01*
X95843548Y-47327000D01*
X96006452Y-47327000D01*
X96166227Y-47295218D01*
X96316731Y-47232877D01*
X96452181Y-47142372D01*
X96567372Y-47027181D01*
X96657877Y-46891731D01*
X96720218Y-46741227D01*
X96752000Y-46581452D01*
X96752000Y-46418548D01*
X96720218Y-46258773D01*
X96657877Y-46108269D01*
X96567372Y-45972819D01*
X96452181Y-45857628D01*
X96316731Y-45767123D01*
X96166227Y-45704782D01*
X96036366Y-45678950D01*
X96438359Y-45276957D01*
X96438574Y-45277000D01*
X96601478Y-45277000D01*
X96761253Y-45245218D01*
X96911757Y-45182877D01*
X97047207Y-45092372D01*
X97162398Y-44977181D01*
X97252903Y-44841731D01*
X97315244Y-44691227D01*
X97347026Y-44531452D01*
X97347026Y-44368548D01*
X97315244Y-44208773D01*
X97252903Y-44058269D01*
X97162398Y-43922819D01*
X97054566Y-43814987D01*
X97162372Y-43707181D01*
X97252877Y-43571731D01*
X97315218Y-43421227D01*
X97347000Y-43261452D01*
X97347000Y-43098548D01*
X97315218Y-42938773D01*
X97252877Y-42788269D01*
X97162372Y-42652819D01*
X97047181Y-42537628D01*
X96911731Y-42447123D01*
X96761227Y-42384782D01*
X96601452Y-42353000D01*
X96438548Y-42353000D01*
X96278773Y-42384782D01*
X96128269Y-42447123D01*
X95992819Y-42537628D01*
X95877628Y-42652819D01*
X95787123Y-42788269D01*
X95777000Y-42812708D01*
X95777000Y-42552493D01*
X95777181Y-42552372D01*
X95892372Y-42437181D01*
X95982877Y-42301731D01*
X96045218Y-42151227D01*
X96077000Y-41991452D01*
X96077000Y-41828548D01*
X96045218Y-41668773D01*
X95982877Y-41518269D01*
X95892372Y-41382819D01*
X95784553Y-41275000D01*
X95892372Y-41167181D01*
X95982877Y-41031731D01*
X96045218Y-40881227D01*
X96077000Y-40721452D01*
X96077000Y-40558548D01*
X96066746Y-40506998D01*
X97461709Y-40506998D01*
X97673043Y-40718332D01*
X97673000Y-40718548D01*
X97673000Y-40881452D01*
X97704782Y-41041227D01*
X97767123Y-41191731D01*
X97857628Y-41327181D01*
X97972819Y-41442372D01*
X98108269Y-41532877D01*
X98258773Y-41595218D01*
X98418548Y-41627000D01*
X98581452Y-41627000D01*
X98741227Y-41595218D01*
X98891731Y-41532877D01*
X99027181Y-41442372D01*
X99142372Y-41327181D01*
X99232877Y-41191731D01*
X99295218Y-41041227D01*
X99327000Y-40881452D01*
X99327000Y-40718548D01*
X99295218Y-40558773D01*
X99232877Y-40408269D01*
X99142372Y-40272819D01*
X99027181Y-40157628D01*
X98891731Y-40067123D01*
X98741227Y-40004782D01*
X98581452Y-39973000D01*
X98418548Y-39973000D01*
X98418332Y-39973043D01*
X98070953Y-39625664D01*
X98054446Y-39605550D01*
X97974200Y-39539694D01*
X97882648Y-39490759D01*
X97783308Y-39460624D01*
X97705879Y-39452998D01*
X97679998Y-39450449D01*
X97654117Y-39452998D01*
X84970885Y-39452998D01*
X84945004Y-39450449D01*
X84919123Y-39452998D01*
X84841694Y-39460624D01*
X84742354Y-39490759D01*
X84650802Y-39539694D01*
X84570556Y-39605550D01*
X84554049Y-39625664D01*
X84506670Y-39673043D01*
X84506454Y-39673000D01*
X84343550Y-39673000D01*
X84183775Y-39704782D01*
X84033271Y-39767123D01*
X83897821Y-39857628D01*
X83782630Y-39972819D01*
X83692125Y-40108269D01*
X83629784Y-40258773D01*
X83598002Y-40418548D01*
X83598002Y-40581452D01*
X83629784Y-40741227D01*
X83692125Y-40891731D01*
X83782630Y-41027181D01*
X83897821Y-41142372D01*
X84033271Y-41232877D01*
X84183775Y-41295218D01*
X84343550Y-41327000D01*
X84506454Y-41327000D01*
X84666229Y-41295218D01*
X84816733Y-41232877D01*
X84952183Y-41142372D01*
X85067374Y-41027181D01*
X85157879Y-40891731D01*
X85220220Y-40741227D01*
X85252002Y-40581452D01*
X85252002Y-40506998D01*
X94072027Y-40506998D01*
X92605649Y-41973377D01*
X92585540Y-41989880D01*
X92528048Y-42059934D01*
X92519683Y-42070127D01*
X92470748Y-42161679D01*
X92440613Y-42261019D01*
X92430438Y-42364328D01*
X92432988Y-42390218D01*
X92432987Y-43277408D01*
X88302000Y-47408395D01*
X88302000Y-44142493D01*
X88302181Y-44142372D01*
X88417372Y-44027181D01*
X88507877Y-43891731D01*
X88570218Y-43741227D01*
X88602000Y-43581452D01*
X88602000Y-43418548D01*
X88570218Y-43258773D01*
X88507877Y-43108269D01*
X88417372Y-42972819D01*
X88302181Y-42857628D01*
X88166731Y-42767123D01*
X88016227Y-42704782D01*
X87856452Y-42673000D01*
X87693548Y-42673000D01*
X87533773Y-42704782D01*
X87383269Y-42767123D01*
X87247819Y-42857628D01*
X87132628Y-42972819D01*
X87042123Y-43108269D01*
X86979782Y-43258773D01*
X86948000Y-43418548D01*
X86948000Y-43581452D01*
X86979782Y-43741227D01*
X87042123Y-43891731D01*
X87132628Y-44027181D01*
X87247819Y-44142372D01*
X87248001Y-44142494D01*
X87248000Y-47772394D01*
X86284511Y-48735884D01*
X86242372Y-48672819D01*
X86127181Y-48557628D01*
X85991731Y-48467123D01*
X85841227Y-48404782D01*
X85681452Y-48373000D01*
X85518548Y-48373000D01*
X85358773Y-48404782D01*
X85208269Y-48467123D01*
X85072819Y-48557628D01*
X84957628Y-48672819D01*
X84957507Y-48673000D01*
X76900877Y-48673000D01*
X76874999Y-48670451D01*
X76849121Y-48673000D01*
X76849119Y-48673000D01*
X76771690Y-48680626D01*
X76672350Y-48710761D01*
X76580798Y-48759696D01*
X76500552Y-48825552D01*
X76484049Y-48845661D01*
X74426668Y-50903043D01*
X74426452Y-50903000D01*
X74263548Y-50903000D01*
X74103773Y-50934782D01*
X73953269Y-50997123D01*
X73817819Y-51087628D01*
X73702628Y-51202819D01*
X73612123Y-51338269D01*
X73549782Y-51488773D01*
X73518000Y-51648548D01*
X73518000Y-51811452D01*
X73549782Y-51971227D01*
X73612123Y-52121731D01*
X73673107Y-52213000D01*
X68577493Y-52213000D01*
X68577372Y-52212819D01*
X68462181Y-52097628D01*
X68326731Y-52007123D01*
X68176227Y-51944782D01*
X68124989Y-51934590D01*
X73684899Y-46374680D01*
X73689782Y-46399227D01*
X73752123Y-46549731D01*
X73842628Y-46685181D01*
X73957819Y-46800372D01*
X74093269Y-46890877D01*
X74243773Y-46953218D01*
X74403548Y-46985000D01*
X74566452Y-46985000D01*
X74726227Y-46953218D01*
X74876731Y-46890877D01*
X75012181Y-46800372D01*
X75127372Y-46685181D01*
X75217877Y-46549731D01*
X75280218Y-46399227D01*
X75312000Y-46239452D01*
X75312000Y-46076548D01*
X75311957Y-46076332D01*
X79492663Y-41895628D01*
X79571731Y-41862877D01*
X79707181Y-41772372D01*
X79822372Y-41657181D01*
X79912877Y-41521731D01*
X79975218Y-41371227D01*
X80007000Y-41211452D01*
X80007000Y-41048548D01*
X79975218Y-40888773D01*
X79912877Y-40738269D01*
X79822372Y-40602819D01*
X79707181Y-40487628D01*
X79626117Y-40433463D01*
X81032581Y-39026999D01*
X93554096Y-39026999D01*
X93579977Y-39029548D01*
X93605858Y-39026999D01*
X93683287Y-39019373D01*
X93782627Y-38989238D01*
X93874179Y-38940303D01*
X93891976Y-38925697D01*
X93898524Y-38927000D01*
X94061428Y-38927000D01*
X94221203Y-38895218D01*
X94371707Y-38832877D01*
X94507157Y-38742372D01*
X94622348Y-38627181D01*
X94712853Y-38491731D01*
X94775194Y-38341227D01*
X94806976Y-38181452D01*
X94806976Y-38018548D01*
X94775194Y-37858773D01*
X94712853Y-37708269D01*
X94622348Y-37572819D01*
X94507157Y-37457628D01*
X94371707Y-37367123D01*
X94221203Y-37304782D01*
X94061428Y-37273000D01*
X93898524Y-37273000D01*
X93738749Y-37304782D01*
X93588245Y-37367123D01*
X93452795Y-37457628D01*
X93337604Y-37572819D01*
X93247099Y-37708269D01*
X93184758Y-37858773D01*
X93162036Y-37972999D01*
X81577450Y-37972999D01*
X84733449Y-34817000D01*
X89527515Y-34817000D01*
X89527636Y-34817181D01*
X89642827Y-34932372D01*
X89778277Y-35022877D01*
X89928781Y-35085218D01*
X90088556Y-35117000D01*
X90251460Y-35117000D01*
X90411235Y-35085218D01*
X90561739Y-35022877D01*
X90697189Y-34932372D01*
X90812380Y-34817181D01*
X90902885Y-34681731D01*
X90965226Y-34531227D01*
X90997008Y-34371452D01*
X90997008Y-34208548D01*
X90986754Y-34156999D01*
X94377411Y-34156999D01*
X97013067Y-36792656D01*
X97013024Y-36792871D01*
X97013024Y-36955775D01*
X97044806Y-37115550D01*
X97107147Y-37266054D01*
X97197652Y-37401504D01*
X97312843Y-37516695D01*
X97448293Y-37607200D01*
X97598797Y-37669541D01*
X97758572Y-37701323D01*
X97921476Y-37701323D01*
X98081251Y-37669541D01*
X98231755Y-37607200D01*
X98367205Y-37516695D01*
X98482396Y-37401504D01*
X98572901Y-37266054D01*
X98635242Y-37115550D01*
X98667024Y-36955775D01*
X98667024Y-36792871D01*
X98635242Y-36633096D01*
X98572901Y-36482592D01*
X98482396Y-36347142D01*
X98367205Y-36231951D01*
X98231755Y-36141446D01*
X98081251Y-36079105D01*
X97921476Y-36047323D01*
X97758572Y-36047323D01*
X97758357Y-36047366D01*
X94986655Y-33275665D01*
X94970148Y-33255551D01*
X94965821Y-33252000D01*
X102228157Y-33252000D01*
X107073905Y-38097749D01*
X107092123Y-38141731D01*
X107182628Y-38277181D01*
X107297819Y-38392372D01*
X107433269Y-38482877D01*
X107477253Y-38501096D01*
X109637987Y-40661831D01*
X109637986Y-63281439D01*
X109541731Y-63217123D01*
X109391227Y-63154782D01*
X109231452Y-63123000D01*
X109068548Y-63123000D01*
X108908773Y-63154782D01*
X108758269Y-63217123D01*
X108622819Y-63307628D01*
X108507628Y-63422819D01*
X108417123Y-63558269D01*
X108354782Y-63708773D01*
X108323000Y-63868548D01*
X108323000Y-64031452D01*
X108323043Y-64031667D01*
X107945661Y-64409049D01*
X107925553Y-64425552D01*
X107871857Y-64490981D01*
X107859696Y-64505799D01*
X107810761Y-64597351D01*
X107780626Y-64696691D01*
X107770451Y-64800000D01*
X107773001Y-64825891D01*
X107773001Y-72003448D01*
X107727181Y-71957628D01*
X107591731Y-71867123D01*
X107441227Y-71804782D01*
X107281452Y-71773000D01*
X107118548Y-71773000D01*
X106958773Y-71804782D01*
X106808269Y-71867123D01*
X106672819Y-71957628D01*
X106557628Y-72072819D01*
X106467123Y-72208269D01*
X106404782Y-72358773D01*
X106373000Y-72518548D01*
X106373000Y-72681452D01*
X106404782Y-72841227D01*
X106467123Y-72991731D01*
X106523000Y-73075357D01*
X106523001Y-78319577D01*
X104845225Y-79997353D01*
X103279874Y-79997353D01*
X103554338Y-79722890D01*
X103574447Y-79706387D01*
X103640303Y-79626141D01*
X103689238Y-79534589D01*
X103719373Y-79435249D01*
X103726999Y-79357820D01*
X103726999Y-79357818D01*
X103729548Y-79331940D01*
X103726999Y-79306062D01*
X103726999Y-71225879D01*
X103729548Y-71199998D01*
X103719373Y-71096689D01*
X103689238Y-70997349D01*
X103640303Y-70905797D01*
X103638261Y-70903309D01*
X103625697Y-70888000D01*
X103627000Y-70881452D01*
X103627000Y-70718548D01*
X103595218Y-70558773D01*
X103532877Y-70408269D01*
X103442372Y-70272819D01*
X103327181Y-70157628D01*
X103191731Y-70067123D01*
X103041227Y-70004782D01*
X102881452Y-69973000D01*
X102718548Y-69973000D01*
X102558773Y-70004782D01*
X102408269Y-70067123D01*
X102272819Y-70157628D01*
X102157628Y-70272819D01*
X102067123Y-70408269D01*
X102004782Y-70558773D01*
X101973000Y-70718548D01*
X101973000Y-70881452D01*
X102004782Y-71041227D01*
X102067123Y-71191731D01*
X102157628Y-71327181D01*
X102272819Y-71442372D01*
X102297473Y-71458845D01*
X102310761Y-71502649D01*
X102359696Y-71594202D01*
X102425552Y-71674448D01*
X102505798Y-71740304D01*
X102597350Y-71789239D01*
X102672999Y-71812187D01*
X102673000Y-77618487D01*
X102592372Y-77497819D01*
X102477181Y-77382628D01*
X102341731Y-77292123D01*
X102191227Y-77229782D01*
X102092582Y-77210160D01*
X101977000Y-77094578D01*
X101977000Y-72008241D01*
X101980274Y-71974999D01*
X101977000Y-71941757D01*
X101977000Y-71941748D01*
X101967204Y-71842285D01*
X101928492Y-71714670D01*
X101865628Y-71597059D01*
X101781027Y-71493973D01*
X101755196Y-71472774D01*
X100314840Y-70032418D01*
X100295218Y-69933773D01*
X100232877Y-69783269D01*
X100142372Y-69647819D01*
X100027181Y-69532628D01*
X99920060Y-69461052D01*
X99925202Y-69458304D01*
X100005448Y-69392448D01*
X100021955Y-69372334D01*
X104624889Y-64769401D01*
X104673231Y-64749377D01*
X104808681Y-64658872D01*
X104923872Y-64543681D01*
X105014377Y-64408231D01*
X105076718Y-64257727D01*
X105108500Y-64097952D01*
X105108500Y-63935048D01*
X105076718Y-63775273D01*
X105014377Y-63624769D01*
X104923872Y-63489319D01*
X104808681Y-63374128D01*
X104673231Y-63283623D01*
X104522727Y-63221282D01*
X104362952Y-63189500D01*
X104200048Y-63189500D01*
X104040273Y-63221282D01*
X103889769Y-63283623D01*
X103754319Y-63374128D01*
X103639128Y-63489319D01*
X103548623Y-63624769D01*
X103486282Y-63775273D01*
X103454500Y-63935048D01*
X103454500Y-64097952D01*
X103486282Y-64257727D01*
X103533057Y-64370653D01*
X99412711Y-68491000D01*
X97479493Y-68491000D01*
X97479372Y-68490819D01*
X97364181Y-68375628D01*
X97228731Y-68285123D01*
X97078227Y-68222782D01*
X96918452Y-68191000D01*
X96755548Y-68191000D01*
X96595773Y-68222782D01*
X96445269Y-68285123D01*
X96309819Y-68375628D01*
X96194628Y-68490819D01*
X96104123Y-68626269D01*
X96041782Y-68776773D01*
X96010000Y-68936548D01*
X96010000Y-69099452D01*
X96041782Y-69259227D01*
X96104123Y-69409731D01*
X96194628Y-69545181D01*
X96309819Y-69660372D01*
X96445269Y-69750877D01*
X96595773Y-69813218D01*
X96755548Y-69845000D01*
X96918452Y-69845000D01*
X97078227Y-69813218D01*
X97228731Y-69750877D01*
X97364181Y-69660372D01*
X97479372Y-69545181D01*
X97479493Y-69545000D01*
X98960447Y-69545000D01*
X98857628Y-69647819D01*
X98767123Y-69783269D01*
X98704782Y-69933773D01*
X98673000Y-70093548D01*
X98673000Y-70256452D01*
X98704782Y-70416227D01*
X98767123Y-70566731D01*
X98857628Y-70702181D01*
X98972819Y-70817372D01*
X99108269Y-70907877D01*
X99258773Y-70970218D01*
X99357418Y-70989840D01*
X100623001Y-72255423D01*
X100623001Y-74181243D01*
X100617372Y-74172819D01*
X100502181Y-74057628D01*
X100366731Y-73967123D01*
X100216227Y-73904782D01*
X100056452Y-73873000D01*
X99893548Y-73873000D01*
X99733773Y-73904782D01*
X99603877Y-73958587D01*
X97751957Y-72106668D01*
X97752000Y-72106452D01*
X97752000Y-71943548D01*
X97720218Y-71783773D01*
X97657877Y-71633269D01*
X97567372Y-71497819D01*
X97452181Y-71382628D01*
X97316731Y-71292123D01*
X97166227Y-71229782D01*
X97006452Y-71198000D01*
X96843548Y-71198000D01*
X96683773Y-71229782D01*
X96533269Y-71292123D01*
X96397819Y-71382628D01*
X96282628Y-71497819D01*
X96192123Y-71633269D01*
X96129782Y-71783773D01*
X96098000Y-71943548D01*
X96098000Y-72106452D01*
X96129782Y-72266227D01*
X96192123Y-72416731D01*
X96282628Y-72552181D01*
X96397819Y-72667372D01*
X96533269Y-72757877D01*
X96683773Y-72820218D01*
X96843548Y-72852000D01*
X97006452Y-72852000D01*
X97006668Y-72851957D01*
X99209049Y-75054339D01*
X99225552Y-75074448D01*
X99239811Y-75086150D01*
X99242123Y-75091731D01*
X99332628Y-75227181D01*
X99447819Y-75342372D01*
X99583269Y-75432877D01*
X99733773Y-75495218D01*
X99893548Y-75527000D01*
X100056452Y-75527000D01*
X100216227Y-75495218D01*
X100366731Y-75432877D01*
X100502181Y-75342372D01*
X100617372Y-75227181D01*
X100623000Y-75218758D01*
X100623000Y-77341755D01*
X100619726Y-77375000D01*
X100623000Y-77408245D01*
X100623000Y-77408251D01*
X100632796Y-77507714D01*
X100671508Y-77635329D01*
X100734372Y-77752940D01*
X100818973Y-77856026D01*
X100844800Y-77877222D01*
X101135160Y-78167582D01*
X101154782Y-78266227D01*
X101217123Y-78416731D01*
X101307628Y-78552181D01*
X101422819Y-78667372D01*
X101558269Y-78757877D01*
X101708773Y-78820218D01*
X101868548Y-78852000D01*
X102031452Y-78852000D01*
X102191227Y-78820218D01*
X102341731Y-78757877D01*
X102477181Y-78667372D01*
X102592372Y-78552181D01*
X102673000Y-78431513D01*
X102673000Y-79113648D01*
X102590470Y-79196179D01*
X102493633Y-79131474D01*
X102343129Y-79069133D01*
X102183354Y-79037351D01*
X102020450Y-79037351D01*
X101860675Y-79069133D01*
X101710171Y-79131474D01*
X101574721Y-79221979D01*
X101459530Y-79337170D01*
X101369025Y-79472620D01*
X101306788Y-79622873D01*
X101305502Y-79623000D01*
X89380429Y-79623000D01*
X86402226Y-76644798D01*
X86381027Y-76618967D01*
X86277941Y-76534366D01*
X86160330Y-76471502D01*
X86032715Y-76432790D01*
X85933252Y-76422994D01*
X85933245Y-76422994D01*
X85900000Y-76419720D01*
X85866755Y-76422994D01*
X85759697Y-76422994D01*
X89929339Y-72253353D01*
X89949448Y-72236850D01*
X90015304Y-72156604D01*
X90064239Y-72065052D01*
X90094374Y-71965712D01*
X90102000Y-71888283D01*
X90102000Y-71888282D01*
X90104549Y-71862403D01*
X90102000Y-71836522D01*
X90102000Y-70482994D01*
X90166227Y-70470218D01*
X90316731Y-70407877D01*
X90452181Y-70317372D01*
X90567372Y-70202181D01*
X90657877Y-70066731D01*
X90720218Y-69916227D01*
X90752000Y-69756452D01*
X90752000Y-69593548D01*
X90720218Y-69433773D01*
X90657877Y-69283269D01*
X90567372Y-69147819D01*
X90452181Y-69032628D01*
X90316731Y-68942123D01*
X90166227Y-68879782D01*
X90006452Y-68848000D01*
X89843548Y-68848000D01*
X89683773Y-68879782D01*
X89533269Y-68942123D01*
X89397819Y-69032628D01*
X89282628Y-69147819D01*
X89192123Y-69283269D01*
X89129782Y-69433773D01*
X89098000Y-69593548D01*
X89098000Y-69756452D01*
X89104234Y-69787790D01*
X89085761Y-69822351D01*
X89055626Y-69921691D01*
X89045451Y-70025000D01*
X89048001Y-70050890D01*
X89048000Y-71644112D01*
X85019127Y-75672986D01*
X81922493Y-75672986D01*
X81922372Y-75672805D01*
X81807181Y-75557614D01*
X81671731Y-75467109D01*
X81662336Y-75463217D01*
X81668372Y-75457181D01*
X81668493Y-75457000D01*
X83819119Y-75457000D01*
X83845000Y-75459549D01*
X83870881Y-75457000D01*
X83948310Y-75449374D01*
X84047650Y-75419239D01*
X84139202Y-75370304D01*
X84219448Y-75304448D01*
X84235955Y-75284334D01*
X87979339Y-71540951D01*
X87999448Y-71524448D01*
X88065304Y-71444202D01*
X88114239Y-71352650D01*
X88144374Y-71253310D01*
X88152000Y-71175881D01*
X88152000Y-71175879D01*
X88154549Y-71150001D01*
X88152000Y-71124123D01*
X88152000Y-70567493D01*
X88152181Y-70567372D01*
X88267372Y-70452181D01*
X88357877Y-70316731D01*
X88420218Y-70166227D01*
X88452000Y-70006452D01*
X88452000Y-69843548D01*
X88420218Y-69683773D01*
X88357877Y-69533269D01*
X88267372Y-69397819D01*
X88152181Y-69282628D01*
X88016731Y-69192123D01*
X87866227Y-69129782D01*
X87706452Y-69098000D01*
X87543548Y-69098000D01*
X87383773Y-69129782D01*
X87233269Y-69192123D01*
X87097819Y-69282628D01*
X86982628Y-69397819D01*
X86892123Y-69533269D01*
X86829782Y-69683773D01*
X86798000Y-69843548D01*
X86798000Y-70006452D01*
X86829782Y-70166227D01*
X86892123Y-70316731D01*
X86982628Y-70452181D01*
X87097819Y-70567372D01*
X87098000Y-70567493D01*
X87098000Y-70931710D01*
X83626711Y-74403000D01*
X81668493Y-74403000D01*
X81668372Y-74402819D01*
X81553181Y-74287628D01*
X81417731Y-74197123D01*
X81267227Y-74134782D01*
X81107452Y-74103000D01*
X80944548Y-74103000D01*
X80784773Y-74134782D01*
X80634269Y-74197123D01*
X80498819Y-74287628D01*
X80383628Y-74402819D01*
X80293123Y-74538269D01*
X80230782Y-74688773D01*
X80199000Y-74848548D01*
X80199000Y-75011452D01*
X80230782Y-75171227D01*
X80293123Y-75321731D01*
X80383628Y-75457181D01*
X80498819Y-75572372D01*
X80634269Y-75662877D01*
X80643664Y-75666769D01*
X80637628Y-75672805D01*
X80547123Y-75808255D01*
X80484782Y-75958759D01*
X80453000Y-76118534D01*
X80453000Y-76281438D01*
X80481158Y-76422994D01*
X75082564Y-76422994D01*
X73728965Y-75069396D01*
X73709343Y-74970751D01*
X73675937Y-74890102D01*
X73697449Y-74872447D01*
X73713956Y-74852333D01*
X74149333Y-74416957D01*
X74149548Y-74417000D01*
X74312452Y-74417000D01*
X74472227Y-74385218D01*
X74622731Y-74322877D01*
X74758181Y-74232372D01*
X74873372Y-74117181D01*
X74963877Y-73981731D01*
X75026218Y-73831227D01*
X75058000Y-73671452D01*
X75058000Y-73508548D01*
X75026218Y-73348773D01*
X74963877Y-73198269D01*
X74873372Y-73062819D01*
X74765553Y-72955000D01*
X74873372Y-72847181D01*
X74963877Y-72711731D01*
X75026218Y-72561227D01*
X75058000Y-72401452D01*
X75058000Y-72238548D01*
X75026218Y-72078773D01*
X74963877Y-71928269D01*
X74873372Y-71792819D01*
X74758181Y-71677628D01*
X74622731Y-71587123D01*
X74472227Y-71524782D01*
X74312452Y-71493000D01*
X74149548Y-71493000D01*
X73989773Y-71524782D01*
X73839269Y-71587123D01*
X73703819Y-71677628D01*
X73588628Y-71792819D01*
X73498123Y-71928269D01*
X73435782Y-72078773D01*
X73404000Y-72238548D01*
X73404000Y-72401452D01*
X73404043Y-72401667D01*
X72727711Y-73078000D01*
X71677608Y-73078000D01*
X71631444Y-73031836D01*
X71834736Y-73008981D01*
X71915577Y-72821816D01*
X71958351Y-72622477D01*
X71961413Y-72418623D01*
X71924647Y-72218088D01*
X71849466Y-72028580D01*
X71836638Y-72004578D01*
X71915577Y-71821816D01*
X71958351Y-71622477D01*
X71961413Y-71418623D01*
X71924647Y-71218088D01*
X71849466Y-71028580D01*
X71836638Y-71004578D01*
X71915577Y-70821816D01*
X71958351Y-70622477D01*
X71961413Y-70418623D01*
X71924647Y-70218088D01*
X71849466Y-70028580D01*
X71836638Y-70004578D01*
X71915577Y-69821816D01*
X71958351Y-69622477D01*
X71961413Y-69418623D01*
X71924647Y-69218088D01*
X71849466Y-69028580D01*
X71836638Y-69004578D01*
X71915577Y-68821816D01*
X71958351Y-68622477D01*
X71961413Y-68418623D01*
X71924647Y-68218088D01*
X71849466Y-68028580D01*
X71834736Y-68001019D01*
X71631441Y-67978164D01*
X71121088Y-68488517D01*
X71042477Y-68471649D01*
X70960635Y-68470420D01*
X70961413Y-68418623D01*
X70941327Y-68309068D01*
X71451836Y-67798559D01*
X71428981Y-67595264D01*
X71241816Y-67514423D01*
X71042477Y-67471649D01*
X70838623Y-67468587D01*
X70638088Y-67505353D01*
X70448580Y-67580534D01*
X70424578Y-67593362D01*
X70241816Y-67514423D01*
X70042477Y-67471649D01*
X69838623Y-67468587D01*
X69638088Y-67505353D01*
X69448580Y-67580534D01*
X69424578Y-67593362D01*
X69241816Y-67514423D01*
X69042477Y-67471649D01*
X68838623Y-67468587D01*
X68638088Y-67505353D01*
X68448580Y-67580534D01*
X68424578Y-67593362D01*
X68241816Y-67514423D01*
X68042477Y-67471649D01*
X67838623Y-67468587D01*
X67638088Y-67505353D01*
X67448580Y-67580534D01*
X67424578Y-67593362D01*
X67241816Y-67514423D01*
X67042477Y-67471649D01*
X66838623Y-67468587D01*
X66638088Y-67505353D01*
X66448580Y-67580534D01*
X66421019Y-67595264D01*
X66398164Y-67798559D01*
X66908517Y-68308912D01*
X66891649Y-68387523D01*
X66890420Y-68469365D01*
X66838623Y-68468587D01*
X66729068Y-68488673D01*
X66218559Y-67978164D01*
X66015264Y-68001019D01*
X65934423Y-68188184D01*
X65891649Y-68387523D01*
X65888587Y-68591377D01*
X65925353Y-68791912D01*
X66000534Y-68981420D01*
X66013362Y-69005422D01*
X65934423Y-69188184D01*
X65891649Y-69387523D01*
X65888587Y-69591377D01*
X65925353Y-69791912D01*
X66000534Y-69981420D01*
X66013362Y-70005422D01*
X65934423Y-70188184D01*
X65891649Y-70387523D01*
X65888587Y-70591377D01*
X65925353Y-70791912D01*
X66000534Y-70981420D01*
X66013362Y-71005422D01*
X65934423Y-71188184D01*
X65891649Y-71387523D01*
X65888587Y-71591377D01*
X65925353Y-71791912D01*
X66000534Y-71981420D01*
X66013362Y-72005422D01*
X65934423Y-72188184D01*
X65891649Y-72387523D01*
X65888587Y-72591377D01*
X65925353Y-72791912D01*
X66000534Y-72981420D01*
X66015264Y-73008981D01*
X66218556Y-73031836D01*
X66172392Y-73078000D01*
X62442493Y-73078000D01*
X62442372Y-73077819D01*
X62327181Y-72962628D01*
X62191731Y-72872123D01*
X62041227Y-72809782D01*
X61881452Y-72778000D01*
X61718548Y-72778000D01*
X61558773Y-72809782D01*
X61408269Y-72872123D01*
X61272819Y-72962628D01*
X61157628Y-73077819D01*
X61067123Y-73213269D01*
X61004782Y-73363773D01*
X60973000Y-73523548D01*
X60973000Y-73686452D01*
X61004782Y-73846227D01*
X61056464Y-73970999D01*
X59609290Y-73970999D01*
X58039957Y-72401668D01*
X58040000Y-72401452D01*
X58040000Y-72238548D01*
X58008218Y-72078773D01*
X57945877Y-71928269D01*
X57855372Y-71792819D01*
X57740181Y-71677628D01*
X57604731Y-71587123D01*
X57454227Y-71524782D01*
X57294452Y-71493000D01*
X57131548Y-71493000D01*
X56971773Y-71524782D01*
X56821269Y-71587123D01*
X56685819Y-71677628D01*
X56570628Y-71792819D01*
X56480123Y-71928269D01*
X56417782Y-72078773D01*
X56386000Y-72238548D01*
X56386000Y-72401452D01*
X56417782Y-72561227D01*
X56480123Y-72711731D01*
X56570628Y-72847181D01*
X56685819Y-72962372D01*
X56821269Y-73052877D01*
X56971773Y-73115218D01*
X57131548Y-73147000D01*
X57294452Y-73147000D01*
X57294668Y-73146957D01*
X58570709Y-74423000D01*
X47033252Y-74423000D01*
X47000000Y-74419725D01*
X46867285Y-74432796D01*
X46739670Y-74471508D01*
X46622059Y-74534372D01*
X46546125Y-74596690D01*
X46518973Y-74618973D01*
X46497778Y-74644799D01*
X41671800Y-79470778D01*
X41645974Y-79491973D01*
X41561372Y-79595059D01*
X41498508Y-79712670D01*
X41462186Y-79832405D01*
X41394123Y-79934269D01*
X41331782Y-80084773D01*
X41300000Y-80244548D01*
X41300000Y-80407452D01*
X41331782Y-80567227D01*
X41394123Y-80717731D01*
X41484628Y-80853181D01*
X41599819Y-80968372D01*
X41735269Y-81058877D01*
X41885773Y-81121218D01*
X42045548Y-81153000D01*
X42208452Y-81153000D01*
X42368227Y-81121218D01*
X42518731Y-81058877D01*
X42654181Y-80968372D01*
X42769372Y-80853181D01*
X42859877Y-80717731D01*
X42922218Y-80567227D01*
X42954000Y-80407452D01*
X42954000Y-80244548D01*
X42930585Y-80126837D01*
X47280423Y-75777000D01*
X52972759Y-75777000D01*
X52958773Y-75779782D01*
X52808269Y-75842123D01*
X52672819Y-75932628D01*
X52557628Y-76047819D01*
X52467123Y-76183269D01*
X52404782Y-76333773D01*
X52373000Y-76493548D01*
X52373000Y-76656452D01*
X52404782Y-76816227D01*
X52467123Y-76966731D01*
X52557628Y-77102181D01*
X52672819Y-77217372D01*
X52808269Y-77307877D01*
X52958773Y-77370218D01*
X53012976Y-77381000D01*
X50017881Y-77381000D01*
X49992000Y-77378451D01*
X49966119Y-77381000D01*
X49888690Y-77388626D01*
X49789350Y-77418761D01*
X49697798Y-77467696D01*
X49617552Y-77533552D01*
X49601049Y-77553661D01*
X48181711Y-78973000D01*
X46942493Y-78973000D01*
X46942372Y-78972819D01*
X46827181Y-78857628D01*
X46691731Y-78767123D01*
X46541227Y-78704782D01*
X46381452Y-78673000D01*
X46218548Y-78673000D01*
X46058773Y-78704782D01*
X45908269Y-78767123D01*
X45772819Y-78857628D01*
X45657628Y-78972819D01*
X45567123Y-79108269D01*
X45504782Y-79258773D01*
X45473000Y-79418548D01*
X45473000Y-79581452D01*
X45504782Y-79741227D01*
X45567123Y-79891731D01*
X45657628Y-80027181D01*
X45772819Y-80142372D01*
X45908269Y-80232877D01*
X46058773Y-80295218D01*
X46218548Y-80327000D01*
X46381452Y-80327000D01*
X46541227Y-80295218D01*
X46691731Y-80232877D01*
X46827181Y-80142372D01*
X46942372Y-80027181D01*
X46942493Y-80027000D01*
X48374119Y-80027000D01*
X48400000Y-80029549D01*
X48425881Y-80027000D01*
X48503310Y-80019374D01*
X48602650Y-79989239D01*
X48694202Y-79940304D01*
X48774448Y-79874448D01*
X48790955Y-79854334D01*
X50210290Y-78435000D01*
X50211116Y-78435000D01*
X50146123Y-78532269D01*
X50083782Y-78682773D01*
X50052000Y-78842548D01*
X50052000Y-79005452D01*
X50083782Y-79165227D01*
X50146123Y-79315731D01*
X50236628Y-79451181D01*
X50351819Y-79566372D01*
X50487269Y-79656877D01*
X50637773Y-79719218D01*
X50797548Y-79751000D01*
X50960452Y-79751000D01*
X51120227Y-79719218D01*
X51270731Y-79656877D01*
X51406181Y-79566372D01*
X51521372Y-79451181D01*
X51521493Y-79451000D01*
X58834692Y-79451000D01*
X58818410Y-89548000D01*
X52623656Y-89548000D01*
X52620972Y-89185642D01*
X52673810Y-89169614D01*
X52752333Y-89127643D01*
X52821159Y-89071159D01*
X52877643Y-89002333D01*
X52919614Y-88923810D01*
X52945460Y-88838607D01*
X52954187Y-88750000D01*
X52952000Y-88727795D01*
X52952000Y-83272205D01*
X52954187Y-83250000D01*
X52945460Y-83161393D01*
X52919614Y-83076190D01*
X52877643Y-82997667D01*
X52821159Y-82928841D01*
X52752333Y-82872357D01*
X52673810Y-82830386D01*
X52588607Y-82804540D01*
X52522205Y-82798000D01*
X52500000Y-82795813D01*
X52477795Y-82798000D01*
X50622205Y-82798000D01*
X50600000Y-82795813D01*
X50577795Y-82798000D01*
X50511393Y-82804540D01*
X50426190Y-82830386D01*
X50347667Y-82872357D01*
X50278841Y-82928841D01*
X50222357Y-82997667D01*
X50180386Y-83076190D01*
X50173323Y-83099474D01*
X48972915Y-83087073D01*
X48969614Y-83076190D01*
X48927643Y-82997667D01*
X48871159Y-82928841D01*
X48802333Y-82872357D01*
X48723810Y-82830386D01*
X48638607Y-82804540D01*
X48572205Y-82798000D01*
X48550000Y-82795813D01*
X48527795Y-82798000D01*
X46322205Y-82798000D01*
X46300000Y-82795813D01*
X46277795Y-82798000D01*
X46211393Y-82804540D01*
X46126190Y-82830386D01*
X46047667Y-82872357D01*
X45978841Y-82928841D01*
X45922357Y-82997667D01*
X45880386Y-83076190D01*
X45854540Y-83161393D01*
X45845813Y-83250000D01*
X45848001Y-83272215D01*
X45848000Y-88727795D01*
X45845813Y-88750000D01*
X45854540Y-88838607D01*
X45880386Y-88923810D01*
X45922357Y-89002333D01*
X45942601Y-89027000D01*
X45978841Y-89071159D01*
X46047667Y-89127643D01*
X46100267Y-89155758D01*
X46088918Y-89548000D01*
X23452000Y-89548000D01*
X23452000Y-87349604D01*
X23973000Y-87349604D01*
X23973000Y-87650396D01*
X24031681Y-87945410D01*
X24146790Y-88223306D01*
X24313901Y-88473406D01*
X24526594Y-88686099D01*
X24776694Y-88853210D01*
X25054590Y-88968319D01*
X25349604Y-89027000D01*
X25650396Y-89027000D01*
X25945410Y-88968319D01*
X26223306Y-88853210D01*
X26473406Y-88686099D01*
X26686099Y-88473406D01*
X26853210Y-88223306D01*
X26968319Y-87945410D01*
X27027000Y-87650396D01*
X27027000Y-87349604D01*
X26968319Y-87054590D01*
X26853210Y-86776694D01*
X26686099Y-86526594D01*
X26473406Y-86313901D01*
X26223306Y-86146790D01*
X25945410Y-86031681D01*
X25650396Y-85973000D01*
X25349604Y-85973000D01*
X25054590Y-86031681D01*
X24776694Y-86146790D01*
X24526594Y-86313901D01*
X24313901Y-86526594D01*
X24146790Y-86776694D01*
X24031681Y-87054590D01*
X23973000Y-87349604D01*
X23452000Y-87349604D01*
X23452000Y-33349604D01*
X23973000Y-33349604D01*
X23973000Y-33650396D01*
X24031681Y-33945410D01*
X24146790Y-34223306D01*
X24313901Y-34473406D01*
X24526594Y-34686099D01*
X24776694Y-34853210D01*
X25054590Y-34968319D01*
X25349604Y-35027000D01*
X25650396Y-35027000D01*
X25945410Y-34968319D01*
X26223306Y-34853210D01*
X26473406Y-34686099D01*
X26686099Y-34473406D01*
X26853210Y-34223306D01*
X26968319Y-33945410D01*
X27027000Y-33650396D01*
X27027000Y-33349604D01*
X26968319Y-33054590D01*
X26853210Y-32776694D01*
X26686099Y-32526594D01*
X26473406Y-32313901D01*
X26223306Y-32146790D01*
X25945410Y-32031681D01*
X25650396Y-31973000D01*
X25349604Y-31973000D01*
X25054590Y-32031681D01*
X24776694Y-32146790D01*
X24526594Y-32313901D01*
X24313901Y-32526594D01*
X24146790Y-32776694D01*
X24031681Y-33054590D01*
X23973000Y-33349604D01*
X23452000Y-33349604D01*
X23452000Y-31452000D01*
X47277795Y-31452000D01*
X47300000Y-31454187D01*
X47322205Y-31452000D01*
X47388607Y-31445460D01*
X47473810Y-31419614D01*
X47552333Y-31377643D01*
X47621159Y-31321159D01*
X47677643Y-31252333D01*
X47719614Y-31173810D01*
X47745460Y-31088607D01*
X47754187Y-31000000D01*
X47752000Y-30977795D01*
X47752000Y-28627048D01*
X65594997Y-28627048D01*
X65594997Y-29027047D01*
X65643504Y-29265543D01*
X65737607Y-29489993D01*
X65873690Y-29691772D01*
X66046523Y-29863125D01*
X66249464Y-29997468D01*
X66474715Y-30089638D01*
X66512387Y-30093508D01*
X66702996Y-29968777D01*
X66702996Y-28627048D01*
X65594997Y-28627048D01*
X47752000Y-28627048D01*
X47752000Y-26849604D01*
X48473000Y-26849604D01*
X48473000Y-27150396D01*
X48531681Y-27445410D01*
X48646790Y-27723306D01*
X48813901Y-27973406D01*
X49026594Y-28186099D01*
X49276694Y-28353210D01*
X49554590Y-28468319D01*
X49849604Y-28527000D01*
X50150396Y-28527000D01*
X50445410Y-28468319D01*
X50723306Y-28353210D01*
X50973406Y-28186099D01*
X51186099Y-27973406D01*
X51186337Y-27973049D01*
X65594997Y-27973049D01*
X65594997Y-28373048D01*
X66702996Y-28373048D01*
X66702996Y-27031319D01*
X66512387Y-26906588D01*
X66474715Y-26910458D01*
X66249464Y-27002628D01*
X66046523Y-27136971D01*
X65873690Y-27308324D01*
X65737607Y-27510103D01*
X65643504Y-27734553D01*
X65594997Y-27973049D01*
X51186337Y-27973049D01*
X51353210Y-27723306D01*
X51468319Y-27445410D01*
X51527000Y-27150396D01*
X51527000Y-26849604D01*
X51468319Y-26554590D01*
X51353210Y-26276694D01*
X51347252Y-26267776D01*
X57998010Y-26267776D01*
X57998010Y-26435604D01*
X58030752Y-26600207D01*
X58094977Y-26755260D01*
X58188217Y-26894804D01*
X58306889Y-27013476D01*
X58446433Y-27106716D01*
X58601486Y-27170941D01*
X58766089Y-27203683D01*
X58933917Y-27203683D01*
X59098520Y-27170941D01*
X59253573Y-27106716D01*
X59393117Y-27013476D01*
X59511789Y-26894804D01*
X59605029Y-26755260D01*
X59669254Y-26600207D01*
X59701996Y-26435604D01*
X59701996Y-26267776D01*
X60998004Y-26267776D01*
X60998004Y-26435604D01*
X61030746Y-26600207D01*
X61094971Y-26755260D01*
X61188211Y-26894804D01*
X61306883Y-27013476D01*
X61446427Y-27106716D01*
X61601480Y-27170941D01*
X61766083Y-27203683D01*
X61933911Y-27203683D01*
X62098514Y-27170941D01*
X62253567Y-27106716D01*
X62393111Y-27013476D01*
X62511783Y-26894804D01*
X62605023Y-26755260D01*
X62669248Y-26600207D01*
X62701990Y-26435604D01*
X62701990Y-26267776D01*
X62669248Y-26103173D01*
X62605023Y-25948120D01*
X62511783Y-25808576D01*
X62393111Y-25689904D01*
X62253567Y-25596664D01*
X62098514Y-25532439D01*
X61933911Y-25499697D01*
X61766083Y-25499697D01*
X61601480Y-25532439D01*
X61446427Y-25596664D01*
X61306883Y-25689904D01*
X61188211Y-25808576D01*
X61094971Y-25948120D01*
X61030746Y-26103173D01*
X60998004Y-26267776D01*
X59701996Y-26267776D01*
X59669254Y-26103173D01*
X59605029Y-25948120D01*
X59511789Y-25808576D01*
X59393117Y-25689904D01*
X59253573Y-25596664D01*
X59098520Y-25532439D01*
X58933917Y-25499697D01*
X58766089Y-25499697D01*
X58601486Y-25532439D01*
X58446433Y-25596664D01*
X58306889Y-25689904D01*
X58188217Y-25808576D01*
X58094977Y-25948120D01*
X58030752Y-26103173D01*
X57998010Y-26267776D01*
X51347252Y-26267776D01*
X51186099Y-26026594D01*
X50973406Y-25813901D01*
X50723306Y-25646790D01*
X50445410Y-25531681D01*
X50150396Y-25473000D01*
X49849604Y-25473000D01*
X49554590Y-25531681D01*
X49276694Y-25646790D01*
X49026594Y-25813901D01*
X48813901Y-26026594D01*
X48646790Y-26276694D01*
X48531681Y-26554590D01*
X48473000Y-26849604D01*
X47752000Y-26849604D01*
X47752000Y-24952000D01*
X64377795Y-24952000D01*
X64400000Y-24954187D01*
X64422205Y-24952000D01*
X64488607Y-24945460D01*
X64573810Y-24919614D01*
X64652333Y-24877643D01*
X64721159Y-24821159D01*
X64735323Y-24803900D01*
X64912167Y-24627056D01*
X65594997Y-24627056D01*
X65594997Y-25227054D01*
X65643504Y-25465550D01*
X65737607Y-25690000D01*
X65873690Y-25891779D01*
X66046523Y-26063132D01*
X66249464Y-26197475D01*
X66474715Y-26289645D01*
X66512387Y-26293515D01*
X66702996Y-26168784D01*
X66702996Y-24627056D01*
X65594997Y-24627056D01*
X64912167Y-24627056D01*
X65594997Y-23944227D01*
X65594997Y-24373056D01*
X66702996Y-24373056D01*
X66702996Y-24353056D01*
X66956996Y-24353056D01*
X66956996Y-24373056D01*
X66976996Y-24373056D01*
X66976996Y-24627056D01*
X66956996Y-24627056D01*
X66956996Y-26168784D01*
X67147605Y-26293515D01*
X67185277Y-26289645D01*
X67373000Y-26212831D01*
X67373000Y-26987272D01*
X67185277Y-26910458D01*
X67147605Y-26906588D01*
X66956996Y-27031319D01*
X66956996Y-28373048D01*
X66976996Y-28373048D01*
X66976996Y-28627048D01*
X66956996Y-28627048D01*
X66956996Y-29968777D01*
X67147605Y-30093508D01*
X67185277Y-30089638D01*
X67410528Y-29997468D01*
X67613469Y-29863125D01*
X67786302Y-29691772D01*
X67922385Y-29489993D01*
X67959277Y-29402000D01*
X76940723Y-29402000D01*
X76977615Y-29489993D01*
X77113698Y-29691772D01*
X77286531Y-29863125D01*
X77489472Y-29997468D01*
X77714723Y-30089638D01*
X77752395Y-30093508D01*
X77943004Y-29968777D01*
X77943004Y-28627048D01*
X78197004Y-28627048D01*
X78197004Y-29968777D01*
X78387613Y-30093508D01*
X78425285Y-30089638D01*
X78650536Y-29997468D01*
X78853477Y-29863125D01*
X79026310Y-29691772D01*
X79162393Y-29489993D01*
X79256496Y-29265543D01*
X79305003Y-29027047D01*
X79305003Y-28627048D01*
X78197004Y-28627048D01*
X77943004Y-28627048D01*
X77923004Y-28627048D01*
X77923004Y-28373048D01*
X77943004Y-28373048D01*
X77943004Y-27031319D01*
X78197004Y-27031319D01*
X78197004Y-28373048D01*
X79305003Y-28373048D01*
X79305003Y-27973049D01*
X79256496Y-27734553D01*
X79162393Y-27510103D01*
X79026310Y-27308324D01*
X78853477Y-27136971D01*
X78650536Y-27002628D01*
X78425285Y-26910458D01*
X78387613Y-26906588D01*
X78197004Y-27031319D01*
X77943004Y-27031319D01*
X77752395Y-26906588D01*
X77714723Y-26910458D01*
X77502000Y-26997502D01*
X77502000Y-26849604D01*
X82473000Y-26849604D01*
X82473000Y-27150396D01*
X82531681Y-27445410D01*
X82646790Y-27723306D01*
X82813901Y-27973406D01*
X83026594Y-28186099D01*
X83276694Y-28353210D01*
X83554590Y-28468319D01*
X83849604Y-28527000D01*
X84150396Y-28527000D01*
X84445410Y-28468319D01*
X84723306Y-28353210D01*
X84973406Y-28186099D01*
X85186099Y-27973406D01*
X85353210Y-27723306D01*
X85468319Y-27445410D01*
X85527000Y-27150396D01*
X85527000Y-26849604D01*
X85468319Y-26554590D01*
X85353210Y-26276694D01*
X85186099Y-26026594D01*
X84973406Y-25813901D01*
X84723306Y-25646790D01*
X84445410Y-25531681D01*
X84150396Y-25473000D01*
X83849604Y-25473000D01*
X83554590Y-25531681D01*
X83276694Y-25646790D01*
X83026594Y-25813901D01*
X82813901Y-26026594D01*
X82646790Y-26276694D01*
X82531681Y-26554590D01*
X82473000Y-26849604D01*
X77502000Y-26849604D01*
X77502000Y-26202601D01*
X77714723Y-26289645D01*
X77752395Y-26293515D01*
X77943004Y-26168784D01*
X77943004Y-24627056D01*
X78197004Y-24627056D01*
X78197004Y-26168784D01*
X78387613Y-26293515D01*
X78425285Y-26289645D01*
X78650536Y-26197475D01*
X78853477Y-26063132D01*
X79026310Y-25891779D01*
X79162393Y-25690000D01*
X79256496Y-25465550D01*
X79305003Y-25227054D01*
X79305003Y-24627056D01*
X78197004Y-24627056D01*
X77943004Y-24627056D01*
X77923004Y-24627056D01*
X77923004Y-24373056D01*
X77943004Y-24373056D01*
X77943004Y-24353056D01*
X78197004Y-24353056D01*
X78197004Y-24373056D01*
X79305003Y-24373056D01*
X79305003Y-23773058D01*
X79256496Y-23534562D01*
X79162393Y-23310112D01*
X79026310Y-23108333D01*
X78853477Y-22936980D01*
X78725105Y-22852000D01*
X79312777Y-22852000D01*
X81264686Y-24803911D01*
G37*
G04 #@! TD.AperFunction*
D18*
X66807523Y-72538351D02*
X66889365Y-72539580D01*
X66888587Y-72591377D01*
X66907692Y-72695582D01*
X66734872Y-72522762D01*
X66807523Y-72538351D01*
G04 #@! TA.AperFunction,Conductor*
D19*
G36*
X66807523Y-72538351D02*
G01*
X66889365Y-72539580D01*
X66888587Y-72591377D01*
X66907692Y-72695582D01*
X66734872Y-72522762D01*
X66807523Y-72538351D01*
G37*
G04 #@! TD.AperFunction*
D18*
X70942762Y-72695128D02*
X70958351Y-72622477D01*
X70959580Y-72540635D01*
X71011377Y-72541413D01*
X71115582Y-72522308D01*
X70942762Y-72695128D01*
G04 #@! TA.AperFunction,Conductor*
D19*
G36*
X70942762Y-72695128D02*
G01*
X70958351Y-72622477D01*
X70959580Y-72540635D01*
X71011377Y-72541413D01*
X71115582Y-72522308D01*
X70942762Y-72695128D01*
G37*
G04 #@! TD.AperFunction*
D18*
X55884490Y-64461248D02*
X55946831Y-64611752D01*
X56037336Y-64747202D01*
X56152527Y-64862393D01*
X56287977Y-64952898D01*
X56438481Y-65015239D01*
X56598256Y-65047021D01*
X56761160Y-65047021D01*
X56761376Y-65046978D01*
X57515396Y-65801000D01*
X54353422Y-65801000D01*
X55852748Y-64301675D01*
X55884490Y-64461248D01*
G04 #@! TA.AperFunction,Conductor*
D19*
G36*
X55884490Y-64461248D02*
G01*
X55946831Y-64611752D01*
X56037336Y-64747202D01*
X56152527Y-64862393D01*
X56287977Y-64952898D01*
X56438481Y-65015239D01*
X56598256Y-65047021D01*
X56761160Y-65047021D01*
X56761376Y-65046978D01*
X57515396Y-65801000D01*
X54353422Y-65801000D01*
X55852748Y-64301675D01*
X55884490Y-64461248D01*
G37*
G04 #@! TD.AperFunction*
M02*
