G04 #@! TF.GenerationSoftware,KiCad,Pcbnew,(5.1.10)-1*
G04 #@! TF.CreationDate,2023-06-26T10:38:49+08:00*
G04 #@! TF.ProjectId,epaper-breakout,65706170-6572-42d6-9272-65616b6f7574,rev?*
G04 #@! TF.SameCoordinates,Original*
G04 #@! TF.FileFunction,Legend,Top*
G04 #@! TF.FilePolarity,Positive*
%FSLAX46Y46*%
G04 Gerber Fmt 4.6, Leading zero omitted, Abs format (unit mm)*
G04 Created by KiCad (PCBNEW (5.1.10)-1) date 2023-06-26 10:38:49*
%MOMM*%
%LPD*%
G01*
G04 APERTURE LIST*
%ADD10C,0.120000*%
%ADD11C,0.254000*%
%ADD12C,0.151994*%
%ADD13C,0.152400*%
%ADD14C,0.150000*%
%ADD15C,0.050000*%
G04 APERTURE END LIST*
D10*
X91000000Y-31000000D02*
X91000000Y-32600000D01*
D11*
X93508000Y-34550005D02*
X94905000Y-34550005D01*
X93508000Y-33799994D02*
X93508000Y-34550005D01*
X94905000Y-52049995D02*
X94905000Y-34550005D01*
X93624357Y-52049995D02*
X94905000Y-52049995D01*
X93624357Y-52825000D02*
X93624357Y-52049995D01*
X93624357Y-52800006D02*
X93624357Y-52789440D01*
X90968000Y-33799994D02*
X93508000Y-33799994D01*
X90968000Y-52825000D02*
X90968000Y-33799994D01*
X90968000Y-52849994D02*
X93635000Y-52849994D01*
D12*
X67979600Y-22401000D02*
X67979600Y-28819580D01*
X67979600Y-28819580D02*
X76920400Y-28819580D01*
X76920400Y-28819580D02*
X76920400Y-22401000D01*
X76920400Y-22401000D02*
X67989760Y-22401000D01*
X67989760Y-22401000D02*
X67989760Y-22401000D01*
D10*
X105250000Y-38025000D02*
G75*
G03*
X105250000Y-38025000I-700000J0D01*
G01*
X47765000Y-86100000D02*
X47765000Y-87400000D01*
X50585000Y-85660000D02*
X50585000Y-87400000D01*
X79490000Y-44220000D02*
G75*
G03*
X79490000Y-44220000I-700000J0D01*
G01*
X108450000Y-42325000D02*
G75*
G03*
X108450000Y-42325000I-700000J0D01*
G01*
X105200000Y-42300000D02*
G75*
G03*
X105200000Y-42300000I-700000J0D01*
G01*
X83920000Y-44320000D02*
G75*
G03*
X83920000Y-44320000I-700000J0D01*
G01*
X101690000Y-48147936D02*
X101690000Y-48602064D01*
X103160000Y-48147936D02*
X103160000Y-48602064D01*
X105440000Y-48122936D02*
X105440000Y-48577064D01*
X106910000Y-48122936D02*
X106910000Y-48577064D01*
X83747936Y-67535000D02*
X84202064Y-67535000D01*
X83747936Y-66065000D02*
X84202064Y-66065000D01*
X85964564Y-72090000D02*
X85510436Y-72090000D01*
X85964564Y-73560000D02*
X85510436Y-73560000D01*
X101525000Y-38025000D02*
G75*
G03*
X101525000Y-38025000I-700000J0D01*
G01*
X84115580Y-68740000D02*
X83834420Y-68740000D01*
X84115580Y-69760000D02*
X83834420Y-69760000D01*
X101650000Y-42225000D02*
G75*
G03*
X101650000Y-42225000I-700000J0D01*
G01*
D11*
X82240013Y-89790015D02*
X82240013Y-87011128D01*
X95240038Y-89790015D02*
X82240013Y-89790015D01*
X95240038Y-87011128D02*
X95240038Y-89790015D01*
X95240495Y-80689500D02*
X95240495Y-82368440D01*
X92339815Y-77788820D02*
X95240495Y-80689500D01*
X85138915Y-77788820D02*
X92339815Y-77788820D01*
X82240775Y-80689500D02*
X85138915Y-77788820D01*
X82240775Y-82368440D02*
X82240775Y-80689500D01*
X100528018Y-57582003D02*
X93528007Y-57582003D01*
X100528018Y-60781997D02*
X100528018Y-59813139D01*
X100528018Y-58550861D02*
X100528018Y-57582003D01*
X93528007Y-60781997D02*
X93528007Y-59813139D01*
X93528007Y-58550861D02*
X93528007Y-57582003D01*
X100528018Y-60781997D02*
X93528007Y-60781997D01*
D10*
X105918000Y-56876000D02*
X103968000Y-56876000D01*
X105918000Y-56876000D02*
X107868000Y-56876000D01*
X105918000Y-61996000D02*
X103968000Y-61996000D01*
X105918000Y-61996000D02*
X109368000Y-61996000D01*
X102500000Y-53200000D02*
G75*
G03*
X102500000Y-53200000I-700000J0D01*
G01*
X52667936Y-46947000D02*
X53122064Y-46947000D01*
X52667936Y-48417000D02*
X53122064Y-48417000D01*
X52677064Y-51610000D02*
X52222936Y-51610000D01*
X52677064Y-50140000D02*
X52222936Y-50140000D01*
X57196258Y-41346500D02*
X56721742Y-41346500D01*
X57196258Y-40301500D02*
X56721742Y-40301500D01*
X53335000Y-44255000D02*
X53335000Y-43325000D01*
X53335000Y-41095000D02*
X53335000Y-42025000D01*
X53335000Y-41095000D02*
X51175000Y-41095000D01*
X53335000Y-44255000D02*
X51875000Y-44255000D01*
D13*
X37376190Y-52601196D02*
X37376190Y-52437391D01*
X33173810Y-52601196D02*
X37376190Y-52601196D01*
X33173810Y-52437391D02*
X33173810Y-52601196D01*
X37376190Y-48448804D02*
X37376190Y-48612609D01*
X33173810Y-48448804D02*
X37376190Y-48448804D01*
X33173810Y-48612609D02*
X33173810Y-48448804D01*
X29596190Y-52298196D02*
X29596190Y-52134391D01*
X25393810Y-52298196D02*
X29596190Y-52298196D01*
X25393810Y-52134391D02*
X25393810Y-52298196D01*
X29596190Y-48145804D02*
X29596190Y-48309609D01*
X25393810Y-48145804D02*
X29596190Y-48145804D01*
X25393810Y-48309609D02*
X25393810Y-48145804D01*
X28888076Y-79946196D02*
X28888076Y-79782391D01*
X24685696Y-79946196D02*
X28888076Y-79946196D01*
X24685696Y-79782391D02*
X24685696Y-79946196D01*
X28888076Y-75793804D02*
X28888076Y-75957609D01*
X24685696Y-75793804D02*
X28888076Y-75793804D01*
X24685696Y-75957609D02*
X24685696Y-75793804D01*
X35934304Y-79816196D02*
X35934304Y-79652391D01*
X31731924Y-79816196D02*
X35934304Y-79816196D01*
X31731924Y-79652391D02*
X31731924Y-79816196D01*
X35934304Y-75663804D02*
X35934304Y-75827609D01*
X31731924Y-75663804D02*
X35934304Y-75663804D01*
X31731924Y-75827609D02*
X31731924Y-75663804D01*
D10*
X54750000Y-39025000D02*
X54750000Y-37025000D01*
X54750000Y-37025000D02*
X50850000Y-37025000D01*
X54750000Y-39025000D02*
X50850000Y-39025000D01*
X103414000Y-53356000D02*
X103414000Y-55356000D01*
X103414000Y-55356000D02*
X107314000Y-55356000D01*
X103414000Y-53356000D02*
X107314000Y-53356000D01*
X92500000Y-65516000D02*
X92500000Y-63516000D01*
X92500000Y-63516000D02*
X88600000Y-63516000D01*
X92500000Y-65516000D02*
X88600000Y-65516000D01*
X47370420Y-33560000D02*
X47651580Y-33560000D01*
X47370420Y-34580000D02*
X47651580Y-34580000D01*
X87410000Y-59059420D02*
X87410000Y-59340580D01*
X86390000Y-59059420D02*
X86390000Y-59340580D01*
X89410000Y-59041420D02*
X89410000Y-59322580D01*
X88390000Y-59041420D02*
X88390000Y-59322580D01*
X91442000Y-59041420D02*
X91442000Y-59322580D01*
X90422000Y-59041420D02*
X90422000Y-59322580D01*
D11*
X60113812Y-45629924D02*
G75*
G03*
X60113812Y-45629924I-1135888J0D01*
G01*
X64693000Y-49256866D02*
X64693000Y-44543134D01*
X62731866Y-42582000D02*
X58018134Y-42582000D01*
X56057000Y-44543134D02*
X56057000Y-49256866D01*
X58018134Y-51218000D02*
X62731866Y-51218000D01*
X60121000Y-45630000D02*
X57835000Y-45630000D01*
X58978000Y-46773000D02*
X58978000Y-44487000D01*
X63169000Y-46138000D02*
X63931000Y-46900000D01*
X63042000Y-46011000D02*
X63169000Y-46138000D01*
X63042000Y-47789000D02*
X63042000Y-46011000D01*
X63931000Y-46900000D02*
X63042000Y-47789000D01*
X108912406Y-82199480D02*
X107060746Y-82199480D01*
X108912406Y-80758538D02*
X108912406Y-82199480D01*
X107060746Y-80758538D02*
X108912406Y-80758538D01*
X107060746Y-82199480D02*
X107060746Y-80758538D01*
X110176005Y-83409079D02*
X110176005Y-79659074D01*
X103875815Y-77685392D02*
X106944160Y-77685392D01*
X103875815Y-77685392D02*
X106944160Y-77685392D01*
X103875815Y-85384462D02*
X106944160Y-85384462D01*
X103875815Y-85384462D02*
X106944160Y-85384462D01*
X103875815Y-82790614D02*
X103875815Y-85384462D01*
X103875815Y-82790614D02*
X103875815Y-85384462D01*
X103875815Y-77685392D02*
X103875815Y-80278351D01*
X109512430Y-82169457D02*
X110137194Y-81544617D01*
X110137194Y-82794297D02*
X109512430Y-82169457D01*
X103845995Y-77704086D02*
X103845995Y-80297045D01*
D10*
X69913000Y-35764000D02*
X67963000Y-35764000D01*
X69913000Y-35764000D02*
X71863000Y-35764000D01*
X69913000Y-45884000D02*
X67963000Y-45884000D01*
X69913000Y-45884000D02*
X73363000Y-45884000D01*
D14*
X96250000Y-63050000D02*
X96250000Y-63250000D01*
X100400000Y-63050000D02*
X100400000Y-63250000D01*
X100400000Y-68200000D02*
X100400000Y-68000000D01*
X96250000Y-68200000D02*
X96250000Y-68000000D01*
X96250000Y-63050000D02*
X100400000Y-63050000D01*
X96250000Y-68200000D02*
X100400000Y-68200000D01*
X96250000Y-63250000D02*
X94950000Y-63250000D01*
D10*
X43800000Y-53460000D02*
X45750000Y-53460000D01*
X43800000Y-53460000D02*
X41850000Y-53460000D01*
X43800000Y-43340000D02*
X45750000Y-43340000D01*
X43800000Y-43340000D02*
X40350000Y-43340000D01*
X78825000Y-42190000D02*
X80705000Y-42190000D01*
X78825000Y-42190000D02*
X76945000Y-42190000D01*
X78825000Y-37010000D02*
X80705000Y-37010000D01*
X78825000Y-37010000D02*
X75300000Y-37010000D01*
D14*
X59508000Y-84929000D02*
X77542000Y-84929000D01*
X59508000Y-78960000D02*
X59508000Y-84929000D01*
X77542000Y-78960000D02*
X77542000Y-84929000D01*
D15*
X77525000Y-53375000D02*
X77525000Y-78905000D01*
X77525000Y-78905000D02*
X59525000Y-78905000D01*
X59525000Y-78905000D02*
X59525000Y-53375000D01*
X59525000Y-53375000D02*
X77525000Y-53375000D01*
D10*
X61729000Y-38282000D02*
X62659000Y-38282000D01*
X64889000Y-38282000D02*
X63959000Y-38282000D01*
X64889000Y-38282000D02*
X64889000Y-36122000D01*
X61729000Y-38282000D02*
X61729000Y-36822000D01*
D14*
X37075000Y-45975000D02*
X37075000Y-45750000D01*
X33725000Y-45975000D02*
X33725000Y-45675000D01*
X33725000Y-42625000D02*
X33725000Y-42925000D01*
X37075000Y-42625000D02*
X37075000Y-42925000D01*
X37075000Y-45975000D02*
X33725000Y-45975000D01*
X37075000Y-42625000D02*
X33725000Y-42625000D01*
X37075000Y-45750000D02*
X38300000Y-45750000D01*
X34480000Y-62895000D02*
X34255000Y-62895000D01*
X34480000Y-66245000D02*
X34180000Y-66245000D01*
X31130000Y-66245000D02*
X31430000Y-66245000D01*
X31130000Y-62895000D02*
X31430000Y-62895000D01*
X34480000Y-62895000D02*
X34480000Y-66245000D01*
X31130000Y-62895000D02*
X31130000Y-66245000D01*
X34255000Y-62895000D02*
X34255000Y-61670000D01*
D10*
X52985000Y-72380000D02*
X52985000Y-71450000D01*
X52985000Y-69220000D02*
X52985000Y-70150000D01*
X52985000Y-69220000D02*
X50825000Y-69220000D01*
X52985000Y-72380000D02*
X51525000Y-72380000D01*
X83900000Y-34075000D02*
G75*
G03*
X83900000Y-34075000I-700000J0D01*
G01*
D11*
X57050108Y-25889715D02*
X57050108Y-26813513D01*
X63650146Y-25889715D02*
X63650146Y-26813513D01*
X57150133Y-25001655D02*
X63550121Y-25001655D01*
X58758233Y-27701573D02*
X58942027Y-27701573D01*
X60258230Y-27701573D02*
X61941970Y-27701573D01*
X59050053Y-25001655D02*
X59050053Y-23501581D01*
X60350127Y-23501581D02*
X60350127Y-25001655D01*
X59050053Y-23501581D02*
X60350127Y-23501581D01*
X77175488Y-47375108D02*
G75*
G03*
X77175488Y-47375108I-475234J0D01*
G01*
X78200124Y-47299924D02*
X78200124Y-45499826D01*
X75200130Y-47299924D02*
X75200130Y-45499826D01*
X75200130Y-45499826D02*
X75668760Y-45499826D01*
X77731240Y-45499826D02*
X78200124Y-45499826D01*
X78200124Y-45499826D02*
X78200124Y-48218642D01*
X75200130Y-45499826D02*
X75668760Y-45499826D01*
X77731240Y-45499826D02*
X78200124Y-45499826D01*
X75200130Y-45499826D02*
X75668760Y-45499826D01*
X77731240Y-45499826D02*
X78200124Y-45499826D01*
X75200003Y-47299924D02*
X75200003Y-48218642D01*
X76531090Y-49150009D02*
X76868910Y-49150009D01*
D10*
X68039564Y-34285000D02*
X67585436Y-34285000D01*
X68039564Y-32815000D02*
X67585436Y-32815000D01*
X75472936Y-33740000D02*
X75927064Y-33740000D01*
X75472936Y-35210000D02*
X75927064Y-35210000D01*
X83952064Y-76960000D02*
X83497936Y-76960000D01*
X83952064Y-75490000D02*
X83497936Y-75490000D01*
X87952064Y-77035000D02*
X87497936Y-77035000D01*
X87952064Y-75565000D02*
X87497936Y-75565000D01*
X43577064Y-84835000D02*
X43122936Y-84835000D01*
X43577064Y-83365000D02*
X43122936Y-83365000D01*
X24918936Y-38361000D02*
X25373064Y-38361000D01*
X24918936Y-39831000D02*
X25373064Y-39831000D01*
X34580000Y-38056936D02*
X34580000Y-38511064D01*
X33110000Y-38056936D02*
X33110000Y-38511064D01*
X29060436Y-38215000D02*
X29514564Y-38215000D01*
X29060436Y-39685000D02*
X29514564Y-39685000D01*
X26460000Y-42672936D02*
X26460000Y-43127064D01*
X24990000Y-42672936D02*
X24990000Y-43127064D01*
X47802064Y-72875000D02*
X47347936Y-72875000D01*
X47802064Y-71405000D02*
X47347936Y-71405000D01*
X81380000Y-47462936D02*
X81380000Y-47917064D01*
X79910000Y-47462936D02*
X79910000Y-47917064D01*
X38362064Y-67905000D02*
X37907936Y-67905000D01*
X38362064Y-66435000D02*
X37907936Y-66435000D01*
X45456000Y-67091064D02*
X45456000Y-66636936D01*
X46926000Y-67091064D02*
X46926000Y-66636936D01*
X89802064Y-71685000D02*
X89347936Y-71685000D01*
X89802064Y-70215000D02*
X89347936Y-70215000D01*
X94016064Y-70769000D02*
X93561936Y-70769000D01*
X94016064Y-69299000D02*
X93561936Y-69299000D01*
X104991936Y-68791000D02*
X105446064Y-68791000D01*
X104991936Y-70261000D02*
X105446064Y-70261000D01*
X39717436Y-85941000D02*
X40171564Y-85941000D01*
X39717436Y-87411000D02*
X40171564Y-87411000D01*
X32194000Y-85432936D02*
X32194000Y-85887064D01*
X30724000Y-85432936D02*
X30724000Y-85887064D01*
X38197936Y-63105000D02*
X38652064Y-63105000D01*
X38197936Y-64575000D02*
X38652064Y-64575000D01*
X28384000Y-62977436D02*
X28384000Y-63431564D01*
X26914000Y-62977436D02*
X26914000Y-63431564D01*
X96772936Y-77565000D02*
X97227064Y-77565000D01*
X96772936Y-79035000D02*
X97227064Y-79035000D01*
X108231000Y-67283064D02*
X108231000Y-66828936D01*
X109701000Y-67283064D02*
X109701000Y-66828936D01*
X43116064Y-73441000D02*
X42661936Y-73441000D01*
X43116064Y-71971000D02*
X42661936Y-71971000D01*
X39077000Y-74286000D02*
X39077000Y-73356000D01*
X39077000Y-71126000D02*
X39077000Y-72056000D01*
X39077000Y-71126000D02*
X36917000Y-71126000D01*
X39077000Y-74286000D02*
X37617000Y-74286000D01*
X48521000Y-77906000D02*
X49451000Y-77906000D01*
X51681000Y-77906000D02*
X50751000Y-77906000D01*
X51681000Y-77906000D02*
X51681000Y-75746000D01*
X48521000Y-77906000D02*
X48521000Y-76446000D01*
X41621000Y-66046000D02*
X41621000Y-66976000D01*
X41621000Y-69206000D02*
X41621000Y-68276000D01*
X41621000Y-69206000D02*
X43781000Y-69206000D01*
X41621000Y-66046000D02*
X43081000Y-66046000D01*
X47771000Y-76264000D02*
X46841000Y-76264000D01*
X44611000Y-76264000D02*
X45541000Y-76264000D01*
X44611000Y-76264000D02*
X44611000Y-78424000D01*
X47771000Y-76264000D02*
X47771000Y-77724000D01*
X42555000Y-76955000D02*
X41625000Y-76955000D01*
X39395000Y-76955000D02*
X40325000Y-76955000D01*
X39395000Y-76955000D02*
X39395000Y-79115000D01*
X42555000Y-76955000D02*
X42555000Y-78415000D01*
X102672000Y-71884000D02*
X101742000Y-71884000D01*
X99512000Y-71884000D02*
X100442000Y-71884000D01*
X99512000Y-71884000D02*
X99512000Y-74044000D01*
X102672000Y-71884000D02*
X102672000Y-73344000D01*
X105150000Y-74300000D02*
X105150000Y-76300000D01*
X105150000Y-76300000D02*
X109050000Y-76300000D01*
X105150000Y-74300000D02*
X109050000Y-74300000D01*
X104219000Y-66676000D02*
X106904000Y-66676000D01*
X106904000Y-66676000D02*
X106904000Y-64756000D01*
X106904000Y-64756000D02*
X104219000Y-64756000D01*
X102200000Y-75540000D02*
X99515000Y-75540000D01*
X99515000Y-75540000D02*
X99515000Y-77460000D01*
X99515000Y-77460000D02*
X102200000Y-77460000D01*
X105150000Y-71200000D02*
X105150000Y-73200000D01*
X105150000Y-73200000D02*
X109050000Y-73200000D01*
X105150000Y-71200000D02*
X109050000Y-71200000D01*
X43227000Y-36542000D02*
X41227000Y-36542000D01*
X41227000Y-36542000D02*
X41227000Y-40442000D01*
X43227000Y-36542000D02*
X43227000Y-40442000D01*
X37183000Y-33474000D02*
X37183000Y-35474000D01*
X37183000Y-35474000D02*
X41083000Y-35474000D01*
X37183000Y-33474000D02*
X41083000Y-33474000D01*
X38179000Y-40788000D02*
X40179000Y-40788000D01*
X40179000Y-40788000D02*
X40179000Y-36888000D01*
X38179000Y-40788000D02*
X38179000Y-36888000D01*
X32745000Y-73686000D02*
X34745000Y-73686000D01*
X34745000Y-73686000D02*
X34745000Y-69786000D01*
X32745000Y-73686000D02*
X32745000Y-69786000D01*
X24891000Y-70182000D02*
X24891000Y-72182000D01*
X24891000Y-72182000D02*
X28791000Y-72182000D01*
X24891000Y-70182000D02*
X28791000Y-70182000D01*
X28883000Y-68118000D02*
X28883000Y-66118000D01*
X28883000Y-66118000D02*
X24983000Y-66118000D01*
X28883000Y-68118000D02*
X24983000Y-68118000D01*
X82810000Y-72159420D02*
X82810000Y-72440580D01*
X81790000Y-72159420D02*
X81790000Y-72440580D01*
X95190000Y-74365580D02*
X95190000Y-74084420D01*
X96210000Y-74365580D02*
X96210000Y-74084420D01*
X89609420Y-73390000D02*
X89890580Y-73390000D01*
X89609420Y-74410000D02*
X89890580Y-74410000D01*
X34252580Y-35238000D02*
X33971420Y-35238000D01*
X34252580Y-34218000D02*
X33971420Y-34218000D01*
X25515580Y-46360000D02*
X25234420Y-46360000D01*
X25515580Y-45340000D02*
X25234420Y-45340000D01*
X90485000Y-67888580D02*
X90485000Y-67607420D01*
X91505000Y-67888580D02*
X91505000Y-67607420D01*
X45049000Y-39794000D02*
X49259000Y-39794000D01*
X49259000Y-39794000D02*
X49259000Y-36774000D01*
X49259000Y-36774000D02*
X45049000Y-36774000D01*
X52273580Y-36000000D02*
X51992420Y-36000000D01*
X52273580Y-34980000D02*
X51992420Y-34980000D01*
X87691000Y-67901580D02*
X87691000Y-67620420D01*
X88711000Y-67901580D02*
X88711000Y-67620420D01*
X51992420Y-31932000D02*
X52273580Y-31932000D01*
X51992420Y-32952000D02*
X52273580Y-32952000D01*
X63676420Y-33010000D02*
X63957580Y-33010000D01*
X63676420Y-34030000D02*
X63957580Y-34030000D01*
X35775000Y-86041580D02*
X35775000Y-85760420D01*
X36795000Y-86041580D02*
X36795000Y-85760420D01*
X29386420Y-34218000D02*
X29667580Y-34218000D01*
X29386420Y-35238000D02*
X29667580Y-35238000D01*
X28965000Y-43115580D02*
X28965000Y-42834420D01*
X29985000Y-43115580D02*
X29985000Y-42834420D01*
X24599000Y-63207580D02*
X24599000Y-62926420D01*
X25619000Y-63207580D02*
X25619000Y-62926420D01*
X33489000Y-86067580D02*
X33489000Y-85786420D01*
X34509000Y-86067580D02*
X34509000Y-85786420D01*
X36895000Y-38143420D02*
X36895000Y-38424580D01*
X35875000Y-38143420D02*
X35875000Y-38424580D01*
X38884420Y-83405000D02*
X39165580Y-83405000D01*
X38884420Y-84425000D02*
X39165580Y-84425000D01*
X43265580Y-64090000D02*
X42984420Y-64090000D01*
X43265580Y-63070000D02*
X42984420Y-63070000D01*
X30695000Y-71576580D02*
X30695000Y-71295420D01*
X31715000Y-71576580D02*
X31715000Y-71295420D01*
X43864420Y-33710000D02*
X44145580Y-33710000D01*
X43864420Y-34730000D02*
X44145580Y-34730000D01*
X51709420Y-64965000D02*
X51990580Y-64965000D01*
X51709420Y-65985000D02*
X51990580Y-65985000D01*
X29365580Y-46410000D02*
X29084420Y-46410000D01*
X29365580Y-45390000D02*
X29084420Y-45390000D01*
X84197936Y-63540000D02*
X84652064Y-63540000D01*
X84197936Y-65010000D02*
X84652064Y-65010000D01*
D11*
X46376000Y-56385780D02*
X46376000Y-59960601D01*
X46376000Y-59960601D02*
X46366602Y-59969999D01*
X49250061Y-55921620D02*
X50227961Y-55921620D01*
X50227961Y-55921620D02*
X50227961Y-60450440D01*
X50227961Y-60450440D02*
X49250061Y-60450440D01*
X47381180Y-60650008D02*
X49250061Y-60650008D01*
X47381180Y-55749967D02*
X49250061Y-55749967D01*
X49250061Y-55749967D02*
X49250061Y-56568863D01*
X49250061Y-59831163D02*
X49250061Y-60650008D01*
D13*
X89055688Y-42928797D02*
X89980974Y-42928797D01*
X90089831Y-42874368D01*
X90144259Y-42819940D01*
X90198688Y-42711082D01*
X90198688Y-42493368D01*
X90144259Y-42384511D01*
X90089831Y-42330082D01*
X89980974Y-42275654D01*
X89055688Y-42275654D01*
X90198688Y-41132654D02*
X90198688Y-41785797D01*
X90198688Y-41459225D02*
X89055688Y-41459225D01*
X89218974Y-41568082D01*
X89327831Y-41676940D01*
X89382259Y-41785797D01*
X89055688Y-40751654D02*
X89055688Y-40044082D01*
X89491117Y-40425082D01*
X89491117Y-40261797D01*
X89545545Y-40152940D01*
X89599974Y-40098511D01*
X89708831Y-40044082D01*
X89980974Y-40044082D01*
X90089831Y-40098511D01*
X90144259Y-40152940D01*
X90198688Y-40261797D01*
X90198688Y-40588368D01*
X90144259Y-40697225D01*
X90089831Y-40751654D01*
X70990225Y-31092553D02*
X70990225Y-31908982D01*
X70935797Y-32072267D01*
X70826940Y-32181124D01*
X70663654Y-32235553D01*
X70554797Y-32235553D01*
X72133225Y-32235553D02*
X71480082Y-32235553D01*
X71806654Y-32235553D02*
X71806654Y-31092553D01*
X71697797Y-31255839D01*
X71588940Y-31364696D01*
X71480082Y-31419124D01*
D14*
X79838095Y-27652380D02*
X79838095Y-26652380D01*
X79838095Y-27128571D02*
X80409523Y-27128571D01*
X80409523Y-27652380D02*
X80409523Y-26652380D01*
X81314285Y-26652380D02*
X81123809Y-26652380D01*
X81028571Y-26700000D01*
X80980952Y-26747619D01*
X80885714Y-26890476D01*
X80838095Y-27080952D01*
X80838095Y-27461904D01*
X80885714Y-27557142D01*
X80933333Y-27604761D01*
X81028571Y-27652380D01*
X81219047Y-27652380D01*
X81314285Y-27604761D01*
X81361904Y-27557142D01*
X81409523Y-27461904D01*
X81409523Y-27223809D01*
X81361904Y-27128571D01*
X81314285Y-27080952D01*
X81219047Y-27033333D01*
X81028571Y-27033333D01*
X80933333Y-27080952D01*
X80885714Y-27128571D01*
X80838095Y-27223809D01*
X52838095Y-27152380D02*
X52838095Y-26152380D01*
X52838095Y-26628571D02*
X53409523Y-26628571D01*
X53409523Y-27152380D02*
X53409523Y-26152380D01*
X54361904Y-26152380D02*
X53885714Y-26152380D01*
X53838095Y-26628571D01*
X53885714Y-26580952D01*
X53980952Y-26533333D01*
X54219047Y-26533333D01*
X54314285Y-26580952D01*
X54361904Y-26628571D01*
X54409523Y-26723809D01*
X54409523Y-26961904D01*
X54361904Y-27057142D01*
X54314285Y-27104761D01*
X54219047Y-27152380D01*
X53980952Y-27152380D01*
X53885714Y-27104761D01*
X53838095Y-27057142D01*
X102965476Y-35877380D02*
X103298809Y-36877380D01*
X103632142Y-35877380D01*
X104298809Y-36353571D02*
X104441666Y-36401190D01*
X104489285Y-36448809D01*
X104536904Y-36544047D01*
X104536904Y-36686904D01*
X104489285Y-36782142D01*
X104441666Y-36829761D01*
X104346428Y-36877380D01*
X103965476Y-36877380D01*
X103965476Y-35877380D01*
X104298809Y-35877380D01*
X104394047Y-35925000D01*
X104441666Y-35972619D01*
X104489285Y-36067857D01*
X104489285Y-36163095D01*
X104441666Y-36258333D01*
X104394047Y-36305952D01*
X104298809Y-36353571D01*
X103965476Y-36353571D01*
X104965476Y-35877380D02*
X104965476Y-36686904D01*
X105013095Y-36782142D01*
X105060714Y-36829761D01*
X105155952Y-36877380D01*
X105346428Y-36877380D01*
X105441666Y-36829761D01*
X105489285Y-36782142D01*
X105536904Y-36686904D01*
X105536904Y-35877380D01*
X105965476Y-36829761D02*
X106108333Y-36877380D01*
X106346428Y-36877380D01*
X106441666Y-36829761D01*
X106489285Y-36782142D01*
X106536904Y-36686904D01*
X106536904Y-36591666D01*
X106489285Y-36496428D01*
X106441666Y-36448809D01*
X106346428Y-36401190D01*
X106155952Y-36353571D01*
X106060714Y-36305952D01*
X106013095Y-36258333D01*
X105965476Y-36163095D01*
X105965476Y-36067857D01*
X106013095Y-35972619D01*
X106060714Y-35925000D01*
X106155952Y-35877380D01*
X106394047Y-35877380D01*
X106536904Y-35925000D01*
X107489285Y-36877380D02*
X106917857Y-36877380D01*
X107203571Y-36877380D02*
X107203571Y-35877380D01*
X107108333Y-36020238D01*
X107013095Y-36115476D01*
X106917857Y-36163095D01*
X50877380Y-87988095D02*
X51686904Y-87988095D01*
X51782142Y-87940476D01*
X51829761Y-87892857D01*
X51877380Y-87797619D01*
X51877380Y-87607142D01*
X51829761Y-87511904D01*
X51782142Y-87464285D01*
X51686904Y-87416666D01*
X50877380Y-87416666D01*
X51877380Y-86416666D02*
X51877380Y-86988095D01*
X51877380Y-86702380D02*
X50877380Y-86702380D01*
X51020238Y-86797619D01*
X51115476Y-86892857D01*
X51163095Y-86988095D01*
X50972619Y-86035714D02*
X50925000Y-85988095D01*
X50877380Y-85892857D01*
X50877380Y-85654761D01*
X50925000Y-85559523D01*
X50972619Y-85511904D01*
X51067857Y-85464285D01*
X51163095Y-85464285D01*
X51305952Y-85511904D01*
X51877380Y-86083333D01*
X51877380Y-85464285D01*
X79771904Y-43842380D02*
X80343333Y-43842380D01*
X80057619Y-44842380D02*
X80057619Y-43842380D01*
X80581428Y-43842380D02*
X81248095Y-44842380D01*
X81248095Y-43842380D02*
X80581428Y-44842380D01*
X82152857Y-44842380D02*
X81581428Y-44842380D01*
X81867142Y-44842380D02*
X81867142Y-43842380D01*
X81771904Y-43985238D01*
X81676666Y-44080476D01*
X81581428Y-44128095D01*
X106609523Y-41179761D02*
X106752380Y-41227380D01*
X106990476Y-41227380D01*
X107085714Y-41179761D01*
X107133333Y-41132142D01*
X107180952Y-41036904D01*
X107180952Y-40941666D01*
X107133333Y-40846428D01*
X107085714Y-40798809D01*
X106990476Y-40751190D01*
X106800000Y-40703571D01*
X106704761Y-40655952D01*
X106657142Y-40608333D01*
X106609523Y-40513095D01*
X106609523Y-40417857D01*
X106657142Y-40322619D01*
X106704761Y-40275000D01*
X106800000Y-40227380D01*
X107038095Y-40227380D01*
X107180952Y-40275000D01*
X107609523Y-41227380D02*
X107609523Y-40227380D01*
X107847619Y-40227380D01*
X107990476Y-40275000D01*
X108085714Y-40370238D01*
X108133333Y-40465476D01*
X108180952Y-40655952D01*
X108180952Y-40798809D01*
X108133333Y-40989285D01*
X108085714Y-41084523D01*
X107990476Y-41179761D01*
X107847619Y-41227380D01*
X107609523Y-41227380D01*
X108561904Y-40941666D02*
X109038095Y-40941666D01*
X108466666Y-41227380D02*
X108800000Y-40227380D01*
X109133333Y-41227380D01*
X109990476Y-41227380D02*
X109419047Y-41227380D01*
X109704761Y-41227380D02*
X109704761Y-40227380D01*
X109609523Y-40370238D01*
X109514285Y-40465476D01*
X109419047Y-40513095D01*
X103033333Y-41104761D02*
X103176190Y-41152380D01*
X103414285Y-41152380D01*
X103509523Y-41104761D01*
X103557142Y-41057142D01*
X103604761Y-40961904D01*
X103604761Y-40866666D01*
X103557142Y-40771428D01*
X103509523Y-40723809D01*
X103414285Y-40676190D01*
X103223809Y-40628571D01*
X103128571Y-40580952D01*
X103080952Y-40533333D01*
X103033333Y-40438095D01*
X103033333Y-40342857D01*
X103080952Y-40247619D01*
X103128571Y-40200000D01*
X103223809Y-40152380D01*
X103461904Y-40152380D01*
X103604761Y-40200000D01*
X104604761Y-41057142D02*
X104557142Y-41104761D01*
X104414285Y-41152380D01*
X104319047Y-41152380D01*
X104176190Y-41104761D01*
X104080952Y-41009523D01*
X104033333Y-40914285D01*
X103985714Y-40723809D01*
X103985714Y-40580952D01*
X104033333Y-40390476D01*
X104080952Y-40295238D01*
X104176190Y-40200000D01*
X104319047Y-40152380D01*
X104414285Y-40152380D01*
X104557142Y-40200000D01*
X104604761Y-40247619D01*
X105509523Y-41152380D02*
X105033333Y-41152380D01*
X105033333Y-40152380D01*
X106366666Y-41152380D02*
X105795238Y-41152380D01*
X106080952Y-41152380D02*
X106080952Y-40152380D01*
X105985714Y-40295238D01*
X105890476Y-40390476D01*
X105795238Y-40438095D01*
X85427142Y-44842380D02*
X85093809Y-44366190D01*
X84855714Y-44842380D02*
X84855714Y-43842380D01*
X85236666Y-43842380D01*
X85331904Y-43890000D01*
X85379523Y-43937619D01*
X85427142Y-44032857D01*
X85427142Y-44175714D01*
X85379523Y-44270952D01*
X85331904Y-44318571D01*
X85236666Y-44366190D01*
X84855714Y-44366190D01*
X85760476Y-43842380D02*
X86427142Y-44842380D01*
X86427142Y-43842380D02*
X85760476Y-44842380D01*
X87331904Y-44842380D02*
X86760476Y-44842380D01*
X87046190Y-44842380D02*
X87046190Y-43842380D01*
X86950952Y-43985238D01*
X86855714Y-44080476D01*
X86760476Y-44128095D01*
X104527380Y-49017857D02*
X104051190Y-49351190D01*
X104527380Y-49589285D02*
X103527380Y-49589285D01*
X103527380Y-49208333D01*
X103575000Y-49113095D01*
X103622619Y-49065476D01*
X103717857Y-49017857D01*
X103860714Y-49017857D01*
X103955952Y-49065476D01*
X104003571Y-49113095D01*
X104051190Y-49208333D01*
X104051190Y-49589285D01*
X103527380Y-48684523D02*
X103527380Y-48065476D01*
X103908333Y-48398809D01*
X103908333Y-48255952D01*
X103955952Y-48160714D01*
X104003571Y-48113095D01*
X104098809Y-48065476D01*
X104336904Y-48065476D01*
X104432142Y-48113095D01*
X104479761Y-48160714D01*
X104527380Y-48255952D01*
X104527380Y-48541666D01*
X104479761Y-48636904D01*
X104432142Y-48684523D01*
X104527380Y-47113095D02*
X104527380Y-47684523D01*
X104527380Y-47398809D02*
X103527380Y-47398809D01*
X103670238Y-47494047D01*
X103765476Y-47589285D01*
X103813095Y-47684523D01*
X108277380Y-48992857D02*
X107801190Y-49326190D01*
X108277380Y-49564285D02*
X107277380Y-49564285D01*
X107277380Y-49183333D01*
X107325000Y-49088095D01*
X107372619Y-49040476D01*
X107467857Y-48992857D01*
X107610714Y-48992857D01*
X107705952Y-49040476D01*
X107753571Y-49088095D01*
X107801190Y-49183333D01*
X107801190Y-49564285D01*
X107277380Y-48659523D02*
X107277380Y-48040476D01*
X107658333Y-48373809D01*
X107658333Y-48230952D01*
X107705952Y-48135714D01*
X107753571Y-48088095D01*
X107848809Y-48040476D01*
X108086904Y-48040476D01*
X108182142Y-48088095D01*
X108229761Y-48135714D01*
X108277380Y-48230952D01*
X108277380Y-48516666D01*
X108229761Y-48611904D01*
X108182142Y-48659523D01*
X107277380Y-47421428D02*
X107277380Y-47326190D01*
X107325000Y-47230952D01*
X107372619Y-47183333D01*
X107467857Y-47135714D01*
X107658333Y-47088095D01*
X107896428Y-47088095D01*
X108086904Y-47135714D01*
X108182142Y-47183333D01*
X108229761Y-47230952D01*
X108277380Y-47326190D01*
X108277380Y-47421428D01*
X108229761Y-47516666D01*
X108182142Y-47564285D01*
X108086904Y-47611904D01*
X107896428Y-47659523D01*
X107658333Y-47659523D01*
X107467857Y-47611904D01*
X107372619Y-47564285D01*
X107325000Y-47516666D01*
X107277380Y-47421428D01*
X80127141Y-67252379D02*
X79793808Y-66776189D01*
X79555713Y-67252379D02*
X79555713Y-66252379D01*
X79936665Y-66252379D01*
X80031903Y-66299999D01*
X80079522Y-66347618D01*
X80127141Y-66442856D01*
X80127141Y-66585713D01*
X80079522Y-66680951D01*
X80031903Y-66728570D01*
X79936665Y-66776189D01*
X79555713Y-66776189D01*
X80508094Y-66347618D02*
X80555713Y-66299999D01*
X80650951Y-66252379D01*
X80889046Y-66252379D01*
X80984284Y-66299999D01*
X81031903Y-66347618D01*
X81079522Y-66442856D01*
X81079522Y-66538094D01*
X81031903Y-66680951D01*
X80460475Y-67252379D01*
X81079522Y-67252379D01*
X81555713Y-67252379D02*
X81746189Y-67252379D01*
X81841427Y-67204760D01*
X81889046Y-67157141D01*
X81984284Y-67014284D01*
X82031903Y-66823808D01*
X82031903Y-66442856D01*
X81984284Y-66347618D01*
X81936665Y-66299999D01*
X81841427Y-66252379D01*
X81650951Y-66252379D01*
X81555713Y-66299999D01*
X81508094Y-66347618D01*
X81460475Y-66442856D01*
X81460475Y-66680951D01*
X81508094Y-66776189D01*
X81555713Y-66823808D01*
X81650951Y-66871427D01*
X81841427Y-66871427D01*
X81936665Y-66823808D01*
X81984284Y-66776189D01*
X82031903Y-66680951D01*
X85144642Y-74902380D02*
X84811309Y-74426190D01*
X84573214Y-74902380D02*
X84573214Y-73902380D01*
X84954166Y-73902380D01*
X85049404Y-73950000D01*
X85097023Y-73997619D01*
X85144642Y-74092857D01*
X85144642Y-74235714D01*
X85097023Y-74330952D01*
X85049404Y-74378571D01*
X84954166Y-74426190D01*
X84573214Y-74426190D01*
X85525595Y-73997619D02*
X85573214Y-73950000D01*
X85668452Y-73902380D01*
X85906547Y-73902380D01*
X86001785Y-73950000D01*
X86049404Y-73997619D01*
X86097023Y-74092857D01*
X86097023Y-74188095D01*
X86049404Y-74330952D01*
X85477976Y-74902380D01*
X86097023Y-74902380D01*
X86668452Y-74330952D02*
X86573214Y-74283333D01*
X86525595Y-74235714D01*
X86477976Y-74140476D01*
X86477976Y-74092857D01*
X86525595Y-73997619D01*
X86573214Y-73950000D01*
X86668452Y-73902380D01*
X86858928Y-73902380D01*
X86954166Y-73950000D01*
X87001785Y-73997619D01*
X87049404Y-74092857D01*
X87049404Y-74140476D01*
X87001785Y-74235714D01*
X86954166Y-74283333D01*
X86858928Y-74330952D01*
X86668452Y-74330952D01*
X86573214Y-74378571D01*
X86525595Y-74426190D01*
X86477976Y-74521428D01*
X86477976Y-74711904D01*
X86525595Y-74807142D01*
X86573214Y-74854761D01*
X86668452Y-74902380D01*
X86858928Y-74902380D01*
X86954166Y-74854761D01*
X87001785Y-74807142D01*
X87049404Y-74711904D01*
X87049404Y-74521428D01*
X87001785Y-74426190D01*
X86954166Y-74378571D01*
X86858928Y-74330952D01*
X104738095Y-88602380D02*
X104738095Y-87602380D01*
X104738095Y-88078571D02*
X105309523Y-88078571D01*
X105309523Y-88602380D02*
X105309523Y-87602380D01*
X106214285Y-87935714D02*
X106214285Y-88602380D01*
X105976190Y-87554761D02*
X105738095Y-88269047D01*
X106357142Y-88269047D01*
X24738095Y-84752380D02*
X24738095Y-83752380D01*
X24738095Y-84228571D02*
X25309523Y-84228571D01*
X25309523Y-84752380D02*
X25309523Y-83752380D01*
X25690476Y-83752380D02*
X26309523Y-83752380D01*
X25976190Y-84133333D01*
X26119047Y-84133333D01*
X26214285Y-84180952D01*
X26261904Y-84228571D01*
X26309523Y-84323809D01*
X26309523Y-84561904D01*
X26261904Y-84657142D01*
X26214285Y-84704761D01*
X26119047Y-84752380D01*
X25833333Y-84752380D01*
X25738095Y-84704761D01*
X25690476Y-84657142D01*
X99511904Y-35850000D02*
X99416666Y-35802380D01*
X99273809Y-35802380D01*
X99130952Y-35850000D01*
X99035714Y-35945238D01*
X98988095Y-36040476D01*
X98940476Y-36230952D01*
X98940476Y-36373809D01*
X98988095Y-36564285D01*
X99035714Y-36659523D01*
X99130952Y-36754761D01*
X99273809Y-36802380D01*
X99369047Y-36802380D01*
X99511904Y-36754761D01*
X99559523Y-36707142D01*
X99559523Y-36373809D01*
X99369047Y-36373809D01*
X99988095Y-36802380D02*
X99988095Y-35802380D01*
X100559523Y-36802380D01*
X100559523Y-35802380D01*
X101035714Y-36802380D02*
X101035714Y-35802380D01*
X101273809Y-35802380D01*
X101416666Y-35850000D01*
X101511904Y-35945238D01*
X101559523Y-36040476D01*
X101607142Y-36230952D01*
X101607142Y-36373809D01*
X101559523Y-36564285D01*
X101511904Y-36659523D01*
X101416666Y-36754761D01*
X101273809Y-36802380D01*
X101035714Y-36802380D01*
X102559523Y-36802380D02*
X101988095Y-36802380D01*
X102273809Y-36802380D02*
X102273809Y-35802380D01*
X102178571Y-35945238D01*
X102083333Y-36040476D01*
X101988095Y-36088095D01*
X80182142Y-69882142D02*
X80134523Y-69929761D01*
X79991666Y-69977380D01*
X79896428Y-69977380D01*
X79753571Y-69929761D01*
X79658333Y-69834523D01*
X79610714Y-69739285D01*
X79563095Y-69548809D01*
X79563095Y-69405952D01*
X79610714Y-69215476D01*
X79658333Y-69120238D01*
X79753571Y-69025000D01*
X79896428Y-68977380D01*
X79991666Y-68977380D01*
X80134523Y-69025000D01*
X80182142Y-69072619D01*
X80563095Y-69072619D02*
X80610714Y-69025000D01*
X80705952Y-68977380D01*
X80944047Y-68977380D01*
X81039285Y-69025000D01*
X81086904Y-69072619D01*
X81134523Y-69167857D01*
X81134523Y-69263095D01*
X81086904Y-69405952D01*
X80515476Y-69977380D01*
X81134523Y-69977380D01*
X81705952Y-69405952D02*
X81610714Y-69358333D01*
X81563095Y-69310714D01*
X81515476Y-69215476D01*
X81515476Y-69167857D01*
X81563095Y-69072619D01*
X81610714Y-69025000D01*
X81705952Y-68977380D01*
X81896428Y-68977380D01*
X81991666Y-69025000D01*
X82039285Y-69072619D01*
X82086904Y-69167857D01*
X82086904Y-69215476D01*
X82039285Y-69310714D01*
X81991666Y-69358333D01*
X81896428Y-69405952D01*
X81705952Y-69405952D01*
X81610714Y-69453571D01*
X81563095Y-69501190D01*
X81515476Y-69596428D01*
X81515476Y-69786904D01*
X81563095Y-69882142D01*
X81610714Y-69929761D01*
X81705952Y-69977380D01*
X81896428Y-69977380D01*
X81991666Y-69929761D01*
X82039285Y-69882142D01*
X82086904Y-69786904D01*
X82086904Y-69596428D01*
X82039285Y-69501190D01*
X81991666Y-69453571D01*
X81896428Y-69405952D01*
X98847619Y-40177380D02*
X99466666Y-40177380D01*
X99133333Y-40558333D01*
X99276190Y-40558333D01*
X99371428Y-40605952D01*
X99419047Y-40653571D01*
X99466666Y-40748809D01*
X99466666Y-40986904D01*
X99419047Y-41082142D01*
X99371428Y-41129761D01*
X99276190Y-41177380D01*
X98990476Y-41177380D01*
X98895238Y-41129761D01*
X98847619Y-41082142D01*
X99895238Y-41082142D02*
X99942857Y-41129761D01*
X99895238Y-41177380D01*
X99847619Y-41129761D01*
X99895238Y-41082142D01*
X99895238Y-41177380D01*
X100276190Y-40177380D02*
X100895238Y-40177380D01*
X100561904Y-40558333D01*
X100704761Y-40558333D01*
X100800000Y-40605952D01*
X100847619Y-40653571D01*
X100895238Y-40748809D01*
X100895238Y-40986904D01*
X100847619Y-41082142D01*
X100800000Y-41129761D01*
X100704761Y-41177380D01*
X100419047Y-41177380D01*
X100323809Y-41129761D01*
X100276190Y-41082142D01*
X101180952Y-40177380D02*
X101514285Y-41177380D01*
X101847619Y-40177380D01*
X102704761Y-41177380D02*
X102133333Y-41177380D01*
X102419047Y-41177380D02*
X102419047Y-40177380D01*
X102323809Y-40320238D01*
X102228571Y-40415476D01*
X102133333Y-40463095D01*
X74914285Y-89028571D02*
X75057142Y-89076190D01*
X75104761Y-89123809D01*
X75152380Y-89219047D01*
X75152380Y-89361904D01*
X75104761Y-89457142D01*
X75057142Y-89504761D01*
X74961904Y-89552380D01*
X74580952Y-89552380D01*
X74580952Y-88552380D01*
X74914285Y-88552380D01*
X75009523Y-88600000D01*
X75057142Y-88647619D01*
X75104761Y-88742857D01*
X75104761Y-88838095D01*
X75057142Y-88933333D01*
X75009523Y-88980952D01*
X74914285Y-89028571D01*
X74580952Y-89028571D01*
X75438095Y-88552380D02*
X76009523Y-88552380D01*
X75723809Y-89552380D02*
X75723809Y-88552380D01*
X76866666Y-89552380D02*
X76295238Y-89552380D01*
X76580952Y-89552380D02*
X76580952Y-88552380D01*
X76485714Y-88695238D01*
X76390476Y-88790476D01*
X76295238Y-88838095D01*
D13*
X90270511Y-59154785D02*
X90270511Y-59699071D01*
X89889511Y-58556071D02*
X90270511Y-59154785D01*
X90651511Y-58556071D01*
X91631225Y-59699071D02*
X90978082Y-59699071D01*
X91304654Y-59699071D02*
X91304654Y-58556071D01*
X91195797Y-58719357D01*
X91086940Y-58828214D01*
X90978082Y-58882642D01*
D14*
X102679904Y-55638380D02*
X102679904Y-56447904D01*
X102727523Y-56543142D01*
X102775142Y-56590761D01*
X102870380Y-56638380D01*
X103060857Y-56638380D01*
X103156095Y-56590761D01*
X103203714Y-56543142D01*
X103251333Y-56447904D01*
X103251333Y-55638380D01*
X104251333Y-56638380D02*
X103679904Y-56638380D01*
X103965619Y-56638380D02*
X103965619Y-55638380D01*
X103870380Y-55781238D01*
X103775142Y-55876476D01*
X103679904Y-55924095D01*
X105203714Y-56638380D02*
X104632285Y-56638380D01*
X104918000Y-56638380D02*
X104918000Y-55638380D01*
X104822761Y-55781238D01*
X104727523Y-55876476D01*
X104632285Y-55924095D01*
X99197619Y-51477380D02*
X98864285Y-51001190D01*
X98626190Y-51477380D02*
X98626190Y-50477380D01*
X99007142Y-50477380D01*
X99102380Y-50525000D01*
X99150000Y-50572619D01*
X99197619Y-50667857D01*
X99197619Y-50810714D01*
X99150000Y-50905952D01*
X99102380Y-50953571D01*
X99007142Y-51001190D01*
X98626190Y-51001190D01*
X99483333Y-50477380D02*
X100054761Y-50477380D01*
X99769047Y-51477380D02*
X99769047Y-50477380D01*
X100959523Y-51382142D02*
X100911904Y-51429761D01*
X100769047Y-51477380D01*
X100673809Y-51477380D01*
X100530952Y-51429761D01*
X100435714Y-51334523D01*
X100388095Y-51239285D01*
X100340476Y-51048809D01*
X100340476Y-50905952D01*
X100388095Y-50715476D01*
X100435714Y-50620238D01*
X100530952Y-50525000D01*
X100673809Y-50477380D01*
X100769047Y-50477380D01*
X100911904Y-50525000D01*
X100959523Y-50572619D01*
X101959523Y-51382142D02*
X101911904Y-51429761D01*
X101769047Y-51477380D01*
X101673809Y-51477380D01*
X101530952Y-51429761D01*
X101435714Y-51334523D01*
X101388095Y-51239285D01*
X101340476Y-51048809D01*
X101340476Y-50905952D01*
X101388095Y-50715476D01*
X101435714Y-50620238D01*
X101530952Y-50525000D01*
X101673809Y-50477380D01*
X101769047Y-50477380D01*
X101911904Y-50525000D01*
X101959523Y-50572619D01*
X102864285Y-51477380D02*
X102388095Y-51477380D01*
X102388095Y-50477380D01*
X103197619Y-51477380D02*
X103197619Y-50477380D01*
X103769047Y-51477380D02*
X103340476Y-50905952D01*
X103769047Y-50477380D02*
X103197619Y-51048809D01*
X104721428Y-51477380D02*
X104150000Y-51477380D01*
X104435714Y-51477380D02*
X104435714Y-50477380D01*
X104340476Y-50620238D01*
X104245238Y-50715476D01*
X104150000Y-50763095D01*
X52252142Y-46484380D02*
X51918809Y-46008190D01*
X51680714Y-46484380D02*
X51680714Y-45484380D01*
X52061666Y-45484380D01*
X52156904Y-45532000D01*
X52204523Y-45579619D01*
X52252142Y-45674857D01*
X52252142Y-45817714D01*
X52204523Y-45912952D01*
X52156904Y-45960571D01*
X52061666Y-46008190D01*
X51680714Y-46008190D01*
X52633095Y-45579619D02*
X52680714Y-45532000D01*
X52775952Y-45484380D01*
X53014047Y-45484380D01*
X53109285Y-45532000D01*
X53156904Y-45579619D01*
X53204523Y-45674857D01*
X53204523Y-45770095D01*
X53156904Y-45912952D01*
X52585476Y-46484380D01*
X53204523Y-46484380D01*
X54061666Y-45484380D02*
X53871190Y-45484380D01*
X53775952Y-45532000D01*
X53728333Y-45579619D01*
X53633095Y-45722476D01*
X53585476Y-45912952D01*
X53585476Y-46293904D01*
X53633095Y-46389142D01*
X53680714Y-46436761D01*
X53775952Y-46484380D01*
X53966428Y-46484380D01*
X54061666Y-46436761D01*
X54109285Y-46389142D01*
X54156904Y-46293904D01*
X54156904Y-46055809D01*
X54109285Y-45960571D01*
X54061666Y-45912952D01*
X53966428Y-45865333D01*
X53775952Y-45865333D01*
X53680714Y-45912952D01*
X53633095Y-45960571D01*
X53585476Y-46055809D01*
X51807142Y-52977380D02*
X51473809Y-52501190D01*
X51235714Y-52977380D02*
X51235714Y-51977380D01*
X51616666Y-51977380D01*
X51711904Y-52025000D01*
X51759523Y-52072619D01*
X51807142Y-52167857D01*
X51807142Y-52310714D01*
X51759523Y-52405952D01*
X51711904Y-52453571D01*
X51616666Y-52501190D01*
X51235714Y-52501190D01*
X52188095Y-52072619D02*
X52235714Y-52025000D01*
X52330952Y-51977380D01*
X52569047Y-51977380D01*
X52664285Y-52025000D01*
X52711904Y-52072619D01*
X52759523Y-52167857D01*
X52759523Y-52263095D01*
X52711904Y-52405952D01*
X52140476Y-52977380D01*
X52759523Y-52977380D01*
X53664285Y-51977380D02*
X53188095Y-51977380D01*
X53140476Y-52453571D01*
X53188095Y-52405952D01*
X53283333Y-52358333D01*
X53521428Y-52358333D01*
X53616666Y-52405952D01*
X53664285Y-52453571D01*
X53711904Y-52548809D01*
X53711904Y-52786904D01*
X53664285Y-52882142D01*
X53616666Y-52929761D01*
X53521428Y-52977380D01*
X53283333Y-52977380D01*
X53188095Y-52929761D01*
X53140476Y-52882142D01*
X56316142Y-42706380D02*
X55982809Y-42230190D01*
X55744714Y-42706380D02*
X55744714Y-41706380D01*
X56125666Y-41706380D01*
X56220904Y-41754000D01*
X56268523Y-41801619D01*
X56316142Y-41896857D01*
X56316142Y-42039714D01*
X56268523Y-42134952D01*
X56220904Y-42182571D01*
X56125666Y-42230190D01*
X55744714Y-42230190D01*
X56697095Y-41801619D02*
X56744714Y-41754000D01*
X56839952Y-41706380D01*
X57078047Y-41706380D01*
X57173285Y-41754000D01*
X57220904Y-41801619D01*
X57268523Y-41896857D01*
X57268523Y-41992095D01*
X57220904Y-42134952D01*
X56649476Y-42706380D01*
X57268523Y-42706380D01*
X57601857Y-41706380D02*
X58220904Y-41706380D01*
X57887571Y-42087333D01*
X58030428Y-42087333D01*
X58125666Y-42134952D01*
X58173285Y-42182571D01*
X58220904Y-42277809D01*
X58220904Y-42515904D01*
X58173285Y-42611142D01*
X58125666Y-42658761D01*
X58030428Y-42706380D01*
X57744714Y-42706380D01*
X57649476Y-42658761D01*
X57601857Y-42611142D01*
X52479761Y-40722619D02*
X52384523Y-40675000D01*
X52289285Y-40579761D01*
X52146428Y-40436904D01*
X52051190Y-40389285D01*
X51955952Y-40389285D01*
X52003571Y-40627380D02*
X51908333Y-40579761D01*
X51813095Y-40484523D01*
X51765476Y-40294047D01*
X51765476Y-39960714D01*
X51813095Y-39770238D01*
X51908333Y-39675000D01*
X52003571Y-39627380D01*
X52194047Y-39627380D01*
X52289285Y-39675000D01*
X52384523Y-39770238D01*
X52432142Y-39960714D01*
X52432142Y-40294047D01*
X52384523Y-40484523D01*
X52289285Y-40579761D01*
X52194047Y-40627380D01*
X52003571Y-40627380D01*
X53336904Y-39627380D02*
X52860714Y-39627380D01*
X52813095Y-40103571D01*
X52860714Y-40055952D01*
X52955952Y-40008333D01*
X53194047Y-40008333D01*
X53289285Y-40055952D01*
X53336904Y-40103571D01*
X53384523Y-40198809D01*
X53384523Y-40436904D01*
X53336904Y-40532142D01*
X53289285Y-40579761D01*
X53194047Y-40627380D01*
X52955952Y-40627380D01*
X52860714Y-40579761D01*
X52813095Y-40532142D01*
D13*
X35490488Y-53992071D02*
X34946202Y-53992071D01*
X34946202Y-52849071D01*
X36361345Y-53230071D02*
X36361345Y-53992071D01*
X36089202Y-52794642D02*
X35817060Y-53611071D01*
X36524631Y-53611071D01*
X24440488Y-53992071D02*
X23896202Y-53992071D01*
X23896202Y-52849071D01*
X24712631Y-52849071D02*
X25420202Y-52849071D01*
X25039202Y-53284500D01*
X25202488Y-53284500D01*
X25311345Y-53338928D01*
X25365774Y-53393357D01*
X25420202Y-53502214D01*
X25420202Y-53774357D01*
X25365774Y-53883214D01*
X25311345Y-53937642D01*
X25202488Y-53992071D01*
X24875917Y-53992071D01*
X24767060Y-53937642D01*
X24712631Y-53883214D01*
X28310488Y-83129071D02*
X27766202Y-83129071D01*
X27766202Y-81986071D01*
X28637060Y-82094928D02*
X28691488Y-82040500D01*
X28800345Y-81986071D01*
X29072488Y-81986071D01*
X29181345Y-82040500D01*
X29235774Y-82094928D01*
X29290202Y-82203785D01*
X29290202Y-82312642D01*
X29235774Y-82475928D01*
X28582631Y-83129071D01*
X29290202Y-83129071D01*
X34748602Y-74918749D02*
X34204316Y-74918749D01*
X34204316Y-73775749D01*
X35728316Y-74918749D02*
X35075174Y-74918749D01*
X35401745Y-74918749D02*
X35401745Y-73775749D01*
X35292888Y-73939035D01*
X35184031Y-74047892D01*
X35075174Y-74102320D01*
D14*
X56202380Y-39239285D02*
X55202380Y-39239285D01*
X55202380Y-39001190D01*
X55250000Y-38858333D01*
X55345238Y-38763095D01*
X55440476Y-38715476D01*
X55630952Y-38667857D01*
X55773809Y-38667857D01*
X55964285Y-38715476D01*
X56059523Y-38763095D01*
X56154761Y-38858333D01*
X56202380Y-39001190D01*
X56202380Y-39239285D01*
X56202380Y-37715476D02*
X56202380Y-38286904D01*
X56202380Y-38001190D02*
X55202380Y-38001190D01*
X55345238Y-38096428D01*
X55440476Y-38191666D01*
X55488095Y-38286904D01*
X55202380Y-37382142D02*
X55202380Y-36763095D01*
X55583333Y-37096428D01*
X55583333Y-36953571D01*
X55630952Y-36858333D01*
X55678571Y-36810714D01*
X55773809Y-36763095D01*
X56011904Y-36763095D01*
X56107142Y-36810714D01*
X56154761Y-36858333D01*
X56202380Y-36953571D01*
X56202380Y-37239285D01*
X56154761Y-37334523D01*
X56107142Y-37382142D01*
X104449714Y-52808380D02*
X104449714Y-51808380D01*
X104687809Y-51808380D01*
X104830666Y-51856000D01*
X104925904Y-51951238D01*
X104973523Y-52046476D01*
X105021142Y-52236952D01*
X105021142Y-52379809D01*
X104973523Y-52570285D01*
X104925904Y-52665523D01*
X104830666Y-52760761D01*
X104687809Y-52808380D01*
X104449714Y-52808380D01*
X105973523Y-52808380D02*
X105402095Y-52808380D01*
X105687809Y-52808380D02*
X105687809Y-51808380D01*
X105592571Y-51951238D01*
X105497333Y-52046476D01*
X105402095Y-52094095D01*
X106354476Y-51903619D02*
X106402095Y-51856000D01*
X106497333Y-51808380D01*
X106735428Y-51808380D01*
X106830666Y-51856000D01*
X106878285Y-51903619D01*
X106925904Y-51998857D01*
X106925904Y-52094095D01*
X106878285Y-52236952D01*
X106306857Y-52808380D01*
X106925904Y-52808380D01*
X89035714Y-62682380D02*
X89035714Y-61682380D01*
X89273809Y-61682380D01*
X89416666Y-61730000D01*
X89511904Y-61825238D01*
X89559523Y-61920476D01*
X89607142Y-62110952D01*
X89607142Y-62253809D01*
X89559523Y-62444285D01*
X89511904Y-62539523D01*
X89416666Y-62634761D01*
X89273809Y-62682380D01*
X89035714Y-62682380D01*
X90559523Y-62682380D02*
X89988095Y-62682380D01*
X90273809Y-62682380D02*
X90273809Y-61682380D01*
X90178571Y-61825238D01*
X90083333Y-61920476D01*
X89988095Y-61968095D01*
X91511904Y-62682380D02*
X90940476Y-62682380D01*
X91226190Y-62682380D02*
X91226190Y-61682380D01*
X91130952Y-61825238D01*
X91035714Y-61920476D01*
X90940476Y-61968095D01*
X46868142Y-32997142D02*
X46820523Y-33044761D01*
X46677666Y-33092380D01*
X46582428Y-33092380D01*
X46439571Y-33044761D01*
X46344333Y-32949523D01*
X46296714Y-32854285D01*
X46249095Y-32663809D01*
X46249095Y-32520952D01*
X46296714Y-32330476D01*
X46344333Y-32235238D01*
X46439571Y-32140000D01*
X46582428Y-32092380D01*
X46677666Y-32092380D01*
X46820523Y-32140000D01*
X46868142Y-32187619D01*
X47249095Y-32187619D02*
X47296714Y-32140000D01*
X47391952Y-32092380D01*
X47630047Y-32092380D01*
X47725285Y-32140000D01*
X47772904Y-32187619D01*
X47820523Y-32282857D01*
X47820523Y-32378095D01*
X47772904Y-32520952D01*
X47201476Y-33092380D01*
X47820523Y-33092380D01*
X48677666Y-32092380D02*
X48487190Y-32092380D01*
X48391952Y-32140000D01*
X48344333Y-32187619D01*
X48249095Y-32330476D01*
X48201476Y-32520952D01*
X48201476Y-32901904D01*
X48249095Y-32997142D01*
X48296714Y-33044761D01*
X48391952Y-33092380D01*
X48582428Y-33092380D01*
X48677666Y-33044761D01*
X48725285Y-32997142D01*
X48772904Y-32901904D01*
X48772904Y-32663809D01*
X48725285Y-32568571D01*
X48677666Y-32520952D01*
X48582428Y-32473333D01*
X48391952Y-32473333D01*
X48296714Y-32520952D01*
X48249095Y-32568571D01*
X48201476Y-32663809D01*
X87257142Y-56794857D02*
X87304761Y-56842476D01*
X87352380Y-56985333D01*
X87352380Y-57080571D01*
X87304761Y-57223428D01*
X87209523Y-57318666D01*
X87114285Y-57366285D01*
X86923809Y-57413904D01*
X86780952Y-57413904D01*
X86590476Y-57366285D01*
X86495238Y-57318666D01*
X86400000Y-57223428D01*
X86352380Y-57080571D01*
X86352380Y-56985333D01*
X86400000Y-56842476D01*
X86447619Y-56794857D01*
X86447619Y-56413904D02*
X86400000Y-56366285D01*
X86352380Y-56271047D01*
X86352380Y-56032952D01*
X86400000Y-55937714D01*
X86447619Y-55890095D01*
X86542857Y-55842476D01*
X86638095Y-55842476D01*
X86780952Y-55890095D01*
X87352380Y-56461523D01*
X87352380Y-55842476D01*
X86352380Y-54937714D02*
X86352380Y-55413904D01*
X86828571Y-55461523D01*
X86780952Y-55413904D01*
X86733333Y-55318666D01*
X86733333Y-55080571D01*
X86780952Y-54985333D01*
X86828571Y-54937714D01*
X86923809Y-54890095D01*
X87161904Y-54890095D01*
X87257142Y-54937714D01*
X87304761Y-54985333D01*
X87352380Y-55080571D01*
X87352380Y-55318666D01*
X87304761Y-55413904D01*
X87257142Y-55461523D01*
X89257142Y-56522857D02*
X89304761Y-56570476D01*
X89352380Y-56713333D01*
X89352380Y-56808571D01*
X89304761Y-56951428D01*
X89209523Y-57046666D01*
X89114285Y-57094285D01*
X88923809Y-57141904D01*
X88780952Y-57141904D01*
X88590476Y-57094285D01*
X88495238Y-57046666D01*
X88400000Y-56951428D01*
X88352380Y-56808571D01*
X88352380Y-56713333D01*
X88400000Y-56570476D01*
X88447619Y-56522857D01*
X88447619Y-56141904D02*
X88400000Y-56094285D01*
X88352380Y-55999047D01*
X88352380Y-55760952D01*
X88400000Y-55665714D01*
X88447619Y-55618095D01*
X88542857Y-55570476D01*
X88638095Y-55570476D01*
X88780952Y-55618095D01*
X89352380Y-56189523D01*
X89352380Y-55570476D01*
X88447619Y-55189523D02*
X88400000Y-55141904D01*
X88352380Y-55046666D01*
X88352380Y-54808571D01*
X88400000Y-54713333D01*
X88447619Y-54665714D01*
X88542857Y-54618095D01*
X88638095Y-54618095D01*
X88780952Y-54665714D01*
X89352380Y-55237142D01*
X89352380Y-54618095D01*
X91289142Y-56776857D02*
X91336761Y-56824476D01*
X91384380Y-56967333D01*
X91384380Y-57062571D01*
X91336761Y-57205428D01*
X91241523Y-57300666D01*
X91146285Y-57348285D01*
X90955809Y-57395904D01*
X90812952Y-57395904D01*
X90622476Y-57348285D01*
X90527238Y-57300666D01*
X90432000Y-57205428D01*
X90384380Y-57062571D01*
X90384380Y-56967333D01*
X90432000Y-56824476D01*
X90479619Y-56776857D01*
X90479619Y-56395904D02*
X90432000Y-56348285D01*
X90384380Y-56253047D01*
X90384380Y-56014952D01*
X90432000Y-55919714D01*
X90479619Y-55872095D01*
X90574857Y-55824476D01*
X90670095Y-55824476D01*
X90812952Y-55872095D01*
X91384380Y-56443523D01*
X91384380Y-55824476D01*
X91384380Y-54872095D02*
X91384380Y-55443523D01*
X91384380Y-55157809D02*
X90384380Y-55157809D01*
X90527238Y-55253047D01*
X90622476Y-55348285D01*
X90670095Y-55443523D01*
D13*
X59640940Y-51898357D02*
X59804225Y-51952785D01*
X59858654Y-52007214D01*
X59913082Y-52116071D01*
X59913082Y-52279357D01*
X59858654Y-52388214D01*
X59804225Y-52442642D01*
X59695368Y-52497071D01*
X59259940Y-52497071D01*
X59259940Y-51354071D01*
X59640940Y-51354071D01*
X59749797Y-51408500D01*
X59804225Y-51462928D01*
X59858654Y-51571785D01*
X59858654Y-51680642D01*
X59804225Y-51789500D01*
X59749797Y-51843928D01*
X59640940Y-51898357D01*
X59259940Y-51898357D01*
X60294082Y-51354071D02*
X61056082Y-51354071D01*
X60294082Y-52497071D01*
X61056082Y-52497071D01*
X62090225Y-52497071D02*
X61437082Y-52497071D01*
X61763654Y-52497071D02*
X61763654Y-51354071D01*
X61654797Y-51517357D01*
X61545940Y-51626214D01*
X61437082Y-51680642D01*
X110588071Y-82808797D02*
X111513357Y-82808797D01*
X111622214Y-82754368D01*
X111676642Y-82699940D01*
X111731071Y-82591082D01*
X111731071Y-82373368D01*
X111676642Y-82264511D01*
X111622214Y-82210082D01*
X111513357Y-82155654D01*
X110588071Y-82155654D01*
X110588071Y-81720225D02*
X110588071Y-80958225D01*
X111731071Y-81448082D01*
D14*
X69151095Y-46176380D02*
X69151095Y-46985904D01*
X69198714Y-47081142D01*
X69246333Y-47128761D01*
X69341571Y-47176380D01*
X69532047Y-47176380D01*
X69627285Y-47128761D01*
X69674904Y-47081142D01*
X69722523Y-46985904D01*
X69722523Y-46176380D01*
X70627285Y-46509714D02*
X70627285Y-47176380D01*
X70389190Y-46128761D02*
X70151095Y-46843047D01*
X70770142Y-46843047D01*
X97563095Y-61777380D02*
X97563095Y-62586904D01*
X97610714Y-62682142D01*
X97658333Y-62729761D01*
X97753571Y-62777380D01*
X97944047Y-62777380D01*
X98039285Y-62729761D01*
X98086904Y-62682142D01*
X98134523Y-62586904D01*
X98134523Y-61777380D01*
X98753571Y-62205952D02*
X98658333Y-62158333D01*
X98610714Y-62110714D01*
X98563095Y-62015476D01*
X98563095Y-61967857D01*
X98610714Y-61872619D01*
X98658333Y-61825000D01*
X98753571Y-61777380D01*
X98944047Y-61777380D01*
X99039285Y-61825000D01*
X99086904Y-61872619D01*
X99134523Y-61967857D01*
X99134523Y-62015476D01*
X99086904Y-62110714D01*
X99039285Y-62158333D01*
X98944047Y-62205952D01*
X98753571Y-62205952D01*
X98658333Y-62253571D01*
X98610714Y-62301190D01*
X98563095Y-62396428D01*
X98563095Y-62586904D01*
X98610714Y-62682142D01*
X98658333Y-62729761D01*
X98753571Y-62777380D01*
X98944047Y-62777380D01*
X99039285Y-62729761D01*
X99086904Y-62682142D01*
X99134523Y-62586904D01*
X99134523Y-62396428D01*
X99086904Y-62301190D01*
X99039285Y-62253571D01*
X98944047Y-62205952D01*
X43038095Y-41952380D02*
X43038095Y-42761904D01*
X43085714Y-42857142D01*
X43133333Y-42904761D01*
X43228571Y-42952380D01*
X43419047Y-42952380D01*
X43514285Y-42904761D01*
X43561904Y-42857142D01*
X43609523Y-42761904D01*
X43609523Y-41952380D01*
X44561904Y-41952380D02*
X44085714Y-41952380D01*
X44038095Y-42428571D01*
X44085714Y-42380952D01*
X44180952Y-42333333D01*
X44419047Y-42333333D01*
X44514285Y-42380952D01*
X44561904Y-42428571D01*
X44609523Y-42523809D01*
X44609523Y-42761904D01*
X44561904Y-42857142D01*
X44514285Y-42904761D01*
X44419047Y-42952380D01*
X44180952Y-42952380D01*
X44085714Y-42904761D01*
X44038095Y-42857142D01*
X78063095Y-35622380D02*
X78063095Y-36431904D01*
X78110714Y-36527142D01*
X78158333Y-36574761D01*
X78253571Y-36622380D01*
X78444047Y-36622380D01*
X78539285Y-36574761D01*
X78586904Y-36527142D01*
X78634523Y-36431904D01*
X78634523Y-35622380D01*
X79539285Y-35622380D02*
X79348809Y-35622380D01*
X79253571Y-35670000D01*
X79205952Y-35717619D01*
X79110714Y-35860476D01*
X79063095Y-36050952D01*
X79063095Y-36431904D01*
X79110714Y-36527142D01*
X79158333Y-36574761D01*
X79253571Y-36622380D01*
X79444047Y-36622380D01*
X79539285Y-36574761D01*
X79586904Y-36527142D01*
X79634523Y-36431904D01*
X79634523Y-36193809D01*
X79586904Y-36098571D01*
X79539285Y-36050952D01*
X79444047Y-36003333D01*
X79253571Y-36003333D01*
X79158333Y-36050952D01*
X79110714Y-36098571D01*
X79063095Y-36193809D01*
X67386904Y-77157380D02*
X67386904Y-77966904D01*
X67434523Y-78062142D01*
X67482142Y-78109761D01*
X67577380Y-78157380D01*
X67767857Y-78157380D01*
X67863095Y-78109761D01*
X67910714Y-78062142D01*
X67958333Y-77966904D01*
X67958333Y-77157380D01*
X68958333Y-78157380D02*
X68386904Y-78157380D01*
X68672619Y-78157380D02*
X68672619Y-77157380D01*
X68577380Y-77300238D01*
X68482142Y-77395476D01*
X68386904Y-77443095D01*
X69577380Y-77157380D02*
X69672619Y-77157380D01*
X69767857Y-77205000D01*
X69815476Y-77252619D01*
X69863095Y-77347857D01*
X69910714Y-77538333D01*
X69910714Y-77776428D01*
X69863095Y-77966904D01*
X69815476Y-78062142D01*
X69767857Y-78109761D01*
X69672619Y-78157380D01*
X69577380Y-78157380D01*
X69482142Y-78109761D01*
X69434523Y-78062142D01*
X69386904Y-77966904D01*
X69339285Y-77776428D01*
X69339285Y-77538333D01*
X69386904Y-77347857D01*
X69434523Y-77252619D01*
X69482142Y-77205000D01*
X69577380Y-77157380D01*
X65261380Y-38283904D02*
X66070904Y-38283904D01*
X66166142Y-38236285D01*
X66213761Y-38188666D01*
X66261380Y-38093428D01*
X66261380Y-37902952D01*
X66213761Y-37807714D01*
X66166142Y-37760095D01*
X66070904Y-37712476D01*
X65261380Y-37712476D01*
X65261380Y-37331523D02*
X65261380Y-36712476D01*
X65642333Y-37045809D01*
X65642333Y-36902952D01*
X65689952Y-36807714D01*
X65737571Y-36760095D01*
X65832809Y-36712476D01*
X66070904Y-36712476D01*
X66166142Y-36760095D01*
X66213761Y-36807714D01*
X66261380Y-36902952D01*
X66261380Y-37188666D01*
X66213761Y-37283904D01*
X66166142Y-37331523D01*
X34638095Y-46352380D02*
X34638095Y-47161904D01*
X34685714Y-47257142D01*
X34733333Y-47304761D01*
X34828571Y-47352380D01*
X35019047Y-47352380D01*
X35114285Y-47304761D01*
X35161904Y-47257142D01*
X35209523Y-47161904D01*
X35209523Y-46352380D01*
X35638095Y-46447619D02*
X35685714Y-46400000D01*
X35780952Y-46352380D01*
X36019047Y-46352380D01*
X36114285Y-46400000D01*
X36161904Y-46447619D01*
X36209523Y-46542857D01*
X36209523Y-46638095D01*
X36161904Y-46780952D01*
X35590476Y-47352380D01*
X36209523Y-47352380D01*
X34857380Y-65331904D02*
X35666904Y-65331904D01*
X35762142Y-65284285D01*
X35809761Y-65236666D01*
X35857380Y-65141428D01*
X35857380Y-64950952D01*
X35809761Y-64855714D01*
X35762142Y-64808095D01*
X35666904Y-64760476D01*
X34857380Y-64760476D01*
X35857380Y-63760476D02*
X35857380Y-64331904D01*
X35857380Y-64046190D02*
X34857380Y-64046190D01*
X35000238Y-64141428D01*
X35095476Y-64236666D01*
X35143095Y-64331904D01*
X51463095Y-67752380D02*
X51463095Y-68561904D01*
X51510714Y-68657142D01*
X51558333Y-68704761D01*
X51653571Y-68752380D01*
X51844047Y-68752380D01*
X51939285Y-68704761D01*
X51986904Y-68657142D01*
X52034523Y-68561904D01*
X52034523Y-67752380D01*
X52558333Y-68752380D02*
X52748809Y-68752380D01*
X52844047Y-68704761D01*
X52891666Y-68657142D01*
X52986904Y-68514285D01*
X53034523Y-68323809D01*
X53034523Y-67942857D01*
X52986904Y-67847619D01*
X52939285Y-67800000D01*
X52844047Y-67752380D01*
X52653571Y-67752380D01*
X52558333Y-67800000D01*
X52510714Y-67847619D01*
X52463095Y-67942857D01*
X52463095Y-68180952D01*
X52510714Y-68276190D01*
X52558333Y-68323809D01*
X52653571Y-68371428D01*
X52844047Y-68371428D01*
X52939285Y-68323809D01*
X52986904Y-68276190D01*
X53034523Y-68180952D01*
X80795238Y-32079380D02*
X81128571Y-33079380D01*
X81461904Y-32079380D01*
X82366666Y-32984142D02*
X82319047Y-33031761D01*
X82176190Y-33079380D01*
X82080952Y-33079380D01*
X81938095Y-33031761D01*
X81842857Y-32936523D01*
X81795238Y-32841285D01*
X81747619Y-32650809D01*
X81747619Y-32507952D01*
X81795238Y-32317476D01*
X81842857Y-32222238D01*
X81938095Y-32127000D01*
X82080952Y-32079380D01*
X82176190Y-32079380D01*
X82319047Y-32127000D01*
X82366666Y-32174619D01*
X82985714Y-32079380D02*
X83176190Y-32079380D01*
X83271428Y-32127000D01*
X83366666Y-32222238D01*
X83414285Y-32412714D01*
X83414285Y-32746047D01*
X83366666Y-32936523D01*
X83271428Y-33031761D01*
X83176190Y-33079380D01*
X82985714Y-33079380D01*
X82890476Y-33031761D01*
X82795238Y-32936523D01*
X82747619Y-32746047D01*
X82747619Y-32412714D01*
X82795238Y-32222238D01*
X82890476Y-32127000D01*
X82985714Y-32079380D01*
X83842857Y-33079380D02*
X83842857Y-32079380D01*
X84176190Y-32793666D01*
X84509523Y-32079380D01*
X84509523Y-33079380D01*
X85509523Y-33079380D02*
X84938095Y-33079380D01*
X85223809Y-33079380D02*
X85223809Y-32079380D01*
X85128571Y-32222238D01*
X85033333Y-32317476D01*
X84938095Y-32365095D01*
D13*
X58735225Y-31262642D02*
X58898511Y-31317071D01*
X59170654Y-31317071D01*
X59279511Y-31262642D01*
X59333940Y-31208214D01*
X59388368Y-31099357D01*
X59388368Y-30990500D01*
X59333940Y-30881642D01*
X59279511Y-30827214D01*
X59170654Y-30772785D01*
X58952940Y-30718357D01*
X58844082Y-30663928D01*
X58789654Y-30609500D01*
X58735225Y-30500642D01*
X58735225Y-30391785D01*
X58789654Y-30282928D01*
X58844082Y-30228500D01*
X58952940Y-30174071D01*
X59225082Y-30174071D01*
X59388368Y-30228500D01*
X59769368Y-30174071D02*
X60041511Y-31317071D01*
X60259225Y-30500642D01*
X60476940Y-31317071D01*
X60749082Y-30174071D01*
X61783225Y-31317071D02*
X61130082Y-31317071D01*
X61456654Y-31317071D02*
X61456654Y-30174071D01*
X61347797Y-30337357D01*
X61238940Y-30446214D01*
X61130082Y-30500642D01*
X76099940Y-51577071D02*
X75718940Y-51032785D01*
X75446797Y-51577071D02*
X75446797Y-50434071D01*
X75882225Y-50434071D01*
X75991082Y-50488500D01*
X76045511Y-50542928D01*
X76099940Y-50651785D01*
X76099940Y-50815071D01*
X76045511Y-50923928D01*
X75991082Y-50978357D01*
X75882225Y-51032785D01*
X75446797Y-51032785D01*
X76426511Y-50434071D02*
X76807511Y-51577071D01*
X77188511Y-50434071D01*
X78168225Y-51577071D02*
X77515082Y-51577071D01*
X77841654Y-51577071D02*
X77841654Y-50434071D01*
X77732797Y-50597357D01*
X77623940Y-50706214D01*
X77515082Y-50760642D01*
D14*
X67391833Y-36034380D02*
X67058500Y-35558190D01*
X66820404Y-36034380D02*
X66820404Y-35034380D01*
X67201357Y-35034380D01*
X67296595Y-35082000D01*
X67344214Y-35129619D01*
X67391833Y-35224857D01*
X67391833Y-35367714D01*
X67344214Y-35462952D01*
X67296595Y-35510571D01*
X67201357Y-35558190D01*
X66820404Y-35558190D01*
X67772785Y-35129619D02*
X67820404Y-35082000D01*
X67915642Y-35034380D01*
X68153738Y-35034380D01*
X68248976Y-35082000D01*
X68296595Y-35129619D01*
X68344214Y-35224857D01*
X68344214Y-35320095D01*
X68296595Y-35462952D01*
X67725166Y-36034380D01*
X68344214Y-36034380D01*
X78433333Y-34852380D02*
X78100000Y-34376190D01*
X77861904Y-34852380D02*
X77861904Y-33852380D01*
X78242857Y-33852380D01*
X78338095Y-33900000D01*
X78385714Y-33947619D01*
X78433333Y-34042857D01*
X78433333Y-34185714D01*
X78385714Y-34280952D01*
X78338095Y-34328571D01*
X78242857Y-34376190D01*
X77861904Y-34376190D01*
X79385714Y-34852380D02*
X78814285Y-34852380D01*
X79100000Y-34852380D02*
X79100000Y-33852380D01*
X79004761Y-33995238D01*
X78909523Y-34090476D01*
X78814285Y-34138095D01*
X78807142Y-80877380D02*
X78473809Y-80401190D01*
X78235714Y-80877380D02*
X78235714Y-79877380D01*
X78616666Y-79877380D01*
X78711904Y-79925000D01*
X78759523Y-79972619D01*
X78807142Y-80067857D01*
X78807142Y-80210714D01*
X78759523Y-80305952D01*
X78711904Y-80353571D01*
X78616666Y-80401190D01*
X78235714Y-80401190D01*
X79188095Y-79972619D02*
X79235714Y-79925000D01*
X79330952Y-79877380D01*
X79569047Y-79877380D01*
X79664285Y-79925000D01*
X79711904Y-79972619D01*
X79759523Y-80067857D01*
X79759523Y-80163095D01*
X79711904Y-80305952D01*
X79140476Y-80877380D01*
X79759523Y-80877380D01*
X80140476Y-79972619D02*
X80188095Y-79925000D01*
X80283333Y-79877380D01*
X80521428Y-79877380D01*
X80616666Y-79925000D01*
X80664285Y-79972619D01*
X80711904Y-80067857D01*
X80711904Y-80163095D01*
X80664285Y-80305952D01*
X80092857Y-80877380D01*
X80711904Y-80877380D01*
X81507142Y-79277380D02*
X81173809Y-78801190D01*
X80935714Y-79277380D02*
X80935714Y-78277380D01*
X81316666Y-78277380D01*
X81411904Y-78325000D01*
X81459523Y-78372619D01*
X81507142Y-78467857D01*
X81507142Y-78610714D01*
X81459523Y-78705952D01*
X81411904Y-78753571D01*
X81316666Y-78801190D01*
X80935714Y-78801190D01*
X81888095Y-78372619D02*
X81935714Y-78325000D01*
X82030952Y-78277380D01*
X82269047Y-78277380D01*
X82364285Y-78325000D01*
X82411904Y-78372619D01*
X82459523Y-78467857D01*
X82459523Y-78563095D01*
X82411904Y-78705952D01*
X81840476Y-79277380D01*
X82459523Y-79277380D01*
X83411904Y-79277380D02*
X82840476Y-79277380D01*
X83126190Y-79277380D02*
X83126190Y-78277380D01*
X83030952Y-78420238D01*
X82935714Y-78515476D01*
X82840476Y-78563095D01*
X42484642Y-82482380D02*
X42151309Y-82006190D01*
X41913214Y-82482380D02*
X41913214Y-81482380D01*
X42294166Y-81482380D01*
X42389404Y-81530000D01*
X42437023Y-81577619D01*
X42484642Y-81672857D01*
X42484642Y-81815714D01*
X42437023Y-81910952D01*
X42389404Y-81958571D01*
X42294166Y-82006190D01*
X41913214Y-82006190D01*
X42865595Y-81577619D02*
X42913214Y-81530000D01*
X43008452Y-81482380D01*
X43246547Y-81482380D01*
X43341785Y-81530000D01*
X43389404Y-81577619D01*
X43437023Y-81672857D01*
X43437023Y-81768095D01*
X43389404Y-81910952D01*
X42817976Y-82482380D01*
X43437023Y-82482380D01*
X43770357Y-81482380D02*
X44437023Y-81482380D01*
X44008452Y-82482380D01*
X24503142Y-37898380D02*
X24169809Y-37422190D01*
X23931714Y-37898380D02*
X23931714Y-36898380D01*
X24312666Y-36898380D01*
X24407904Y-36946000D01*
X24455523Y-36993619D01*
X24503142Y-37088857D01*
X24503142Y-37231714D01*
X24455523Y-37326952D01*
X24407904Y-37374571D01*
X24312666Y-37422190D01*
X23931714Y-37422190D01*
X25455523Y-37898380D02*
X24884095Y-37898380D01*
X25169809Y-37898380D02*
X25169809Y-36898380D01*
X25074571Y-37041238D01*
X24979333Y-37136476D01*
X24884095Y-37184095D01*
X26074571Y-36898380D02*
X26169809Y-36898380D01*
X26265047Y-36946000D01*
X26312666Y-36993619D01*
X26360285Y-37088857D01*
X26407904Y-37279333D01*
X26407904Y-37517428D01*
X26360285Y-37707904D01*
X26312666Y-37803142D01*
X26265047Y-37850761D01*
X26169809Y-37898380D01*
X26074571Y-37898380D01*
X25979333Y-37850761D01*
X25931714Y-37803142D01*
X25884095Y-37707904D01*
X25836476Y-37517428D01*
X25836476Y-37279333D01*
X25884095Y-37088857D01*
X25931714Y-36993619D01*
X25979333Y-36946000D01*
X26074571Y-36898380D01*
X32551380Y-38325166D02*
X32075190Y-38658500D01*
X32551380Y-38896595D02*
X31551380Y-38896595D01*
X31551380Y-38515642D01*
X31599000Y-38420404D01*
X31646619Y-38372785D01*
X31741857Y-38325166D01*
X31884714Y-38325166D01*
X31979952Y-38372785D01*
X32027571Y-38420404D01*
X32075190Y-38515642D01*
X32075190Y-38896595D01*
X32551380Y-37848976D02*
X32551380Y-37658500D01*
X32503761Y-37563261D01*
X32456142Y-37515642D01*
X32313285Y-37420404D01*
X32122809Y-37372785D01*
X31741857Y-37372785D01*
X31646619Y-37420404D01*
X31599000Y-37468023D01*
X31551380Y-37563261D01*
X31551380Y-37753738D01*
X31599000Y-37848976D01*
X31646619Y-37896595D01*
X31741857Y-37944214D01*
X31979952Y-37944214D01*
X32075190Y-37896595D01*
X32122809Y-37848976D01*
X32170428Y-37753738D01*
X32170428Y-37563261D01*
X32122809Y-37468023D01*
X32075190Y-37420404D01*
X31979952Y-37372785D01*
X29120833Y-37752380D02*
X28787500Y-37276190D01*
X28549404Y-37752380D02*
X28549404Y-36752380D01*
X28930357Y-36752380D01*
X29025595Y-36800000D01*
X29073214Y-36847619D01*
X29120833Y-36942857D01*
X29120833Y-37085714D01*
X29073214Y-37180952D01*
X29025595Y-37228571D01*
X28930357Y-37276190D01*
X28549404Y-37276190D01*
X29977976Y-36752380D02*
X29787500Y-36752380D01*
X29692261Y-36800000D01*
X29644642Y-36847619D01*
X29549404Y-36990476D01*
X29501785Y-37180952D01*
X29501785Y-37561904D01*
X29549404Y-37657142D01*
X29597023Y-37704761D01*
X29692261Y-37752380D01*
X29882738Y-37752380D01*
X29977976Y-37704761D01*
X30025595Y-37657142D01*
X30073214Y-37561904D01*
X30073214Y-37323809D01*
X30025595Y-37228571D01*
X29977976Y-37180952D01*
X29882738Y-37133333D01*
X29692261Y-37133333D01*
X29597023Y-37180952D01*
X29549404Y-37228571D01*
X29501785Y-37323809D01*
X24327380Y-42891666D02*
X23851190Y-43225000D01*
X24327380Y-43463095D02*
X23327380Y-43463095D01*
X23327380Y-43082142D01*
X23375000Y-42986904D01*
X23422619Y-42939285D01*
X23517857Y-42891666D01*
X23660714Y-42891666D01*
X23755952Y-42939285D01*
X23803571Y-42986904D01*
X23851190Y-43082142D01*
X23851190Y-43463095D01*
X23327380Y-41986904D02*
X23327380Y-42463095D01*
X23803571Y-42510714D01*
X23755952Y-42463095D01*
X23708333Y-42367857D01*
X23708333Y-42129761D01*
X23755952Y-42034523D01*
X23803571Y-41986904D01*
X23898809Y-41939285D01*
X24136904Y-41939285D01*
X24232142Y-41986904D01*
X24279761Y-42034523D01*
X24327380Y-42129761D01*
X24327380Y-42367857D01*
X24279761Y-42463095D01*
X24232142Y-42510714D01*
X46932142Y-74242380D02*
X46598809Y-73766190D01*
X46360714Y-74242380D02*
X46360714Y-73242380D01*
X46741666Y-73242380D01*
X46836904Y-73290000D01*
X46884523Y-73337619D01*
X46932142Y-73432857D01*
X46932142Y-73575714D01*
X46884523Y-73670952D01*
X46836904Y-73718571D01*
X46741666Y-73766190D01*
X46360714Y-73766190D01*
X47313095Y-73337619D02*
X47360714Y-73290000D01*
X47455952Y-73242380D01*
X47694047Y-73242380D01*
X47789285Y-73290000D01*
X47836904Y-73337619D01*
X47884523Y-73432857D01*
X47884523Y-73528095D01*
X47836904Y-73670952D01*
X47265476Y-74242380D01*
X47884523Y-74242380D01*
X48503571Y-73242380D02*
X48598809Y-73242380D01*
X48694047Y-73290000D01*
X48741666Y-73337619D01*
X48789285Y-73432857D01*
X48836904Y-73623333D01*
X48836904Y-73861428D01*
X48789285Y-74051904D01*
X48741666Y-74147142D01*
X48694047Y-74194761D01*
X48598809Y-74242380D01*
X48503571Y-74242380D01*
X48408333Y-74194761D01*
X48360714Y-74147142D01*
X48313095Y-74051904D01*
X48265476Y-73861428D01*
X48265476Y-73623333D01*
X48313095Y-73432857D01*
X48360714Y-73337619D01*
X48408333Y-73290000D01*
X48503571Y-73242380D01*
X80292142Y-51192380D02*
X79958809Y-50716190D01*
X79720714Y-51192380D02*
X79720714Y-50192380D01*
X80101666Y-50192380D01*
X80196904Y-50240000D01*
X80244523Y-50287619D01*
X80292142Y-50382857D01*
X80292142Y-50525714D01*
X80244523Y-50620952D01*
X80196904Y-50668571D01*
X80101666Y-50716190D01*
X79720714Y-50716190D01*
X81244523Y-51192380D02*
X80673095Y-51192380D01*
X80958809Y-51192380D02*
X80958809Y-50192380D01*
X80863571Y-50335238D01*
X80768333Y-50430476D01*
X80673095Y-50478095D01*
X82196904Y-51192380D02*
X81625476Y-51192380D01*
X81911190Y-51192380D02*
X81911190Y-50192380D01*
X81815952Y-50335238D01*
X81720714Y-50430476D01*
X81625476Y-50478095D01*
X37492142Y-69272380D02*
X37158809Y-68796190D01*
X36920714Y-69272380D02*
X36920714Y-68272380D01*
X37301666Y-68272380D01*
X37396904Y-68320000D01*
X37444523Y-68367619D01*
X37492142Y-68462857D01*
X37492142Y-68605714D01*
X37444523Y-68700952D01*
X37396904Y-68748571D01*
X37301666Y-68796190D01*
X36920714Y-68796190D01*
X37873095Y-68367619D02*
X37920714Y-68320000D01*
X38015952Y-68272380D01*
X38254047Y-68272380D01*
X38349285Y-68320000D01*
X38396904Y-68367619D01*
X38444523Y-68462857D01*
X38444523Y-68558095D01*
X38396904Y-68700952D01*
X37825476Y-69272380D01*
X38444523Y-69272380D01*
X39301666Y-68605714D02*
X39301666Y-69272380D01*
X39063571Y-68224761D02*
X38825476Y-68939047D01*
X39444523Y-68939047D01*
X45802142Y-70364380D02*
X45468809Y-69888190D01*
X45230714Y-70364380D02*
X45230714Y-69364380D01*
X45611666Y-69364380D01*
X45706904Y-69412000D01*
X45754523Y-69459619D01*
X45802142Y-69554857D01*
X45802142Y-69697714D01*
X45754523Y-69792952D01*
X45706904Y-69840571D01*
X45611666Y-69888190D01*
X45230714Y-69888190D01*
X46754523Y-70364380D02*
X46183095Y-70364380D01*
X46468809Y-70364380D02*
X46468809Y-69364380D01*
X46373571Y-69507238D01*
X46278333Y-69602476D01*
X46183095Y-69650095D01*
X47230714Y-70364380D02*
X47421190Y-70364380D01*
X47516428Y-70316761D01*
X47564047Y-70269142D01*
X47659285Y-70126285D01*
X47706904Y-69935809D01*
X47706904Y-69554857D01*
X47659285Y-69459619D01*
X47611666Y-69412000D01*
X47516428Y-69364380D01*
X47325952Y-69364380D01*
X47230714Y-69412000D01*
X47183095Y-69459619D01*
X47135476Y-69554857D01*
X47135476Y-69792952D01*
X47183095Y-69888190D01*
X47230714Y-69935809D01*
X47325952Y-69983428D01*
X47516428Y-69983428D01*
X47611666Y-69935809D01*
X47659285Y-69888190D01*
X47706904Y-69792952D01*
X88919642Y-73427380D02*
X88586309Y-72951190D01*
X88348214Y-73427380D02*
X88348214Y-72427380D01*
X88729166Y-72427380D01*
X88824404Y-72475000D01*
X88872023Y-72522619D01*
X88919642Y-72617857D01*
X88919642Y-72760714D01*
X88872023Y-72855952D01*
X88824404Y-72903571D01*
X88729166Y-72951190D01*
X88348214Y-72951190D01*
X89872023Y-73427380D02*
X89300595Y-73427380D01*
X89586309Y-73427380D02*
X89586309Y-72427380D01*
X89491071Y-72570238D01*
X89395833Y-72665476D01*
X89300595Y-72713095D01*
X90252976Y-72522619D02*
X90300595Y-72475000D01*
X90395833Y-72427380D01*
X90633928Y-72427380D01*
X90729166Y-72475000D01*
X90776785Y-72522619D01*
X90824404Y-72617857D01*
X90824404Y-72713095D01*
X90776785Y-72855952D01*
X90205357Y-73427380D01*
X90824404Y-73427380D01*
X93196142Y-72211380D02*
X92862809Y-71735190D01*
X92624714Y-72211380D02*
X92624714Y-71211380D01*
X93005666Y-71211380D01*
X93100904Y-71259000D01*
X93148523Y-71306619D01*
X93196142Y-71401857D01*
X93196142Y-71544714D01*
X93148523Y-71639952D01*
X93100904Y-71687571D01*
X93005666Y-71735190D01*
X92624714Y-71735190D01*
X94148523Y-72211380D02*
X93577095Y-72211380D01*
X93862809Y-72211380D02*
X93862809Y-71211380D01*
X93767571Y-71354238D01*
X93672333Y-71449476D01*
X93577095Y-71497095D01*
X95005666Y-71211380D02*
X94815190Y-71211380D01*
X94719952Y-71259000D01*
X94672333Y-71306619D01*
X94577095Y-71449476D01*
X94529476Y-71639952D01*
X94529476Y-72020904D01*
X94577095Y-72116142D01*
X94624714Y-72163761D01*
X94719952Y-72211380D01*
X94910428Y-72211380D01*
X95005666Y-72163761D01*
X95053285Y-72116142D01*
X95100904Y-72020904D01*
X95100904Y-71782809D01*
X95053285Y-71687571D01*
X95005666Y-71639952D01*
X94910428Y-71592333D01*
X94719952Y-71592333D01*
X94624714Y-71639952D01*
X94577095Y-71687571D01*
X94529476Y-71782809D01*
X108323142Y-70048380D02*
X107989809Y-69572190D01*
X107751714Y-70048380D02*
X107751714Y-69048380D01*
X108132666Y-69048380D01*
X108227904Y-69096000D01*
X108275523Y-69143619D01*
X108323142Y-69238857D01*
X108323142Y-69381714D01*
X108275523Y-69476952D01*
X108227904Y-69524571D01*
X108132666Y-69572190D01*
X107751714Y-69572190D01*
X109275523Y-70048380D02*
X108704095Y-70048380D01*
X108989809Y-70048380D02*
X108989809Y-69048380D01*
X108894571Y-69191238D01*
X108799333Y-69286476D01*
X108704095Y-69334095D01*
X110180285Y-69048380D02*
X109704095Y-69048380D01*
X109656476Y-69524571D01*
X109704095Y-69476952D01*
X109799333Y-69429333D01*
X110037428Y-69429333D01*
X110132666Y-69476952D01*
X110180285Y-69524571D01*
X110227904Y-69619809D01*
X110227904Y-69857904D01*
X110180285Y-69953142D01*
X110132666Y-70000761D01*
X110037428Y-70048380D01*
X109799333Y-70048380D01*
X109704095Y-70000761D01*
X109656476Y-69953142D01*
X39773333Y-89182380D02*
X39440000Y-88706190D01*
X39201904Y-89182380D02*
X39201904Y-88182380D01*
X39582857Y-88182380D01*
X39678095Y-88230000D01*
X39725714Y-88277619D01*
X39773333Y-88372857D01*
X39773333Y-88515714D01*
X39725714Y-88610952D01*
X39678095Y-88658571D01*
X39582857Y-88706190D01*
X39201904Y-88706190D01*
X40344761Y-88610952D02*
X40249523Y-88563333D01*
X40201904Y-88515714D01*
X40154285Y-88420476D01*
X40154285Y-88372857D01*
X40201904Y-88277619D01*
X40249523Y-88230000D01*
X40344761Y-88182380D01*
X40535238Y-88182380D01*
X40630476Y-88230000D01*
X40678095Y-88277619D01*
X40725714Y-88372857D01*
X40725714Y-88420476D01*
X40678095Y-88515714D01*
X40630476Y-88563333D01*
X40535238Y-88610952D01*
X40344761Y-88610952D01*
X40249523Y-88658571D01*
X40201904Y-88706190D01*
X40154285Y-88801428D01*
X40154285Y-88991904D01*
X40201904Y-89087142D01*
X40249523Y-89134761D01*
X40344761Y-89182380D01*
X40535238Y-89182380D01*
X40630476Y-89134761D01*
X40678095Y-89087142D01*
X40725714Y-88991904D01*
X40725714Y-88801428D01*
X40678095Y-88706190D01*
X40630476Y-88658571D01*
X40535238Y-88610952D01*
X31171333Y-83271380D02*
X30838000Y-82795190D01*
X30599904Y-83271380D02*
X30599904Y-82271380D01*
X30980857Y-82271380D01*
X31076095Y-82319000D01*
X31123714Y-82366619D01*
X31171333Y-82461857D01*
X31171333Y-82604714D01*
X31123714Y-82699952D01*
X31076095Y-82747571D01*
X30980857Y-82795190D01*
X30599904Y-82795190D01*
X31504666Y-82271380D02*
X32171333Y-82271380D01*
X31742761Y-83271380D01*
X38258333Y-62642380D02*
X37925000Y-62166190D01*
X37686904Y-62642380D02*
X37686904Y-61642380D01*
X38067857Y-61642380D01*
X38163095Y-61690000D01*
X38210714Y-61737619D01*
X38258333Y-61832857D01*
X38258333Y-61975714D01*
X38210714Y-62070952D01*
X38163095Y-62118571D01*
X38067857Y-62166190D01*
X37686904Y-62166190D01*
X39115476Y-61975714D02*
X39115476Y-62642380D01*
X38877380Y-61594761D02*
X38639285Y-62309047D01*
X39258333Y-62309047D01*
X29751380Y-63371166D02*
X29275190Y-63704500D01*
X29751380Y-63942595D02*
X28751380Y-63942595D01*
X28751380Y-63561642D01*
X28799000Y-63466404D01*
X28846619Y-63418785D01*
X28941857Y-63371166D01*
X29084714Y-63371166D01*
X29179952Y-63418785D01*
X29227571Y-63466404D01*
X29275190Y-63561642D01*
X29275190Y-63942595D01*
X28751380Y-63037833D02*
X28751380Y-62418785D01*
X29132333Y-62752119D01*
X29132333Y-62609261D01*
X29179952Y-62514023D01*
X29227571Y-62466404D01*
X29322809Y-62418785D01*
X29560904Y-62418785D01*
X29656142Y-62466404D01*
X29703761Y-62514023D01*
X29751380Y-62609261D01*
X29751380Y-62894976D01*
X29703761Y-62990214D01*
X29656142Y-63037833D01*
X96332142Y-76877380D02*
X95998809Y-76401190D01*
X95760714Y-76877380D02*
X95760714Y-75877380D01*
X96141666Y-75877380D01*
X96236904Y-75925000D01*
X96284523Y-75972619D01*
X96332142Y-76067857D01*
X96332142Y-76210714D01*
X96284523Y-76305952D01*
X96236904Y-76353571D01*
X96141666Y-76401190D01*
X95760714Y-76401190D01*
X97284523Y-76877380D02*
X96713095Y-76877380D01*
X96998809Y-76877380D02*
X96998809Y-75877380D01*
X96903571Y-76020238D01*
X96808333Y-76115476D01*
X96713095Y-76163095D01*
X98141666Y-76210714D02*
X98141666Y-76877380D01*
X97903571Y-75829761D02*
X97665476Y-76544047D01*
X98284523Y-76544047D01*
X111168380Y-67698857D02*
X110692190Y-68032190D01*
X111168380Y-68270285D02*
X110168380Y-68270285D01*
X110168380Y-67889333D01*
X110216000Y-67794095D01*
X110263619Y-67746476D01*
X110358857Y-67698857D01*
X110501714Y-67698857D01*
X110596952Y-67746476D01*
X110644571Y-67794095D01*
X110692190Y-67889333D01*
X110692190Y-68270285D01*
X111168380Y-66746476D02*
X111168380Y-67317904D01*
X111168380Y-67032190D02*
X110168380Y-67032190D01*
X110311238Y-67127428D01*
X110406476Y-67222666D01*
X110454095Y-67317904D01*
X110168380Y-66413142D02*
X110168380Y-65794095D01*
X110549333Y-66127428D01*
X110549333Y-65984571D01*
X110596952Y-65889333D01*
X110644571Y-65841714D01*
X110739809Y-65794095D01*
X110977904Y-65794095D01*
X111073142Y-65841714D01*
X111120761Y-65889333D01*
X111168380Y-65984571D01*
X111168380Y-66270285D01*
X111120761Y-66365523D01*
X111073142Y-66413142D01*
X42246142Y-74808380D02*
X41912809Y-74332190D01*
X41674714Y-74808380D02*
X41674714Y-73808380D01*
X42055666Y-73808380D01*
X42150904Y-73856000D01*
X42198523Y-73903619D01*
X42246142Y-73998857D01*
X42246142Y-74141714D01*
X42198523Y-74236952D01*
X42150904Y-74284571D01*
X42055666Y-74332190D01*
X41674714Y-74332190D01*
X43198523Y-74808380D02*
X42627095Y-74808380D01*
X42912809Y-74808380D02*
X42912809Y-73808380D01*
X42817571Y-73951238D01*
X42722333Y-74046476D01*
X42627095Y-74094095D01*
X43769952Y-74236952D02*
X43674714Y-74189333D01*
X43627095Y-74141714D01*
X43579476Y-74046476D01*
X43579476Y-73998857D01*
X43627095Y-73903619D01*
X43674714Y-73856000D01*
X43769952Y-73808380D01*
X43960428Y-73808380D01*
X44055666Y-73856000D01*
X44103285Y-73903619D01*
X44150904Y-73998857D01*
X44150904Y-74046476D01*
X44103285Y-74141714D01*
X44055666Y-74189333D01*
X43960428Y-74236952D01*
X43769952Y-74236952D01*
X43674714Y-74284571D01*
X43627095Y-74332190D01*
X43579476Y-74427428D01*
X43579476Y-74617904D01*
X43627095Y-74713142D01*
X43674714Y-74760761D01*
X43769952Y-74808380D01*
X43960428Y-74808380D01*
X44055666Y-74760761D01*
X44103285Y-74713142D01*
X44150904Y-74617904D01*
X44150904Y-74427428D01*
X44103285Y-74332190D01*
X44055666Y-74284571D01*
X43960428Y-74236952D01*
X41404619Y-72547238D02*
X41357000Y-72642476D01*
X41261761Y-72737714D01*
X41118904Y-72880571D01*
X41071285Y-72975809D01*
X41071285Y-73071047D01*
X41309380Y-73023428D02*
X41261761Y-73118666D01*
X41166523Y-73213904D01*
X40976047Y-73261523D01*
X40642714Y-73261523D01*
X40452238Y-73213904D01*
X40357000Y-73118666D01*
X40309380Y-73023428D01*
X40309380Y-72832952D01*
X40357000Y-72737714D01*
X40452238Y-72642476D01*
X40642714Y-72594857D01*
X40976047Y-72594857D01*
X41166523Y-72642476D01*
X41261761Y-72737714D01*
X41309380Y-72832952D01*
X41309380Y-73023428D01*
X40642714Y-71737714D02*
X41309380Y-71737714D01*
X40261761Y-71975809D02*
X40976047Y-72213904D01*
X40976047Y-71594857D01*
X53148619Y-77241238D02*
X53101000Y-77336476D01*
X53005761Y-77431714D01*
X52862904Y-77574571D01*
X52815285Y-77669809D01*
X52815285Y-77765047D01*
X53053380Y-77717428D02*
X53005761Y-77812666D01*
X52910523Y-77907904D01*
X52720047Y-77955523D01*
X52386714Y-77955523D01*
X52196238Y-77907904D01*
X52101000Y-77812666D01*
X52053380Y-77717428D01*
X52053380Y-77526952D01*
X52101000Y-77431714D01*
X52196238Y-77336476D01*
X52386714Y-77288857D01*
X52720047Y-77288857D01*
X52910523Y-77336476D01*
X53005761Y-77431714D01*
X53053380Y-77526952D01*
X53053380Y-77717428D01*
X52053380Y-76955523D02*
X52053380Y-76288857D01*
X53053380Y-76717428D01*
X40388619Y-67721238D02*
X40341000Y-67816476D01*
X40245761Y-67911714D01*
X40102904Y-68054571D01*
X40055285Y-68149809D01*
X40055285Y-68245047D01*
X40293380Y-68197428D02*
X40245761Y-68292666D01*
X40150523Y-68387904D01*
X39960047Y-68435523D01*
X39626714Y-68435523D01*
X39436238Y-68387904D01*
X39341000Y-68292666D01*
X39293380Y-68197428D01*
X39293380Y-68006952D01*
X39341000Y-67911714D01*
X39436238Y-67816476D01*
X39626714Y-67768857D01*
X39960047Y-67768857D01*
X40150523Y-67816476D01*
X40245761Y-67911714D01*
X40293380Y-68006952D01*
X40293380Y-68197428D01*
X39293380Y-67435523D02*
X39293380Y-66816476D01*
X39674333Y-67149809D01*
X39674333Y-67006952D01*
X39721952Y-66911714D01*
X39769571Y-66864095D01*
X39864809Y-66816476D01*
X40102904Y-66816476D01*
X40198142Y-66864095D01*
X40245761Y-66911714D01*
X40293380Y-67006952D01*
X40293380Y-67292666D01*
X40245761Y-67387904D01*
X40198142Y-67435523D01*
X46376261Y-74954619D02*
X46281023Y-74907000D01*
X46185785Y-74811761D01*
X46042928Y-74668904D01*
X45947690Y-74621285D01*
X45852452Y-74621285D01*
X45900071Y-74859380D02*
X45804833Y-74811761D01*
X45709595Y-74716523D01*
X45661976Y-74526047D01*
X45661976Y-74192714D01*
X45709595Y-74002238D01*
X45804833Y-73907000D01*
X45900071Y-73859380D01*
X46090547Y-73859380D01*
X46185785Y-73907000D01*
X46281023Y-74002238D01*
X46328642Y-74192714D01*
X46328642Y-74526047D01*
X46281023Y-74716523D01*
X46185785Y-74811761D01*
X46090547Y-74859380D01*
X45900071Y-74859380D01*
X46709595Y-73954619D02*
X46757214Y-73907000D01*
X46852452Y-73859380D01*
X47090547Y-73859380D01*
X47185785Y-73907000D01*
X47233404Y-73954619D01*
X47281023Y-74049857D01*
X47281023Y-74145095D01*
X47233404Y-74287952D01*
X46661976Y-74859380D01*
X47281023Y-74859380D01*
X39022619Y-77810238D02*
X38975000Y-77905476D01*
X38879761Y-78000714D01*
X38736904Y-78143571D01*
X38689285Y-78238809D01*
X38689285Y-78334047D01*
X38927380Y-78286428D02*
X38879761Y-78381666D01*
X38784523Y-78476904D01*
X38594047Y-78524523D01*
X38260714Y-78524523D01*
X38070238Y-78476904D01*
X37975000Y-78381666D01*
X37927380Y-78286428D01*
X37927380Y-78095952D01*
X37975000Y-78000714D01*
X38070238Y-77905476D01*
X38260714Y-77857857D01*
X38594047Y-77857857D01*
X38784523Y-77905476D01*
X38879761Y-78000714D01*
X38927380Y-78095952D01*
X38927380Y-78286428D01*
X37927380Y-77000714D02*
X37927380Y-77191190D01*
X37975000Y-77286428D01*
X38022619Y-77334047D01*
X38165476Y-77429285D01*
X38355952Y-77476904D01*
X38736904Y-77476904D01*
X38832142Y-77429285D01*
X38879761Y-77381666D01*
X38927380Y-77286428D01*
X38927380Y-77095952D01*
X38879761Y-77000714D01*
X38832142Y-76953095D01*
X38736904Y-76905476D01*
X38498809Y-76905476D01*
X38403571Y-76953095D01*
X38355952Y-77000714D01*
X38308333Y-77095952D01*
X38308333Y-77286428D01*
X38355952Y-77381666D01*
X38403571Y-77429285D01*
X38498809Y-77476904D01*
X99139619Y-72739238D02*
X99092000Y-72834476D01*
X98996761Y-72929714D01*
X98853904Y-73072571D01*
X98806285Y-73167809D01*
X98806285Y-73263047D01*
X99044380Y-73215428D02*
X98996761Y-73310666D01*
X98901523Y-73405904D01*
X98711047Y-73453523D01*
X98377714Y-73453523D01*
X98187238Y-73405904D01*
X98092000Y-73310666D01*
X98044380Y-73215428D01*
X98044380Y-73024952D01*
X98092000Y-72929714D01*
X98187238Y-72834476D01*
X98377714Y-72786857D01*
X98711047Y-72786857D01*
X98901523Y-72834476D01*
X98996761Y-72929714D01*
X99044380Y-73024952D01*
X99044380Y-73215428D01*
X99044380Y-71834476D02*
X99044380Y-72405904D01*
X99044380Y-72120190D02*
X98044380Y-72120190D01*
X98187238Y-72215428D01*
X98282476Y-72310666D01*
X98330095Y-72405904D01*
X103161904Y-76052380D02*
X103161904Y-75052380D01*
X103400000Y-75052380D01*
X103542857Y-75100000D01*
X103638095Y-75195238D01*
X103685714Y-75290476D01*
X103733333Y-75480952D01*
X103733333Y-75623809D01*
X103685714Y-75814285D01*
X103638095Y-75909523D01*
X103542857Y-76004761D01*
X103400000Y-76052380D01*
X103161904Y-76052380D01*
X104304761Y-75480952D02*
X104209523Y-75433333D01*
X104161904Y-75385714D01*
X104114285Y-75290476D01*
X104114285Y-75242857D01*
X104161904Y-75147619D01*
X104209523Y-75100000D01*
X104304761Y-75052380D01*
X104495238Y-75052380D01*
X104590476Y-75100000D01*
X104638095Y-75147619D01*
X104685714Y-75242857D01*
X104685714Y-75290476D01*
X104638095Y-75385714D01*
X104590476Y-75433333D01*
X104495238Y-75480952D01*
X104304761Y-75480952D01*
X104209523Y-75528571D01*
X104161904Y-75576190D01*
X104114285Y-75671428D01*
X104114285Y-75861904D01*
X104161904Y-75957142D01*
X104209523Y-76004761D01*
X104304761Y-76052380D01*
X104495238Y-76052380D01*
X104590476Y-76004761D01*
X104638095Y-75957142D01*
X104685714Y-75861904D01*
X104685714Y-75671428D01*
X104638095Y-75576190D01*
X104590476Y-75528571D01*
X104495238Y-75480952D01*
X104004714Y-67818380D02*
X104004714Y-66818380D01*
X104242809Y-66818380D01*
X104385666Y-66866000D01*
X104480904Y-66961238D01*
X104528523Y-67056476D01*
X104576142Y-67246952D01*
X104576142Y-67389809D01*
X104528523Y-67580285D01*
X104480904Y-67675523D01*
X104385666Y-67770761D01*
X104242809Y-67818380D01*
X104004714Y-67818380D01*
X105528523Y-67818380D02*
X104957095Y-67818380D01*
X105242809Y-67818380D02*
X105242809Y-66818380D01*
X105147571Y-66961238D01*
X105052333Y-67056476D01*
X104957095Y-67104095D01*
X106147571Y-66818380D02*
X106242809Y-66818380D01*
X106338047Y-66866000D01*
X106385666Y-66913619D01*
X106433285Y-67008857D01*
X106480904Y-67199333D01*
X106480904Y-67437428D01*
X106433285Y-67627904D01*
X106385666Y-67723142D01*
X106338047Y-67770761D01*
X106242809Y-67818380D01*
X106147571Y-67818380D01*
X106052333Y-67770761D01*
X106004714Y-67723142D01*
X105957095Y-67627904D01*
X105909476Y-67437428D01*
X105909476Y-67199333D01*
X105957095Y-67008857D01*
X106004714Y-66913619D01*
X106052333Y-66866000D01*
X106147571Y-66818380D01*
X100311904Y-78852380D02*
X100311904Y-77852380D01*
X100550000Y-77852380D01*
X100692857Y-77900000D01*
X100788095Y-77995238D01*
X100835714Y-78090476D01*
X100883333Y-78280952D01*
X100883333Y-78423809D01*
X100835714Y-78614285D01*
X100788095Y-78709523D01*
X100692857Y-78804761D01*
X100550000Y-78852380D01*
X100311904Y-78852380D01*
X101359523Y-78852380D02*
X101550000Y-78852380D01*
X101645238Y-78804761D01*
X101692857Y-78757142D01*
X101788095Y-78614285D01*
X101835714Y-78423809D01*
X101835714Y-78042857D01*
X101788095Y-77947619D01*
X101740476Y-77900000D01*
X101645238Y-77852380D01*
X101454761Y-77852380D01*
X101359523Y-77900000D01*
X101311904Y-77947619D01*
X101264285Y-78042857D01*
X101264285Y-78280952D01*
X101311904Y-78376190D01*
X101359523Y-78423809D01*
X101454761Y-78471428D01*
X101645238Y-78471428D01*
X101740476Y-78423809D01*
X101788095Y-78376190D01*
X101835714Y-78280952D01*
X103361904Y-72852380D02*
X103361904Y-71852380D01*
X103600000Y-71852380D01*
X103742857Y-71900000D01*
X103838095Y-71995238D01*
X103885714Y-72090476D01*
X103933333Y-72280952D01*
X103933333Y-72423809D01*
X103885714Y-72614285D01*
X103838095Y-72709523D01*
X103742857Y-72804761D01*
X103600000Y-72852380D01*
X103361904Y-72852380D01*
X104266666Y-71852380D02*
X104933333Y-71852380D01*
X104504761Y-72852380D01*
X43187380Y-43086095D02*
X42187380Y-43086095D01*
X42187380Y-42848000D01*
X42235000Y-42705142D01*
X42330238Y-42609904D01*
X42425476Y-42562285D01*
X42615952Y-42514666D01*
X42758809Y-42514666D01*
X42949285Y-42562285D01*
X43044523Y-42609904D01*
X43139761Y-42705142D01*
X43187380Y-42848000D01*
X43187380Y-43086095D01*
X42187380Y-41657523D02*
X42187380Y-41848000D01*
X42235000Y-41943238D01*
X42282619Y-41990857D01*
X42425476Y-42086095D01*
X42615952Y-42133714D01*
X42996904Y-42133714D01*
X43092142Y-42086095D01*
X43139761Y-42038476D01*
X43187380Y-41943238D01*
X43187380Y-41752761D01*
X43139761Y-41657523D01*
X43092142Y-41609904D01*
X42996904Y-41562285D01*
X42758809Y-41562285D01*
X42663571Y-41609904D01*
X42615952Y-41657523D01*
X42568333Y-41752761D01*
X42568333Y-41943238D01*
X42615952Y-42038476D01*
X42663571Y-42086095D01*
X42758809Y-42133714D01*
X38694904Y-32926380D02*
X38694904Y-31926380D01*
X38933000Y-31926380D01*
X39075857Y-31974000D01*
X39171095Y-32069238D01*
X39218714Y-32164476D01*
X39266333Y-32354952D01*
X39266333Y-32497809D01*
X39218714Y-32688285D01*
X39171095Y-32783523D01*
X39075857Y-32878761D01*
X38933000Y-32926380D01*
X38694904Y-32926380D01*
X40123476Y-32259714D02*
X40123476Y-32926380D01*
X39885380Y-31878761D02*
X39647285Y-32593047D01*
X40266333Y-32593047D01*
X38615380Y-39276095D02*
X37615380Y-39276095D01*
X37615380Y-39038000D01*
X37663000Y-38895142D01*
X37758238Y-38799904D01*
X37853476Y-38752285D01*
X38043952Y-38704666D01*
X38186809Y-38704666D01*
X38377285Y-38752285D01*
X38472523Y-38799904D01*
X38567761Y-38895142D01*
X38615380Y-39038000D01*
X38615380Y-39276095D01*
X37710619Y-38323714D02*
X37663000Y-38276095D01*
X37615380Y-38180857D01*
X37615380Y-37942761D01*
X37663000Y-37847523D01*
X37710619Y-37799904D01*
X37805857Y-37752285D01*
X37901095Y-37752285D01*
X38043952Y-37799904D01*
X38615380Y-38371333D01*
X38615380Y-37752285D01*
X32197380Y-72174095D02*
X31197380Y-72174095D01*
X31197380Y-71936000D01*
X31245000Y-71793142D01*
X31340238Y-71697904D01*
X31435476Y-71650285D01*
X31625952Y-71602666D01*
X31768809Y-71602666D01*
X31959285Y-71650285D01*
X32054523Y-71697904D01*
X32149761Y-71793142D01*
X32197380Y-71936000D01*
X32197380Y-72174095D01*
X31197380Y-70697904D02*
X31197380Y-71174095D01*
X31673571Y-71221714D01*
X31625952Y-71174095D01*
X31578333Y-71078857D01*
X31578333Y-70840761D01*
X31625952Y-70745523D01*
X31673571Y-70697904D01*
X31768809Y-70650285D01*
X32006904Y-70650285D01*
X32102142Y-70697904D01*
X32149761Y-70745523D01*
X32197380Y-70840761D01*
X32197380Y-71078857D01*
X32149761Y-71174095D01*
X32102142Y-71221714D01*
X26656904Y-69602380D02*
X26656904Y-68602380D01*
X26895000Y-68602380D01*
X27037857Y-68650000D01*
X27133095Y-68745238D01*
X27180714Y-68840476D01*
X27228333Y-69030952D01*
X27228333Y-69173809D01*
X27180714Y-69364285D01*
X27133095Y-69459523D01*
X27037857Y-69554761D01*
X26895000Y-69602380D01*
X26656904Y-69602380D01*
X27561666Y-68602380D02*
X28180714Y-68602380D01*
X27847380Y-68983333D01*
X27990238Y-68983333D01*
X28085476Y-69030952D01*
X28133095Y-69078571D01*
X28180714Y-69173809D01*
X28180714Y-69411904D01*
X28133095Y-69507142D01*
X28085476Y-69554761D01*
X27990238Y-69602380D01*
X27704523Y-69602380D01*
X27609285Y-69554761D01*
X27561666Y-69507142D01*
X25914904Y-65940380D02*
X25914904Y-64940380D01*
X26153000Y-64940380D01*
X26295857Y-64988000D01*
X26391095Y-65083238D01*
X26438714Y-65178476D01*
X26486333Y-65368952D01*
X26486333Y-65511809D01*
X26438714Y-65702285D01*
X26391095Y-65797523D01*
X26295857Y-65892761D01*
X26153000Y-65940380D01*
X25914904Y-65940380D01*
X27438714Y-65940380D02*
X26867285Y-65940380D01*
X27153000Y-65940380D02*
X27153000Y-64940380D01*
X27057761Y-65083238D01*
X26962523Y-65178476D01*
X26867285Y-65226095D01*
X80957142Y-73067857D02*
X81004761Y-73115476D01*
X81052380Y-73258333D01*
X81052380Y-73353571D01*
X81004761Y-73496428D01*
X80909523Y-73591666D01*
X80814285Y-73639285D01*
X80623809Y-73686904D01*
X80480952Y-73686904D01*
X80290476Y-73639285D01*
X80195238Y-73591666D01*
X80100000Y-73496428D01*
X80052380Y-73353571D01*
X80052380Y-73258333D01*
X80100000Y-73115476D01*
X80147619Y-73067857D01*
X80147619Y-72686904D02*
X80100000Y-72639285D01*
X80052380Y-72544047D01*
X80052380Y-72305952D01*
X80100000Y-72210714D01*
X80147619Y-72163095D01*
X80242857Y-72115476D01*
X80338095Y-72115476D01*
X80480952Y-72163095D01*
X81052380Y-72734523D01*
X81052380Y-72115476D01*
X80052380Y-71782142D02*
X80052380Y-71115476D01*
X81052380Y-71544047D01*
X93829142Y-74810857D02*
X93876761Y-74858476D01*
X93924380Y-75001333D01*
X93924380Y-75096571D01*
X93876761Y-75239428D01*
X93781523Y-75334666D01*
X93686285Y-75382285D01*
X93495809Y-75429904D01*
X93352952Y-75429904D01*
X93162476Y-75382285D01*
X93067238Y-75334666D01*
X92972000Y-75239428D01*
X92924380Y-75096571D01*
X92924380Y-75001333D01*
X92972000Y-74858476D01*
X93019619Y-74810857D01*
X93019619Y-74429904D02*
X92972000Y-74382285D01*
X92924380Y-74287047D01*
X92924380Y-74048952D01*
X92972000Y-73953714D01*
X93019619Y-73906095D01*
X93114857Y-73858476D01*
X93210095Y-73858476D01*
X93352952Y-73906095D01*
X93924380Y-74477523D01*
X93924380Y-73858476D01*
X92924380Y-73525142D02*
X92924380Y-72906095D01*
X93305333Y-73239428D01*
X93305333Y-73096571D01*
X93352952Y-73001333D01*
X93400571Y-72953714D01*
X93495809Y-72906095D01*
X93733904Y-72906095D01*
X93829142Y-72953714D01*
X93876761Y-73001333D01*
X93924380Y-73096571D01*
X93924380Y-73382285D01*
X93876761Y-73477523D01*
X93829142Y-73525142D01*
X90289142Y-75795142D02*
X90241523Y-75842761D01*
X90098666Y-75890380D01*
X90003428Y-75890380D01*
X89860571Y-75842761D01*
X89765333Y-75747523D01*
X89717714Y-75652285D01*
X89670095Y-75461809D01*
X89670095Y-75318952D01*
X89717714Y-75128476D01*
X89765333Y-75033238D01*
X89860571Y-74938000D01*
X90003428Y-74890380D01*
X90098666Y-74890380D01*
X90241523Y-74938000D01*
X90289142Y-74985619D01*
X91241523Y-75890380D02*
X90670095Y-75890380D01*
X90955809Y-75890380D02*
X90955809Y-74890380D01*
X90860571Y-75033238D01*
X90765333Y-75128476D01*
X90670095Y-75176095D01*
X92098666Y-74890380D02*
X91908190Y-74890380D01*
X91812952Y-74938000D01*
X91765333Y-74985619D01*
X91670095Y-75128476D01*
X91622476Y-75318952D01*
X91622476Y-75699904D01*
X91670095Y-75795142D01*
X91717714Y-75842761D01*
X91812952Y-75890380D01*
X92003428Y-75890380D01*
X92098666Y-75842761D01*
X92146285Y-75795142D01*
X92193904Y-75699904D01*
X92193904Y-75461809D01*
X92146285Y-75366571D01*
X92098666Y-75318952D01*
X92003428Y-75271333D01*
X91812952Y-75271333D01*
X91717714Y-75318952D01*
X91670095Y-75366571D01*
X91622476Y-75461809D01*
X33444142Y-33335142D02*
X33396523Y-33382761D01*
X33253666Y-33430380D01*
X33158428Y-33430380D01*
X33015571Y-33382761D01*
X32920333Y-33287523D01*
X32872714Y-33192285D01*
X32825095Y-33001809D01*
X32825095Y-32858952D01*
X32872714Y-32668476D01*
X32920333Y-32573238D01*
X33015571Y-32478000D01*
X33158428Y-32430380D01*
X33253666Y-32430380D01*
X33396523Y-32478000D01*
X33444142Y-32525619D01*
X34396523Y-33430380D02*
X33825095Y-33430380D01*
X34110809Y-33430380D02*
X34110809Y-32430380D01*
X34015571Y-32573238D01*
X33920333Y-32668476D01*
X33825095Y-32716095D01*
X35301285Y-32430380D02*
X34825095Y-32430380D01*
X34777476Y-32906571D01*
X34825095Y-32858952D01*
X34920333Y-32811333D01*
X35158428Y-32811333D01*
X35253666Y-32858952D01*
X35301285Y-32906571D01*
X35348904Y-33001809D01*
X35348904Y-33239904D01*
X35301285Y-33335142D01*
X35253666Y-33382761D01*
X35158428Y-33430380D01*
X34920333Y-33430380D01*
X34825095Y-33382761D01*
X34777476Y-33335142D01*
X24732142Y-47637142D02*
X24684523Y-47684761D01*
X24541666Y-47732380D01*
X24446428Y-47732380D01*
X24303571Y-47684761D01*
X24208333Y-47589523D01*
X24160714Y-47494285D01*
X24113095Y-47303809D01*
X24113095Y-47160952D01*
X24160714Y-46970476D01*
X24208333Y-46875238D01*
X24303571Y-46780000D01*
X24446428Y-46732380D01*
X24541666Y-46732380D01*
X24684523Y-46780000D01*
X24732142Y-46827619D01*
X25684523Y-47732380D02*
X25113095Y-47732380D01*
X25398809Y-47732380D02*
X25398809Y-46732380D01*
X25303571Y-46875238D01*
X25208333Y-46970476D01*
X25113095Y-47018095D01*
X26017857Y-46732380D02*
X26636904Y-46732380D01*
X26303571Y-47113333D01*
X26446428Y-47113333D01*
X26541666Y-47160952D01*
X26589285Y-47208571D01*
X26636904Y-47303809D01*
X26636904Y-47541904D01*
X26589285Y-47637142D01*
X26541666Y-47684761D01*
X26446428Y-47732380D01*
X26160714Y-47732380D01*
X26065476Y-47684761D01*
X26017857Y-47637142D01*
X89922142Y-68390857D02*
X89969761Y-68438476D01*
X90017380Y-68581333D01*
X90017380Y-68676571D01*
X89969761Y-68819428D01*
X89874523Y-68914666D01*
X89779285Y-68962285D01*
X89588809Y-69009904D01*
X89445952Y-69009904D01*
X89255476Y-68962285D01*
X89160238Y-68914666D01*
X89065000Y-68819428D01*
X89017380Y-68676571D01*
X89017380Y-68581333D01*
X89065000Y-68438476D01*
X89112619Y-68390857D01*
X90017380Y-67438476D02*
X90017380Y-68009904D01*
X90017380Y-67724190D02*
X89017380Y-67724190D01*
X89160238Y-67819428D01*
X89255476Y-67914666D01*
X89303095Y-68009904D01*
X90017380Y-66962285D02*
X90017380Y-66771809D01*
X89969761Y-66676571D01*
X89922142Y-66628952D01*
X89779285Y-66533714D01*
X89588809Y-66486095D01*
X89207857Y-66486095D01*
X89112619Y-66533714D01*
X89065000Y-66581333D01*
X89017380Y-66676571D01*
X89017380Y-66867047D01*
X89065000Y-66962285D01*
X89112619Y-67009904D01*
X89207857Y-67057523D01*
X89445952Y-67057523D01*
X89541190Y-67009904D01*
X89588809Y-66962285D01*
X89636428Y-66867047D01*
X89636428Y-66676571D01*
X89588809Y-66581333D01*
X89541190Y-66533714D01*
X89445952Y-66486095D01*
X46156142Y-40991142D02*
X46108523Y-41038761D01*
X45965666Y-41086380D01*
X45870428Y-41086380D01*
X45727571Y-41038761D01*
X45632333Y-40943523D01*
X45584714Y-40848285D01*
X45537095Y-40657809D01*
X45537095Y-40514952D01*
X45584714Y-40324476D01*
X45632333Y-40229238D01*
X45727571Y-40134000D01*
X45870428Y-40086380D01*
X45965666Y-40086380D01*
X46108523Y-40134000D01*
X46156142Y-40181619D01*
X47108523Y-41086380D02*
X46537095Y-41086380D01*
X46822809Y-41086380D02*
X46822809Y-40086380D01*
X46727571Y-40229238D01*
X46632333Y-40324476D01*
X46537095Y-40372095D01*
X47679952Y-40514952D02*
X47584714Y-40467333D01*
X47537095Y-40419714D01*
X47489476Y-40324476D01*
X47489476Y-40276857D01*
X47537095Y-40181619D01*
X47584714Y-40134000D01*
X47679952Y-40086380D01*
X47870428Y-40086380D01*
X47965666Y-40134000D01*
X48013285Y-40181619D01*
X48060904Y-40276857D01*
X48060904Y-40324476D01*
X48013285Y-40419714D01*
X47965666Y-40467333D01*
X47870428Y-40514952D01*
X47679952Y-40514952D01*
X47584714Y-40562571D01*
X47537095Y-40610190D01*
X47489476Y-40705428D01*
X47489476Y-40895904D01*
X47537095Y-40991142D01*
X47584714Y-41038761D01*
X47679952Y-41086380D01*
X47870428Y-41086380D01*
X47965666Y-41038761D01*
X48013285Y-40991142D01*
X48060904Y-40895904D01*
X48060904Y-40705428D01*
X48013285Y-40610190D01*
X47965666Y-40562571D01*
X47870428Y-40514952D01*
X51683333Y-34457142D02*
X51635714Y-34504761D01*
X51492857Y-34552380D01*
X51397619Y-34552380D01*
X51254761Y-34504761D01*
X51159523Y-34409523D01*
X51111904Y-34314285D01*
X51064285Y-34123809D01*
X51064285Y-33980952D01*
X51111904Y-33790476D01*
X51159523Y-33695238D01*
X51254761Y-33600000D01*
X51397619Y-33552380D01*
X51492857Y-33552380D01*
X51635714Y-33600000D01*
X51683333Y-33647619D01*
X52159523Y-34552380D02*
X52350000Y-34552380D01*
X52445238Y-34504761D01*
X52492857Y-34457142D01*
X52588095Y-34314285D01*
X52635714Y-34123809D01*
X52635714Y-33742857D01*
X52588095Y-33647619D01*
X52540476Y-33600000D01*
X52445238Y-33552380D01*
X52254761Y-33552380D01*
X52159523Y-33600000D01*
X52111904Y-33647619D01*
X52064285Y-33742857D01*
X52064285Y-33980952D01*
X52111904Y-34076190D01*
X52159523Y-34123809D01*
X52254761Y-34171428D01*
X52445238Y-34171428D01*
X52540476Y-34123809D01*
X52588095Y-34076190D01*
X52635714Y-33980952D01*
X87128142Y-68403857D02*
X87175761Y-68451476D01*
X87223380Y-68594333D01*
X87223380Y-68689571D01*
X87175761Y-68832428D01*
X87080523Y-68927666D01*
X86985285Y-68975285D01*
X86794809Y-69022904D01*
X86651952Y-69022904D01*
X86461476Y-68975285D01*
X86366238Y-68927666D01*
X86271000Y-68832428D01*
X86223380Y-68689571D01*
X86223380Y-68594333D01*
X86271000Y-68451476D01*
X86318619Y-68403857D01*
X87223380Y-67451476D02*
X87223380Y-68022904D01*
X87223380Y-67737190D02*
X86223380Y-67737190D01*
X86366238Y-67832428D01*
X86461476Y-67927666D01*
X86509095Y-68022904D01*
X86223380Y-67118142D02*
X86223380Y-66451476D01*
X87223380Y-66880047D01*
X49483333Y-32182142D02*
X49435714Y-32229761D01*
X49292857Y-32277380D01*
X49197619Y-32277380D01*
X49054761Y-32229761D01*
X48959523Y-32134523D01*
X48911904Y-32039285D01*
X48864285Y-31848809D01*
X48864285Y-31705952D01*
X48911904Y-31515476D01*
X48959523Y-31420238D01*
X49054761Y-31325000D01*
X49197619Y-31277380D01*
X49292857Y-31277380D01*
X49435714Y-31325000D01*
X49483333Y-31372619D01*
X50054761Y-31705952D02*
X49959523Y-31658333D01*
X49911904Y-31610714D01*
X49864285Y-31515476D01*
X49864285Y-31467857D01*
X49911904Y-31372619D01*
X49959523Y-31325000D01*
X50054761Y-31277380D01*
X50245238Y-31277380D01*
X50340476Y-31325000D01*
X50388095Y-31372619D01*
X50435714Y-31467857D01*
X50435714Y-31515476D01*
X50388095Y-31610714D01*
X50340476Y-31658333D01*
X50245238Y-31705952D01*
X50054761Y-31705952D01*
X49959523Y-31753571D01*
X49911904Y-31801190D01*
X49864285Y-31896428D01*
X49864285Y-32086904D01*
X49911904Y-32182142D01*
X49959523Y-32229761D01*
X50054761Y-32277380D01*
X50245238Y-32277380D01*
X50340476Y-32229761D01*
X50388095Y-32182142D01*
X50435714Y-32086904D01*
X50435714Y-31896428D01*
X50388095Y-31801190D01*
X50340476Y-31753571D01*
X50245238Y-31705952D01*
X60390333Y-32867142D02*
X60342714Y-32914761D01*
X60199857Y-32962380D01*
X60104619Y-32962380D01*
X59961761Y-32914761D01*
X59866523Y-32819523D01*
X59818904Y-32724285D01*
X59771285Y-32533809D01*
X59771285Y-32390952D01*
X59818904Y-32200476D01*
X59866523Y-32105238D01*
X59961761Y-32010000D01*
X60104619Y-31962380D01*
X60199857Y-31962380D01*
X60342714Y-32010000D01*
X60390333Y-32057619D01*
X60723666Y-31962380D02*
X61342714Y-31962380D01*
X61009380Y-32343333D01*
X61152238Y-32343333D01*
X61247476Y-32390952D01*
X61295095Y-32438571D01*
X61342714Y-32533809D01*
X61342714Y-32771904D01*
X61295095Y-32867142D01*
X61247476Y-32914761D01*
X61152238Y-32962380D01*
X60866523Y-32962380D01*
X60771285Y-32914761D01*
X60723666Y-32867142D01*
X35342142Y-88683142D02*
X35294523Y-88730761D01*
X35151666Y-88778380D01*
X35056428Y-88778380D01*
X34913571Y-88730761D01*
X34818333Y-88635523D01*
X34770714Y-88540285D01*
X34723095Y-88349809D01*
X34723095Y-88206952D01*
X34770714Y-88016476D01*
X34818333Y-87921238D01*
X34913571Y-87826000D01*
X35056428Y-87778380D01*
X35151666Y-87778380D01*
X35294523Y-87826000D01*
X35342142Y-87873619D01*
X36294523Y-88778380D02*
X35723095Y-88778380D01*
X36008809Y-88778380D02*
X36008809Y-87778380D01*
X35913571Y-87921238D01*
X35818333Y-88016476D01*
X35723095Y-88064095D01*
X37151666Y-88111714D02*
X37151666Y-88778380D01*
X36913571Y-87730761D02*
X36675476Y-88445047D01*
X37294523Y-88445047D01*
X28884142Y-33655142D02*
X28836523Y-33702761D01*
X28693666Y-33750380D01*
X28598428Y-33750380D01*
X28455571Y-33702761D01*
X28360333Y-33607523D01*
X28312714Y-33512285D01*
X28265095Y-33321809D01*
X28265095Y-33178952D01*
X28312714Y-32988476D01*
X28360333Y-32893238D01*
X28455571Y-32798000D01*
X28598428Y-32750380D01*
X28693666Y-32750380D01*
X28836523Y-32798000D01*
X28884142Y-32845619D01*
X29836523Y-33750380D02*
X29265095Y-33750380D01*
X29550809Y-33750380D02*
X29550809Y-32750380D01*
X29455571Y-32893238D01*
X29360333Y-32988476D01*
X29265095Y-33036095D01*
X30788904Y-33750380D02*
X30217476Y-33750380D01*
X30503190Y-33750380D02*
X30503190Y-32750380D01*
X30407952Y-32893238D01*
X30312714Y-32988476D01*
X30217476Y-33036095D01*
X28402142Y-43141666D02*
X28449761Y-43189285D01*
X28497380Y-43332142D01*
X28497380Y-43427380D01*
X28449761Y-43570238D01*
X28354523Y-43665476D01*
X28259285Y-43713095D01*
X28068809Y-43760714D01*
X27925952Y-43760714D01*
X27735476Y-43713095D01*
X27640238Y-43665476D01*
X27545000Y-43570238D01*
X27497380Y-43427380D01*
X27497380Y-43332142D01*
X27545000Y-43189285D01*
X27592619Y-43141666D01*
X27497380Y-42808333D02*
X27497380Y-42141666D01*
X28497380Y-42570238D01*
X24036142Y-63709857D02*
X24083761Y-63757476D01*
X24131380Y-63900333D01*
X24131380Y-63995571D01*
X24083761Y-64138428D01*
X23988523Y-64233666D01*
X23893285Y-64281285D01*
X23702809Y-64328904D01*
X23559952Y-64328904D01*
X23369476Y-64281285D01*
X23274238Y-64233666D01*
X23179000Y-64138428D01*
X23131380Y-63995571D01*
X23131380Y-63900333D01*
X23179000Y-63757476D01*
X23226619Y-63709857D01*
X24131380Y-62757476D02*
X24131380Y-63328904D01*
X24131380Y-63043190D02*
X23131380Y-63043190D01*
X23274238Y-63138428D01*
X23369476Y-63233666D01*
X23417095Y-63328904D01*
X23226619Y-62376523D02*
X23179000Y-62328904D01*
X23131380Y-62233666D01*
X23131380Y-61995571D01*
X23179000Y-61900333D01*
X23226619Y-61852714D01*
X23321857Y-61805095D01*
X23417095Y-61805095D01*
X23559952Y-61852714D01*
X24131380Y-62424142D01*
X24131380Y-61805095D01*
X33231142Y-83434142D02*
X33183523Y-83481761D01*
X33040666Y-83529380D01*
X32945428Y-83529380D01*
X32802571Y-83481761D01*
X32707333Y-83386523D01*
X32659714Y-83291285D01*
X32612095Y-83100809D01*
X32612095Y-82957952D01*
X32659714Y-82767476D01*
X32707333Y-82672238D01*
X32802571Y-82577000D01*
X32945428Y-82529380D01*
X33040666Y-82529380D01*
X33183523Y-82577000D01*
X33231142Y-82624619D01*
X34183523Y-83529380D02*
X33612095Y-83529380D01*
X33897809Y-83529380D02*
X33897809Y-82529380D01*
X33802571Y-82672238D01*
X33707333Y-82767476D01*
X33612095Y-82815095D01*
X34802571Y-82529380D02*
X34897809Y-82529380D01*
X34993047Y-82577000D01*
X35040666Y-82624619D01*
X35088285Y-82719857D01*
X35135904Y-82910333D01*
X35135904Y-83148428D01*
X35088285Y-83338904D01*
X35040666Y-83434142D01*
X34993047Y-83481761D01*
X34897809Y-83529380D01*
X34802571Y-83529380D01*
X34707333Y-83481761D01*
X34659714Y-83434142D01*
X34612095Y-83338904D01*
X34564476Y-83148428D01*
X34564476Y-82910333D01*
X34612095Y-82719857D01*
X34659714Y-82624619D01*
X34707333Y-82577000D01*
X34802571Y-82529380D01*
X35667142Y-38525666D02*
X35714761Y-38573285D01*
X35762380Y-38716142D01*
X35762380Y-38811380D01*
X35714761Y-38954238D01*
X35619523Y-39049476D01*
X35524285Y-39097095D01*
X35333809Y-39144714D01*
X35190952Y-39144714D01*
X35000476Y-39097095D01*
X34905238Y-39049476D01*
X34810000Y-38954238D01*
X34762380Y-38811380D01*
X34762380Y-38716142D01*
X34810000Y-38573285D01*
X34857619Y-38525666D01*
X34762380Y-37620904D02*
X34762380Y-38097095D01*
X35238571Y-38144714D01*
X35190952Y-38097095D01*
X35143333Y-38001857D01*
X35143333Y-37763761D01*
X35190952Y-37668523D01*
X35238571Y-37620904D01*
X35333809Y-37573285D01*
X35571904Y-37573285D01*
X35667142Y-37620904D01*
X35714761Y-37668523D01*
X35762380Y-37763761D01*
X35762380Y-38001857D01*
X35714761Y-38097095D01*
X35667142Y-38144714D01*
X39258333Y-82497142D02*
X39210714Y-82544761D01*
X39067857Y-82592380D01*
X38972619Y-82592380D01*
X38829761Y-82544761D01*
X38734523Y-82449523D01*
X38686904Y-82354285D01*
X38639285Y-82163809D01*
X38639285Y-82020952D01*
X38686904Y-81830476D01*
X38734523Y-81735238D01*
X38829761Y-81640000D01*
X38972619Y-81592380D01*
X39067857Y-81592380D01*
X39210714Y-81640000D01*
X39258333Y-81687619D01*
X39639285Y-81687619D02*
X39686904Y-81640000D01*
X39782142Y-81592380D01*
X40020238Y-81592380D01*
X40115476Y-81640000D01*
X40163095Y-81687619D01*
X40210714Y-81782857D01*
X40210714Y-81878095D01*
X40163095Y-82020952D01*
X39591666Y-82592380D01*
X40210714Y-82592380D01*
X40358333Y-63737142D02*
X40310714Y-63784761D01*
X40167857Y-63832380D01*
X40072619Y-63832380D01*
X39929761Y-63784761D01*
X39834523Y-63689523D01*
X39786904Y-63594285D01*
X39739285Y-63403809D01*
X39739285Y-63260952D01*
X39786904Y-63070476D01*
X39834523Y-62975238D01*
X39929761Y-62880000D01*
X40072619Y-62832380D01*
X40167857Y-62832380D01*
X40310714Y-62880000D01*
X40358333Y-62927619D01*
X41215476Y-62832380D02*
X41025000Y-62832380D01*
X40929761Y-62880000D01*
X40882142Y-62927619D01*
X40786904Y-63070476D01*
X40739285Y-63260952D01*
X40739285Y-63641904D01*
X40786904Y-63737142D01*
X40834523Y-63784761D01*
X40929761Y-63832380D01*
X41120238Y-63832380D01*
X41215476Y-63784761D01*
X41263095Y-63737142D01*
X41310714Y-63641904D01*
X41310714Y-63403809D01*
X41263095Y-63308571D01*
X41215476Y-63260952D01*
X41120238Y-63213333D01*
X40929761Y-63213333D01*
X40834523Y-63260952D01*
X40786904Y-63308571D01*
X40739285Y-63403809D01*
X31313333Y-74518142D02*
X31265714Y-74565761D01*
X31122857Y-74613380D01*
X31027619Y-74613380D01*
X30884761Y-74565761D01*
X30789523Y-74470523D01*
X30741904Y-74375285D01*
X30694285Y-74184809D01*
X30694285Y-74041952D01*
X30741904Y-73851476D01*
X30789523Y-73756238D01*
X30884761Y-73661000D01*
X31027619Y-73613380D01*
X31122857Y-73613380D01*
X31265714Y-73661000D01*
X31313333Y-73708619D01*
X32170476Y-73946714D02*
X32170476Y-74613380D01*
X31932380Y-73565761D02*
X31694285Y-74280047D01*
X32313333Y-74280047D01*
X43362142Y-33147142D02*
X43314523Y-33194761D01*
X43171666Y-33242380D01*
X43076428Y-33242380D01*
X42933571Y-33194761D01*
X42838333Y-33099523D01*
X42790714Y-33004285D01*
X42743095Y-32813809D01*
X42743095Y-32670952D01*
X42790714Y-32480476D01*
X42838333Y-32385238D01*
X42933571Y-32290000D01*
X43076428Y-32242380D01*
X43171666Y-32242380D01*
X43314523Y-32290000D01*
X43362142Y-32337619D01*
X43743095Y-32337619D02*
X43790714Y-32290000D01*
X43885952Y-32242380D01*
X44124047Y-32242380D01*
X44219285Y-32290000D01*
X44266904Y-32337619D01*
X44314523Y-32432857D01*
X44314523Y-32528095D01*
X44266904Y-32670952D01*
X43695476Y-33242380D01*
X44314523Y-33242380D01*
X45171666Y-32575714D02*
X45171666Y-33242380D01*
X44933571Y-32194761D02*
X44695476Y-32909047D01*
X45314523Y-32909047D01*
X51207142Y-64402142D02*
X51159523Y-64449761D01*
X51016666Y-64497380D01*
X50921428Y-64497380D01*
X50778571Y-64449761D01*
X50683333Y-64354523D01*
X50635714Y-64259285D01*
X50588095Y-64068809D01*
X50588095Y-63925952D01*
X50635714Y-63735476D01*
X50683333Y-63640238D01*
X50778571Y-63545000D01*
X50921428Y-63497380D01*
X51016666Y-63497380D01*
X51159523Y-63545000D01*
X51207142Y-63592619D01*
X51588095Y-63592619D02*
X51635714Y-63545000D01*
X51730952Y-63497380D01*
X51969047Y-63497380D01*
X52064285Y-63545000D01*
X52111904Y-63592619D01*
X52159523Y-63687857D01*
X52159523Y-63783095D01*
X52111904Y-63925952D01*
X51540476Y-64497380D01*
X52159523Y-64497380D01*
X52778571Y-63497380D02*
X52873809Y-63497380D01*
X52969047Y-63545000D01*
X53016666Y-63592619D01*
X53064285Y-63687857D01*
X53111904Y-63878333D01*
X53111904Y-64116428D01*
X53064285Y-64306904D01*
X53016666Y-64402142D01*
X52969047Y-64449761D01*
X52873809Y-64497380D01*
X52778571Y-64497380D01*
X52683333Y-64449761D01*
X52635714Y-64402142D01*
X52588095Y-64306904D01*
X52540476Y-64116428D01*
X52540476Y-63878333D01*
X52588095Y-63687857D01*
X52635714Y-63592619D01*
X52683333Y-63545000D01*
X52778571Y-63497380D01*
X29058333Y-47687142D02*
X29010714Y-47734761D01*
X28867857Y-47782380D01*
X28772619Y-47782380D01*
X28629761Y-47734761D01*
X28534523Y-47639523D01*
X28486904Y-47544285D01*
X28439285Y-47353809D01*
X28439285Y-47210952D01*
X28486904Y-47020476D01*
X28534523Y-46925238D01*
X28629761Y-46830000D01*
X28772619Y-46782380D01*
X28867857Y-46782380D01*
X29010714Y-46830000D01*
X29058333Y-46877619D01*
X30010714Y-47782380D02*
X29439285Y-47782380D01*
X29725000Y-47782380D02*
X29725000Y-46782380D01*
X29629761Y-46925238D01*
X29534523Y-47020476D01*
X29439285Y-47068095D01*
X109238095Y-37452380D02*
X109238095Y-36452380D01*
X109238095Y-36928571D02*
X109809523Y-36928571D01*
X109809523Y-37452380D02*
X109809523Y-36452380D01*
X110809523Y-37452380D02*
X110238095Y-37452380D01*
X110523809Y-37452380D02*
X110523809Y-36452380D01*
X110428571Y-36595238D01*
X110333333Y-36690476D01*
X110238095Y-36738095D01*
X83882142Y-62777380D02*
X83548809Y-62301190D01*
X83310714Y-62777380D02*
X83310714Y-61777380D01*
X83691666Y-61777380D01*
X83786904Y-61825000D01*
X83834523Y-61872619D01*
X83882142Y-61967857D01*
X83882142Y-62110714D01*
X83834523Y-62205952D01*
X83786904Y-62253571D01*
X83691666Y-62301190D01*
X83310714Y-62301190D01*
X84834523Y-62777380D02*
X84263095Y-62777380D01*
X84548809Y-62777380D02*
X84548809Y-61777380D01*
X84453571Y-61920238D01*
X84358333Y-62015476D01*
X84263095Y-62063095D01*
X85167857Y-61777380D02*
X85834523Y-61777380D01*
X85405952Y-62777380D01*
D13*
X51249132Y-59851424D02*
X52174418Y-59851424D01*
X52283275Y-59796996D01*
X52337703Y-59742567D01*
X52392132Y-59633710D01*
X52392132Y-59415996D01*
X52337703Y-59307138D01*
X52283275Y-59252710D01*
X52174418Y-59198281D01*
X51249132Y-59198281D01*
X52392132Y-58055281D02*
X52392132Y-58708424D01*
X52392132Y-58381853D02*
X51249132Y-58381853D01*
X51412418Y-58490710D01*
X51521275Y-58599567D01*
X51575703Y-58708424D01*
X51630132Y-57075567D02*
X52392132Y-57075567D01*
X51194703Y-57347710D02*
X52011132Y-57619853D01*
X52011132Y-56912281D01*
D14*
X28392380Y-33019904D02*
X27392380Y-33019904D01*
X27868571Y-33019904D02*
X27868571Y-32448476D01*
X28392380Y-32448476D02*
X27392380Y-32448476D01*
X27487619Y-32019904D02*
X27440000Y-31972285D01*
X27392380Y-31877047D01*
X27392380Y-31638952D01*
X27440000Y-31543714D01*
X27487619Y-31496095D01*
X27582857Y-31448476D01*
X27678095Y-31448476D01*
X27820952Y-31496095D01*
X28392380Y-32067523D01*
X28392380Y-31448476D01*
M02*
