M48
; DRILL file {KiCad (5.1.10)-1} date 08/21/21 18:49:06
; FORMAT={-:-/ absolute / metric / decimal}
; #@! TF.CreationDate,2021-08-21T18:49:06+08:00
; #@! TF.GenerationSoftware,Kicad,Pcbnew,(5.1.10)-1
; #@! TF.FileFunction,Plated,1,2,PTH
FMAT,2
METRIC
T1C0.300
T2C0.400
T3C0.700
T4C0.762
T5C1.000
%
G90
G05
T1
X93.5Y-32.02
X93.5Y-33.02
X93.5Y-34.02
X93.5Y-35.02
X93.5Y-36.02
X94.5Y-32.02
X94.5Y-33.02
X94.5Y-34.02
X94.5Y-35.02
X94.5Y-36.02
X95.5Y-32.02
X95.5Y-33.02
X95.5Y-34.02
X95.5Y-35.02
X95.5Y-36.02
X96.5Y-32.02
X96.5Y-33.02
X96.5Y-34.02
X96.5Y-35.02
X96.5Y-36.02
X97.5Y-32.02
X97.5Y-33.02
X97.5Y-34.02
X97.5Y-35.02
X97.5Y-36.02
T2
X26.035Y-42.799
X26.289Y-28.702
X26.924Y-27.813
X27.178Y-42.799
X27.559Y-28.702
X28.321Y-35.814
X28.448Y-32.512
X28.448Y-41.783
X28.575Y-33.782
X30.988Y-42.926
X31.75Y-30.734
X31.877Y-44.069
X32.004Y-46.228
X32.067Y-26.289
X33.21Y-41.783
X33.401Y-56.642
X33.528Y-58.801
X34.163Y-26.924
X34.48Y-41.846
X34.798Y-54.356
X35.433Y-32.639
X35.433Y-33.782
X35.433Y-58.801
X35.56Y-29.591
X35.623Y-53.467
X36.576Y-30.48
X36.957Y-42.926
X36.957Y-45.085
X38.862Y-30.988
X38.989Y-54.229
X39.573Y-25.527
X39.593Y-42.195
X39.751Y-44.069
X40.132Y-34.798
X40.513Y-52.07
X40.691Y-32.055
X40.894Y-39.243
X41.275Y-36.195
X41.783Y-24.028
X42.418Y-58.928
X43.434Y-50.673
X43.815Y-58.928
X44.577Y-29.87
X44.642Y-40.575
X44.882Y-31.394
X44.958Y-34.798
X45.085Y-50.8
X45.974Y-56.197
X46.212Y-47.498
X46.228Y-38.227
X46.575Y-46.609
X47.4Y-50.854
X47.676Y-22.885
X47.752Y-35.433
X48.323Y-51.117
X50.038Y-32.385
X50.038Y-58.039
X50.165Y-48.959
X50.419Y-35.179
X50.546Y-23.939
X50.546Y-42.164
X50.673Y-44.133
X50.698Y-28.194
X50.863Y-49.657
X51.054Y-35.941
X51.308Y-44.831
X51.384Y-27.127
X51.943Y-54.546
X52.197Y-29.972
X52.642Y-55.689
X53.34Y-49.212
X53.34Y-54.546
X53.594Y-43.752
X54.102Y-50.609
X54.546Y-58.039
X54.864Y-49.212
X55.245Y-20.447
X55.372Y-21.717
X56.261Y-24.892
X56.61Y-23.998
X57.023Y-46.799
X57.277Y-33.401
X58.166Y-21.336
X58.356Y-42.545
X59.563Y-47.752
X61.531Y-45.657
X61.722Y-54.483
X61.849Y-28.067
X62.103Y-52.705
X62.357Y-58.42
X63.119Y-46.228
X63.221Y-52.857
X63.449Y-57.277
X63.741Y-20.162
X63.754Y-45.466
X64.008Y-30.353
X64.389Y-32.766
X64.999Y-55.956
X65.024Y-34.671
X65.596Y-44.323
X65.913Y-31.623
X65.989Y-21.209
X66.396Y-48.184
X66.548Y-46.101
X66.675Y-32.385
X66.675Y-34.036
X66.7Y-49.174
X67.056Y-29.083
X67.31Y-31.623
X67.474Y-33.503
X67.539Y-52.045
X67.942Y-50.013
X68.465Y-35.699
X68.602Y-50.925
X69.262Y-51.774
X69.922Y-52.629
X69.977Y-58.674
X70.231Y-35.433
X70.612Y-43.942
X70.739Y-57.531
X70.815Y-49.454
X71.186Y-50.392
X71.247Y-36.093
X71.501Y-58.674
X71.702Y-51.201
X72.111Y-52.07
X72.746Y-22.022
X72.898Y-27.686
X72.898Y-29.464
X72.898Y-35.737
X72.962Y-34.099
X73.025Y-31.178
X73.152Y-42.418
X73.787Y-43.307
X74.05Y-52.054
X75.311Y-35.179
X75.589Y-55.856
X75.692Y-36.068
X76.302Y-49.886
X77.216Y-33.718
X77.419Y-49.784
X77.495Y-51.638
X77.597Y-55.88
X77.749Y-20.599
X77.787Y-29.845
X77.978Y-25.146
X78.232Y-33.655
X78.701Y-36.361
X78.816Y-32.563
X78.867Y-52.934
X78.93Y-30.734
X79.438Y-44.005
X80.137Y-30.861
X80.419Y-35.179
X80.518Y-36.195
X80.518Y-37.155
X80.581Y-44.133
X80.772Y-31.623
X80.776Y-50.592
X82.74Y-30.607
X83.312Y-34.925
X83.668Y-42.836
X83.947Y-37.592
X83.947Y-41.021
X84.074Y-36.449
X84.074Y-57.912
X84.201Y-42.037
X84.582Y-43.942
X85.026Y-26.226
X85.217Y-56.896
X86.233Y-58.039
X88.138Y-56.896
X88.265Y-55.88
X88.837Y-26.162
X89.027Y-33.401
X89.129Y-42.367
X89.154Y-34.798
X89.306Y-39.903
X89.408Y-56.591
X89.738Y-48.895
X89.942Y-53.492
X90.022Y-43.485
X90.097Y-38.598
X90.145Y-27.229
X90.2Y-34.631
X90.449Y-44.602
X90.464Y-35.59
X90.551Y-32.131
X90.809Y-42.926
X91.008Y-49.581
X91.186Y-29.114
X91.313Y-38.608
X91.669Y-43.612
X91.973Y-57.252
X92.107Y-28.429
X92.253Y-55.524
X92.631Y-38.941
X92.634Y-52.349
X93.066Y-42.545
X93.447Y-53.594
X93.726Y-37.91
X93.802Y-50.292
X94.056Y-42.367
X94.158Y-52.908
X94.739Y-51.254
X95.313Y-39.179
X95.377Y-37.719
X95.402Y-53.442
X95.809Y-49.251
X96.089Y-47.244
X96.139Y-38.608
X96.495Y-40.996
X96.571Y-55.931
X96.758Y-45.145
X97.13Y-53.01
X97.536Y-55.931
X97.79Y-52.281
X98.45Y-51.471
X98.468Y-43.62
X98.603Y-55.956
X98.933Y-31.242
X99.06Y-30.099
X99.06Y-33.147
X99.06Y-35.115
X99.11Y-50.727
X99.212Y-38.532
X99.644Y-56.007
X99.924Y-37.338
X100.584Y-35.966
X100.721Y-42.81
X101.371Y-33.452
X101.397Y-40.615
X102.134Y-29.515
X102.489Y-48.006
X102.603Y-55.383
X102.679Y-43.878
X102.743Y-58.42
X102.794Y-28.372
X102.895Y-45.796
X103.2Y-56.134
X103.886Y-53.086
X104.038Y-58.166
X106.172Y-52.451
X106.807Y-51.435
X106.977Y-36.0
X107.442Y-52.451
X107.721Y-44.145
X107.95Y-46.863
X107.95Y-48.387
X107.95Y-57.404
X107.98Y-37.27
X108.153Y-28.194
X108.521Y-41.783
X108.585Y-56.515
X108.687Y-31.013
X108.966Y-44.831
X109.347Y-57.404
X109.593Y-33.46
X110.274Y-31.432
X110.49Y-53.594
X111.327Y-38.549
X111.379Y-54.483
X111.963Y-41.402
X112.522Y-31.217
X112.611Y-37.529
X112.674Y-58.191
X112.7Y-56.921
X112.903Y-52.832
X113.157Y-39.929
X113.157Y-44.831
X113.538Y-45.974
X113.563Y-35.89
X113.716Y-30.887
X113.995Y-41.91
X114.376Y-33.172
X114.417Y-31.543
X114.617Y-26.352
X114.681Y-43.942
X114.681Y-47.752
X115.138Y-34.722
X115.189Y-27.749
X115.633Y-29.567
X115.824Y-52.502
X115.887Y-26.86
X115.913Y-43.828
X115.941Y-41.697
X116.002Y-35.23
X116.078Y-58.801
X116.23Y-46.838
X116.836Y-55.55
X116.84Y-31.496
X117.253Y-58.757
X117.542Y-56.423
X118.212Y-58.699
X118.542Y-55.525
X119.202Y-56.236
X119.868Y-55.544
X119.951Y-22.479
X120.04Y-58.649
X120.904Y-21.336
X121.0Y-58.623
X121.539Y-30.861
X121.92Y-22.479
X121.92Y-55.88
X122.301Y-31.877
X122.555Y-52.07
X122.555Y-58.928
X122.936Y-30.861
X122.936Y-55.88
X123.317Y-51.054
X123.571Y-58.928
X123.952Y-52.07
T4
X65.557Y-23.292
X68.097Y-20.752
X70.637Y-23.292
T5
X27.153Y-45.085
X27.153Y-47.625
X27.153Y-50.165
X27.153Y-52.705
X27.153Y-55.245
X27.153Y-57.785
X29.693Y-45.085
X29.693Y-47.625
X29.693Y-50.165
X29.693Y-52.705
X29.693Y-55.245
X29.693Y-57.785
X47.561Y-57.848
X56.642Y-57.848
T3
G00X26.88Y-21.253
M15
G01X26.88Y-20.653
M16
G05
G00X28.055Y-24.003
M15
G01X28.055Y-23.803
M16
G05
G00X32.905Y-24.003
M15
G01X32.905Y-23.803
M16
G05
G00X34.08Y-21.253
M15
G01X34.08Y-20.653
M16
G05
T0
M30
