M48
; DRILL file {KiCad (5.1.10)-1} date 08/27/22 09:58:20
; FORMAT={-:-/ absolute / metric / decimal}
; #@! TF.CreationDate,2022-08-27T09:58:20+08:00
; #@! TF.GenerationSoftware,Kicad,Pcbnew,(5.1.10)-1
; #@! TF.FileFunction,Plated,1,2,PTH
FMAT,2
METRIC
T1C0.300
T2C0.400
T3C0.800
%
G90
G05
T1
X66.925Y-68.505
X66.925Y-69.505
X66.925Y-70.505
X66.925Y-71.505
X66.925Y-72.505
X67.925Y-68.505
X67.925Y-69.505
X67.925Y-70.505
X67.925Y-71.505
X67.925Y-72.505
X68.925Y-68.505
X68.925Y-69.505
X68.925Y-70.505
X68.925Y-71.505
X68.925Y-72.505
X69.925Y-68.505
X69.925Y-69.505
X69.925Y-70.505
X69.925Y-71.505
X69.925Y-72.505
X70.925Y-68.505
X70.925Y-69.505
X70.925Y-70.505
X70.925Y-71.505
X70.925Y-72.505
T2
X24.13Y-47.498
X24.447Y-40.824
X24.55Y-82.25
X25.908Y-69.088
X26.924Y-40.894
X28.003Y-40.57
X28.919Y-63.816
X29.173Y-85.406
X29.935Y-65.086
X30.226Y-66.548
X31.205Y-61.53
X31.205Y-83.12
X31.242Y-43.688
X31.496Y-45.72
X32.067Y-36.76
X32.4Y-60.4
X33.528Y-47.244
X35.714Y-65.918
X35.814Y-40.894
X35.814Y-67.564
X35.877Y-43.872
X36.068Y-46.99
X36.345Y-69.4
X37.555Y-62.292
X38.013Y-46.044
X39.179Y-38.538
X39.5Y-46.8
X39.7Y-45.6
X40.386Y-65.786
X41.619Y-65.086
X41.9Y-70.3
X42.127Y-80.326
X42.989Y-42.094
X43.651Y-62.292
X44.6Y-49.7
X46.3Y-79.5
X47.2Y-57.2
X47.2Y-70.2
X47.6Y-54.7
X47.75Y-59.45
X47.8Y-50.1
X48.0Y-48.2
X48.006Y-58.166
X48.1Y-61.4
X48.3Y-64.8
X49.023Y-66.5
X49.085Y-40.824
X49.085Y-42.094
X49.53Y-36.068
X49.784Y-37.846
X50.727Y-59.354
X50.8Y-58.1
X50.879Y-78.924
X51.7Y-62.06
X52.07Y-64.008
X53.155Y-69.804
X53.2Y-76.575
X54.0Y-63.2
X54.2Y-75.91
X54.3Y-59.6
X54.673Y-35.998
X55.525Y-58.775
X56.388Y-65.278
X56.5Y-61.4
X56.68Y-64.22
X56.835Y-58.85
X57.213Y-72.32
X61.785Y-37.776
X61.8Y-73.605
X62.0Y-58.7
X63.065Y-58.34
X63.785Y-57.468
X64.071Y-52.762
X64.325Y-41.586
X64.745Y-56.4
X64.833Y-40.57
X65.491Y-54.8
X66.805Y-54.12
X67.119Y-66.478
X67.935Y-52.74
X68.1Y-35.14
X68.815Y-53.76
X68.983Y-47.85
X69.151Y-77.908
X69.728Y-31.847
X70.0Y-46.3
X70.904Y-33.44
X71.3Y-76.2
X71.5Y-78.0
X72.54Y-33.279
X72.914Y-75.212
X74.231Y-72.32
X74.231Y-73.59
X74.345Y-51.73
X74.4Y-41.9
X74.485Y-46.158
X75.1Y-61.401
X75.2Y-32.475
X78.765Y-36.94
X79.18Y-41.13
X81.026Y-74.93
X81.1Y-61.7
X81.28Y-76.2
X81.284Y-59.724
X81.597Y-65.716
X82.105Y-63.51
X83.322Y-50.817
X83.51Y-73.33
X83.883Y-58.096
X84.425Y-40.5
X84.5Y-78.0
X84.69Y-71.03
X85.6Y-49.2
X85.72Y-65.6
X86.09Y-37.75
X87.375Y-53.65
X87.5Y-65.71
X87.625Y-69.925
X87.71Y-56.639
X87.775Y-43.5
X87.85Y-55.4
X89.9Y-64.25
X89.925Y-69.675
X92.6Y-38.85
X93.2Y-75.0
X93.58Y-68.18
X93.9Y-36.8
X94.175Y-42.275
X94.225Y-38.825
X94.475Y-43.4
X95.4Y-44.225
X95.925Y-46.5
X96.0Y-49.6
X96.2Y-45.0
X96.2Y-48.4
X96.837Y-69.018
X96.85Y-51.5
X96.925Y-72.025
X96.926Y-37.909
X98.5Y-40.8
X99.5Y-70.175
X99.975Y-74.7
X100.325Y-47.525
X101.644Y-57.531
X101.95Y-78.025
X102.102Y-79.864
X102.8Y-70.8
X104.281Y-64.016
X105.8Y-61.241
X106.0Y-63.6
X106.3Y-50.7
X107.2Y-72.6
X107.696Y-63.5
X107.825Y-37.75
X108.3Y-81.1
X108.63Y-55.87
X109.15Y-63.95
X110.415Y-66.3
T3
G00X66.83Y-25.1
M15
G01X66.83Y-23.9
M16
G05
G00X66.83Y-28.9
M15
G01X66.83Y-28.1
M16
G05
G00X78.07Y-25.1
M15
G01X78.07Y-23.9
M16
G05
G00X78.07Y-28.9
M15
G01X78.07Y-28.1
M16
G05
T0
M30
