M48
; DRILL file {KiCad (5.1.10)-1} date 03/08/22 09:22:31
; FORMAT={-:-/ absolute / metric / decimal}
; #@! TF.CreationDate,2022-03-08T09:22:31+08:00
; #@! TF.GenerationSoftware,Kicad,Pcbnew,(5.1.10)-1
; #@! TF.FileFunction,Plated,1,2,PTH
FMAT,2
METRIC
T1C0.300
T2C0.400
T3C0.700
T4C1.000
%
G90
G05
T1
X66.925Y-68.505
X66.925Y-69.505
X66.925Y-70.505
X66.925Y-71.505
X66.925Y-72.505
X67.925Y-68.505
X67.925Y-69.505
X67.925Y-70.505
X67.925Y-71.505
X67.925Y-72.505
X68.925Y-68.505
X68.925Y-69.505
X68.925Y-70.505
X68.925Y-71.505
X68.925Y-72.505
X69.925Y-68.505
X69.925Y-69.505
X69.925Y-70.505
X69.925Y-71.505
X69.925Y-72.505
X70.925Y-68.505
X70.925Y-69.505
X70.925Y-70.505
X70.925Y-71.505
X70.925Y-72.505
T2
X24.03Y-65.41
X24.175Y-74.74
X24.447Y-40.824
X25.3Y-68.966
X25.825Y-73.29
X28.003Y-40.57
X28.919Y-63.816
X29.173Y-85.406
X29.935Y-65.086
X30.38Y-66.426
X31.205Y-61.53
X31.205Y-83.12
X31.242Y-43.688
X31.496Y-45.72
X32.067Y-36.76
X32.4Y-60.4
X33.528Y-47.244
X35.206Y-68.712
X35.714Y-65.918
X35.814Y-40.894
X35.877Y-43.872
X36.068Y-47.244
X36.345Y-69.4
X37.555Y-62.292
X38.013Y-46.044
X39.179Y-38.538
X39.5Y-46.8
X39.7Y-45.6
X40.286Y-65.918
X40.35Y-55.2
X40.603Y-68.896
X41.619Y-65.086
X42.127Y-80.326
X42.989Y-42.094
X43.651Y-62.292
X44.6Y-49.7
X44.85Y-54.6
X46.3Y-79.5
X47.2Y-57.2
X47.2Y-70.2
X47.6Y-54.7
X47.75Y-59.45
X47.8Y-50.1
X48.0Y-48.2
X48.1Y-61.4
X48.65Y-32.275
X49.085Y-40.824
X49.085Y-42.094
X49.3Y-63.9
X49.9Y-55.7
X50.8Y-58.1
X50.8Y-59.4
X50.879Y-78.924
X51.0Y-67.6
X51.1Y-39.6
X53.254Y-59.261
X53.254Y-63.988
X53.5Y-57.8
X54.165Y-76.638
X54.673Y-63.684
X54.673Y-35.998
X54.673Y-60.128
X55.177Y-70.8
X56.165Y-65.67
X56.835Y-58.85
X56.962Y-61.401
X57.213Y-72.32
X57.975Y-34.982
X57.975Y-36.506
X61.785Y-37.776
X61.785Y-59.112
X61.8Y-73.605
X63.065Y-58.42
X63.785Y-57.468
X64.071Y-52.762
X64.325Y-41.586
X64.745Y-56.4
X64.833Y-40.57
X65.491Y-54.8
X66.805Y-54.12
X67.119Y-66.478
X67.45Y-75.95
X67.935Y-52.74
X68.815Y-53.76
X68.983Y-47.85
X69.0Y-33.85
X69.151Y-77.908
X70.0Y-46.3
X70.775Y-32.175
X71.691Y-77.4
X72.914Y-75.212
X73.375Y-28.925
X74.231Y-72.32
X74.231Y-73.59
X74.25Y-78.2
X74.345Y-51.73
X74.4Y-41.9
X74.485Y-46.158
X74.726Y-57.026
X74.993Y-61.144
X75.175Y-55.7
X75.2Y-32.475
X78.765Y-36.94
X79.311Y-44.634
X79.565Y-42.094
X79.819Y-61.652
X80.048Y-74.061
X80.073Y-68.256
X80.327Y-70.288
X80.327Y-72.828
X81.026Y-74.93
X81.115Y-45.24
X81.28Y-76.2
X81.597Y-65.716
X81.788Y-58.928
X82.105Y-63.176
X83.3Y-47.1
X83.322Y-50.817
X83.883Y-58.096
X84.25Y-61.225
X84.5Y-78.0
X84.65Y-56.35
X85.275Y-72.7
X85.6Y-49.2
X85.9Y-77.1
X86.3Y-54.8
X86.6Y-61.3
X87.86Y-55.4
X88.138Y-72.136
X89.1Y-53.8
X89.5Y-43.3
X90.05Y-77.1
X92.71Y-72.136
X93.2Y-65.7
X93.2Y-75.0
X93.9Y-36.8
X94.225Y-38.825
X94.4Y-72.05
X94.979Y-43.935
X95.221Y-42.76
X95.3Y-38.775
X96.0Y-47.0
X96.0Y-49.6
X96.067Y-45.433
X96.1Y-44.4
X96.2Y-48.4
X96.837Y-69.018
X96.85Y-51.5
X96.926Y-37.909
X97.282Y-72.136
X97.5Y-57.9
X98.5Y-40.8
X100.025Y-55.15
X100.1Y-56.8
X101.1Y-78.2
X102.2Y-79.4
X102.8Y-70.8
X104.281Y-64.016
X105.8Y-61.241
X106.0Y-63.6
X106.3Y-51.6
X107.2Y-72.6
X107.35Y-68.0
X107.442Y-50.342
X107.6Y-46.5
X108.3Y-81.1
X109.15Y-63.95
X109.325Y-56.275
X110.415Y-66.3
X110.415Y-37.451
T4
X102.108Y-36.576
X102.108Y-39.116
X102.108Y-41.656
X102.108Y-44.196
X102.108Y-46.736
X102.108Y-49.276
X104.648Y-36.576
X104.648Y-39.116
X104.648Y-41.656
X104.648Y-44.196
X104.648Y-46.736
X104.648Y-49.276
T3
G00X68.455Y-26.085
M15
G01X68.455Y-25.385
M16
G05
G00X68.455Y-30.415
M15
G01X68.455Y-29.415
M16
G05
G00X77.095Y-26.085
M15
G01X77.095Y-25.385
M16
G05
G00X77.095Y-30.415
M15
G01X77.095Y-29.415
M16
G05
T0
M30
