G04 #@! TF.GenerationSoftware,KiCad,Pcbnew,(5.1.10)-1*
G04 #@! TF.CreationDate,2022-08-27T09:58:17+08:00*
G04 #@! TF.ProjectId,epaper-breakout,65706170-6572-42d6-9272-65616b6f7574,rev?*
G04 #@! TF.SameCoordinates,Original*
G04 #@! TF.FileFunction,Paste,Top*
G04 #@! TF.FilePolarity,Positive*
%FSLAX46Y46*%
G04 Gerber Fmt 4.6, Leading zero omitted, Abs format (unit mm)*
G04 Created by KiCad (PCBNEW (5.1.10)-1) date 2022-08-27 09:58:17*
%MOMM*%
%LPD*%
G01*
G04 APERTURE LIST*
%ADD10R,0.299999X1.199998*%
%ADD11R,0.250000X0.550000*%
%ADD12C,0.100000*%
%ADD13C,7.000011*%
%ADD14R,3.899992X4.180002*%
%ADD15R,2.999994X0.799998*%
%ADD16R,0.900000X0.800000*%
%ADD17R,1.874012X3.520008*%
%ADD18R,0.900000X1.200000*%
%ADD19R,1.799996X1.799996*%
%ADD20R,1.899996X0.799998*%
%ADD21R,3.599993X1.999996*%
%ADD22R,1.500000X0.650000*%
%ADD23R,2.700000X3.600000*%
%ADD24R,2.800000X1.600000*%
%ADD25R,1.300000X0.250000*%
%ADD26R,5.000000X5.000000*%
%ADD27O,3.000000X0.900000*%
%ADD28R,0.800000X0.900000*%
%ADD29R,1.400000X0.300000*%
%ADD30R,0.300000X1.400000*%
%ADD31R,1.099998X0.929996*%
%ADD32R,0.899998X1.799996*%
%ADD33R,1.199896X1.499997*%
%ADD34R,1.599997X1.599997*%
%ADD35R,1.200000X0.900000*%
%ADD36R,0.999998X0.299999*%
%ADD37R,0.999998X0.599999*%
G04 APERTURE END LIST*
D10*
X69099994Y-29699944D03*
X69399968Y-29699944D03*
X69899840Y-29699944D03*
X70200068Y-29699944D03*
X70699940Y-29699944D03*
X71200320Y-29699944D03*
X71699938Y-29699944D03*
X72200064Y-29699944D03*
X72699936Y-29699944D03*
X73200062Y-29699944D03*
X73699934Y-29699944D03*
X74200060Y-29699944D03*
X74699932Y-29699944D03*
X74999906Y-29699944D03*
X75500032Y-29699944D03*
X75800006Y-29699944D03*
D11*
X49925000Y-85575000D03*
X49425000Y-85575000D03*
X48925000Y-85575000D03*
X48425000Y-85575000D03*
X48425000Y-87925000D03*
X48925000Y-87925000D03*
X49425000Y-87925000D03*
X49925000Y-87925000D03*
D12*
G36*
X48375000Y-87200000D02*
G01*
X48375000Y-86300000D01*
X49705000Y-86300000D01*
X49975000Y-86570000D01*
X49975000Y-87200000D01*
X48375000Y-87200000D01*
G37*
G36*
G01*
X101974998Y-48775000D02*
X102875002Y-48775000D01*
G75*
G02*
X103125000Y-49024998I0J-249998D01*
G01*
X103125000Y-49550002D01*
G75*
G02*
X102875002Y-49800000I-249998J0D01*
G01*
X101974998Y-49800000D01*
G75*
G02*
X101725000Y-49550002I0J249998D01*
G01*
X101725000Y-49024998D01*
G75*
G02*
X101974998Y-48775000I249998J0D01*
G01*
G37*
G36*
G01*
X101974998Y-46950000D02*
X102875002Y-46950000D01*
G75*
G02*
X103125000Y-47199998I0J-249998D01*
G01*
X103125000Y-47725002D01*
G75*
G02*
X102875002Y-47975000I-249998J0D01*
G01*
X101974998Y-47975000D01*
G75*
G02*
X101725000Y-47725002I0J249998D01*
G01*
X101725000Y-47199998D01*
G75*
G02*
X101974998Y-46950000I249998J0D01*
G01*
G37*
G36*
G01*
X105724998Y-48750000D02*
X106625002Y-48750000D01*
G75*
G02*
X106875000Y-48999998I0J-249998D01*
G01*
X106875000Y-49525002D01*
G75*
G02*
X106625002Y-49775000I-249998J0D01*
G01*
X105724998Y-49775000D01*
G75*
G02*
X105475000Y-49525002I0J249998D01*
G01*
X105475000Y-48999998D01*
G75*
G02*
X105724998Y-48750000I249998J0D01*
G01*
G37*
G36*
G01*
X105724998Y-46925000D02*
X106625002Y-46925000D01*
G75*
G02*
X106875000Y-47174998I0J-249998D01*
G01*
X106875000Y-47700002D01*
G75*
G02*
X106625002Y-47950000I-249998J0D01*
G01*
X105724998Y-47950000D01*
G75*
G02*
X105475000Y-47700002I0J249998D01*
G01*
X105475000Y-47174998D01*
G75*
G02*
X105724998Y-46925000I249998J0D01*
G01*
G37*
G36*
G01*
X84375000Y-67250002D02*
X84375000Y-66349998D01*
G75*
G02*
X84624998Y-66100000I249998J0D01*
G01*
X85150002Y-66100000D01*
G75*
G02*
X85400000Y-66349998I0J-249998D01*
G01*
X85400000Y-67250002D01*
G75*
G02*
X85150002Y-67500000I-249998J0D01*
G01*
X84624998Y-67500000D01*
G75*
G02*
X84375000Y-67250002I0J249998D01*
G01*
G37*
G36*
G01*
X82550000Y-67250002D02*
X82550000Y-66349998D01*
G75*
G02*
X82799998Y-66100000I249998J0D01*
G01*
X83325002Y-66100000D01*
G75*
G02*
X83575000Y-66349998I0J-249998D01*
G01*
X83575000Y-67250002D01*
G75*
G02*
X83325002Y-67500000I-249998J0D01*
G01*
X82799998Y-67500000D01*
G75*
G02*
X82550000Y-67250002I0J249998D01*
G01*
G37*
G36*
G01*
X85337500Y-72374998D02*
X85337500Y-73275002D01*
G75*
G02*
X85087502Y-73525000I-249998J0D01*
G01*
X84562498Y-73525000D01*
G75*
G02*
X84312500Y-73275002I0J249998D01*
G01*
X84312500Y-72374998D01*
G75*
G02*
X84562498Y-72125000I249998J0D01*
G01*
X85087502Y-72125000D01*
G75*
G02*
X85337500Y-72374998I0J-249998D01*
G01*
G37*
G36*
G01*
X87162500Y-72374998D02*
X87162500Y-73275002D01*
G75*
G02*
X86912502Y-73525000I-249998J0D01*
G01*
X86387498Y-73525000D01*
G75*
G02*
X86137500Y-73275002I0J249998D01*
G01*
X86137500Y-72374998D01*
G75*
G02*
X86387498Y-72125000I249998J0D01*
G01*
X86912502Y-72125000D01*
G75*
G02*
X87162500Y-72374998I0J-249998D01*
G01*
G37*
G36*
G01*
X83650000Y-69000000D02*
X83650000Y-69500000D01*
G75*
G02*
X83425000Y-69725000I-225000J0D01*
G01*
X82975000Y-69725000D01*
G75*
G02*
X82750000Y-69500000I0J225000D01*
G01*
X82750000Y-69000000D01*
G75*
G02*
X82975000Y-68775000I225000J0D01*
G01*
X83425000Y-68775000D01*
G75*
G02*
X83650000Y-69000000I0J-225000D01*
G01*
G37*
G36*
G01*
X85200000Y-69000000D02*
X85200000Y-69500000D01*
G75*
G02*
X84975000Y-69725000I-225000J0D01*
G01*
X84525000Y-69725000D01*
G75*
G02*
X84300000Y-69500000I0J225000D01*
G01*
X84300000Y-69000000D01*
G75*
G02*
X84525000Y-68775000I225000J0D01*
G01*
X84975000Y-68775000D01*
G75*
G02*
X85200000Y-69000000I0J-225000D01*
G01*
G37*
D13*
X88740127Y-84690000D03*
D14*
X80940041Y-84690000D03*
X96539959Y-84690000D03*
D15*
X94228082Y-59182000D03*
X99828020Y-59182000D03*
G36*
G01*
X104418000Y-61191000D02*
X104418000Y-61491000D01*
G75*
G02*
X104268000Y-61641000I-150000J0D01*
G01*
X102618000Y-61641000D01*
G75*
G02*
X102468000Y-61491000I0J150000D01*
G01*
X102468000Y-61191000D01*
G75*
G02*
X102618000Y-61041000I150000J0D01*
G01*
X104268000Y-61041000D01*
G75*
G02*
X104418000Y-61191000I0J-150000D01*
G01*
G37*
G36*
G01*
X104418000Y-59921000D02*
X104418000Y-60221000D01*
G75*
G02*
X104268000Y-60371000I-150000J0D01*
G01*
X102618000Y-60371000D01*
G75*
G02*
X102468000Y-60221000I0J150000D01*
G01*
X102468000Y-59921000D01*
G75*
G02*
X102618000Y-59771000I150000J0D01*
G01*
X104268000Y-59771000D01*
G75*
G02*
X104418000Y-59921000I0J-150000D01*
G01*
G37*
G36*
G01*
X104418000Y-58651000D02*
X104418000Y-58951000D01*
G75*
G02*
X104268000Y-59101000I-150000J0D01*
G01*
X102618000Y-59101000D01*
G75*
G02*
X102468000Y-58951000I0J150000D01*
G01*
X102468000Y-58651000D01*
G75*
G02*
X102618000Y-58501000I150000J0D01*
G01*
X104268000Y-58501000D01*
G75*
G02*
X104418000Y-58651000I0J-150000D01*
G01*
G37*
G36*
G01*
X104418000Y-57381000D02*
X104418000Y-57681000D01*
G75*
G02*
X104268000Y-57831000I-150000J0D01*
G01*
X102618000Y-57831000D01*
G75*
G02*
X102468000Y-57681000I0J150000D01*
G01*
X102468000Y-57381000D01*
G75*
G02*
X102618000Y-57231000I150000J0D01*
G01*
X104268000Y-57231000D01*
G75*
G02*
X104418000Y-57381000I0J-150000D01*
G01*
G37*
G36*
G01*
X109368000Y-57381000D02*
X109368000Y-57681000D01*
G75*
G02*
X109218000Y-57831000I-150000J0D01*
G01*
X107568000Y-57831000D01*
G75*
G02*
X107418000Y-57681000I0J150000D01*
G01*
X107418000Y-57381000D01*
G75*
G02*
X107568000Y-57231000I150000J0D01*
G01*
X109218000Y-57231000D01*
G75*
G02*
X109368000Y-57381000I0J-150000D01*
G01*
G37*
G36*
G01*
X109368000Y-58651000D02*
X109368000Y-58951000D01*
G75*
G02*
X109218000Y-59101000I-150000J0D01*
G01*
X107568000Y-59101000D01*
G75*
G02*
X107418000Y-58951000I0J150000D01*
G01*
X107418000Y-58651000D01*
G75*
G02*
X107568000Y-58501000I150000J0D01*
G01*
X109218000Y-58501000D01*
G75*
G02*
X109368000Y-58651000I0J-150000D01*
G01*
G37*
G36*
G01*
X109368000Y-59921000D02*
X109368000Y-60221000D01*
G75*
G02*
X109218000Y-60371000I-150000J0D01*
G01*
X107568000Y-60371000D01*
G75*
G02*
X107418000Y-60221000I0J150000D01*
G01*
X107418000Y-59921000D01*
G75*
G02*
X107568000Y-59771000I150000J0D01*
G01*
X109218000Y-59771000D01*
G75*
G02*
X109368000Y-59921000I0J-150000D01*
G01*
G37*
G36*
G01*
X109368000Y-61191000D02*
X109368000Y-61491000D01*
G75*
G02*
X109218000Y-61641000I-150000J0D01*
G01*
X107568000Y-61641000D01*
G75*
G02*
X107418000Y-61491000I0J150000D01*
G01*
X107418000Y-61191000D01*
G75*
G02*
X107568000Y-61041000I150000J0D01*
G01*
X109218000Y-61041000D01*
G75*
G02*
X109368000Y-61191000I0J-150000D01*
G01*
G37*
G36*
G01*
X53295000Y-48132002D02*
X53295000Y-47231998D01*
G75*
G02*
X53544998Y-46982000I249998J0D01*
G01*
X54070002Y-46982000D01*
G75*
G02*
X54320000Y-47231998I0J-249998D01*
G01*
X54320000Y-48132002D01*
G75*
G02*
X54070002Y-48382000I-249998J0D01*
G01*
X53544998Y-48382000D01*
G75*
G02*
X53295000Y-48132002I0J249998D01*
G01*
G37*
G36*
G01*
X51470000Y-48132002D02*
X51470000Y-47231998D01*
G75*
G02*
X51719998Y-46982000I249998J0D01*
G01*
X52245002Y-46982000D01*
G75*
G02*
X52495000Y-47231998I0J-249998D01*
G01*
X52495000Y-48132002D01*
G75*
G02*
X52245002Y-48382000I-249998J0D01*
G01*
X51719998Y-48382000D01*
G75*
G02*
X51470000Y-48132002I0J249998D01*
G01*
G37*
G36*
G01*
X52050000Y-50424998D02*
X52050000Y-51325002D01*
G75*
G02*
X51800002Y-51575000I-249998J0D01*
G01*
X51274998Y-51575000D01*
G75*
G02*
X51025000Y-51325002I0J249998D01*
G01*
X51025000Y-50424998D01*
G75*
G02*
X51274998Y-50175000I249998J0D01*
G01*
X51800002Y-50175000D01*
G75*
G02*
X52050000Y-50424998I0J-249998D01*
G01*
G37*
G36*
G01*
X53875000Y-50424998D02*
X53875000Y-51325002D01*
G75*
G02*
X53625002Y-51575000I-249998J0D01*
G01*
X53099998Y-51575000D01*
G75*
G02*
X52850000Y-51325002I0J249998D01*
G01*
X52850000Y-50424998D01*
G75*
G02*
X53099998Y-50175000I249998J0D01*
G01*
X53625002Y-50175000D01*
G75*
G02*
X53875000Y-50424998I0J-249998D01*
G01*
G37*
G36*
G01*
X56534000Y-40549000D02*
X56534000Y-41099000D01*
G75*
G02*
X56334000Y-41299000I-200000J0D01*
G01*
X55934000Y-41299000D01*
G75*
G02*
X55734000Y-41099000I0J200000D01*
G01*
X55734000Y-40549000D01*
G75*
G02*
X55934000Y-40349000I200000J0D01*
G01*
X56334000Y-40349000D01*
G75*
G02*
X56534000Y-40549000I0J-200000D01*
G01*
G37*
G36*
G01*
X58184000Y-40549000D02*
X58184000Y-41099000D01*
G75*
G02*
X57984000Y-41299000I-200000J0D01*
G01*
X57584000Y-41299000D01*
G75*
G02*
X57384000Y-41099000I0J200000D01*
G01*
X57384000Y-40549000D01*
G75*
G02*
X57584000Y-40349000I200000J0D01*
G01*
X57984000Y-40349000D01*
G75*
G02*
X58184000Y-40549000I0J-200000D01*
G01*
G37*
D16*
X53575000Y-42675000D03*
X51575000Y-43625000D03*
X51575000Y-41725000D03*
D17*
X33346886Y-50525000D03*
X37203114Y-50525000D03*
X25566886Y-50222000D03*
X29423114Y-50222000D03*
X24858772Y-77870000D03*
X28715000Y-77870000D03*
X31905000Y-77740000D03*
X35761228Y-77740000D03*
D18*
X50850000Y-38025000D03*
X54150000Y-38025000D03*
X107314000Y-54356000D03*
X104014000Y-54356000D03*
X88600000Y-64516000D03*
X91900000Y-64516000D03*
G36*
G01*
X47836000Y-34320000D02*
X47836000Y-33820000D01*
G75*
G02*
X48061000Y-33595000I225000J0D01*
G01*
X48511000Y-33595000D01*
G75*
G02*
X48736000Y-33820000I0J-225000D01*
G01*
X48736000Y-34320000D01*
G75*
G02*
X48511000Y-34545000I-225000J0D01*
G01*
X48061000Y-34545000D01*
G75*
G02*
X47836000Y-34320000I0J225000D01*
G01*
G37*
G36*
G01*
X46286000Y-34320000D02*
X46286000Y-33820000D01*
G75*
G02*
X46511000Y-33595000I225000J0D01*
G01*
X46961000Y-33595000D01*
G75*
G02*
X47186000Y-33820000I0J-225000D01*
G01*
X47186000Y-34320000D01*
G75*
G02*
X46961000Y-34545000I-225000J0D01*
G01*
X46511000Y-34545000D01*
G75*
G02*
X46286000Y-34320000I0J225000D01*
G01*
G37*
G36*
G01*
X86650000Y-59525000D02*
X87150000Y-59525000D01*
G75*
G02*
X87375000Y-59750000I0J-225000D01*
G01*
X87375000Y-60200000D01*
G75*
G02*
X87150000Y-60425000I-225000J0D01*
G01*
X86650000Y-60425000D01*
G75*
G02*
X86425000Y-60200000I0J225000D01*
G01*
X86425000Y-59750000D01*
G75*
G02*
X86650000Y-59525000I225000J0D01*
G01*
G37*
G36*
G01*
X86650000Y-57975000D02*
X87150000Y-57975000D01*
G75*
G02*
X87375000Y-58200000I0J-225000D01*
G01*
X87375000Y-58650000D01*
G75*
G02*
X87150000Y-58875000I-225000J0D01*
G01*
X86650000Y-58875000D01*
G75*
G02*
X86425000Y-58650000I0J225000D01*
G01*
X86425000Y-58200000D01*
G75*
G02*
X86650000Y-57975000I225000J0D01*
G01*
G37*
G36*
G01*
X88650000Y-59507000D02*
X89150000Y-59507000D01*
G75*
G02*
X89375000Y-59732000I0J-225000D01*
G01*
X89375000Y-60182000D01*
G75*
G02*
X89150000Y-60407000I-225000J0D01*
G01*
X88650000Y-60407000D01*
G75*
G02*
X88425000Y-60182000I0J225000D01*
G01*
X88425000Y-59732000D01*
G75*
G02*
X88650000Y-59507000I225000J0D01*
G01*
G37*
G36*
G01*
X88650000Y-57957000D02*
X89150000Y-57957000D01*
G75*
G02*
X89375000Y-58182000I0J-225000D01*
G01*
X89375000Y-58632000D01*
G75*
G02*
X89150000Y-58857000I-225000J0D01*
G01*
X88650000Y-58857000D01*
G75*
G02*
X88425000Y-58632000I0J225000D01*
G01*
X88425000Y-58182000D01*
G75*
G02*
X88650000Y-57957000I225000J0D01*
G01*
G37*
G36*
G01*
X90682000Y-59507000D02*
X91182000Y-59507000D01*
G75*
G02*
X91407000Y-59732000I0J-225000D01*
G01*
X91407000Y-60182000D01*
G75*
G02*
X91182000Y-60407000I-225000J0D01*
G01*
X90682000Y-60407000D01*
G75*
G02*
X90457000Y-60182000I0J225000D01*
G01*
X90457000Y-59732000D01*
G75*
G02*
X90682000Y-59507000I225000J0D01*
G01*
G37*
G36*
G01*
X90682000Y-57957000D02*
X91182000Y-57957000D01*
G75*
G02*
X91407000Y-58182000I0J-225000D01*
G01*
X91407000Y-58632000D01*
G75*
G02*
X91182000Y-58857000I-225000J0D01*
G01*
X90682000Y-58857000D01*
G75*
G02*
X90457000Y-58632000I0J225000D01*
G01*
X90457000Y-58182000D01*
G75*
G02*
X90682000Y-57957000I225000J0D01*
G01*
G37*
D19*
X56886996Y-50388106D03*
X63863106Y-43411996D03*
X63863106Y-50388106D03*
X56886996Y-43411996D03*
D20*
X103875840Y-82159348D03*
X103875840Y-80909414D03*
D21*
X108976160Y-78283816D03*
X108976160Y-84784184D03*
G36*
G01*
X68413000Y-45119000D02*
X68413000Y-45419000D01*
G75*
G02*
X68263000Y-45569000I-150000J0D01*
G01*
X66613000Y-45569000D01*
G75*
G02*
X66463000Y-45419000I0J150000D01*
G01*
X66463000Y-45119000D01*
G75*
G02*
X66613000Y-44969000I150000J0D01*
G01*
X68263000Y-44969000D01*
G75*
G02*
X68413000Y-45119000I0J-150000D01*
G01*
G37*
G36*
G01*
X68413000Y-43849000D02*
X68413000Y-44149000D01*
G75*
G02*
X68263000Y-44299000I-150000J0D01*
G01*
X66613000Y-44299000D01*
G75*
G02*
X66463000Y-44149000I0J150000D01*
G01*
X66463000Y-43849000D01*
G75*
G02*
X66613000Y-43699000I150000J0D01*
G01*
X68263000Y-43699000D01*
G75*
G02*
X68413000Y-43849000I0J-150000D01*
G01*
G37*
G36*
G01*
X68413000Y-42579000D02*
X68413000Y-42879000D01*
G75*
G02*
X68263000Y-43029000I-150000J0D01*
G01*
X66613000Y-43029000D01*
G75*
G02*
X66463000Y-42879000I0J150000D01*
G01*
X66463000Y-42579000D01*
G75*
G02*
X66613000Y-42429000I150000J0D01*
G01*
X68263000Y-42429000D01*
G75*
G02*
X68413000Y-42579000I0J-150000D01*
G01*
G37*
G36*
G01*
X68413000Y-41309000D02*
X68413000Y-41609000D01*
G75*
G02*
X68263000Y-41759000I-150000J0D01*
G01*
X66613000Y-41759000D01*
G75*
G02*
X66463000Y-41609000I0J150000D01*
G01*
X66463000Y-41309000D01*
G75*
G02*
X66613000Y-41159000I150000J0D01*
G01*
X68263000Y-41159000D01*
G75*
G02*
X68413000Y-41309000I0J-150000D01*
G01*
G37*
G36*
G01*
X68413000Y-40039000D02*
X68413000Y-40339000D01*
G75*
G02*
X68263000Y-40489000I-150000J0D01*
G01*
X66613000Y-40489000D01*
G75*
G02*
X66463000Y-40339000I0J150000D01*
G01*
X66463000Y-40039000D01*
G75*
G02*
X66613000Y-39889000I150000J0D01*
G01*
X68263000Y-39889000D01*
G75*
G02*
X68413000Y-40039000I0J-150000D01*
G01*
G37*
G36*
G01*
X68413000Y-38769000D02*
X68413000Y-39069000D01*
G75*
G02*
X68263000Y-39219000I-150000J0D01*
G01*
X66613000Y-39219000D01*
G75*
G02*
X66463000Y-39069000I0J150000D01*
G01*
X66463000Y-38769000D01*
G75*
G02*
X66613000Y-38619000I150000J0D01*
G01*
X68263000Y-38619000D01*
G75*
G02*
X68413000Y-38769000I0J-150000D01*
G01*
G37*
G36*
G01*
X68413000Y-37499000D02*
X68413000Y-37799000D01*
G75*
G02*
X68263000Y-37949000I-150000J0D01*
G01*
X66613000Y-37949000D01*
G75*
G02*
X66463000Y-37799000I0J150000D01*
G01*
X66463000Y-37499000D01*
G75*
G02*
X66613000Y-37349000I150000J0D01*
G01*
X68263000Y-37349000D01*
G75*
G02*
X68413000Y-37499000I0J-150000D01*
G01*
G37*
G36*
G01*
X68413000Y-36229000D02*
X68413000Y-36529000D01*
G75*
G02*
X68263000Y-36679000I-150000J0D01*
G01*
X66613000Y-36679000D01*
G75*
G02*
X66463000Y-36529000I0J150000D01*
G01*
X66463000Y-36229000D01*
G75*
G02*
X66613000Y-36079000I150000J0D01*
G01*
X68263000Y-36079000D01*
G75*
G02*
X68413000Y-36229000I0J-150000D01*
G01*
G37*
G36*
G01*
X73363000Y-36229000D02*
X73363000Y-36529000D01*
G75*
G02*
X73213000Y-36679000I-150000J0D01*
G01*
X71563000Y-36679000D01*
G75*
G02*
X71413000Y-36529000I0J150000D01*
G01*
X71413000Y-36229000D01*
G75*
G02*
X71563000Y-36079000I150000J0D01*
G01*
X73213000Y-36079000D01*
G75*
G02*
X73363000Y-36229000I0J-150000D01*
G01*
G37*
G36*
G01*
X73363000Y-37499000D02*
X73363000Y-37799000D01*
G75*
G02*
X73213000Y-37949000I-150000J0D01*
G01*
X71563000Y-37949000D01*
G75*
G02*
X71413000Y-37799000I0J150000D01*
G01*
X71413000Y-37499000D01*
G75*
G02*
X71563000Y-37349000I150000J0D01*
G01*
X73213000Y-37349000D01*
G75*
G02*
X73363000Y-37499000I0J-150000D01*
G01*
G37*
G36*
G01*
X73363000Y-38769000D02*
X73363000Y-39069000D01*
G75*
G02*
X73213000Y-39219000I-150000J0D01*
G01*
X71563000Y-39219000D01*
G75*
G02*
X71413000Y-39069000I0J150000D01*
G01*
X71413000Y-38769000D01*
G75*
G02*
X71563000Y-38619000I150000J0D01*
G01*
X73213000Y-38619000D01*
G75*
G02*
X73363000Y-38769000I0J-150000D01*
G01*
G37*
G36*
G01*
X73363000Y-40039000D02*
X73363000Y-40339000D01*
G75*
G02*
X73213000Y-40489000I-150000J0D01*
G01*
X71563000Y-40489000D01*
G75*
G02*
X71413000Y-40339000I0J150000D01*
G01*
X71413000Y-40039000D01*
G75*
G02*
X71563000Y-39889000I150000J0D01*
G01*
X73213000Y-39889000D01*
G75*
G02*
X73363000Y-40039000I0J-150000D01*
G01*
G37*
G36*
G01*
X73363000Y-41309000D02*
X73363000Y-41609000D01*
G75*
G02*
X73213000Y-41759000I-150000J0D01*
G01*
X71563000Y-41759000D01*
G75*
G02*
X71413000Y-41609000I0J150000D01*
G01*
X71413000Y-41309000D01*
G75*
G02*
X71563000Y-41159000I150000J0D01*
G01*
X73213000Y-41159000D01*
G75*
G02*
X73363000Y-41309000I0J-150000D01*
G01*
G37*
G36*
G01*
X73363000Y-42579000D02*
X73363000Y-42879000D01*
G75*
G02*
X73213000Y-43029000I-150000J0D01*
G01*
X71563000Y-43029000D01*
G75*
G02*
X71413000Y-42879000I0J150000D01*
G01*
X71413000Y-42579000D01*
G75*
G02*
X71563000Y-42429000I150000J0D01*
G01*
X73213000Y-42429000D01*
G75*
G02*
X73363000Y-42579000I0J-150000D01*
G01*
G37*
G36*
G01*
X73363000Y-43849000D02*
X73363000Y-44149000D01*
G75*
G02*
X73213000Y-44299000I-150000J0D01*
G01*
X71563000Y-44299000D01*
G75*
G02*
X71413000Y-44149000I0J150000D01*
G01*
X71413000Y-43849000D01*
G75*
G02*
X71563000Y-43699000I150000J0D01*
G01*
X73213000Y-43699000D01*
G75*
G02*
X73363000Y-43849000I0J-150000D01*
G01*
G37*
G36*
G01*
X73363000Y-45119000D02*
X73363000Y-45419000D01*
G75*
G02*
X73213000Y-45569000I-150000J0D01*
G01*
X71563000Y-45569000D01*
G75*
G02*
X71413000Y-45419000I0J150000D01*
G01*
X71413000Y-45119000D01*
G75*
G02*
X71563000Y-44969000I150000J0D01*
G01*
X73213000Y-44969000D01*
G75*
G02*
X73363000Y-45119000I0J-150000D01*
G01*
G37*
D22*
X95625000Y-63720000D03*
X95625000Y-64990000D03*
X95625000Y-66260000D03*
X95625000Y-67530000D03*
X101025000Y-67530000D03*
X101025000Y-66260000D03*
X101025000Y-64990000D03*
X101025000Y-63720000D03*
D23*
X98325000Y-65625000D03*
G36*
G01*
X45300000Y-44105000D02*
X45300000Y-43805000D01*
G75*
G02*
X45450000Y-43655000I150000J0D01*
G01*
X47100000Y-43655000D01*
G75*
G02*
X47250000Y-43805000I0J-150000D01*
G01*
X47250000Y-44105000D01*
G75*
G02*
X47100000Y-44255000I-150000J0D01*
G01*
X45450000Y-44255000D01*
G75*
G02*
X45300000Y-44105000I0J150000D01*
G01*
G37*
G36*
G01*
X45300000Y-45375000D02*
X45300000Y-45075000D01*
G75*
G02*
X45450000Y-44925000I150000J0D01*
G01*
X47100000Y-44925000D01*
G75*
G02*
X47250000Y-45075000I0J-150000D01*
G01*
X47250000Y-45375000D01*
G75*
G02*
X47100000Y-45525000I-150000J0D01*
G01*
X45450000Y-45525000D01*
G75*
G02*
X45300000Y-45375000I0J150000D01*
G01*
G37*
G36*
G01*
X45300000Y-46645000D02*
X45300000Y-46345000D01*
G75*
G02*
X45450000Y-46195000I150000J0D01*
G01*
X47100000Y-46195000D01*
G75*
G02*
X47250000Y-46345000I0J-150000D01*
G01*
X47250000Y-46645000D01*
G75*
G02*
X47100000Y-46795000I-150000J0D01*
G01*
X45450000Y-46795000D01*
G75*
G02*
X45300000Y-46645000I0J150000D01*
G01*
G37*
G36*
G01*
X45300000Y-47915000D02*
X45300000Y-47615000D01*
G75*
G02*
X45450000Y-47465000I150000J0D01*
G01*
X47100000Y-47465000D01*
G75*
G02*
X47250000Y-47615000I0J-150000D01*
G01*
X47250000Y-47915000D01*
G75*
G02*
X47100000Y-48065000I-150000J0D01*
G01*
X45450000Y-48065000D01*
G75*
G02*
X45300000Y-47915000I0J150000D01*
G01*
G37*
G36*
G01*
X45300000Y-49185000D02*
X45300000Y-48885000D01*
G75*
G02*
X45450000Y-48735000I150000J0D01*
G01*
X47100000Y-48735000D01*
G75*
G02*
X47250000Y-48885000I0J-150000D01*
G01*
X47250000Y-49185000D01*
G75*
G02*
X47100000Y-49335000I-150000J0D01*
G01*
X45450000Y-49335000D01*
G75*
G02*
X45300000Y-49185000I0J150000D01*
G01*
G37*
G36*
G01*
X45300000Y-50455000D02*
X45300000Y-50155000D01*
G75*
G02*
X45450000Y-50005000I150000J0D01*
G01*
X47100000Y-50005000D01*
G75*
G02*
X47250000Y-50155000I0J-150000D01*
G01*
X47250000Y-50455000D01*
G75*
G02*
X47100000Y-50605000I-150000J0D01*
G01*
X45450000Y-50605000D01*
G75*
G02*
X45300000Y-50455000I0J150000D01*
G01*
G37*
G36*
G01*
X45300000Y-51725000D02*
X45300000Y-51425000D01*
G75*
G02*
X45450000Y-51275000I150000J0D01*
G01*
X47100000Y-51275000D01*
G75*
G02*
X47250000Y-51425000I0J-150000D01*
G01*
X47250000Y-51725000D01*
G75*
G02*
X47100000Y-51875000I-150000J0D01*
G01*
X45450000Y-51875000D01*
G75*
G02*
X45300000Y-51725000I0J150000D01*
G01*
G37*
G36*
G01*
X45300000Y-52995000D02*
X45300000Y-52695000D01*
G75*
G02*
X45450000Y-52545000I150000J0D01*
G01*
X47100000Y-52545000D01*
G75*
G02*
X47250000Y-52695000I0J-150000D01*
G01*
X47250000Y-52995000D01*
G75*
G02*
X47100000Y-53145000I-150000J0D01*
G01*
X45450000Y-53145000D01*
G75*
G02*
X45300000Y-52995000I0J150000D01*
G01*
G37*
G36*
G01*
X40350000Y-52995000D02*
X40350000Y-52695000D01*
G75*
G02*
X40500000Y-52545000I150000J0D01*
G01*
X42150000Y-52545000D01*
G75*
G02*
X42300000Y-52695000I0J-150000D01*
G01*
X42300000Y-52995000D01*
G75*
G02*
X42150000Y-53145000I-150000J0D01*
G01*
X40500000Y-53145000D01*
G75*
G02*
X40350000Y-52995000I0J150000D01*
G01*
G37*
G36*
G01*
X40350000Y-51725000D02*
X40350000Y-51425000D01*
G75*
G02*
X40500000Y-51275000I150000J0D01*
G01*
X42150000Y-51275000D01*
G75*
G02*
X42300000Y-51425000I0J-150000D01*
G01*
X42300000Y-51725000D01*
G75*
G02*
X42150000Y-51875000I-150000J0D01*
G01*
X40500000Y-51875000D01*
G75*
G02*
X40350000Y-51725000I0J150000D01*
G01*
G37*
G36*
G01*
X40350000Y-50455000D02*
X40350000Y-50155000D01*
G75*
G02*
X40500000Y-50005000I150000J0D01*
G01*
X42150000Y-50005000D01*
G75*
G02*
X42300000Y-50155000I0J-150000D01*
G01*
X42300000Y-50455000D01*
G75*
G02*
X42150000Y-50605000I-150000J0D01*
G01*
X40500000Y-50605000D01*
G75*
G02*
X40350000Y-50455000I0J150000D01*
G01*
G37*
G36*
G01*
X40350000Y-49185000D02*
X40350000Y-48885000D01*
G75*
G02*
X40500000Y-48735000I150000J0D01*
G01*
X42150000Y-48735000D01*
G75*
G02*
X42300000Y-48885000I0J-150000D01*
G01*
X42300000Y-49185000D01*
G75*
G02*
X42150000Y-49335000I-150000J0D01*
G01*
X40500000Y-49335000D01*
G75*
G02*
X40350000Y-49185000I0J150000D01*
G01*
G37*
G36*
G01*
X40350000Y-47915000D02*
X40350000Y-47615000D01*
G75*
G02*
X40500000Y-47465000I150000J0D01*
G01*
X42150000Y-47465000D01*
G75*
G02*
X42300000Y-47615000I0J-150000D01*
G01*
X42300000Y-47915000D01*
G75*
G02*
X42150000Y-48065000I-150000J0D01*
G01*
X40500000Y-48065000D01*
G75*
G02*
X40350000Y-47915000I0J150000D01*
G01*
G37*
G36*
G01*
X40350000Y-46645000D02*
X40350000Y-46345000D01*
G75*
G02*
X40500000Y-46195000I150000J0D01*
G01*
X42150000Y-46195000D01*
G75*
G02*
X42300000Y-46345000I0J-150000D01*
G01*
X42300000Y-46645000D01*
G75*
G02*
X42150000Y-46795000I-150000J0D01*
G01*
X40500000Y-46795000D01*
G75*
G02*
X40350000Y-46645000I0J150000D01*
G01*
G37*
G36*
G01*
X40350000Y-45375000D02*
X40350000Y-45075000D01*
G75*
G02*
X40500000Y-44925000I150000J0D01*
G01*
X42150000Y-44925000D01*
G75*
G02*
X42300000Y-45075000I0J-150000D01*
G01*
X42300000Y-45375000D01*
G75*
G02*
X42150000Y-45525000I-150000J0D01*
G01*
X40500000Y-45525000D01*
G75*
G02*
X40350000Y-45375000I0J150000D01*
G01*
G37*
G36*
G01*
X40350000Y-44105000D02*
X40350000Y-43805000D01*
G75*
G02*
X40500000Y-43655000I150000J0D01*
G01*
X42150000Y-43655000D01*
G75*
G02*
X42300000Y-43805000I0J-150000D01*
G01*
X42300000Y-44105000D01*
G75*
G02*
X42150000Y-44255000I-150000J0D01*
G01*
X40500000Y-44255000D01*
G75*
G02*
X40350000Y-44105000I0J150000D01*
G01*
G37*
G36*
G01*
X80375000Y-37857500D02*
X80375000Y-37532500D01*
G75*
G02*
X80537500Y-37370000I162500J0D01*
G01*
X82187500Y-37370000D01*
G75*
G02*
X82350000Y-37532500I0J-162500D01*
G01*
X82350000Y-37857500D01*
G75*
G02*
X82187500Y-38020000I-162500J0D01*
G01*
X80537500Y-38020000D01*
G75*
G02*
X80375000Y-37857500I0J162500D01*
G01*
G37*
G36*
G01*
X80375000Y-39127500D02*
X80375000Y-38802500D01*
G75*
G02*
X80537500Y-38640000I162500J0D01*
G01*
X82187500Y-38640000D01*
G75*
G02*
X82350000Y-38802500I0J-162500D01*
G01*
X82350000Y-39127500D01*
G75*
G02*
X82187500Y-39290000I-162500J0D01*
G01*
X80537500Y-39290000D01*
G75*
G02*
X80375000Y-39127500I0J162500D01*
G01*
G37*
G36*
G01*
X80375000Y-40397500D02*
X80375000Y-40072500D01*
G75*
G02*
X80537500Y-39910000I162500J0D01*
G01*
X82187500Y-39910000D01*
G75*
G02*
X82350000Y-40072500I0J-162500D01*
G01*
X82350000Y-40397500D01*
G75*
G02*
X82187500Y-40560000I-162500J0D01*
G01*
X80537500Y-40560000D01*
G75*
G02*
X80375000Y-40397500I0J162500D01*
G01*
G37*
G36*
G01*
X80375000Y-41667500D02*
X80375000Y-41342500D01*
G75*
G02*
X80537500Y-41180000I162500J0D01*
G01*
X82187500Y-41180000D01*
G75*
G02*
X82350000Y-41342500I0J-162500D01*
G01*
X82350000Y-41667500D01*
G75*
G02*
X82187500Y-41830000I-162500J0D01*
G01*
X80537500Y-41830000D01*
G75*
G02*
X80375000Y-41667500I0J162500D01*
G01*
G37*
G36*
G01*
X75300000Y-41667500D02*
X75300000Y-41342500D01*
G75*
G02*
X75462500Y-41180000I162500J0D01*
G01*
X77112500Y-41180000D01*
G75*
G02*
X77275000Y-41342500I0J-162500D01*
G01*
X77275000Y-41667500D01*
G75*
G02*
X77112500Y-41830000I-162500J0D01*
G01*
X75462500Y-41830000D01*
G75*
G02*
X75300000Y-41667500I0J162500D01*
G01*
G37*
G36*
G01*
X75300000Y-40397500D02*
X75300000Y-40072500D01*
G75*
G02*
X75462500Y-39910000I162500J0D01*
G01*
X77112500Y-39910000D01*
G75*
G02*
X77275000Y-40072500I0J-162500D01*
G01*
X77275000Y-40397500D01*
G75*
G02*
X77112500Y-40560000I-162500J0D01*
G01*
X75462500Y-40560000D01*
G75*
G02*
X75300000Y-40397500I0J162500D01*
G01*
G37*
G36*
G01*
X75300000Y-39127500D02*
X75300000Y-38802500D01*
G75*
G02*
X75462500Y-38640000I162500J0D01*
G01*
X77112500Y-38640000D01*
G75*
G02*
X77275000Y-38802500I0J-162500D01*
G01*
X77275000Y-39127500D01*
G75*
G02*
X77112500Y-39290000I-162500J0D01*
G01*
X75462500Y-39290000D01*
G75*
G02*
X75300000Y-39127500I0J162500D01*
G01*
G37*
G36*
G01*
X75300000Y-37857500D02*
X75300000Y-37532500D01*
G75*
G02*
X75462500Y-37370000I162500J0D01*
G01*
X77112500Y-37370000D01*
G75*
G02*
X77275000Y-37532500I0J-162500D01*
G01*
X77275000Y-37857500D01*
G75*
G02*
X77112500Y-38020000I-162500J0D01*
G01*
X75462500Y-38020000D01*
G75*
G02*
X75300000Y-37857500I0J162500D01*
G01*
G37*
D24*
X93000000Y-34050000D03*
X93000000Y-54550000D03*
D25*
X90000000Y-36050000D03*
X90000000Y-36550000D03*
X90000000Y-37050000D03*
X90000000Y-37550000D03*
X90000000Y-38050000D03*
X90000000Y-38550000D03*
X90000000Y-39050000D03*
X90000000Y-39550000D03*
X90000000Y-40050000D03*
X90000000Y-40550000D03*
X90000000Y-41050000D03*
X90000000Y-41550000D03*
X90000000Y-42050000D03*
X90000000Y-42550000D03*
X90000000Y-43050000D03*
X90000000Y-43550000D03*
X90000000Y-44050000D03*
X90000000Y-44550000D03*
X90000000Y-45050000D03*
X90000000Y-45550000D03*
X90000000Y-46050000D03*
X90000000Y-46550000D03*
X90000000Y-47050000D03*
X90000000Y-47550000D03*
X90000000Y-48050000D03*
X90000000Y-48550000D03*
X90000000Y-49050000D03*
X90000000Y-49550000D03*
X90000000Y-50050000D03*
X90000000Y-50550000D03*
X90000000Y-51050000D03*
X90000000Y-51550000D03*
X90000000Y-52050000D03*
X90000000Y-52550000D03*
D26*
X68925000Y-70495000D03*
D27*
X77525000Y-77415000D03*
X77525000Y-76145000D03*
X77525000Y-74875000D03*
X77525000Y-73605000D03*
X77525000Y-72335000D03*
X77525000Y-71065000D03*
X77525000Y-69795000D03*
X77525000Y-68525000D03*
X77525000Y-67255000D03*
X77525000Y-65985000D03*
X77525000Y-64715000D03*
X77525000Y-63445000D03*
X77525000Y-62175000D03*
X77525000Y-60905000D03*
X77525000Y-59605000D03*
X77525000Y-58335000D03*
X77525000Y-57065000D03*
X77525000Y-55795000D03*
X77525000Y-54525000D03*
X59525000Y-54525000D03*
X59525000Y-55795000D03*
X59525000Y-57065000D03*
X59525000Y-58335000D03*
X59525000Y-59605000D03*
X59495000Y-60905000D03*
X59495000Y-62175000D03*
X59495000Y-63445000D03*
X59495000Y-64715000D03*
X59495000Y-65985000D03*
X59495000Y-67255000D03*
X59495000Y-68525000D03*
X59495000Y-69795000D03*
X59495000Y-71065000D03*
X59495000Y-72335000D03*
X59495000Y-73605000D03*
X59495000Y-74875000D03*
X59495000Y-76145000D03*
X59495000Y-77415000D03*
D28*
X63309000Y-38522000D03*
X62359000Y-36522000D03*
X64259000Y-36522000D03*
D29*
X33200000Y-45300000D03*
X33200000Y-44800000D03*
X33200000Y-44300000D03*
X33200000Y-43800000D03*
X33200000Y-43300000D03*
X37600000Y-43300000D03*
X37600000Y-43800000D03*
X37600000Y-44300000D03*
X37600000Y-44800000D03*
X37600000Y-45300000D03*
D30*
X33805000Y-66770000D03*
X33305000Y-66770000D03*
X32805000Y-66770000D03*
X32305000Y-66770000D03*
X31805000Y-66770000D03*
X31805000Y-62370000D03*
X32305000Y-62370000D03*
X32805000Y-62370000D03*
X33305000Y-62370000D03*
X33805000Y-62370000D03*
D16*
X53225000Y-70800000D03*
X51225000Y-71750000D03*
X51225000Y-69850000D03*
D31*
X64149967Y-27486562D03*
X64149967Y-25216564D03*
X56550033Y-25216564D03*
X56550033Y-27486562D03*
D32*
X58100195Y-28383436D03*
X59600065Y-28383436D03*
X62600059Y-28383436D03*
D33*
X75700002Y-49049984D03*
X77699998Y-49049984D03*
D34*
X76700000Y-45750016D03*
G36*
G01*
X67412500Y-33099998D02*
X67412500Y-34000002D01*
G75*
G02*
X67162502Y-34250000I-249998J0D01*
G01*
X66637498Y-34250000D01*
G75*
G02*
X66387500Y-34000002I0J249998D01*
G01*
X66387500Y-33099998D01*
G75*
G02*
X66637498Y-32850000I249998J0D01*
G01*
X67162502Y-32850000D01*
G75*
G02*
X67412500Y-33099998I0J-249998D01*
G01*
G37*
G36*
G01*
X69237500Y-33099998D02*
X69237500Y-34000002D01*
G75*
G02*
X68987502Y-34250000I-249998J0D01*
G01*
X68462498Y-34250000D01*
G75*
G02*
X68212500Y-34000002I0J249998D01*
G01*
X68212500Y-33099998D01*
G75*
G02*
X68462498Y-32850000I249998J0D01*
G01*
X68987502Y-32850000D01*
G75*
G02*
X69237500Y-33099998I0J-249998D01*
G01*
G37*
G36*
G01*
X76100000Y-34925002D02*
X76100000Y-34024998D01*
G75*
G02*
X76349998Y-33775000I249998J0D01*
G01*
X76875002Y-33775000D01*
G75*
G02*
X77125000Y-34024998I0J-249998D01*
G01*
X77125000Y-34925002D01*
G75*
G02*
X76875002Y-35175000I-249998J0D01*
G01*
X76349998Y-35175000D01*
G75*
G02*
X76100000Y-34925002I0J249998D01*
G01*
G37*
G36*
G01*
X74275000Y-34925002D02*
X74275000Y-34024998D01*
G75*
G02*
X74524998Y-33775000I249998J0D01*
G01*
X75050002Y-33775000D01*
G75*
G02*
X75300000Y-34024998I0J-249998D01*
G01*
X75300000Y-34925002D01*
G75*
G02*
X75050002Y-35175000I-249998J0D01*
G01*
X74524998Y-35175000D01*
G75*
G02*
X74275000Y-34925002I0J249998D01*
G01*
G37*
G36*
G01*
X83325000Y-75774998D02*
X83325000Y-76675002D01*
G75*
G02*
X83075002Y-76925000I-249998J0D01*
G01*
X82549998Y-76925000D01*
G75*
G02*
X82300000Y-76675002I0J249998D01*
G01*
X82300000Y-75774998D01*
G75*
G02*
X82549998Y-75525000I249998J0D01*
G01*
X83075002Y-75525000D01*
G75*
G02*
X83325000Y-75774998I0J-249998D01*
G01*
G37*
G36*
G01*
X85150000Y-75774998D02*
X85150000Y-76675002D01*
G75*
G02*
X84900002Y-76925000I-249998J0D01*
G01*
X84374998Y-76925000D01*
G75*
G02*
X84125000Y-76675002I0J249998D01*
G01*
X84125000Y-75774998D01*
G75*
G02*
X84374998Y-75525000I249998J0D01*
G01*
X84900002Y-75525000D01*
G75*
G02*
X85150000Y-75774998I0J-249998D01*
G01*
G37*
G36*
G01*
X87325000Y-75849998D02*
X87325000Y-76750002D01*
G75*
G02*
X87075002Y-77000000I-249998J0D01*
G01*
X86549998Y-77000000D01*
G75*
G02*
X86300000Y-76750002I0J249998D01*
G01*
X86300000Y-75849998D01*
G75*
G02*
X86549998Y-75600000I249998J0D01*
G01*
X87075002Y-75600000D01*
G75*
G02*
X87325000Y-75849998I0J-249998D01*
G01*
G37*
G36*
G01*
X89150000Y-75849998D02*
X89150000Y-76750002D01*
G75*
G02*
X88900002Y-77000000I-249998J0D01*
G01*
X88374998Y-77000000D01*
G75*
G02*
X88125000Y-76750002I0J249998D01*
G01*
X88125000Y-75849998D01*
G75*
G02*
X88374998Y-75600000I249998J0D01*
G01*
X88900002Y-75600000D01*
G75*
G02*
X89150000Y-75849998I0J-249998D01*
G01*
G37*
G36*
G01*
X42950000Y-83649998D02*
X42950000Y-84550002D01*
G75*
G02*
X42700002Y-84800000I-249998J0D01*
G01*
X42174998Y-84800000D01*
G75*
G02*
X41925000Y-84550002I0J249998D01*
G01*
X41925000Y-83649998D01*
G75*
G02*
X42174998Y-83400000I249998J0D01*
G01*
X42700002Y-83400000D01*
G75*
G02*
X42950000Y-83649998I0J-249998D01*
G01*
G37*
G36*
G01*
X44775000Y-83649998D02*
X44775000Y-84550002D01*
G75*
G02*
X44525002Y-84800000I-249998J0D01*
G01*
X43999998Y-84800000D01*
G75*
G02*
X43750000Y-84550002I0J249998D01*
G01*
X43750000Y-83649998D01*
G75*
G02*
X43999998Y-83400000I249998J0D01*
G01*
X44525002Y-83400000D01*
G75*
G02*
X44775000Y-83649998I0J-249998D01*
G01*
G37*
G36*
G01*
X25546000Y-39546002D02*
X25546000Y-38645998D01*
G75*
G02*
X25795998Y-38396000I249998J0D01*
G01*
X26321002Y-38396000D01*
G75*
G02*
X26571000Y-38645998I0J-249998D01*
G01*
X26571000Y-39546002D01*
G75*
G02*
X26321002Y-39796000I-249998J0D01*
G01*
X25795998Y-39796000D01*
G75*
G02*
X25546000Y-39546002I0J249998D01*
G01*
G37*
G36*
G01*
X23721000Y-39546002D02*
X23721000Y-38645998D01*
G75*
G02*
X23970998Y-38396000I249998J0D01*
G01*
X24496002Y-38396000D01*
G75*
G02*
X24746000Y-38645998I0J-249998D01*
G01*
X24746000Y-39546002D01*
G75*
G02*
X24496002Y-39796000I-249998J0D01*
G01*
X23970998Y-39796000D01*
G75*
G02*
X23721000Y-39546002I0J249998D01*
G01*
G37*
G36*
G01*
X33394998Y-38684000D02*
X34295002Y-38684000D01*
G75*
G02*
X34545000Y-38933998I0J-249998D01*
G01*
X34545000Y-39459002D01*
G75*
G02*
X34295002Y-39709000I-249998J0D01*
G01*
X33394998Y-39709000D01*
G75*
G02*
X33145000Y-39459002I0J249998D01*
G01*
X33145000Y-38933998D01*
G75*
G02*
X33394998Y-38684000I249998J0D01*
G01*
G37*
G36*
G01*
X33394998Y-36859000D02*
X34295002Y-36859000D01*
G75*
G02*
X34545000Y-37108998I0J-249998D01*
G01*
X34545000Y-37634002D01*
G75*
G02*
X34295002Y-37884000I-249998J0D01*
G01*
X33394998Y-37884000D01*
G75*
G02*
X33145000Y-37634002I0J249998D01*
G01*
X33145000Y-37108998D01*
G75*
G02*
X33394998Y-36859000I249998J0D01*
G01*
G37*
G36*
G01*
X29687500Y-39400002D02*
X29687500Y-38499998D01*
G75*
G02*
X29937498Y-38250000I249998J0D01*
G01*
X30462502Y-38250000D01*
G75*
G02*
X30712500Y-38499998I0J-249998D01*
G01*
X30712500Y-39400002D01*
G75*
G02*
X30462502Y-39650000I-249998J0D01*
G01*
X29937498Y-39650000D01*
G75*
G02*
X29687500Y-39400002I0J249998D01*
G01*
G37*
G36*
G01*
X27862500Y-39400002D02*
X27862500Y-38499998D01*
G75*
G02*
X28112498Y-38250000I249998J0D01*
G01*
X28637502Y-38250000D01*
G75*
G02*
X28887500Y-38499998I0J-249998D01*
G01*
X28887500Y-39400002D01*
G75*
G02*
X28637502Y-39650000I-249998J0D01*
G01*
X28112498Y-39650000D01*
G75*
G02*
X27862500Y-39400002I0J249998D01*
G01*
G37*
G36*
G01*
X25274998Y-43300000D02*
X26175002Y-43300000D01*
G75*
G02*
X26425000Y-43549998I0J-249998D01*
G01*
X26425000Y-44075002D01*
G75*
G02*
X26175002Y-44325000I-249998J0D01*
G01*
X25274998Y-44325000D01*
G75*
G02*
X25025000Y-44075002I0J249998D01*
G01*
X25025000Y-43549998D01*
G75*
G02*
X25274998Y-43300000I249998J0D01*
G01*
G37*
G36*
G01*
X25274998Y-41475000D02*
X26175002Y-41475000D01*
G75*
G02*
X26425000Y-41724998I0J-249998D01*
G01*
X26425000Y-42250002D01*
G75*
G02*
X26175002Y-42500000I-249998J0D01*
G01*
X25274998Y-42500000D01*
G75*
G02*
X25025000Y-42250002I0J249998D01*
G01*
X25025000Y-41724998D01*
G75*
G02*
X25274998Y-41475000I249998J0D01*
G01*
G37*
G36*
G01*
X47175000Y-71689998D02*
X47175000Y-72590002D01*
G75*
G02*
X46925002Y-72840000I-249998J0D01*
G01*
X46399998Y-72840000D01*
G75*
G02*
X46150000Y-72590002I0J249998D01*
G01*
X46150000Y-71689998D01*
G75*
G02*
X46399998Y-71440000I249998J0D01*
G01*
X46925002Y-71440000D01*
G75*
G02*
X47175000Y-71689998I0J-249998D01*
G01*
G37*
G36*
G01*
X49000000Y-71689998D02*
X49000000Y-72590002D01*
G75*
G02*
X48750002Y-72840000I-249998J0D01*
G01*
X48224998Y-72840000D01*
G75*
G02*
X47975000Y-72590002I0J249998D01*
G01*
X47975000Y-71689998D01*
G75*
G02*
X48224998Y-71440000I249998J0D01*
G01*
X48750002Y-71440000D01*
G75*
G02*
X49000000Y-71689998I0J-249998D01*
G01*
G37*
G36*
G01*
X80194998Y-48090000D02*
X81095002Y-48090000D01*
G75*
G02*
X81345000Y-48339998I0J-249998D01*
G01*
X81345000Y-48865002D01*
G75*
G02*
X81095002Y-49115000I-249998J0D01*
G01*
X80194998Y-49115000D01*
G75*
G02*
X79945000Y-48865002I0J249998D01*
G01*
X79945000Y-48339998D01*
G75*
G02*
X80194998Y-48090000I249998J0D01*
G01*
G37*
G36*
G01*
X80194998Y-46265000D02*
X81095002Y-46265000D01*
G75*
G02*
X81345000Y-46514998I0J-249998D01*
G01*
X81345000Y-47040002D01*
G75*
G02*
X81095002Y-47290000I-249998J0D01*
G01*
X80194998Y-47290000D01*
G75*
G02*
X79945000Y-47040002I0J249998D01*
G01*
X79945000Y-46514998D01*
G75*
G02*
X80194998Y-46265000I249998J0D01*
G01*
G37*
G36*
G01*
X37735000Y-66719998D02*
X37735000Y-67620002D01*
G75*
G02*
X37485002Y-67870000I-249998J0D01*
G01*
X36959998Y-67870000D01*
G75*
G02*
X36710000Y-67620002I0J249998D01*
G01*
X36710000Y-66719998D01*
G75*
G02*
X36959998Y-66470000I249998J0D01*
G01*
X37485002Y-66470000D01*
G75*
G02*
X37735000Y-66719998I0J-249998D01*
G01*
G37*
G36*
G01*
X39560000Y-66719998D02*
X39560000Y-67620002D01*
G75*
G02*
X39310002Y-67870000I-249998J0D01*
G01*
X38784998Y-67870000D01*
G75*
G02*
X38535000Y-67620002I0J249998D01*
G01*
X38535000Y-66719998D01*
G75*
G02*
X38784998Y-66470000I249998J0D01*
G01*
X39310002Y-66470000D01*
G75*
G02*
X39560000Y-66719998I0J-249998D01*
G01*
G37*
G36*
G01*
X46641002Y-66464000D02*
X45740998Y-66464000D01*
G75*
G02*
X45491000Y-66214002I0J249998D01*
G01*
X45491000Y-65688998D01*
G75*
G02*
X45740998Y-65439000I249998J0D01*
G01*
X46641002Y-65439000D01*
G75*
G02*
X46891000Y-65688998I0J-249998D01*
G01*
X46891000Y-66214002D01*
G75*
G02*
X46641002Y-66464000I-249998J0D01*
G01*
G37*
G36*
G01*
X46641002Y-68289000D02*
X45740998Y-68289000D01*
G75*
G02*
X45491000Y-68039002I0J249998D01*
G01*
X45491000Y-67513998D01*
G75*
G02*
X45740998Y-67264000I249998J0D01*
G01*
X46641002Y-67264000D01*
G75*
G02*
X46891000Y-67513998I0J-249998D01*
G01*
X46891000Y-68039002D01*
G75*
G02*
X46641002Y-68289000I-249998J0D01*
G01*
G37*
G36*
G01*
X89175000Y-70499998D02*
X89175000Y-71400002D01*
G75*
G02*
X88925002Y-71650000I-249998J0D01*
G01*
X88399998Y-71650000D01*
G75*
G02*
X88150000Y-71400002I0J249998D01*
G01*
X88150000Y-70499998D01*
G75*
G02*
X88399998Y-70250000I249998J0D01*
G01*
X88925002Y-70250000D01*
G75*
G02*
X89175000Y-70499998I0J-249998D01*
G01*
G37*
G36*
G01*
X91000000Y-70499998D02*
X91000000Y-71400002D01*
G75*
G02*
X90750002Y-71650000I-249998J0D01*
G01*
X90224998Y-71650000D01*
G75*
G02*
X89975000Y-71400002I0J249998D01*
G01*
X89975000Y-70499998D01*
G75*
G02*
X90224998Y-70250000I249998J0D01*
G01*
X90750002Y-70250000D01*
G75*
G02*
X91000000Y-70499998I0J-249998D01*
G01*
G37*
G36*
G01*
X93389000Y-69583998D02*
X93389000Y-70484002D01*
G75*
G02*
X93139002Y-70734000I-249998J0D01*
G01*
X92613998Y-70734000D01*
G75*
G02*
X92364000Y-70484002I0J249998D01*
G01*
X92364000Y-69583998D01*
G75*
G02*
X92613998Y-69334000I249998J0D01*
G01*
X93139002Y-69334000D01*
G75*
G02*
X93389000Y-69583998I0J-249998D01*
G01*
G37*
G36*
G01*
X95214000Y-69583998D02*
X95214000Y-70484002D01*
G75*
G02*
X94964002Y-70734000I-249998J0D01*
G01*
X94438998Y-70734000D01*
G75*
G02*
X94189000Y-70484002I0J249998D01*
G01*
X94189000Y-69583998D01*
G75*
G02*
X94438998Y-69334000I249998J0D01*
G01*
X94964002Y-69334000D01*
G75*
G02*
X95214000Y-69583998I0J-249998D01*
G01*
G37*
G36*
G01*
X105619000Y-69976002D02*
X105619000Y-69075998D01*
G75*
G02*
X105868998Y-68826000I249998J0D01*
G01*
X106394002Y-68826000D01*
G75*
G02*
X106644000Y-69075998I0J-249998D01*
G01*
X106644000Y-69976002D01*
G75*
G02*
X106394002Y-70226000I-249998J0D01*
G01*
X105868998Y-70226000D01*
G75*
G02*
X105619000Y-69976002I0J249998D01*
G01*
G37*
G36*
G01*
X103794000Y-69976002D02*
X103794000Y-69075998D01*
G75*
G02*
X104043998Y-68826000I249998J0D01*
G01*
X104569002Y-68826000D01*
G75*
G02*
X104819000Y-69075998I0J-249998D01*
G01*
X104819000Y-69976002D01*
G75*
G02*
X104569002Y-70226000I-249998J0D01*
G01*
X104043998Y-70226000D01*
G75*
G02*
X103794000Y-69976002I0J249998D01*
G01*
G37*
G36*
G01*
X40344500Y-87126002D02*
X40344500Y-86225998D01*
G75*
G02*
X40594498Y-85976000I249998J0D01*
G01*
X41119502Y-85976000D01*
G75*
G02*
X41369500Y-86225998I0J-249998D01*
G01*
X41369500Y-87126002D01*
G75*
G02*
X41119502Y-87376000I-249998J0D01*
G01*
X40594498Y-87376000D01*
G75*
G02*
X40344500Y-87126002I0J249998D01*
G01*
G37*
G36*
G01*
X38519500Y-87126002D02*
X38519500Y-86225998D01*
G75*
G02*
X38769498Y-85976000I249998J0D01*
G01*
X39294502Y-85976000D01*
G75*
G02*
X39544500Y-86225998I0J-249998D01*
G01*
X39544500Y-87126002D01*
G75*
G02*
X39294502Y-87376000I-249998J0D01*
G01*
X38769498Y-87376000D01*
G75*
G02*
X38519500Y-87126002I0J249998D01*
G01*
G37*
G36*
G01*
X31008998Y-86060000D02*
X31909002Y-86060000D01*
G75*
G02*
X32159000Y-86309998I0J-249998D01*
G01*
X32159000Y-86835002D01*
G75*
G02*
X31909002Y-87085000I-249998J0D01*
G01*
X31008998Y-87085000D01*
G75*
G02*
X30759000Y-86835002I0J249998D01*
G01*
X30759000Y-86309998D01*
G75*
G02*
X31008998Y-86060000I249998J0D01*
G01*
G37*
G36*
G01*
X31008998Y-84235000D02*
X31909002Y-84235000D01*
G75*
G02*
X32159000Y-84484998I0J-249998D01*
G01*
X32159000Y-85010002D01*
G75*
G02*
X31909002Y-85260000I-249998J0D01*
G01*
X31008998Y-85260000D01*
G75*
G02*
X30759000Y-85010002I0J249998D01*
G01*
X30759000Y-84484998D01*
G75*
G02*
X31008998Y-84235000I249998J0D01*
G01*
G37*
G36*
G01*
X38825000Y-64290002D02*
X38825000Y-63389998D01*
G75*
G02*
X39074998Y-63140000I249998J0D01*
G01*
X39600002Y-63140000D01*
G75*
G02*
X39850000Y-63389998I0J-249998D01*
G01*
X39850000Y-64290002D01*
G75*
G02*
X39600002Y-64540000I-249998J0D01*
G01*
X39074998Y-64540000D01*
G75*
G02*
X38825000Y-64290002I0J249998D01*
G01*
G37*
G36*
G01*
X37000000Y-64290002D02*
X37000000Y-63389998D01*
G75*
G02*
X37249998Y-63140000I249998J0D01*
G01*
X37775002Y-63140000D01*
G75*
G02*
X38025000Y-63389998I0J-249998D01*
G01*
X38025000Y-64290002D01*
G75*
G02*
X37775002Y-64540000I-249998J0D01*
G01*
X37249998Y-64540000D01*
G75*
G02*
X37000000Y-64290002I0J249998D01*
G01*
G37*
G36*
G01*
X27198998Y-63604500D02*
X28099002Y-63604500D01*
G75*
G02*
X28349000Y-63854498I0J-249998D01*
G01*
X28349000Y-64379502D01*
G75*
G02*
X28099002Y-64629500I-249998J0D01*
G01*
X27198998Y-64629500D01*
G75*
G02*
X26949000Y-64379502I0J249998D01*
G01*
X26949000Y-63854498D01*
G75*
G02*
X27198998Y-63604500I249998J0D01*
G01*
G37*
G36*
G01*
X27198998Y-61779500D02*
X28099002Y-61779500D01*
G75*
G02*
X28349000Y-62029498I0J-249998D01*
G01*
X28349000Y-62554502D01*
G75*
G02*
X28099002Y-62804500I-249998J0D01*
G01*
X27198998Y-62804500D01*
G75*
G02*
X26949000Y-62554502I0J249998D01*
G01*
X26949000Y-62029498D01*
G75*
G02*
X27198998Y-61779500I249998J0D01*
G01*
G37*
G36*
G01*
X97400000Y-78750002D02*
X97400000Y-77849998D01*
G75*
G02*
X97649998Y-77600000I249998J0D01*
G01*
X98175002Y-77600000D01*
G75*
G02*
X98425000Y-77849998I0J-249998D01*
G01*
X98425000Y-78750002D01*
G75*
G02*
X98175002Y-79000000I-249998J0D01*
G01*
X97649998Y-79000000D01*
G75*
G02*
X97400000Y-78750002I0J249998D01*
G01*
G37*
G36*
G01*
X95575000Y-78750002D02*
X95575000Y-77849998D01*
G75*
G02*
X95824998Y-77600000I249998J0D01*
G01*
X96350002Y-77600000D01*
G75*
G02*
X96600000Y-77849998I0J-249998D01*
G01*
X96600000Y-78750002D01*
G75*
G02*
X96350002Y-79000000I-249998J0D01*
G01*
X95824998Y-79000000D01*
G75*
G02*
X95575000Y-78750002I0J249998D01*
G01*
G37*
G36*
G01*
X109416002Y-66656000D02*
X108515998Y-66656000D01*
G75*
G02*
X108266000Y-66406002I0J249998D01*
G01*
X108266000Y-65880998D01*
G75*
G02*
X108515998Y-65631000I249998J0D01*
G01*
X109416002Y-65631000D01*
G75*
G02*
X109666000Y-65880998I0J-249998D01*
G01*
X109666000Y-66406002D01*
G75*
G02*
X109416002Y-66656000I-249998J0D01*
G01*
G37*
G36*
G01*
X109416002Y-68481000D02*
X108515998Y-68481000D01*
G75*
G02*
X108266000Y-68231002I0J249998D01*
G01*
X108266000Y-67705998D01*
G75*
G02*
X108515998Y-67456000I249998J0D01*
G01*
X109416002Y-67456000D01*
G75*
G02*
X109666000Y-67705998I0J-249998D01*
G01*
X109666000Y-68231002D01*
G75*
G02*
X109416002Y-68481000I-249998J0D01*
G01*
G37*
G36*
G01*
X42489000Y-72255998D02*
X42489000Y-73156002D01*
G75*
G02*
X42239002Y-73406000I-249998J0D01*
G01*
X41713998Y-73406000D01*
G75*
G02*
X41464000Y-73156002I0J249998D01*
G01*
X41464000Y-72255998D01*
G75*
G02*
X41713998Y-72006000I249998J0D01*
G01*
X42239002Y-72006000D01*
G75*
G02*
X42489000Y-72255998I0J-249998D01*
G01*
G37*
G36*
G01*
X44314000Y-72255998D02*
X44314000Y-73156002D01*
G75*
G02*
X44064002Y-73406000I-249998J0D01*
G01*
X43538998Y-73406000D01*
G75*
G02*
X43289000Y-73156002I0J249998D01*
G01*
X43289000Y-72255998D01*
G75*
G02*
X43538998Y-72006000I249998J0D01*
G01*
X44064002Y-72006000D01*
G75*
G02*
X44314000Y-72255998I0J-249998D01*
G01*
G37*
D16*
X39317000Y-72706000D03*
X37317000Y-73656000D03*
X37317000Y-71756000D03*
D28*
X50101000Y-78146000D03*
X49151000Y-76146000D03*
X51051000Y-76146000D03*
D16*
X41381000Y-67626000D03*
X43381000Y-66676000D03*
X43381000Y-68576000D03*
D28*
X46191000Y-76024000D03*
X47141000Y-78024000D03*
X45241000Y-78024000D03*
X40975000Y-76715000D03*
X41925000Y-78715000D03*
X40025000Y-78715000D03*
X101092000Y-71644000D03*
X102042000Y-73644000D03*
X100142000Y-73644000D03*
D18*
X109050000Y-75300000D03*
X105750000Y-75300000D03*
G36*
G01*
X104769000Y-65259750D02*
X104769000Y-66172250D01*
G75*
G02*
X104525250Y-66416000I-243750J0D01*
G01*
X104037750Y-66416000D01*
G75*
G02*
X103794000Y-66172250I0J243750D01*
G01*
X103794000Y-65259750D01*
G75*
G02*
X104037750Y-65016000I243750J0D01*
G01*
X104525250Y-65016000D01*
G75*
G02*
X104769000Y-65259750I0J-243750D01*
G01*
G37*
G36*
G01*
X106644000Y-65259750D02*
X106644000Y-66172250D01*
G75*
G02*
X106400250Y-66416000I-243750J0D01*
G01*
X105912750Y-66416000D01*
G75*
G02*
X105669000Y-66172250I0J243750D01*
G01*
X105669000Y-65259750D01*
G75*
G02*
X105912750Y-65016000I243750J0D01*
G01*
X106400250Y-65016000D01*
G75*
G02*
X106644000Y-65259750I0J-243750D01*
G01*
G37*
G36*
G01*
X101650000Y-76956250D02*
X101650000Y-76043750D01*
G75*
G02*
X101893750Y-75800000I243750J0D01*
G01*
X102381250Y-75800000D01*
G75*
G02*
X102625000Y-76043750I0J-243750D01*
G01*
X102625000Y-76956250D01*
G75*
G02*
X102381250Y-77200000I-243750J0D01*
G01*
X101893750Y-77200000D01*
G75*
G02*
X101650000Y-76956250I0J243750D01*
G01*
G37*
G36*
G01*
X99775000Y-76956250D02*
X99775000Y-76043750D01*
G75*
G02*
X100018750Y-75800000I243750J0D01*
G01*
X100506250Y-75800000D01*
G75*
G02*
X100750000Y-76043750I0J-243750D01*
G01*
X100750000Y-76956250D01*
G75*
G02*
X100506250Y-77200000I-243750J0D01*
G01*
X100018750Y-77200000D01*
G75*
G02*
X99775000Y-76956250I0J243750D01*
G01*
G37*
X109050000Y-72200000D03*
X105750000Y-72200000D03*
D35*
X42227000Y-40442000D03*
X42227000Y-37142000D03*
D18*
X41083000Y-34474000D03*
X37783000Y-34474000D03*
D35*
X39179000Y-36888000D03*
X39179000Y-40188000D03*
X33745000Y-69786000D03*
X33745000Y-73086000D03*
D18*
X28791000Y-71182000D03*
X25491000Y-71182000D03*
X24983000Y-67118000D03*
X28283000Y-67118000D03*
G36*
G01*
X82050000Y-72625000D02*
X82550000Y-72625000D01*
G75*
G02*
X82775000Y-72850000I0J-225000D01*
G01*
X82775000Y-73300000D01*
G75*
G02*
X82550000Y-73525000I-225000J0D01*
G01*
X82050000Y-73525000D01*
G75*
G02*
X81825000Y-73300000I0J225000D01*
G01*
X81825000Y-72850000D01*
G75*
G02*
X82050000Y-72625000I225000J0D01*
G01*
G37*
G36*
G01*
X82050000Y-71075000D02*
X82550000Y-71075000D01*
G75*
G02*
X82775000Y-71300000I0J-225000D01*
G01*
X82775000Y-71750000D01*
G75*
G02*
X82550000Y-71975000I-225000J0D01*
G01*
X82050000Y-71975000D01*
G75*
G02*
X81825000Y-71750000I0J225000D01*
G01*
X81825000Y-71300000D01*
G75*
G02*
X82050000Y-71075000I225000J0D01*
G01*
G37*
G36*
G01*
X95950000Y-73900000D02*
X95450000Y-73900000D01*
G75*
G02*
X95225000Y-73675000I0J225000D01*
G01*
X95225000Y-73225000D01*
G75*
G02*
X95450000Y-73000000I225000J0D01*
G01*
X95950000Y-73000000D01*
G75*
G02*
X96175000Y-73225000I0J-225000D01*
G01*
X96175000Y-73675000D01*
G75*
G02*
X95950000Y-73900000I-225000J0D01*
G01*
G37*
G36*
G01*
X95950000Y-75450000D02*
X95450000Y-75450000D01*
G75*
G02*
X95225000Y-75225000I0J225000D01*
G01*
X95225000Y-74775000D01*
G75*
G02*
X95450000Y-74550000I225000J0D01*
G01*
X95950000Y-74550000D01*
G75*
G02*
X96175000Y-74775000I0J-225000D01*
G01*
X96175000Y-75225000D01*
G75*
G02*
X95950000Y-75450000I-225000J0D01*
G01*
G37*
G36*
G01*
X90075000Y-74150000D02*
X90075000Y-73650000D01*
G75*
G02*
X90300000Y-73425000I225000J0D01*
G01*
X90750000Y-73425000D01*
G75*
G02*
X90975000Y-73650000I0J-225000D01*
G01*
X90975000Y-74150000D01*
G75*
G02*
X90750000Y-74375000I-225000J0D01*
G01*
X90300000Y-74375000D01*
G75*
G02*
X90075000Y-74150000I0J225000D01*
G01*
G37*
G36*
G01*
X88525000Y-74150000D02*
X88525000Y-73650000D01*
G75*
G02*
X88750000Y-73425000I225000J0D01*
G01*
X89200000Y-73425000D01*
G75*
G02*
X89425000Y-73650000I0J-225000D01*
G01*
X89425000Y-74150000D01*
G75*
G02*
X89200000Y-74375000I-225000J0D01*
G01*
X88750000Y-74375000D01*
G75*
G02*
X88525000Y-74150000I0J225000D01*
G01*
G37*
G36*
G01*
X33787000Y-34478000D02*
X33787000Y-34978000D01*
G75*
G02*
X33562000Y-35203000I-225000J0D01*
G01*
X33112000Y-35203000D01*
G75*
G02*
X32887000Y-34978000I0J225000D01*
G01*
X32887000Y-34478000D01*
G75*
G02*
X33112000Y-34253000I225000J0D01*
G01*
X33562000Y-34253000D01*
G75*
G02*
X33787000Y-34478000I0J-225000D01*
G01*
G37*
G36*
G01*
X35337000Y-34478000D02*
X35337000Y-34978000D01*
G75*
G02*
X35112000Y-35203000I-225000J0D01*
G01*
X34662000Y-35203000D01*
G75*
G02*
X34437000Y-34978000I0J225000D01*
G01*
X34437000Y-34478000D01*
G75*
G02*
X34662000Y-34253000I225000J0D01*
G01*
X35112000Y-34253000D01*
G75*
G02*
X35337000Y-34478000I0J-225000D01*
G01*
G37*
G36*
G01*
X25050000Y-45600000D02*
X25050000Y-46100000D01*
G75*
G02*
X24825000Y-46325000I-225000J0D01*
G01*
X24375000Y-46325000D01*
G75*
G02*
X24150000Y-46100000I0J225000D01*
G01*
X24150000Y-45600000D01*
G75*
G02*
X24375000Y-45375000I225000J0D01*
G01*
X24825000Y-45375000D01*
G75*
G02*
X25050000Y-45600000I0J-225000D01*
G01*
G37*
G36*
G01*
X26600000Y-45600000D02*
X26600000Y-46100000D01*
G75*
G02*
X26375000Y-46325000I-225000J0D01*
G01*
X25925000Y-46325000D01*
G75*
G02*
X25700000Y-46100000I0J225000D01*
G01*
X25700000Y-45600000D01*
G75*
G02*
X25925000Y-45375000I225000J0D01*
G01*
X26375000Y-45375000D01*
G75*
G02*
X26600000Y-45600000I0J-225000D01*
G01*
G37*
G36*
G01*
X91245000Y-67423000D02*
X90745000Y-67423000D01*
G75*
G02*
X90520000Y-67198000I0J225000D01*
G01*
X90520000Y-66748000D01*
G75*
G02*
X90745000Y-66523000I225000J0D01*
G01*
X91245000Y-66523000D01*
G75*
G02*
X91470000Y-66748000I0J-225000D01*
G01*
X91470000Y-67198000D01*
G75*
G02*
X91245000Y-67423000I-225000J0D01*
G01*
G37*
G36*
G01*
X91245000Y-68973000D02*
X90745000Y-68973000D01*
G75*
G02*
X90520000Y-68748000I0J225000D01*
G01*
X90520000Y-68298000D01*
G75*
G02*
X90745000Y-68073000I225000J0D01*
G01*
X91245000Y-68073000D01*
G75*
G02*
X91470000Y-68298000I0J-225000D01*
G01*
X91470000Y-68748000D01*
G75*
G02*
X91245000Y-68973000I-225000J0D01*
G01*
G37*
G36*
G01*
X45924000Y-37358997D02*
X45924000Y-39209003D01*
G75*
G02*
X45674003Y-39459000I-249997J0D01*
G01*
X44848997Y-39459000D01*
G75*
G02*
X44599000Y-39209003I0J249997D01*
G01*
X44599000Y-37358997D01*
G75*
G02*
X44848997Y-37109000I249997J0D01*
G01*
X45674003Y-37109000D01*
G75*
G02*
X45924000Y-37358997I0J-249997D01*
G01*
G37*
G36*
G01*
X48999000Y-37358997D02*
X48999000Y-39209003D01*
G75*
G02*
X48749003Y-39459000I-249997J0D01*
G01*
X47923997Y-39459000D01*
G75*
G02*
X47674000Y-39209003I0J249997D01*
G01*
X47674000Y-37358997D01*
G75*
G02*
X47923997Y-37109000I249997J0D01*
G01*
X48749003Y-37109000D01*
G75*
G02*
X48999000Y-37358997I0J-249997D01*
G01*
G37*
G36*
G01*
X51808000Y-35240000D02*
X51808000Y-35740000D01*
G75*
G02*
X51583000Y-35965000I-225000J0D01*
G01*
X51133000Y-35965000D01*
G75*
G02*
X50908000Y-35740000I0J225000D01*
G01*
X50908000Y-35240000D01*
G75*
G02*
X51133000Y-35015000I225000J0D01*
G01*
X51583000Y-35015000D01*
G75*
G02*
X51808000Y-35240000I0J-225000D01*
G01*
G37*
G36*
G01*
X53358000Y-35240000D02*
X53358000Y-35740000D01*
G75*
G02*
X53133000Y-35965000I-225000J0D01*
G01*
X52683000Y-35965000D01*
G75*
G02*
X52458000Y-35740000I0J225000D01*
G01*
X52458000Y-35240000D01*
G75*
G02*
X52683000Y-35015000I225000J0D01*
G01*
X53133000Y-35015000D01*
G75*
G02*
X53358000Y-35240000I0J-225000D01*
G01*
G37*
G36*
G01*
X88451000Y-67436000D02*
X87951000Y-67436000D01*
G75*
G02*
X87726000Y-67211000I0J225000D01*
G01*
X87726000Y-66761000D01*
G75*
G02*
X87951000Y-66536000I225000J0D01*
G01*
X88451000Y-66536000D01*
G75*
G02*
X88676000Y-66761000I0J-225000D01*
G01*
X88676000Y-67211000D01*
G75*
G02*
X88451000Y-67436000I-225000J0D01*
G01*
G37*
G36*
G01*
X88451000Y-68986000D02*
X87951000Y-68986000D01*
G75*
G02*
X87726000Y-68761000I0J225000D01*
G01*
X87726000Y-68311000D01*
G75*
G02*
X87951000Y-68086000I225000J0D01*
G01*
X88451000Y-68086000D01*
G75*
G02*
X88676000Y-68311000I0J-225000D01*
G01*
X88676000Y-68761000D01*
G75*
G02*
X88451000Y-68986000I-225000J0D01*
G01*
G37*
G36*
G01*
X52458000Y-32692000D02*
X52458000Y-32192000D01*
G75*
G02*
X52683000Y-31967000I225000J0D01*
G01*
X53133000Y-31967000D01*
G75*
G02*
X53358000Y-32192000I0J-225000D01*
G01*
X53358000Y-32692000D01*
G75*
G02*
X53133000Y-32917000I-225000J0D01*
G01*
X52683000Y-32917000D01*
G75*
G02*
X52458000Y-32692000I0J225000D01*
G01*
G37*
G36*
G01*
X50908000Y-32692000D02*
X50908000Y-32192000D01*
G75*
G02*
X51133000Y-31967000I225000J0D01*
G01*
X51583000Y-31967000D01*
G75*
G02*
X51808000Y-32192000I0J-225000D01*
G01*
X51808000Y-32692000D01*
G75*
G02*
X51583000Y-32917000I-225000J0D01*
G01*
X51133000Y-32917000D01*
G75*
G02*
X50908000Y-32692000I0J225000D01*
G01*
G37*
G36*
G01*
X64142000Y-33770000D02*
X64142000Y-33270000D01*
G75*
G02*
X64367000Y-33045000I225000J0D01*
G01*
X64817000Y-33045000D01*
G75*
G02*
X65042000Y-33270000I0J-225000D01*
G01*
X65042000Y-33770000D01*
G75*
G02*
X64817000Y-33995000I-225000J0D01*
G01*
X64367000Y-33995000D01*
G75*
G02*
X64142000Y-33770000I0J225000D01*
G01*
G37*
G36*
G01*
X62592000Y-33770000D02*
X62592000Y-33270000D01*
G75*
G02*
X62817000Y-33045000I225000J0D01*
G01*
X63267000Y-33045000D01*
G75*
G02*
X63492000Y-33270000I0J-225000D01*
G01*
X63492000Y-33770000D01*
G75*
G02*
X63267000Y-33995000I-225000J0D01*
G01*
X62817000Y-33995000D01*
G75*
G02*
X62592000Y-33770000I0J225000D01*
G01*
G37*
G36*
G01*
X36535000Y-85576000D02*
X36035000Y-85576000D01*
G75*
G02*
X35810000Y-85351000I0J225000D01*
G01*
X35810000Y-84901000D01*
G75*
G02*
X36035000Y-84676000I225000J0D01*
G01*
X36535000Y-84676000D01*
G75*
G02*
X36760000Y-84901000I0J-225000D01*
G01*
X36760000Y-85351000D01*
G75*
G02*
X36535000Y-85576000I-225000J0D01*
G01*
G37*
G36*
G01*
X36535000Y-87126000D02*
X36035000Y-87126000D01*
G75*
G02*
X35810000Y-86901000I0J225000D01*
G01*
X35810000Y-86451000D01*
G75*
G02*
X36035000Y-86226000I225000J0D01*
G01*
X36535000Y-86226000D01*
G75*
G02*
X36760000Y-86451000I0J-225000D01*
G01*
X36760000Y-86901000D01*
G75*
G02*
X36535000Y-87126000I-225000J0D01*
G01*
G37*
G36*
G01*
X29852000Y-34978000D02*
X29852000Y-34478000D01*
G75*
G02*
X30077000Y-34253000I225000J0D01*
G01*
X30527000Y-34253000D01*
G75*
G02*
X30752000Y-34478000I0J-225000D01*
G01*
X30752000Y-34978000D01*
G75*
G02*
X30527000Y-35203000I-225000J0D01*
G01*
X30077000Y-35203000D01*
G75*
G02*
X29852000Y-34978000I0J225000D01*
G01*
G37*
G36*
G01*
X28302000Y-34978000D02*
X28302000Y-34478000D01*
G75*
G02*
X28527000Y-34253000I225000J0D01*
G01*
X28977000Y-34253000D01*
G75*
G02*
X29202000Y-34478000I0J-225000D01*
G01*
X29202000Y-34978000D01*
G75*
G02*
X28977000Y-35203000I-225000J0D01*
G01*
X28527000Y-35203000D01*
G75*
G02*
X28302000Y-34978000I0J225000D01*
G01*
G37*
G36*
G01*
X29725000Y-42650000D02*
X29225000Y-42650000D01*
G75*
G02*
X29000000Y-42425000I0J225000D01*
G01*
X29000000Y-41975000D01*
G75*
G02*
X29225000Y-41750000I225000J0D01*
G01*
X29725000Y-41750000D01*
G75*
G02*
X29950000Y-41975000I0J-225000D01*
G01*
X29950000Y-42425000D01*
G75*
G02*
X29725000Y-42650000I-225000J0D01*
G01*
G37*
G36*
G01*
X29725000Y-44200000D02*
X29225000Y-44200000D01*
G75*
G02*
X29000000Y-43975000I0J225000D01*
G01*
X29000000Y-43525000D01*
G75*
G02*
X29225000Y-43300000I225000J0D01*
G01*
X29725000Y-43300000D01*
G75*
G02*
X29950000Y-43525000I0J-225000D01*
G01*
X29950000Y-43975000D01*
G75*
G02*
X29725000Y-44200000I-225000J0D01*
G01*
G37*
G36*
G01*
X25359000Y-62742000D02*
X24859000Y-62742000D01*
G75*
G02*
X24634000Y-62517000I0J225000D01*
G01*
X24634000Y-62067000D01*
G75*
G02*
X24859000Y-61842000I225000J0D01*
G01*
X25359000Y-61842000D01*
G75*
G02*
X25584000Y-62067000I0J-225000D01*
G01*
X25584000Y-62517000D01*
G75*
G02*
X25359000Y-62742000I-225000J0D01*
G01*
G37*
G36*
G01*
X25359000Y-64292000D02*
X24859000Y-64292000D01*
G75*
G02*
X24634000Y-64067000I0J225000D01*
G01*
X24634000Y-63617000D01*
G75*
G02*
X24859000Y-63392000I225000J0D01*
G01*
X25359000Y-63392000D01*
G75*
G02*
X25584000Y-63617000I0J-225000D01*
G01*
X25584000Y-64067000D01*
G75*
G02*
X25359000Y-64292000I-225000J0D01*
G01*
G37*
G36*
G01*
X34249000Y-85602000D02*
X33749000Y-85602000D01*
G75*
G02*
X33524000Y-85377000I0J225000D01*
G01*
X33524000Y-84927000D01*
G75*
G02*
X33749000Y-84702000I225000J0D01*
G01*
X34249000Y-84702000D01*
G75*
G02*
X34474000Y-84927000I0J-225000D01*
G01*
X34474000Y-85377000D01*
G75*
G02*
X34249000Y-85602000I-225000J0D01*
G01*
G37*
G36*
G01*
X34249000Y-87152000D02*
X33749000Y-87152000D01*
G75*
G02*
X33524000Y-86927000I0J225000D01*
G01*
X33524000Y-86477000D01*
G75*
G02*
X33749000Y-86252000I225000J0D01*
G01*
X34249000Y-86252000D01*
G75*
G02*
X34474000Y-86477000I0J-225000D01*
G01*
X34474000Y-86927000D01*
G75*
G02*
X34249000Y-87152000I-225000J0D01*
G01*
G37*
G36*
G01*
X36135000Y-38609000D02*
X36635000Y-38609000D01*
G75*
G02*
X36860000Y-38834000I0J-225000D01*
G01*
X36860000Y-39284000D01*
G75*
G02*
X36635000Y-39509000I-225000J0D01*
G01*
X36135000Y-39509000D01*
G75*
G02*
X35910000Y-39284000I0J225000D01*
G01*
X35910000Y-38834000D01*
G75*
G02*
X36135000Y-38609000I225000J0D01*
G01*
G37*
G36*
G01*
X36135000Y-37059000D02*
X36635000Y-37059000D01*
G75*
G02*
X36860000Y-37284000I0J-225000D01*
G01*
X36860000Y-37734000D01*
G75*
G02*
X36635000Y-37959000I-225000J0D01*
G01*
X36135000Y-37959000D01*
G75*
G02*
X35910000Y-37734000I0J225000D01*
G01*
X35910000Y-37284000D01*
G75*
G02*
X36135000Y-37059000I225000J0D01*
G01*
G37*
G36*
G01*
X39350000Y-84165000D02*
X39350000Y-83665000D01*
G75*
G02*
X39575000Y-83440000I225000J0D01*
G01*
X40025000Y-83440000D01*
G75*
G02*
X40250000Y-83665000I0J-225000D01*
G01*
X40250000Y-84165000D01*
G75*
G02*
X40025000Y-84390000I-225000J0D01*
G01*
X39575000Y-84390000D01*
G75*
G02*
X39350000Y-84165000I0J225000D01*
G01*
G37*
G36*
G01*
X37800000Y-84165000D02*
X37800000Y-83665000D01*
G75*
G02*
X38025000Y-83440000I225000J0D01*
G01*
X38475000Y-83440000D01*
G75*
G02*
X38700000Y-83665000I0J-225000D01*
G01*
X38700000Y-84165000D01*
G75*
G02*
X38475000Y-84390000I-225000J0D01*
G01*
X38025000Y-84390000D01*
G75*
G02*
X37800000Y-84165000I0J225000D01*
G01*
G37*
G36*
G01*
X42800000Y-63330000D02*
X42800000Y-63830000D01*
G75*
G02*
X42575000Y-64055000I-225000J0D01*
G01*
X42125000Y-64055000D01*
G75*
G02*
X41900000Y-63830000I0J225000D01*
G01*
X41900000Y-63330000D01*
G75*
G02*
X42125000Y-63105000I225000J0D01*
G01*
X42575000Y-63105000D01*
G75*
G02*
X42800000Y-63330000I0J-225000D01*
G01*
G37*
G36*
G01*
X44350000Y-63330000D02*
X44350000Y-63830000D01*
G75*
G02*
X44125000Y-64055000I-225000J0D01*
G01*
X43675000Y-64055000D01*
G75*
G02*
X43450000Y-63830000I0J225000D01*
G01*
X43450000Y-63330000D01*
G75*
G02*
X43675000Y-63105000I225000J0D01*
G01*
X44125000Y-63105000D01*
G75*
G02*
X44350000Y-63330000I0J-225000D01*
G01*
G37*
G36*
G01*
X31455000Y-71111000D02*
X30955000Y-71111000D01*
G75*
G02*
X30730000Y-70886000I0J225000D01*
G01*
X30730000Y-70436000D01*
G75*
G02*
X30955000Y-70211000I225000J0D01*
G01*
X31455000Y-70211000D01*
G75*
G02*
X31680000Y-70436000I0J-225000D01*
G01*
X31680000Y-70886000D01*
G75*
G02*
X31455000Y-71111000I-225000J0D01*
G01*
G37*
G36*
G01*
X31455000Y-72661000D02*
X30955000Y-72661000D01*
G75*
G02*
X30730000Y-72436000I0J225000D01*
G01*
X30730000Y-71986000D01*
G75*
G02*
X30955000Y-71761000I225000J0D01*
G01*
X31455000Y-71761000D01*
G75*
G02*
X31680000Y-71986000I0J-225000D01*
G01*
X31680000Y-72436000D01*
G75*
G02*
X31455000Y-72661000I-225000J0D01*
G01*
G37*
G36*
G01*
X44330000Y-34470000D02*
X44330000Y-33970000D01*
G75*
G02*
X44555000Y-33745000I225000J0D01*
G01*
X45005000Y-33745000D01*
G75*
G02*
X45230000Y-33970000I0J-225000D01*
G01*
X45230000Y-34470000D01*
G75*
G02*
X45005000Y-34695000I-225000J0D01*
G01*
X44555000Y-34695000D01*
G75*
G02*
X44330000Y-34470000I0J225000D01*
G01*
G37*
G36*
G01*
X42780000Y-34470000D02*
X42780000Y-33970000D01*
G75*
G02*
X43005000Y-33745000I225000J0D01*
G01*
X43455000Y-33745000D01*
G75*
G02*
X43680000Y-33970000I0J-225000D01*
G01*
X43680000Y-34470000D01*
G75*
G02*
X43455000Y-34695000I-225000J0D01*
G01*
X43005000Y-34695000D01*
G75*
G02*
X42780000Y-34470000I0J225000D01*
G01*
G37*
G36*
G01*
X52175000Y-65725000D02*
X52175000Y-65225000D01*
G75*
G02*
X52400000Y-65000000I225000J0D01*
G01*
X52850000Y-65000000D01*
G75*
G02*
X53075000Y-65225000I0J-225000D01*
G01*
X53075000Y-65725000D01*
G75*
G02*
X52850000Y-65950000I-225000J0D01*
G01*
X52400000Y-65950000D01*
G75*
G02*
X52175000Y-65725000I0J225000D01*
G01*
G37*
G36*
G01*
X50625000Y-65725000D02*
X50625000Y-65225000D01*
G75*
G02*
X50850000Y-65000000I225000J0D01*
G01*
X51300000Y-65000000D01*
G75*
G02*
X51525000Y-65225000I0J-225000D01*
G01*
X51525000Y-65725000D01*
G75*
G02*
X51300000Y-65950000I-225000J0D01*
G01*
X50850000Y-65950000D01*
G75*
G02*
X50625000Y-65725000I0J225000D01*
G01*
G37*
G36*
G01*
X28900000Y-45650000D02*
X28900000Y-46150000D01*
G75*
G02*
X28675000Y-46375000I-225000J0D01*
G01*
X28225000Y-46375000D01*
G75*
G02*
X28000000Y-46150000I0J225000D01*
G01*
X28000000Y-45650000D01*
G75*
G02*
X28225000Y-45425000I225000J0D01*
G01*
X28675000Y-45425000D01*
G75*
G02*
X28900000Y-45650000I0J-225000D01*
G01*
G37*
G36*
G01*
X30450000Y-45650000D02*
X30450000Y-46150000D01*
G75*
G02*
X30225000Y-46375000I-225000J0D01*
G01*
X29775000Y-46375000D01*
G75*
G02*
X29550000Y-46150000I0J225000D01*
G01*
X29550000Y-45650000D01*
G75*
G02*
X29775000Y-45425000I225000J0D01*
G01*
X30225000Y-45425000D01*
G75*
G02*
X30450000Y-45650000I0J-225000D01*
G01*
G37*
G36*
G01*
X84825000Y-64725002D02*
X84825000Y-63824998D01*
G75*
G02*
X85074998Y-63575000I249998J0D01*
G01*
X85600002Y-63575000D01*
G75*
G02*
X85850000Y-63824998I0J-249998D01*
G01*
X85850000Y-64725002D01*
G75*
G02*
X85600002Y-64975000I-249998J0D01*
G01*
X85074998Y-64975000D01*
G75*
G02*
X84825000Y-64725002I0J249998D01*
G01*
G37*
G36*
G01*
X83000000Y-64725002D02*
X83000000Y-63824998D01*
G75*
G02*
X83249998Y-63575000I249998J0D01*
G01*
X83775002Y-63575000D01*
G75*
G02*
X84025000Y-63824998I0J-249998D01*
G01*
X84025000Y-64725002D01*
G75*
G02*
X83775002Y-64975000I-249998J0D01*
G01*
X83249998Y-64975000D01*
G75*
G02*
X83000000Y-64725002I0J249998D01*
G01*
G37*
D36*
X49250061Y-59449934D03*
X49250061Y-58950062D03*
X49250061Y-58449936D03*
X49250061Y-57950064D03*
X49250061Y-57449938D03*
X49250061Y-56950066D03*
D37*
X46749939Y-55950068D03*
X46749939Y-60449932D03*
M02*
