M48
; DRILL file {KiCad (5.1.10)-1} date 06/26/23 12:33:02
; FORMAT={-:-/ absolute / inch / decimal}
; #@! TF.CreationDate,2023-06-26T12:33:02+08:00
; #@! TF.GenerationSoftware,Kicad,Pcbnew,(5.1.10)-1
; #@! TF.FileFunction,Plated,1,2,PTH
FMAT,2
INCH
T1C0.0118
T2C0.0157
T3C0.0315
%
G90
G05
T1
X2.6348Y-2.697
X2.6348Y-2.7364
X2.6348Y-2.7758
X2.6348Y-2.8152
X2.6348Y-2.8545
X2.6742Y-2.697
X2.6742Y-2.7364
X2.6742Y-2.7758
X2.6742Y-2.8152
X2.6742Y-2.8545
X2.7136Y-2.697
X2.7136Y-2.7364
X2.7136Y-2.7758
X2.7136Y-2.8152
X2.7136Y-2.8545
X2.753Y-2.697
X2.753Y-2.7364
X2.753Y-2.7758
X2.753Y-2.8152
X2.753Y-2.8545
X2.7923Y-2.697
X2.7923Y-2.7364
X2.7923Y-2.7758
X2.7923Y-2.8152
X2.7923Y-2.8545
T2
X0.95Y-1.87
X0.9625Y-1.6072
X0.9665Y-3.2382
X1.02Y-2.72
X1.06Y-1.61
X1.1025Y-1.5972
X1.1385Y-2.5124
X1.1485Y-3.3624
X1.1785Y-2.5624
X1.19Y-2.62
X1.2285Y-2.4224
X1.2285Y-3.2724
X1.23Y-1.72
X1.24Y-1.8
X1.2625Y-1.4472
X1.2756Y-2.378
X1.32Y-1.86
X1.4061Y-2.5952
X1.41Y-1.61
X1.41Y-2.66
X1.4125Y-1.7272
X1.42Y-1.85
X1.4309Y-2.7323
X1.4785Y-2.4524
X1.4966Y-1.8127
X1.5425Y-1.5172
X1.5551Y-1.8425
X1.563Y-1.7953
X1.59Y-2.59
X1.6385Y-2.5624
X1.6496Y-2.7677
X1.6585Y-3.1624
X1.6925Y-1.6572
X1.7185Y-2.4524
X1.7559Y-1.9567
X1.8228Y-3.1299
X1.8583Y-2.252
X1.8583Y-2.7638
X1.874Y-2.1535
X1.8799Y-2.3405
X1.8819Y-1.9724
X1.8898Y-1.8976
X1.89Y-2.29
X1.8937Y-2.4173
X1.9016Y-2.5512
X1.93Y-2.6181
X1.9325Y-1.6072
X1.9325Y-1.6572
X1.95Y-1.42
X1.96Y-1.49
X1.9971Y-2.3368
X2.0Y-2.2874
X2.0031Y-3.1072
X2.0354Y-2.4433
X2.05Y-2.52
X2.0927Y-2.7482
X2.0945Y-3.0148
X2.126Y-2.4882
X2.1339Y-2.9886
X2.1378Y-2.3465
X2.1525Y-1.4172
X2.186Y-2.314
X2.22Y-2.57
X2.2244Y-2.4173
X2.2315Y-2.5283
X2.2376Y-2.3169
X2.2525Y-2.8472
X2.4325Y-1.4872
X2.4331Y-2.8978
X2.4409Y-2.311
X2.4829Y-2.2969
X2.5112Y-2.2625
X2.5225Y-2.0772
X2.5325Y-1.6372
X2.549Y-2.2205
X2.5525Y-1.5972
X2.5784Y-2.1575
X2.6301Y-2.1307
X2.6425Y-2.6172
X2.6746Y-2.0764
X2.6811Y-1.3835
X2.7093Y-2.1165
X2.7159Y-1.8839
X2.7225Y-3.0672
X2.7452Y-1.2538
X2.7559Y-1.8228
X2.7915Y-1.3165
X2.8071Y-3.0
X2.815Y-3.0709
X2.8559Y-1.3102
X2.8706Y-2.9611
X2.9225Y-2.8472
X2.9225Y-2.8972
X2.927Y-2.0366
X2.9291Y-1.6496
X2.9325Y-1.8172
X2.9567Y-2.4174
X2.9606Y-1.2785
X3.101Y-1.4543
X3.1173Y-1.6193
X3.19Y-2.95
X3.1929Y-2.4291
X3.2Y-3.0
X3.2002Y-2.3513
X3.2125Y-2.5872
X3.2325Y-2.5004
X3.2804Y-2.0007
X3.2878Y-2.887
X3.3025Y-2.2872
X3.3238Y-1.5945
X3.3268Y-3.0709
X3.3343Y-2.7965
X3.3701Y-1.937
X3.3748Y-2.5827
X3.3894Y-1.4862
X3.44Y-2.1122
X3.4449Y-2.587
X3.4498Y-2.753
X3.4532Y-2.2299
X3.4557Y-1.7126
X3.4587Y-2.1811
X3.5394Y-2.5295
X3.5404Y-2.7431
X3.55Y-1.35
X3.6693Y-2.9528
X3.6843Y-2.6843
X3.7Y-1.5
X3.7Y-1.548
X3.75Y-1.6
X3.75Y-1.65
X3.7595Y-2.0095
X3.7766Y-1.8307
X3.7795Y-1.9528
X3.7874Y-1.9055
X3.8Y-1.7
X3.8Y-1.75
X3.8125Y-2.7172
X3.8159Y-2.8356
X3.852Y-1.4517
X3.878Y-1.6063
X3.9173Y-2.7628
X3.936Y-2.9409
X3.9498Y-1.8711
X4.0017Y-2.265
X4.0138Y-3.0719
X4.0198Y-3.1443
X4.0472Y-2.7874
X4.1056Y-2.5203
X4.1654Y-2.4111
X4.1732Y-2.5039
X4.185Y-1.9961
X4.2205Y-2.8583
X4.24Y-2.5
X4.2451Y-1.4862
X4.2638Y-3.1929
X4.2768Y-2.1996
X4.2972Y-2.5177
X4.347Y-2.6102
T3
G00X2.6311Y-0.9882
M15
G01X2.6311Y-0.9409
M16
G05
G00X2.6311Y-1.1378
M15
G01X2.6311Y-1.1063
M16
G05
G00X3.0736Y-0.9882
M15
G01X3.0736Y-0.9409
M16
G05
G00X3.0736Y-1.1378
M15
G01X3.0736Y-1.1063
M16
G05
T0
M30
